  0
SECTION
  2
HEADER
  9
$ACADVER
  1
AC1014
  9
$ACADMAINTVER
 70
     9
  9
$DWGCODEPAGE
  3
ANSI_1252
  9
$INSBASE
 10
0.0
 20
0.0
 30
0.0
  9
$EXTMIN
 10
1.000000000000000E+20
 20
1.000000000000000E+20
 30
1.000000000000000E+20
  9
$EXTMAX
 10
-1.000000000000000E+20
 20
-1.000000000000000E+20
 30
-1.000000000000000E+20
  9
$LIMMIN
 10
0.0
 20
0.0
  9
$LIMMAX
 10
12.0
 20
9.0
  9
$ORTHOMODE
 70
     0
  9
$REGENMODE
 70
     1
  9
$FILLMODE
 70
     1
  9
$QTEXTMODE
 70
     0
  9
$MIRRTEXT
 70
     1
  9
$DRAGMODE
 70
     2
  9
$LTSCALE
 40
1.0
  9
$OSMODE
 70
    37
  9
$ATTMODE
 70
     1
  9
$TEXTSIZE
 40
0.2
  9
$TRACEWID
 40
0.05
  9
$TEXTSTYLE
  7
STANDARD
  9
$CLAYER
  8
0
  9
$CELTYPE
  6
BYLAYER
  9
$CECOLOR
 62
   256
  9
$CELTSCALE
 40
1.0
  9
$DELOBJ
 70
     1
  9
$DISPSILH
 70
     0
  9
$DIMSCALE
 40
1.0
  9
$DIMASZ
 40
0.18
  9
$DIMEXO
 40
0.0625
  9
$DIMDLI
 40
0.38
  9
$DIMRND
 40
0.0
  9
$DIMDLE
 40
0.0
  9
$DIMEXE
 40
0.18
  9
$DIMTP
 40
0.0
  9
$DIMTM
 40
0.0
  9
$DIMTXT
 40
0.18
  9
$DIMCEN
 40
0.09
  9
$DIMTSZ
 40
0.0
  9
$DIMTOL
 70
     0
  9
$DIMLIM
 70
     0
  9
$DIMTIH
 70
     1
  9
$DIMTOH
 70
     1
  9
$DIMSE1
 70
     0
  9
$DIMSE2
 70
     0
  9
$DIMTAD
 70
     0
  9
$DIMZIN
 70
     0
  9
$DIMBLK
  1

  9
$DIMASO
 70
     1
  9
$DIMSHO
 70
     1
  9
$DIMPOST
  1

  9
$DIMAPOST
  1

  9
$DIMALT
 70
     0
  9
$DIMALTD
 70
     2
  9
$DIMALTF
 40
25.4
  9
$DIMLFAC
 40
1.0
  9
$DIMTOFL
 70
     0
  9
$DIMTVP
 40
0.0
  9
$DIMTIX
 70
     0
  9
$DIMSOXD
 70
     0
  9
$DIMSAH
 70
     0
  9
$DIMBLK1
  1

  9
$DIMBLK2
  1

  9
$DIMSTYLE
  2
STANDARD
  9
$DIMCLRD
 70
     0
  9
$DIMCLRE
 70
     0
  9
$DIMCLRT
 70
     0
  9
$DIMTFAC
 40
1.0
  9
$DIMGAP
 40
0.09
  9
$DIMJUST
 70
     0
  9
$DIMSD1
 70
     0
  9
$DIMSD2
 70
     0
  9
$DIMTOLJ
 70
     1
  9
$DIMTZIN
 70
     0
  9
$DIMALTZ
 70
     0
  9
$DIMALTTZ
 70
     0
  9
$DIMFIT
 70
     3
  9
$DIMUPT
 70
     0
  9
$DIMUNIT
 70
     2
  9
$DIMDEC
 70
     4
  9
$DIMTDEC
 70
     4
  9
$DIMALTU
 70
     2
  9
$DIMALTTD
 70
     2
  9
$DIMTXSTY
  7
STANDARD
  9
$DIMAUNIT
 70
     0
  9
$LUNITS
 70
     2
  9
$LUPREC
 70
     4
  9
$SKETCHINC
 40
0.1
  9
$FILLETRAD
 40
0.5
  9
$AUNITS
 70
     0
  9
$AUPREC
 70
     0
  9
$MENU
  1
.
  9
$ELEVATION
 40
0.0
  9
$PELEVATION
 40
0.0
  9
$THICKNESS
 40
0.0
  9
$LIMCHECK
 70
     0
  9
$CHAMFERA
 40
0.0
  9
$CHAMFERB
 40
0.0
  9
$CHAMFERC
 40
0.0
  9
$CHAMFERD
 40
0.0
  9
$SKPOLY
 70
     0
  9
$TDCREATE
 40
2456972.674138345
  9
$TDUPDATE
 40
2456972.674138669
  9
$TDINDWG
 40
0.0000000116
  9
$TDUSRTIMER
 40
0.0000000116
  9
$USRTIMER
 70
     1
  9
$ANGBASE
 50
0.0
  9
$ANGDIR
 70
     0
  9
$PDMODE
 70
     0
  9
$PDSIZE
 40
0.0
  9
$PLINEWID
 40
0.0
  9
$COORDS
 70
     1
  9
$SPLFRAME
 70
     0
  9
$SPLINETYPE
 70
     6
  9
$SPLINESEGS
 70
     8
  9
$ATTDIA
 70
     0
  9
$ATTREQ
 70
     1
  9
$HANDLING
 70
     1
  9
$HANDSEED
  5
2A1
  9
$SURFTAB1
 70
     6
  9
$SURFTAB2
 70
     6
  9
$SURFTYPE
 70
     6
  9
$SURFU
 70
     6
  9
$SURFV
 70
     6
  9
$UCSNAME
  2

  9
$UCSORG
 10
0.0
 20
0.0
 30
0.0
  9
$UCSXDIR
 10
1.0
 20
0.0
 30
0.0
  9
$UCSYDIR
 10
0.0
 20
1.0
 30
0.0
  9
$PUCSNAME
  2

  9
$PUCSORG
 10
0.0
 20
0.0
 30
0.0
  9
$PUCSXDIR
 10
1.0
 20
0.0
 30
0.0
  9
$PUCSYDIR
 10
0.0
 20
1.0
 30
0.0
  9
$USERI1
 70
     0
  9
$USERI2
 70
     0
  9
$USERI3
 70
     0
  9
$USERI4
 70
     0
  9
$USERI5
 70
     0
  9
$USERR1
 40
0.0
  9
$USERR2
 40
0.0
  9
$USERR3
 40
0.0
  9
$USERR4
 40
0.0
  9
$USERR5
 40
0.0
  9
$WORLDVIEW
 70
     1
  9
$SHADEDGE
 70
     3
  9
$SHADEDIF
 70
    70
  9
$TILEMODE
 70
     1
  9
$MAXACTVP
 70
    64
  9
$PINSBASE
 10
0.0
 20
0.0
 30
0.0
  9
$PLIMCHECK
 70
     0
  9
$PEXTMIN
 10
1.000000000000000E+20
 20
1.000000000000000E+20
 30
1.000000000000000E+20
  9
$PEXTMAX
 10
-1.000000000000000E+20
 20
-1.000000000000000E+20
 30
-1.000000000000000E+20
  9
$PLIMMIN
 10
0.0
 20
0.0
  9
$PLIMMAX
 10
12.0
 20
9.0
  9
$UNITMODE
 70
     0
  9
$VISRETAIN
 70
     1
  9
$PLINEGEN
 70
     0
  9
$PSLTSCALE
 70
     1
  9
$TREEDEPTH
 70
  3020
  9
$PICKSTYLE
 70
     1
  9
$CMLSTYLE
  2
STANDARD
  9
$CMLJUST
 70
     0
  9
$CMLSCALE
 40
1.0
  9
$PROXYGRAPHICS
 70
     1
  9
$MEASUREMENT
 70
     1
  0
ENDSEC
  0
SECTION
  2
CLASSES
  0
CLASS
  1
ACDBDICTIONARYWDFLT
  2
AcDbDictionaryWithDefault
  3
ObjectDBX Classes
 90
        0
280
     0
281
     0
  0
CLASS
  1
VISUALSTYLE
  2
AcDbVisualStyle
  3
ObjectDBX Classes
 90
     4095
280
     0
281
     0
  0
CLASS
  1
MATERIAL
  2
AcDbMaterial
  3
ObjectDBX Classes
 90
     1153
280
     0
281
     0
  0
CLASS
  1
SCALE
  2
AcDbScale
  3
ObjectDBX Classes
 90
     1153
280
     0
281
     0
  0
CLASS
  1
SUN
  2
AcDbSun
  3
SCENEOE
 90
     1153
280
     0
281
     0
  0
CLASS
  1
DICTIONARYVAR
  2
AcDbDictionaryVar
  3
ObjectDBX Classes
 90
        0
280
     0
281
     0
  0
CLASS
  1
XRECORD
  2
AcDbXrecord
  3
ObjectDBX Classes
 90
        0
280
     0
281
     0
  0
CLASS
  1
LWPOLYLINE
  2
AcDbPolyline
  3
ObjectDBX Classes
 90
        0
280
     0
281
     1
  0
CLASS
  1
HATCH
  2
AcDbHatch
  3
ObjectDBX Classes
 90
        0
280
     0
281
     1
  0
CLASS
  1
ACDBPLACEHOLDER
  2
AcDbPlaceHolder
  3
ObjectDBX Classes
 90
        0
280
     0
281
     0
  0
CLASS
  1
LAYOUT
  2
AcDbLayout
  3
ObjectDBX Classes
 90
        0
280
     0
281
     0
  0
ENDSEC
  0
SECTION
  2
TABLES
  0
TABLE
  2
VPORT
  5
8
102
{ACAD_XDICTIONARY
360
297
102
}
330
0
100
AcDbSymbolTable
 70
     1
  0
VPORT
  5
29
330
8
100
AcDbSymbolTableRecord
100
AcDbViewportTableRecord
  2
*ACTIVE
 70
     0
 10
0.0
 20
0.0
 11
1.0
 21
1.0
 12
0.0
 22
0.0
 13
0.0
 23
0.0
 14
0.5
 24
0.5
 15
0.5
 25
0.5
 16
0.0
 26
0.0
 36
1.0
 17
0.0
 27
0.0
 37
-1000.0
 40
59.54919072982291
 41
2.028602860286028
 42
50.0
 43
323.6622312577315
 44
423.5271715372274
 50
0.0
 51
0.0
 71
     0
 72
   100
 73
     1
 74
     3
 75
     0
 76
     0
 77
     0
 78
     0
  0
ENDTAB
  0
TABLE
  2
LTYPE
  5
5
330
0
100
AcDbSymbolTable
 70
     1
  0
LTYPE
  5
14
330
5
100
AcDbSymbolTableRecord
100
AcDbLinetypeTableRecord
  2
BYBLOCK
 70
     0
  3

 72
    65
 73
     0
 40
0.0
  0
LTYPE
  5
15
330
5
100
AcDbSymbolTableRecord
100
AcDbLinetypeTableRecord
  2
BYLAYER
 70
     0
  3

 72
    65
 73
     0
 40
0.0
  0
LTYPE
  5
16
330
5
100
AcDbSymbolTableRecord
100
AcDbLinetypeTableRecord
  2
CONTINUOUS
 70
     0
  3
Solid line
 72
    65
 73
     0
 40
0.0
  0
ENDTAB
  0
TABLE
  2
LAYER
  5
2
330
0
100
AcDbSymbolTable
 70
     3
  0
LAYER
  5
10
330
2
100
AcDbSymbolTableRecord
100
AcDbLayerTableRecord
  2
0
 70
     0
 62
     7
  6
CONTINUOUS
  0
LAYER
  5
6A
330
2
100
AcDbSymbolTableRecord
100
AcDbLayerTableRecord
  2
PROFILEEDGES
 70
     0
 62
     7
  6
CONTINUOUS
  0
LAYER
  5
6B
330
2
100
AcDbSymbolTableRecord
100
AcDbLayerTableRecord
  2
SECTIONCUTEDGES
 70
     0
 62
     7
  6
CONTINUOUS
  0
ENDTAB
  0
TABLE
  2
STYLE
  5
3
330
0
100
AcDbSymbolTable
 70
     1
  0
STYLE
  5
11
330
3
100
AcDbSymbolTableRecord
100
AcDbTextStyleTableRecord
  2
STANDARD
 70
     0
 40
0.0
 41
1.0
 50
0.0
 71
     0
 42
0.2
  3
txt
  4

  0
ENDTAB
  0
TABLE
  2
VIEW
  5
6
330
0
100
AcDbSymbolTable
 70
     0
  0
ENDTAB
  0
TABLE
  2
UCS
  5
7
330
0
100
AcDbSymbolTable
 70
     0
  0
ENDTAB
  0
TABLE
  2
APPID
  5
9
330
0
100
AcDbSymbolTable
 70
     1
  0
APPID
  5
12
330
9
100
AcDbSymbolTableRecord
100
AcDbRegAppTableRecord
  2
ACAD
 70
     0
  0
ENDTAB
  0
TABLE
  2
DIMSTYLE
  5
A
330
0
100
AcDbSymbolTable
 70
     1
  0
DIMSTYLE
105
27
330
A
100
AcDbSymbolTableRecord
100
AcDbDimStyleTableRecord
  2
STANDARD
 70
     0
  3

  4

  5

  6

  7

 40
1.0
 41
0.18
 42
0.0625
 43
0.38
 44
0.18
 45
0.0
 46
0.0
 47
0.0
 48
0.0
140
0.18
141
0.09
142
0.0
143
25.4
144
1.0
145
0.0
146
1.0
147
0.09
 71
     0
 72
     0
 73
     1
 74
     1
 75
     0
 76
     0
 77
     0
 78
     0
170
     0
171
     2
172
     0
173
     0
174
     0
175
     0
176
     0
177
     0
178
     0
270
     2
271
     4
272
     4
273
     2
274
     2
340
11
275
     0
280
     0
281
     0
282
     0
283
     1
284
     0
285
     0
286
     0
287
     3
288
     0
  0
ENDTAB
  0
TABLE
  2
BLOCK_RECORD
  5
1
330
0
100
AcDbSymbolTable
 70
     1
  0
BLOCK_RECORD
  5
1F
330
1
100
AcDbSymbolTableRecord
100
AcDbBlockTableRecord
  2
*MODEL_SPACE
  0
BLOCK_RECORD
  5
1B
330
1
100
AcDbSymbolTableRecord
100
AcDbBlockTableRecord
  2
*PAPER_SPACE
  0
ENDTAB
  0
ENDSEC
  0
SECTION
  2
BLOCKS
  0
BLOCK
  5
20
330
1F
100
AcDbEntity
  8
0
100
AcDbBlockBegin
  2
*MODEL_SPACE
 70
     0
 10
0.0
 20
0.0
 30
0.0
  3
*MODEL_SPACE
  1

  0
ENDBLK
  5
21
330
1F
100
AcDbEntity
  8
0
100
AcDbBlockEnd
  0
BLOCK
  5
1C
330
1B
100
AcDbEntity
 67
     1
  8
0
100
AcDbBlockBegin
  2
*PAPER_SPACE
 70
     0
 10
0.0
 20
0.0
 30
0.0
  3
*PAPER_SPACE
  1

  0
ENDBLK
  5
1D
330
1B
100
AcDbEntity
 67
     1
  8
0
100
AcDbBlockEnd
  0
ENDSEC
  0
SECTION
  2
ENTITIES
  0
LINE
  5
6C
330
1F
100
AcDbEntity
  8
0
100
AcDbLine
 10
57.21726616176662
 20
7.510746675358614
 30
0.0
 11
57.23097514202136
 21
7.489238975820118
 31
0.0
  0
LINE
  5
6D
330
1F
100
AcDbEntity
  8
0
100
AcDbLine
 10
57.32066037942478
 20
7.304437940024092
 30
0.0
 11
57.32917137489288
 21
7.280070428650742
 31
0.0
  0
LINE
  5
6E
330
1F
100
AcDbEntity
  8
0
100
AcDbLine
 10
57.25681920224754
 20
7.445040074346434
 30
0.0
 11
57.26892124793935
 21
7.422387368085992
 31
0.0
  0
LINE
  5
6F
330
1F
100
AcDbEntity
  8
0
100
AcDbLine
 10
57.33704811742279
 20
7.255499592962119
 30
0.0
 11
57.34428369557669
 21
7.23075025876175
 31
0.0
  0
LINE
  5
70
330
1F
100
AcDbEntity
  8
0
100
AcDbLine
 10
56.82388721369382
 20
7.859079362625256
 30
0.0
 11
56.84685559480221
 21
7.847360297601298
 31
0.0
  0
LINE
  5
71
330
1F
100
AcDbEntity
  8
0
100
AcDbLine
 10
50.20008564040816
 20
-5.075373493040099
 30
0.0
 11
50.72839348255757
 21
-4.605383329157393
 31
0.0
  0
LINE
  5
72
330
1F
100
AcDbEntity
  8
0
100
AcDbLine
 10
57.28045619308117
 20
7.399392991293023
 30
0.0
 11
57.2914099791009
 21
7.37607835768274
 31
0.0
  0
LINE
  5
73
330
1F
100
AcDbEntity
  8
0
100
AcDbLine
 10
57.26892124793935
 20
7.422387368085992
 30
0.0
 11
57.28045619308117
 21
7.399392991293023
 31
0.0
  0
LINE
  5
74
330
1F
100
AcDbEntity
  8
0
100
AcDbLine
 10
57.24416514610101
 20
7.467330515348418
 30
0.0
 11
57.25681920224754
 21
7.445040074346434
 31
0.0
  0
LINE
  5
75
330
1F
100
AcDbEntity
  8
0
100
AcDbLine
 10
57.30176963348233
 20
7.352465634799938
 30
0.0
 11
57.31152331930759
 21
7.328577674571751
 31
0.0
  0
LINE
  5
76
330
1F
100
AcDbEntity
  8
0
100
AcDbLine
 10
57.37069354254111
 20
7.105210560848464
 30
0.0
 11
57.37401016520466
 21
7.079921880823658
 31
0.0
  0
LINE
  5
77
330
1F
100
AcDbEntity
  8
0
100
AcDbLine
 10
57.35681020942557
 20
7.180816762871625
 30
0.0
 11
57.36209385183438
 21
7.155683363511995
 31
0.0
  0
LINE
  5
78
330
1F
100
AcDbEntity
  8
0
100
AcDbLine
 10
57.38078785506256
 20
6.978999763355518
 30
0.0
 11
57.38070123721628
 21
6.941465414697454
 31
0.0
  0
LINE
  5
79
330
1F
100
AcDbEntity
  8
0
100
AcDbLine
 10
57.15760791523009
 20
7.59242962104469
 30
0.0
 11
57.1808419795586
 21
7.562648355134055
 31
0.0
  0
LINE
  5
7A
330
1F
100
AcDbEntity
  8
0
100
AcDbLine
 10
57.36209385183438
 20
7.155683363511995
 30
0.0
 11
57.36672175004553
 21
7.13047282028424
 31
0.0
  0
LINE
  5
7B
330
1F
100
AcDbEntity
  8
0
100
AcDbLine
 10
57.31152331930759
 20
7.328577674571751
 30
0.0
 11
57.32066037942478
 21
7.304437940024092
 31
0.0
  0
LINE
  5
7C
330
1F
100
AcDbEntity
  8
0
100
AcDbLine
 10
57.36672175004553
 20
7.13047282028424
 30
0.0
 11
57.37069354254111
 21
7.105210560848464
 31
0.0
  0
LINE
  5
7D
330
1F
100
AcDbEntity
  8
0
100
AcDbLine
 10
57.35087249455045
 20
7.205847541725796
 30
0.0
 11
57.35681020942557
 21
7.180816762871625
 31
0.0
  0
LINE
  5
7E
330
1F
100
AcDbEntity
  8
0
100
AcDbLine
 10
57.32917137489288
 20
7.280070428650742
 30
0.0
 11
57.33704811742279
 21
7.255499592962119
 31
0.0
  0
LINE
  5
7F
330
1F
100
AcDbEntity
  8
0
100
AcDbLine
 10
51.08494371169967
 20
1.540583295206113
 30
0.0
 11
51.08474658273121
 21
1.59068632677514
 31
0.0
  0
LINE
  5
80
330
1F
100
AcDbEntity
  8
0
100
AcDbLine
 10
50.1417679033929
 20
-6.073671565110433
 30
0.0
 11
50.67007574554204
 21
-5.603681401227568
 31
0.0
  0
LINE
  5
81
330
1F
100
AcDbEntity
  8
0
100
AcDbLine
 10
57.20305601954041
 20
7.531835818484337
 30
0.0
 11
57.21726616176662
 21
7.510746675358614
 31
0.0
  0
LINE
  5
82
330
1F
100
AcDbEntity
  8
0
100
AcDbLine
 10
51.01848935726437
 20
2.069319788767865
 30
0.0
 11
51.01173826375936
 21
2.094187317588213
 31
0.0
  0
LINE
  5
83
330
1F
100
AcDbEntity
  8
0
100
AcDbLine
 10
50.66541597568727
 20
-8.998904252595246
 30
0.0
 11
50.61175800852669
 21
-6.601979473297789
 31
0.0
  0
LINE
  5
84
330
1F
100
AcDbEntity
  8
0
100
AcDbLine
 10
57.13342240764649
 20
7.621133208077018
 30
0.0
 11
57.15760791523009
 21
7.59242962104469
 31
0.0
  0
LINE
  5
85
330
1F
100
AcDbEntity
  8
0
100
AcDbLine
 10
50.2584033774237
 20
-4.0770754209699
 30
0.0
 11
50.78671121957238
 21
-3.607085257087194
 31
0.0
  0
LINE
  5
86
330
1F
100
AcDbEntity
  8
0
100
AcDbLine
 10
50.61175800852669
 20
-6.601979473297789
 30
0.0
 11
50.1417679033929
 21
-6.073671565110433
 31
0.0
  0
LINE
  5
87
330
1F
100
AcDbEntity
  8
0
100
AcDbLine
 10
51.06075013506578
 20
1.868379940182396
 30
0.0
 11
51.05661437269704
 21
1.893632440632582
 31
0.0
  0
LINE
  5
88
330
1F
100
AcDbEntity
  8
0
100
AcDbLine
 10
57.38070123721628
 20
6.941465414697454
 30
0.0
 11
57.37922140051334
 21
6.904222127911962
 31
0.0
  0
LINE
  5
89
330
1F
100
AcDbEntity
  8
0
100
AcDbLine
 10
57.2914099791009
 20
7.37607835768274
 30
0.0
 11
57.30176963348233
 21
7.352465634799938
 31
0.0
  0
LINE
  5
8A
330
1F
100
AcDbEntity
  8
0
100
AcDbLine
 10
57.37922140051334
 20
6.904222127911962
 30
0.0
 11
55.98469970541602
 21
-16.96756012778286
 31
0.0
  0
LINE
  5
8B
330
1F
100
AcDbEntity
  8
0
100
AcDbLine
 10
57.37667383231293
 20
7.054631862513641
 30
0.0
 11
57.37945296218838
 21
7.016748455253225
 31
0.0
  0
LINE
  5
8C
330
1F
100
AcDbEntity
  8
0
100
AcDbLine
 10
57.1808419795586
 20
7.562648355134055
 30
0.0
 11
57.20305601954041
 21
7.531835818484337
 31
0.0
  0
LINE
  5
8D
330
1F
100
AcDbEntity
  8
0
100
AcDbLine
 10
51.07651853723221
 20
1.741950525091568
 30
0.0
 11
51.07401773364032
 21
1.767237763703771
 31
0.0
  0
LINE
  5
8E
330
1F
100
AcDbEntity
  8
0
100
AcDbLine
 10
57.34428369557669
 20
7.23075025876175
 30
0.0
 11
57.35087249455045
 21
7.205847541725796
 31
0.0
  0
LINE
  5
8F
330
1F
100
AcDbEntity
  8
0
100
AcDbLine
 10
51.04735857627439
 20
1.944053527088072
 30
0.0
 11
51.04223872257876
 21
1.969209396665185
 31
0.0
  0
LINE
  5
90
330
1F
100
AcDbEntity
  8
0
100
AcDbLine
 10
51.01173826375936
 20
2.094187317588213
 30
0.0
 11
51.00466373970465
 21
2.118978148571533
 31
0.0
  0
LINE
  5
91
330
1F
100
AcDbEntity
  8
0
100
AcDbLine
 10
57.37401016520466
 20
7.079921880823658
 30
0.0
 11
57.37667383231293
 21
7.054631862513641
 31
0.0
  0
LINE
  5
92
330
1F
100
AcDbEntity
  8
0
100
AcDbLine
 10
57.10835643286673
 20
7.648718513568705
 30
0.0
 11
57.13342240764649
 21
7.621133208077018
 31
0.0
  0
LINE
  5
93
330
1F
100
AcDbEntity
  8
0
100
AcDbLine
 10
51.03679129145722
 20
1.994320325807871
 30
0.0
 11
51.03101678293232
 21
2.019379943595944
 31
0.0
  0
LINE
  5
94
330
1F
100
AcDbEntity
  8
0
100
AcDbLine
 10
50.49167432548457
 20
-0.0838831326889709
 30
0.0
 11
51.01998216763397
 21
0.3861070311932622
 31
0.0
  0
LINE
  5
95
330
1F
100
AcDbEntity
  8
0
100
AcDbLine
 10
50.37503885145413
 20
-2.080479276829368
 30
0.0
 11
50.90334669360353
 21
-1.610489112946909
 31
0.0
  0
LINE
  5
96
330
1F
100
AcDbEntity
  8
0
100
AcDbLine
 10
51.08474658273121
 20
1.59068632677514
 30
0.0
 11
51.08328565941154
 21
1.640980005633672
 31
0.0
  0
LINE
  5
97
330
1F
100
AcDbEntity
  8
0
100
AcDbLine
 10
50.8450289565881
 20
-2.608787185017063
 30
0.0
 11
50.37503885145413
 21
-2.080479276829368
 31
0.0
  0
LINE
  5
98
330
1F
100
AcDbEntity
  8
0
100
AcDbLine
 10
51.07401773364032
 20
1.767237763703771
 30
0.0
 11
51.07119120301531
 21
1.792530561711555
 31
0.0
  0
LINE
  5
99
330
1F
100
AcDbEntity
  8
0
100
AcDbLine
 10
57.37945296218838
 20
7.016748455253225
 30
0.0
 11
57.38078785506256
 21
6.978999763355518
 31
0.0
  0
LINE
  5
9A
330
1F
100
AcDbEntity
  8
0
100
AcDbLine
 10
57.23097514202136
 20
7.489238975820118
 30
0.0
 11
57.24416514610101
 21
7.467330515348418
 31
0.0
  0
LINE
  5
9B
330
1F
100
AcDbEntity
  8
0
100
AcDbLine
 10
50.72839348255757
 20
-4.605383329157393
 30
0.0
 11
50.2584033774237
 21
-4.0770754209699
 31
0.0
  0
LINE
  5
9C
330
1F
100
AcDbEntity
  8
0
100
AcDbLine
 10
50.67007574554204
 20
-5.603681401227568
 30
0.0
 11
50.20008564040816
 21
-5.075373493040099
 31
0.0
  0
LINE
  5
9D
330
1F
100
AcDbEntity
  8
0
100
AcDbLine
 10
51.08161367363276
 20
1.441131055887688
 30
0.0
 11
51.08389329280437
 21
1.4907166995742
 31
0.0
  0
LINE
  5
9E
330
1F
100
AcDbEntity
  8
0
100
AcDbLine
 10
50.31672111443887
 20
-3.07877734889977
 30
0.0
 11
50.8450289565881
 21
-2.608787185017063
 31
0.0
  0
LINE
  5
9F
330
1F
100
AcDbEntity
  8
0
100
AcDbLine
 10
51.03101678293232
 20
2.019379943595944
 30
0.0
 11
51.02491586170698
 21
2.044381883515832
 31
0.0
  0
LINE
  5
A0
330
1F
100
AcDbEntity
  8
0
100
AcDbLine
 10
50.43335658846976
 20
-1.082181204759147
 30
0.0
 11
50.96166443061862
 21
-0.6121910408768236
 31
0.0
  0
LINE
  5
A1
330
1F
100
AcDbEntity
  8
0
100
AcDbLine
 10
50.63838670306545
 20
2.81754604215452
 30
0.0
 11
50.60634211470234
 21
2.856062230077942
 31
0.0
  0
LINE
  5
A2
330
1F
100
AcDbEntity
  8
0
100
AcDbLine
 10
50.79844306732941
 20
2.589354178965134
 30
0.0
 11
50.78512115664827
 21
2.611164751705287
 31
0.0
  0
LINE
  5
A3
330
1F
100
AcDbEntity
  8
0
100
AcDbLine
 10
50.9895498524653
 20
2.16830456508744
 30
0.0
 11
50.98151362239166
 21
2.192827657365949
 31
0.0
  0
LINE
  5
A4
330
1F
100
AcDbEntity
  8
0
100
AcDbLine
 10
51.06455795768812
 20
1.84310792176155
 30
0.0
 11
51.06075013506578
 21
1.868379940182396
 31
0.0
  0
LINE
  5
A5
330
1F
100
AcDbEntity
  8
0
100
AcDbLine
 10
51.01998216763397
 20
0.3861070311932622
 30
0.0
 11
50.54999206250037
 21
0.9144149393812051
 31
0.0
  0
LINE
  5
A6
330
1F
100
AcDbEntity
  8
0
100
AcDbLine
 10
51.04223872257876
 20
1.969209396665185
 30
0.0
 11
51.03679129145722
 21
1.994320325807871
 31
0.0
  0
LINE
  5
A7
330
1F
100
AcDbEntity
  8
0
100
AcDbLine
 10
51.06803815542131
 20
1.817822699721252
 30
0.0
 11
51.06455795768812
 21
1.84310792176155
 31
0.0
  0
LINE
  5
A8
330
1F
100
AcDbEntity
  8
0
100
AcDbLine
 10
51.07829990464977
 20
1.384405103263709
 30
0.0
 11
51.08161367363276
 21
1.441131055887688
 31
0.0
  0
LINE
  5
A9
330
1F
100
AcDbEntity
  8
0
100
AcDbLine
 10
50.94621751122126
 20
2.289842149208305
 30
0.0
 11
50.93661670593875
 21
2.313796012774018
 31
0.0
  0
LINE
  5
AA
330
1F
100
AcDbEntity
  8
0
100
AcDbLine
 10
51.02491586170698
 20
2.044381883515832
 30
0.0
 11
51.01848935726437
 21
2.069319788767865
 31
0.0
  0
LINE
  5
AB
330
1F
100
AcDbEntity
  8
0
100
AcDbLine
 10
50.54999206250037
 20
0.9144149393812051
 30
0.0
 11
51.07829990464977
 21
1.384405103263709
 31
0.0
  0
LINE
  5
AC
330
1F
100
AcDbEntity
  8
0
100
AcDbLine
 10
51.08328565941154
 20
1.640980005633672
 30
0.0
 11
51.08054689572567
 21
1.69141739197787
 31
0.0
  0
LINE
  5
AD
330
1F
100
AcDbEntity
  8
0
100
AcDbLine
 10
50.9267101395702
 20
2.337618069664454
 30
0.0
 11
50.91650055203412
 21
2.361302488772277
 31
0.0
  0
LINE
  5
AE
330
1F
100
AcDbEntity
  8
0
100
AcDbLine
 10
50.98151362239166
 20
2.192827657365949
 30
0.0
 11
50.97316022592238
 21
2.217249075814607
 31
0.0
  0
LINE
  5
AF
330
1F
100
AcDbEntity
  8
0
100
AcDbLine
 10
50.78671121957238
 20
-3.607085257087194
 30
0.0
 11
50.31672111443887
 21
-3.07877734889977
 31
0.0
  0
LINE
  5
B0
330
1F
100
AcDbEntity
  8
0
100
AcDbLine
 10
50.96166443061862
 20
-0.6121910408768236
 30
0.0
 11
50.49167432548457
 21
-0.0838831326889709
 31
0.0
  0
LINE
  5
B1
330
1F
100
AcDbEntity
  8
0
100
AcDbLine
 10
50.91650055203412
 20
2.361302488772277
 30
0.0
 11
50.90599083080806
 21
2.384843515430147
 31
0.0
  0
LINE
  5
B2
330
1F
100
AcDbEntity
  8
0
100
AcDbLine
 10
51.07119120301531
 20
1.792530561711555
 30
0.0
 11
51.06803815542131
 21
1.817822699721252
 31
0.0
  0
LINE
  5
B3
330
1F
100
AcDbEntity
  8
0
100
AcDbLine
 10
51.05661437269704
 20
1.893632440632582
 30
0.0
 11
51.05215051690258
 21
1.918859087112333
 31
0.0
  0
LINE
  5
B4
330
1F
100
AcDbEntity
  8
0
100
AcDbLine
 10
50.90334669360353
 20
-1.610489112946909
 30
0.0
 11
50.43335658846976
 21
-1.082181204759147
 31
0.0
  0
LINE
  5
B5
330
1F
100
AcDbEntity
  8
0
100
AcDbLine
 10
51.08054689572567
 20
1.69141739197787
 30
0.0
 11
51.07651853723221
 21
1.741950525091568
 31
0.0
  0
LINE
  5
B6
330
1F
100
AcDbEntity
  8
0
100
AcDbLine
 10
51.08389329280437
 20
1.4907166995742
 30
0.0
 11
51.08494371169967
 21
1.540583295206113
 31
0.0
  0
LINE
  5
B7
330
1F
100
AcDbEntity
  8
0
100
AcDbLine
 10
51.05215051690258
 20
1.918859087112333
 30
0.0
 11
51.04735857627439
 21
1.944053527088072
 31
0.0
  0
LINE
  5
B8
330
1F
100
AcDbEntity
  8
0
100
AcDbLine
 10
50.95550996555699
 20
2.265762381769546
 30
0.0
 11
50.94621751122126
 21
2.289842149208305
 31
0.0
  0
LINE
  5
B9
330
1F
100
AcDbEntity
  8
0
100
AcDbLine
 10
50.90599083080806
 20
2.384843515430147
 30
0.0
 11
50.89518400825398
 21
2.408235476049544
 31
0.0
  0
LINE
  5
BA
330
1F
100
AcDbEntity
  8
0
100
AcDbLine
 10
50.69989747685003
 20
2.737666078241295
 30
0.0
 11
50.66958546551289
 21
2.778071678207314
 31
0.0
  0
LINE
  5
BB
330
1F
100
AcDbEntity
  8
0
100
AcDbLine
 10
50.8726918957623
 20
2.454549937269469
 30
0.0
 11
50.86101336848397
 21
2.477461536236855
 31
0.0
  0
LINE
  5
BC
330
1F
100
AcDbEntity
  8
0
100
AcDbLine
 10
50.86101336848397
 20
2.477461536236855
 30
0.0
 11
50.84905125867763
 21
2.500202274326128
 31
0.0
  0
LINE
  5
BD
330
1F
100
AcDbEntity
  8
0
100
AcDbLine
 10
50.10671945811404
 20
3.277105201674767
 30
0.0
 11
50.08452792126351
 21
3.290100007169019
 31
0.0
  0
LINE
  5
BE
330
1F
100
AcDbEntity
  8
0
100
AcDbLine
 10
51.00466373970465
 20
2.118978148571533
 30
0.0
 11
50.99726710745156
 21
2.143685985988838
 31
0.0
  0
LINE
  5
BF
330
1F
100
AcDbEntity
  8
0
100
AcDbLine
 10
50.39565430227721
 20
3.068472165916161
 30
0.0
 11
50.35708520289919
 21
3.101088955624355
 31
0.0
  0
LINE
  5
C0
330
1F
100
AcDbEntity
  8
0
100
AcDbLine
 10
49.99399400685438
 20
3.339272090590121
 30
0.0
 11
49.97094529999129
 21
3.350845525315632
 31
0.0
  0
LINE
  5
C1
330
1F
100
AcDbEntity
  8
0
100
AcDbLine
 10
50.72928291168645
 20
2.696358437033861
 30
0.0
 11
50.69989747685003
 21
2.737666078241295
 31
0.0
  0
LINE
  5
C2
330
1F
100
AcDbEntity
  8
0
100
AcDbLine
 10
50.21477269484188
 20
3.208116056327272
 30
0.0
 11
50.1935653213929
 21
3.22243529208185
 31
0.0
  0
LINE
  5
C3
330
1F
100
AcDbEntity
  8
0
100
AcDbLine
 10
49.78145802215759
 20
3.432592100795467
 30
0.0
 11
49.75722359369023
 21
3.441417050780794
 31
0.0
  0
LINE
  5
C4
330
1F
100
AcDbEntity
  8
0
100
AcDbLine
 10
50.84905125867763
 20
2.500202274326128
 30
0.0
 11
50.83680927710089
 21
2.522766948758166
 31
0.0
  0
LINE
  5
C5
330
1F
100
AcDbEntity
  8
0
100
AcDbLine
 10
50.93661670593875
 20
2.313796012774018
 30
0.0
 11
50.9267101395702
 21
2.337618069664454
 31
0.0
  0
LINE
  5
C6
330
1F
100
AcDbEntity
  8
0
100
AcDbLine
 10
50.96449163145545
 20
2.241562680112536
 30
0.0
 11
50.95550996555699
 21
2.265762381769546
 31
0.0
  0
LINE
  5
C7
330
1F
100
AcDbEntity
  8
0
100
AcDbLine
 10
50.25655058281828
 20
3.178726305445288
 30
0.0
 11
50.23576924105665
 21
3.193544873511575
 31
0.0
  0
LINE
  5
C8
330
1F
100
AcDbEntity
  8
0
100
AcDbLine
 10
50.66958546551289
 20
2.778071678207314
 30
0.0
 11
50.63838670306545
 21
2.81754604215452
 31
0.0
  0
LINE
  5
C9
330
1F
100
AcDbEntity
  8
0
100
AcDbLine
 10
50.89518400825398
 20
2.408235476049544
 30
0.0
 11
50.88408325876815
 21
2.431472782650737
 31
0.0
  0
LINE
  5
CA
330
1F
100
AcDbEntity
  8
0
100
AcDbLine
 10
49.73288752829294
 20
3.449925280731029
 30
0.0
 11
49.7084560338625
 21
3.458115103390967
 31
0.0
  0
LINE
  5
CB
330
1F
100
AcDbEntity
  8
0
100
AcDbLine
 10
50.23576924105665
 20
3.193544873511575
 30
0.0
 11
50.21477269484188
 21
3.208116056327272
 31
0.0
  0
LINE
  5
CC
330
1F
100
AcDbEntity
  8
0
100
AcDbLine
 10
50.88408325876815
 20
2.431472782650737
 30
0.0
 11
50.8726918957623
 21
2.454549937269469
 31
0.0
  0
LINE
  5
CD
330
1F
100
AcDbEntity
  8
0
100
AcDbLine
 10
50.60634211470234
 20
2.856062230077942
 30
0.0
 11
50.5734935719248
 21
2.893595598001949
 31
0.0
  0
LINE
  5
CE
330
1F
100
AcDbEntity
  8
0
100
AcDbLine
 10
50.75770319613877
 20
2.654180150781896
 30
0.0
 11
50.74361605559755
 21
2.675376077989655
 31
0.0
  0
LINE
  5
CF
330
1F
100
AcDbEntity
  8
0
100
AcDbLine
 10
50.78512115664827
 20
2.611164751705287
 30
0.0
 11
50.77153973154137
 21
2.632774913177607
 31
0.0
  0
LINE
  5
D0
330
1F
100
AcDbEntity
  8
0
100
AcDbLine
 10
50.74361605559755
 20
2.675376077989655
 30
0.0
 11
50.72928291168645
 21
2.696358437033861
 31
0.0
  0
LINE
  5
D1
330
1F
100
AcDbEntity
  8
0
100
AcDbLine
 10
50.97316022592238
 20
2.217249075814607
 30
0.0
 11
50.96449163145545
 21
2.241562680112536
 31
0.0
  0
LINE
  5
D2
330
1F
100
AcDbEntity
  8
0
100
AcDbLine
 10
50.83680927710089
 20
2.522766948758166
 30
0.0
 11
50.82429125989187
 21
2.54515046305738
 31
0.0
  0
LINE
  5
D3
330
1F
100
AcDbEntity
  8
0
100
AcDbLine
 10
50.06215436377368
 20
3.3028177919196
 30
0.0
 11
50.03960397896319
 21
3.31525479741973
 31
0.0
  0
LINE
  5
D4
330
1F
100
AcDbEntity
  8
0
100
AcDbLine
 10
50.5734935719248
 20
2.893595598001949
 30
0.0
 11
50.53988373833854
 21
2.93012382720271
 31
0.0
  0
LINE
  5
D5
330
1F
100
AcDbEntity
  8
0
100
AcDbLine
 10
49.75722359369023
 20
3.441417050780794
 30
0.0
 11
49.73288752829294
 21
3.449925280731029
 31
0.0
  0
LINE
  5
D6
330
1F
100
AcDbEntity
  8
0
100
AcDbLine
 10
50.81150116480774
 20
2.567347830761615
 30
0.0
 11
50.79844306732941
 21
2.589354178965134
 31
0.0
  0
LINE
  5
D7
330
1F
100
AcDbEntity
  8
0
100
AcDbLine
 10
50.99726710745156
 20
2.143685985988838
 30
0.0
 11
50.9895498524653
 21
2.16830456508744
 31
0.0
  0
LINE
  5
D8
330
1F
100
AcDbEntity
  8
0
100
AcDbLine
 10
49.65933176014673
 20
3.473533588967762
 30
0.0
 11
49.63465155146083
 21
3.480759690798391
 31
0.0
  0
LINE
  5
D9
330
1F
100
AcDbEntity
  8
0
100
AcDbLine
 10
50.53988373833854
 20
2.93012382720271
 30
0.0
 11
50.5053777317905
 21
2.965806707399029
 31
0.0
  0
LINE
  5
DA
330
1F
100
AcDbEntity
  8
0
100
AcDbLine
 10
50.77153973154137
 20
2.632774913177607
 30
0.0
 11
50.75770319613877
 21
2.654180150781896
 31
0.0
  0
LINE
  5
DB
330
1F
100
AcDbEntity
  8
0
100
AcDbLine
 10
50.82429125989187
 20
2.54515046305738
 30
0.0
 11
50.81150116480774
 21
2.567347830761615
 31
0.0
  0
LINE
  5
DC
330
1F
100
AcDbEntity
  8
0
100
AcDbLine
 10
50.15053623042219
 20
3.250300191427344
 30
0.0
 11
50.12872388700733
 21
3.263837260475542
 31
0.0
  0
LINE
  5
DD
330
1F
100
AcDbEntity
  8
0
100
AcDbLine
 10
50.43324203732527
 20
3.035024441757304
 30
0.0
 11
50.39565430227721
 21
3.068472165916161
 31
0.0
  0
LINE
  5
DE
330
1F
100
AcDbEntity
  8
0
100
AcDbLine
 10
49.97094529999129
 20
3.350845525315632
 30
0.0
 11
49.94774151810196
 21
3.362124481280923
 31
0.0
  0
LINE
  5
DF
330
1F
100
AcDbEntity
  8
0
100
AcDbLine
 10
-49.60990104433863
 20
3.48766226420949
 30
0.0
 11
-49.63465155146047
 21
3.480759690798495
 31
0.0
  0
LINE
  5
E0
330
1F
100
AcDbEntity
  8
0
100
AcDbLine
 10
49.53529107975692
 20
3.506420927398678
 30
0.0
 11
49.51032274872608
 21
3.512022320378126
 31
0.0
  0
LINE
  5
E1
330
1F
100
AcDbEntity
  8
0
100
AcDbLine
 10
50.1935653213929
 20
3.22243529208185
 30
0.0
 11
50.17215162427369
 21
3.236498121356
 31
0.0
  0
LINE
  5
E2
330
1F
100
AcDbEntity
  8
0
100
AcDbLine
 10
50.46982390055606
 20
3.000788209776581
 30
0.0
 11
50.43324203732527
 21
3.035024441757304
 31
0.0
  0
LINE
  5
E3
330
1F
100
AcDbEntity
  8
0
100
AcDbLine
 10
-49.48531580823915
 20
3.517297469944182
 30
0.0
 11
-49.51032274872617
 21
3.512022320378253
 31
0.0
  0
LINE
  5
E4
330
1F
100
AcDbEntity
  8
0
100
AcDbLine
 10
-50.01688206220825
 20
3.327407395267257
 30
0.0
 11
-50.03960397896319
 21
3.315254797419744
 31
0.0
  0
LINE
  5
E5
330
1F
100
AcDbEntity
  8
0
100
AcDbLine
 10
49.38502810081079
 20
3.535136966129926
 30
0.0
 11
49.33481590253388
 21
3.542105447485978
 31
0.0
  0
LINE
  5
E6
330
1F
100
AcDbEntity
  8
0
100
AcDbLine
 10
49.87725673315929
 20
3.394164454186184
 30
0.0
 11
49.85349004477348
 21
3.404236210970069
 31
0.0
  0
LINE
  5
E7
330
1F
100
AcDbEntity
  8
0
100
AcDbLine
 10
50.12872388700733
 20
3.263837260475542
 30
0.0
 11
50.10671945811404
 21
3.277105201674767
 31
0.0
  0
LINE
  5
E8
330
1F
100
AcDbEntity
  8
0
100
AcDbLine
 10
50.29745079240837
 20
3.148365746264407
 30
0.0
 11
50.27711247204641
 21
3.163665011928921
 31
0.0
  0
LINE
  5
E9
330
1F
100
AcDbEntity
  8
0
100
AcDbLine
 10
50.27711247204641
 20
3.163665011928921
 30
0.0
 11
50.25655058281828
 21
3.178726305445288
 31
0.0
  0
LINE
  5
EA
330
1F
100
AcDbEntity
  8
0
100
AcDbLine
 10
49.82959734410574
 20
3.413999593639755
 30
0.0
 11
49.80558464623366
 21
3.42345227905668
 31
0.0
  0
LINE
  5
EB
330
1F
100
AcDbEntity
  8
0
100
AcDbLine
 10
49.94774151810196
 20
3.362124481280923
 30
0.0
 11
49.92438832258217
 21
3.373105883173331
 31
0.0
  0
LINE
  5
EC
330
1F
100
AcDbEntity
  8
0
100
AcDbLine
 10
50.3175615617498
 20
3.132833350693168
 30
0.0
 11
50.29745079240837
 21
3.148365746264407
 31
0.0
  0
LINE
  5
ED
330
1F
100
AcDbEntity
  8
0
100
AcDbLine
 10
49.85349004477348
 20
3.404236210970069
 30
0.0
 11
49.82959734410574
 21
3.413999593639755
 31
0.0
  0
LINE
  5
EE
330
1F
100
AcDbEntity
  8
0
100
AcDbLine
 10
50.08452792126351
 20
3.290100007169019
 30
0.0
 11
50.06215436377368
 21
3.3028177919196
 31
0.0
  0
LINE
  5
EF
330
1F
100
AcDbEntity
  8
0
100
AcDbLine
 10
50.03960397896319
 20
3.31525479741973
 30
0.0
 11
50.01688206220815
 21
3.327407395267242
 31
0.0
  0
LINE
  5
F0
330
1F
100
AcDbEntity
  8
0
100
AcDbLine
 10
49.92438832258217
 20
3.373105883173331
 30
0.0
 11
49.90089145515321
 21
3.383786801301182
 31
0.0
  0
LINE
  5
F1
330
1F
100
AcDbEntity
  8
0
100
AcDbLine
 10
49.56021446715387
 20
3.500493507088937
 30
0.0
 11
49.53529107975692
 21
3.506420927398678
 31
0.0
  0
LINE
  5
F2
330
1F
100
AcDbEntity
  8
0
100
AcDbLine
 10
50.17215162427369
 20
3.236498121356
 30
0.0
 11
50.15053623042219
 21
3.250300191427344
 31
0.0
  0
LINE
  5
F3
330
1F
100
AcDbEntity
  8
0
100
AcDbLine
 10
49.90089145515321
 20
3.383786801301182
 30
0.0
 11
49.87725673315929
 21
3.394164454186184
 31
0.0
  0
LINE
  5
F4
330
1F
100
AcDbEntity
  8
0
100
AcDbLine
 10
49.51032274872608
 20
3.512022320378126
 30
0.0
 11
49.48531580823911
 21
3.51729746994428
 31
0.0
  0
LINE
  5
F5
330
1F
100
AcDbEntity
  8
0
100
AcDbLine
 10
49.80558464623366
 20
3.42345227905668
 30
0.0
 11
49.78145802215759
 21
3.432592100795467
 31
0.0
  0
LINE
  5
F6
330
1F
100
AcDbEntity
  8
0
100
AcDbLine
 10
50.5053777317905
 20
2.965806707399029
 30
0.0
 11
50.46982390055606
 21
3.000788209776581
 31
0.0
  0
LINE
  5
F7
330
1F
100
AcDbEntity
  8
0
100
AcDbLine
 10
50.01688206220815
 20
3.327407395267242
 30
0.0
 11
49.99399400685438
 21
3.339272090590121
 31
0.0
  0
LINE
  5
F8
330
1F
100
AcDbEntity
  8
0
100
AcDbLine
 10
50.35708520289919
 20
3.101088955624355
 30
0.0
 11
50.3175615617498
 21
3.132833350693168
 31
0.0
  0
LINE
  5
F9
330
1F
100
AcDbEntity
  8
0
100
AcDbLine
 10
49.68393535348298
 20
3.465984993570028
 30
0.0
 11
49.65933176014673
 21
3.473533588967762
 31
0.0
  0
LINE
  5
FA
330
1F
100
AcDbEntity
  8
0
100
AcDbLine
 10
49.23450120318735
 20
3.552172395955076
 30
0.0
 11
49.18449494573615
 21
3.555291085232735
 31
0.0
  0
LINE
  5
FB
330
1F
100
AcDbEntity
  8
0
100
AcDbLine
 10
49.13465196761815
 20
3.557150561316896
 30
0.0
 11
49.08501777906332
 21
3.557766544497638
 31
0.0
  0
LINE
  5
FC
330
1F
100
AcDbEntity
  8
0
100
AcDbLine
 10
-49.53529107975706
 20
3.506420927398783
 30
0.0
 11
-49.56021446715383
 21
3.500493507088906
 31
0.0
  0
LINE
  5
FD
330
1F
100
AcDbEntity
  8
0
100
AcDbLine
 10
-49.28462408180059
 20
3.547780944934822
 30
0.0
 11
-49.33481590253379
 21
3.542105447486105
 31
0.0
  0
LINE
  5
FE
330
1F
100
AcDbEntity
  8
0
100
AcDbLine
 10
49.60990104433863
 20
3.487662264209363
 30
0.0
 11
49.58508656969629
 21
3.494240438491967
 31
0.0
  0
LINE
  5
FF
330
1F
100
AcDbEntity
  8
0
100
AcDbLine
 10
-49.43521136942685
 20
3.526868984344953
 30
0.0
 11
-49.46027658026119
 21
3.522246322179509
 31
0.0
  0
LINE
  5
100
330
1F
100
AcDbEntity
  8
0
100
AcDbLine
 10
-49.08501777906301
 20
3.557766544497585
 30
0.0
 11
-49.13465196761788
 21
3.55715056131682
 31
0.0
  0
LINE
  5
101
330
1F
100
AcDbEntity
  8
0
100
AcDbLine
 10
-49.13465196761788
 20
3.55715056131682
 30
0.0
 11
-49.18449494573584
 21
3.555291085232591
 31
0.0
  0
LINE
  5
102
330
1F
100
AcDbEntity
  8
0
100
AcDbLine
 10
49.18449494573615
 20
3.555291085232735
 30
0.0
 11
49.13465196761815
 21
3.557150561316896
 31
0.0
  0
LINE
  5
103
330
1F
100
AcDbEntity
  8
0
100
AcDbLine
 10
49.28462408180049
 20
3.547780944935033
 30
0.0
 11
49.23450120318735
 21
3.552172395955076
 31
0.0
  0
LINE
  5
104
330
1F
100
AcDbEntity
  8
0
100
AcDbLine
 10
49.33481590253388
 20
3.542105447485978
 30
0.0
 11
49.28462408180049
 21
3.547780944935033
 31
0.0
  0
LINE
  5
105
330
1F
100
AcDbEntity
  8
0
100
AcDbLine
 10
-50.25655058281828
 20
3.178726305445438
 30
0.0
 11
-50.27711247204623
 21
3.163665011928935
 31
0.0
  0
LINE
  5
106
330
1F
100
AcDbEntity
  8
0
100
AcDbLine
 10
49.48531580823911
 20
3.51729746994428
 30
0.0
 11
49.46027658026092
 21
3.52224632217936
 31
0.0
  0
LINE
  5
107
330
1F
100
AcDbEntity
  8
0
100
AcDbLine
 10
-49.58508656969611
 20
3.494240438491936
 30
0.0
 11
-49.60990104433863
 21
3.48766226420949
 31
0.0
  0
LINE
  5
108
330
1F
100
AcDbEntity
  8
0
100
AcDbLine
 10
-49.56021446715383
 20
3.500493507088906
 30
0.0
 11
-49.58508656969611
 21
3.494240438491936
 31
0.0
  0
LINE
  5
109
330
1F
100
AcDbEntity
  8
0
100
AcDbLine
 10
49.7084560338625
 20
3.458115103390967
 30
0.0
 11
49.68393535348298
 21
3.465984993570028
 31
0.0
  0
LINE
  5
10A
330
1F
100
AcDbEntity
  8
0
100
AcDbLine
 10
49.58508656969629
 20
3.494240438491967
 30
0.0
 11
49.56021446715387
 21
3.500493507088937
 31
0.0
  0
LINE
  5
10B
330
1F
100
AcDbEntity
  8
0
100
AcDbLine
 10
-49.92438832258231
 20
3.373105883173367
 30
0.0
 11
-49.94774151810161
 21
3.362124481280869
 31
0.0
  0
LINE
  5
10C
330
1F
100
AcDbEntity
  8
0
100
AcDbLine
 10
-49.51032274872617
 20
3.512022320378253
 30
0.0
 11
-49.53529107975706
 21
3.506420927398783
 31
0.0
  0
LINE
  5
10D
330
1F
100
AcDbEntity
  8
0
100
AcDbLine
 10
-50.03960397896319
 20
3.315254797419744
 30
0.0
 11
-50.06215436377341
 21
3.302817791919682
 31
0.0
  0
LINE
  5
10E
330
1F
100
AcDbEntity
  8
0
100
AcDbLine
 10
-49.63465155146047
 20
3.480759690798495
 30
0.0
 11
-49.65933176014673
 21
3.473533588967776
 31
0.0
  0
LINE
  5
10F
330
1F
100
AcDbEntity
  8
0
100
AcDbLine
 10
-49.41012645798497
 20
3.531165723697876
 30
0.0
 11
-49.43521136942685
 21
3.526868984344953
 31
0.0
  0
LINE
  5
110
330
1F
100
AcDbEntity
  8
0
100
AcDbLine
 10
-49.82959734410547
 20
3.413999593639814
 30
0.0
 11
-49.8534900447733
 21
3.404236210970084
 31
0.0
  0
LINE
  5
111
330
1F
100
AcDbEntity
  8
0
100
AcDbLine
 10
49.43521136942721
 20
3.526868984344826
 30
0.0
 11
49.41012645798506
 21
3.531165723697907
 31
0.0
  0
LINE
  5
112
330
1F
100
AcDbEntity
  8
0
100
AcDbLine
 10
-49.87725673315934
 20
3.394164454186176
 30
0.0
 11
-49.9008914551528
 21
3.383786801301083
 31
0.0
  0
LINE
  5
113
330
1F
100
AcDbEntity
  8
0
100
AcDbLine
 10
49.41012645798506
 20
3.531165723697907
 30
0.0
 11
49.38502810081079
 21
3.535136966129926
 31
0.0
  0
LINE
  5
114
330
1F
100
AcDbEntity
  8
0
100
AcDbLine
 10
49.63465155146083
 20
3.480759690798391
 30
0.0
 11
49.60990104433863
 21
3.487662264209363
 31
0.0
  0
LINE
  5
115
330
1F
100
AcDbEntity
  8
0
100
AcDbLine
 10
-49.23450120318726
 20
3.552172395954909
 30
0.0
 11
-49.28462408180059
 21
3.547780944934822
 31
0.0
  0
LINE
  5
116
330
1F
100
AcDbEntity
  8
0
100
AcDbLine
 10
-49.33481590253379
 20
3.542105447486105
 30
0.0
 11
-49.38502810081047
 21
3.535136966130076
 31
0.0
  0
LINE
  5
117
330
1F
100
AcDbEntity
  8
0
100
AcDbLine
 10
49.46027658026092
 20
3.52224632217936
 30
0.0
 11
49.43521136942721
 21
3.526868984344826
 31
0.0
  0
LINE
  5
118
330
1F
100
AcDbEntity
  8
0
100
AcDbLine
 10
-49.94774151810161
 20
3.362124481280869
 30
0.0
 11
-49.97094529999146
 21
3.35084552531542
 31
0.0
  0
LINE
  5
119
330
1F
100
AcDbEntity
  8
0
100
AcDbLine
 10
-49.75722359369018
 20
3.44141705078083
 30
0.0
 11
-49.78145802215722
 21
3.432592100795459
 31
0.0
  0
LINE
  5
11A
330
1F
100
AcDbEntity
  8
0
100
AcDbLine
 10
-50.39565430227739
 20
3.06847216591622
 30
0.0
 11
-50.43324203732509
 21
3.035024441757522
 31
0.0
  0
LINE
  5
11B
330
1F
100
AcDbEntity
  8
0
100
AcDbLine
 10
-50.06215436377341
 20
3.302817791919682
 30
0.0
 11
-50.08452792126343
 21
3.290100007168898
 31
0.0
  0
LINE
  5
11C
330
1F
100
AcDbEntity
  8
0
100
AcDbLine
 10
-49.80558464623339
 20
3.423452279056716
 30
0.0
 11
-49.82959734410547
 21
3.413999593639814
 31
0.0
  0
LINE
  5
11D
330
1F
100
AcDbEntity
  8
0
100
AcDbLine
 10
-49.46027658026119
 20
3.522246322179509
 30
0.0
 11
-49.48531580823915
 21
3.517297469944182
 31
0.0
  0
LINE
  5
11E
330
1F
100
AcDbEntity
  8
0
100
AcDbLine
 10
-50.69989747684984
 20
2.737666078241377
 30
0.0
 11
-50.72928291168632
 21
2.696358437033897
 31
0.0
  0
LINE
  5
11F
330
1F
100
AcDbEntity
  8
0
100
AcDbLine
 10
-49.97094529999146
 20
3.35084552531542
 30
0.0
 11
-49.99399400685419
 21
3.33927209059009
 31
0.0
  0
LINE
  5
120
330
1F
100
AcDbEntity
  8
0
100
AcDbLine
 10
-50.60634211470216
 20
2.856062230077979
 30
0.0
 11
-50.63838670306554
 21
2.817546042154512
 31
0.0
  0
LINE
  5
121
330
1F
100
AcDbEntity
  8
0
100
AcDbLine
 10
-50.97316022592216
 20
2.217249075814576
 30
0.0
 11
-50.98151362239166
 21
2.192827657366008
 31
0.0
  0
LINE
  5
122
330
1F
100
AcDbEntity
  8
0
100
AcDbLine
 10
-50.31756156174962
 20
3.132833350693228
 30
0.0
 11
-50.35708520289909
 21
3.101088955624324
 31
0.0
  0
LINE
  5
123
330
1F
100
AcDbEntity
  8
0
100
AcDbLine
 10
-49.99399400685419
 20
3.33927209059009
 30
0.0
 11
-50.01688206220825
 21
3.327407395267257
 31
0.0
  0
LINE
  5
124
330
1F
100
AcDbEntity
  8
0
100
AcDbLine
 10
-50.08452792126343
 20
3.290100007168898
 30
0.0
 11
-50.10671945811385
 21
3.277105201674804
 31
0.0
  0
LINE
  5
125
330
1F
100
AcDbEntity
  8
0
100
AcDbLine
 10
-49.73288752829294
 20
3.449925280731133
 30
0.0
 11
-49.75722359369018
 21
3.44141705078083
 31
0.0
  0
LINE
  5
126
330
1F
100
AcDbEntity
  8
0
100
AcDbLine
 10
-50.8490512586779
 20
2.500202274326075
 30
0.0
 11
-50.86101336848401
 21
2.477461536236802
 31
0.0
  0
LINE
  5
127
330
1F
100
AcDbEntity
  8
0
100
AcDbLine
 10
-49.18449494573584
 20
3.555291085232591
 30
0.0
 11
-49.23450120318726
 21
3.552172395954909
 31
0.0
  0
LINE
  5
128
330
1F
100
AcDbEntity
  8
0
100
AcDbLine
 10
-49.38502810081047
 20
3.535136966130076
 30
0.0
 11
-49.41012645798497
 21
3.531165723697876
 31
0.0
  0
LINE
  5
129
330
1F
100
AcDbEntity
  8
0
100
AcDbLine
 10
-50.9267101395702
 20
2.337618069664603
 30
0.0
 11
-50.93661670593865
 21
2.313796012774032
 31
0.0
  0
LINE
  5
12A
330
1F
100
AcDbEntity
  8
0
100
AcDbLine
 10
-50.72928291168632
 20
2.696358437033897
 30
0.0
 11
-50.74361605559732
 21
2.675376077989691
 31
0.0
  0
LINE
  5
12B
330
1F
100
AcDbEntity
  8
0
100
AcDbLine
 10
-49.9008914551528
 20
3.383786801301083
 30
0.0
 11
-49.92438832258231
 21
3.373105883173367
 31
0.0
  0
LINE
  5
12C
330
1F
100
AcDbEntity
  8
0
100
AcDbLine
 10
-50.78512115664836
 20
2.611164751705302
 30
0.0
 11
-50.79844306732932
 21
2.589354178965217
 31
0.0
  0
LINE
  5
12D
330
1F
100
AcDbEntity
  8
0
100
AcDbLine
 10
-50.75770319613877
 20
2.654180150781977
 30
0.0
 11
-50.77153973154141
 21
2.632774913177598
 31
0.0
  0
LINE
  5
12E
330
1F
100
AcDbEntity
  8
0
100
AcDbLine
 10
-50.53988373833835
 20
2.930123827202904
 30
0.0
 11
-50.57349357192489
 21
2.893595598001805
 31
0.0
  0
LINE
  5
12F
330
1F
100
AcDbEntity
  8
0
100
AcDbLine
 10
-50.46982390055578
 20
3.000788209776595
 30
0.0
 11
-50.50537773179023
 21
2.965806707398953
 31
0.0
  0
LINE
  5
130
330
1F
100
AcDbEntity
  8
0
100
AcDbLine
 10
-50.77153973154141
 20
2.632774913177598
 30
0.0
 11
-50.78512115664836
 21
2.611164751705302
 31
0.0
  0
LINE
  5
131
330
1F
100
AcDbEntity
  8
0
100
AcDbLine
 10
-50.93661670593865
 20
2.313796012774032
 30
0.0
 11
-50.94621751122104
 21
2.289842149208183
 31
0.0
  0
LINE
  5
132
330
1F
100
AcDbEntity
  8
0
100
AcDbLine
 10
-50.10671945811385
 20
3.277105201674804
 30
0.0
 11
-50.12872388700711
 21
3.263837260475488
 31
0.0
  0
LINE
  5
133
330
1F
100
AcDbEntity
  8
0
100
AcDbLine
 10
-50.29745079240828
 20
3.148365746264376
 30
0.0
 11
-50.31756156174962
 21
3.132833350693228
 31
0.0
  0
LINE
  5
134
330
1F
100
AcDbEntity
  8
0
100
AcDbLine
 10
-50.74361605559732
 20
2.675376077989691
 30
0.0
 11
-50.75770319613877
 21
2.654180150781977
 31
0.0
  0
LINE
  5
135
330
1F
100
AcDbEntity
  8
0
100
AcDbLine
 10
-50.27711247204623
 20
3.163665011928935
 30
0.0
 11
-50.29745079240828
 21
3.148365746264376
 31
0.0
  0
LINE
  5
136
330
1F
100
AcDbEntity
  8
0
100
AcDbLine
 10
-50.95550996555672
 20
2.26576238176956
 30
0.0
 11
-50.96449163145527
 21
2.24156268011246
 31
0.0
  0
LINE
  5
137
330
1F
100
AcDbEntity
  8
0
100
AcDbLine
 10
-49.68393535348284
 20
3.465984993570087
 30
0.0
 11
-49.70845603386267
 21
3.458115103391026
 31
0.0
  0
LINE
  5
138
330
1F
100
AcDbEntity
  8
0
100
AcDbLine
 10
-49.70845603386267
 20
3.458115103391026
 30
0.0
 11
-49.73288752829294
 21
3.449925280731133
 31
0.0
  0
LINE
  5
139
330
1F
100
AcDbEntity
  8
0
100
AcDbLine
 10
-49.78145802215722
 20
3.432592100795459
 30
0.0
 11
-49.80558464623339
 21
3.423452279056716
 31
0.0
  0
LINE
  5
13A
330
1F
100
AcDbEntity
  8
0
100
AcDbLine
 10
-50.15053623042201
 20
3.250300191427493
 30
0.0
 11
-50.17215162427338
 21
3.23649812135606
 31
0.0
  0
LINE
  5
13B
330
1F
100
AcDbEntity
  8
0
100
AcDbLine
 10
-49.8534900447733
 20
3.404236210970084
 30
0.0
 11
-49.87725673315934
 21
3.394164454186176
 31
0.0
  0
LINE
  5
13C
330
1F
100
AcDbEntity
  8
0
100
AcDbLine
 10
-50.19356532139272
 20
3.222435292081684
 30
0.0
 11
-50.2147726948417
 21
3.208116056327196
 31
0.0
  0
LINE
  5
13D
330
1F
100
AcDbEntity
  8
0
100
AcDbLine
 10
-49.65933176014673
 20
3.473533588967776
 30
0.0
 11
-49.68393535348284
 21
3.465984993570087
 31
0.0
  0
LINE
  5
13E
330
1F
100
AcDbEntity
  8
0
100
AcDbLine
 10
-50.82429125989174
 20
2.545150463057462
 30
0.0
 11
-50.83680927710071
 21
2.522766948758068
 31
0.0
  0
LINE
  5
13F
330
1F
100
AcDbEntity
  8
0
100
AcDbLine
 10
-50.8726918957623
 20
2.454549937269461
 30
0.0
 11
-50.88408325876797
 21
2.431472782650661
 31
0.0
  0
LINE
  5
140
330
1F
100
AcDbEntity
  8
0
100
AcDbLine
 10
-50.12872388700711
 20
3.263837260475488
 30
0.0
 11
-50.15053623042201
 21
3.250300191427493
 31
0.0
  0
LINE
  5
141
330
1F
100
AcDbEntity
  8
0
100
AcDbLine
 10
-50.2147726948417
 20
3.208116056327196
 30
0.0
 11
-50.23576924105638
 21
3.193544873511408
 31
0.0
  0
LINE
  5
142
330
1F
100
AcDbEntity
  8
0
100
AcDbLine
 10
-51.06075013506569
 20
1.868379940182365
 30
0.0
 11
-51.06455795768812
 21
1.843107921761699
 31
0.0
  0
LINE
  5
143
330
1F
100
AcDbEntity
  8
0
100
AcDbLine
 10
-50.66958546551262
 20
2.778071678207215
 30
0.0
 11
-50.69989747684984
 21
2.737666078241377
 31
0.0
  0
LINE
  5
144
330
1F
100
AcDbEntity
  8
0
100
AcDbLine
 10
-51.07119120301549
 20
1.792530561711569
 30
0.0
 11
-51.07401773364037
 21
1.767237763703853
 31
0.0
  0
LINE
  5
145
330
1F
100
AcDbEntity
  8
0
100
AcDbLine
 10
-51.08161367363267
 20
1.441131055887906
 30
0.0
 11
-51.0782999046495
 21
1.384405103263768
 31
0.0
  0
LINE
  5
146
330
1F
100
AcDbEntity
  8
0
100
AcDbLine
 10
-50.17215162427338
 20
3.23649812135606
 30
0.0
 11
-50.19356532139272
 21
3.222435292081684
 31
0.0
  0
LINE
  5
147
330
1F
100
AcDbEntity
  8
0
100
AcDbLine
 10
-51.01173826375936
 20
2.094187317588205
 30
0.0
 11
-51.01848935726456
 21
2.069319788767766
 31
0.0
  0
LINE
  5
148
330
1F
100
AcDbEntity
  8
0
100
AcDbLine
 10
-50.43324203732509
 20
3.035024441757522
 30
0.0
 11
-50.46982390055578
 21
3.000788209776595
 31
0.0
  0
LINE
  5
149
330
1F
100
AcDbEntity
  8
0
100
AcDbLine
 10
-51.0249158617068
 20
2.044381883515733
 30
0.0
 11
-51.03101678293196
 21
2.019379943595868
 31
0.0
  0
LINE
  5
14A
330
1F
100
AcDbEntity
  8
0
100
AcDbLine
 10
-51.04735857627439
 20
1.944053527088109
 30
0.0
 11
-51.05215051690249
 21
1.91885908711237
 31
0.0
  0
LINE
  5
14B
330
1F
100
AcDbEntity
  8
0
100
AcDbLine
 10
-51.08054689572554
 20
1.691417391977861
 30
0.0
 11
-51.08328565941127
 21
1.640980005633686
 31
0.0
  0
LINE
  5
14C
330
1F
100
AcDbEntity
  8
0
100
AcDbLine
 10
-50.79844306732932
 20
2.589354178965217
 30
0.0
 11
-50.81150116480752
 21
2.567347830761787
 31
0.0
  0
LINE
  5
14D
330
1F
100
AcDbEntity
  8
0
100
AcDbLine
 10
-50.63838670306554
 20
2.817546042154512
 30
0.0
 11
-50.66958546551262
 21
2.778071678207215
 31
0.0
  0
LINE
  5
14E
330
1F
100
AcDbEntity
  8
0
100
AcDbLine
 10
-51.06803815542131
 20
1.817822699721244
 30
0.0
 11
-51.07119120301549
 21
1.792530561711569
 31
0.0
  0
LINE
  5
14F
330
1F
100
AcDbEntity
  8
0
100
AcDbLine
 10
-50.57349357192489
 20
2.893595598001805
 30
0.0
 11
-50.60634211470216
 21
2.856062230077979
 31
0.0
  0
LINE
  5
150
330
1F
100
AcDbEntity
  8
0
100
AcDbLine
 10
-50.99726710745147
 20
2.143685985988852
 30
0.0
 11
-51.00466373970429
 21
2.118978148571592
 31
0.0
  0
LINE
  5
151
330
1F
100
AcDbEntity
  8
0
100
AcDbLine
 10
-51.08494371169967
 20
1.540583295206104
 30
0.0
 11
-51.08389329280423
 21
1.490716699574349
 31
0.0
  0
LINE
  5
152
330
1F
100
AcDbEntity
  8
0
100
AcDbLine
 10
-51.07401773364037
 20
1.767237763703853
 30
0.0
 11
-51.07651853723216
 21
1.741950525091559
 31
0.0
  0
LINE
  5
153
330
1F
100
AcDbEntity
  8
0
100
AcDbLine
 10
-50.35708520289909
 20
3.101088955624324
 30
0.0
 11
-50.39565430227739
 21
3.06847216591622
 31
0.0
  0
LINE
  5
154
330
1F
100
AcDbEntity
  8
0
100
AcDbLine
 10
-51.06455795768812
 20
1.843107921761699
 30
0.0
 11
-51.06803815542131
 21
1.817822699721244
 31
0.0
  0
LINE
  5
155
330
1F
100
AcDbEntity
  8
0
100
AcDbLine
 10
-50.81150116480752
 20
2.567347830761787
 30
0.0
 11
-50.82429125989174
 21
2.545150463057462
 31
0.0
  0
LINE
  5
156
330
1F
100
AcDbEntity
  8
0
100
AcDbLine
 10
-50.98954985246522
 20
2.168304565087499
 30
0.0
 11
-50.99726710745147
 21
2.143685985988852
 31
0.0
  0
LINE
  5
157
330
1F
100
AcDbEntity
  8
0
100
AcDbLine
 10
-50.88408325876797
 20
2.431472782650661
 30
0.0
 11
-50.89518400825375
 21
2.408235476049603
 31
0.0
  0
LINE
  5
158
330
1F
100
AcDbEntity
  8
0
100
AcDbLine
 10
-50.50537773179023
 20
2.965806707398953
 30
0.0
 11
-50.53988373833835
 21
2.930123827202904
 31
0.0
  0
LINE
  5
159
330
1F
100
AcDbEntity
  8
0
100
AcDbLine
 10
-50.91650055203402
 20
2.361302488772336
 30
0.0
 11
-50.9267101395702
 21
2.337618069664603
 31
0.0
  0
LINE
  5
15A
330
1F
100
AcDbEntity
  8
0
100
AcDbLine
 10
-51.05661437269732
 20
1.893632440632822
 30
0.0
 11
-51.06075013506569
 21
1.868379940182365
 31
0.0
  0
LINE
  5
15B
330
1F
100
AcDbEntity
  8
0
100
AcDbLine
 10
-51.03679129145709
 20
1.99432032580775
 30
0.0
 11
-51.04223872257858
 21
1.969209396665266
 31
0.0
  0
LINE
  5
15C
330
1F
100
AcDbEntity
  8
0
100
AcDbLine
 10
-51.00466373970429
 20
2.118978148571592
 30
0.0
 11
-51.01173826375936
 21
2.094187317588205
 31
0.0
  0
LINE
  5
15D
330
1F
100
AcDbEntity
  8
0
100
AcDbLine
 10
-50.86101336848401
 20
2.477461536236802
 30
0.0
 11
-50.8726918957623
 21
2.454549937269461
 31
0.0
  0
LINE
  5
15E
330
1F
100
AcDbEntity
  8
0
100
AcDbLine
 10
-50.23576924105638
 20
3.193544873511408
 30
0.0
 11
-50.25655058281828
 21
3.178726305445438
 31
0.0
  0
LINE
  5
15F
330
1F
100
AcDbEntity
  8
0
100
AcDbLine
 10
-50.83680927710071
 20
2.522766948758068
 30
0.0
 11
-50.8490512586779
 21
2.500202274326075
 31
0.0
  0
LINE
  5
160
330
1F
100
AcDbEntity
  8
0
100
AcDbLine
 10
-50.20008564040789
 20
-5.075373493040085
 30
0.0
 11
-50.67007574554172
 21
-5.603681401227532
 31
0.0
  0
LINE
  5
161
330
1F
100
AcDbEntity
  8
0
100
AcDbLine
 10
-51.01848935726456
 20
2.069319788767766
 30
0.0
 11
-51.0249158617068
 21
2.044381883515733
 31
0.0
  0
LINE
  5
162
330
1F
100
AcDbEntity
  8
0
100
AcDbLine
 10
-51.0782999046495
 20
1.384405103263768
 30
0.0
 11
-50.54999206250019
 21
0.9144149393812869
 31
0.0
  0
LINE
  5
163
330
1F
100
AcDbEntity
  8
0
100
AcDbLine
 10
-51.08389329280423
 20
1.490716699574349
 30
0.0
 11
-51.08161367363267
 21
1.441131055887906
 31
0.0
  0
LINE
  5
164
330
1F
100
AcDbEntity
  8
0
100
AcDbLine
 10
-51.08474658273116
 20
1.590686326775087
 30
0.0
 11
-51.08494371169967
 21
1.540583295206104
 31
0.0
  0
LINE
  5
165
330
1F
100
AcDbEntity
  8
0
100
AcDbLine
 10
-50.67007574554172
 20
-5.603681401227532
 30
0.0
 11
-50.14176790339263
 21
-6.073671565110397
 31
0.0
  0
LINE
  5
166
330
1F
100
AcDbEntity
  8
0
100
AcDbLine
 10
-51.08328565941127
 20
1.640980005633686
 30
0.0
 11
-51.08474658273116
 21
1.590686326775087
 31
0.0
  0
LINE
  5
167
330
1F
100
AcDbEntity
  8
0
100
AcDbLine
 10
-50.96449163145527
 20
2.24156268011246
 30
0.0
 11
-50.97316022592216
 21
2.217249075814576
 31
0.0
  0
LINE
  5
168
330
1F
100
AcDbEntity
  8
0
100
AcDbLine
 10
-50.37503885145404
 20
-2.080479276829309
 30
0.0
 11
-50.84502895658796
 21
-2.608787185017274
 31
0.0
  0
LINE
  5
169
330
1F
100
AcDbEntity
  8
0
100
AcDbLine
 10
-57.3740101652046
 20
7.079921880824075
 30
0.0
 11
-57.37069354254086
 21
7.105210560849106
 31
0.0
  0
LINE
  5
16A
330
1F
100
AcDbEntity
  8
0
100
AcDbLine
 10
-50.98151362239166
 20
2.192827657366008
 30
0.0
 11
-50.98954985246522
 21
2.168304565087499
 31
0.0
  0
LINE
  5
16B
330
1F
100
AcDbEntity
  8
0
100
AcDbLine
 10
-50.89518400825375
 20
2.408235476049603
 30
0.0
 11
-50.90599083080779
 21
2.384843515430207
 31
0.0
  0
LINE
  5
16C
330
1F
100
AcDbEntity
  8
0
100
AcDbLine
 10
-51.04223872257858
 20
1.969209396665266
 30
0.0
 11
-51.04735857627439
 21
1.944053527088109
 31
0.0
  0
LINE
  5
16D
330
1F
100
AcDbEntity
  8
0
100
AcDbLine
 10
-50.78671121957256
 20
-3.607085257087067
 30
0.0
 11
-50.25840337742343
 21
-4.077075420969864
 31
0.0
  0
LINE
  5
16E
330
1F
100
AcDbEntity
  8
0
100
AcDbLine
 10
-57.37069354254086
 20
7.105210560849106
 30
0.0
 11
-57.36672175004541
 21
7.130472820284567
 31
0.0
  0
LINE
  5
16F
330
1F
100
AcDbEntity
  8
0
100
AcDbLine
 10
-50.94621751122104
 20
2.289842149208183
 30
0.0
 11
-50.95550996555672
 21
2.26576238176956
 31
0.0
  0
LINE
  5
170
330
1F
100
AcDbEntity
  8
0
100
AcDbLine
 10
-51.03101678293196
 20
2.019379943595868
 30
0.0
 11
-51.03679129145709
 21
1.99432032580775
 31
0.0
  0
LINE
  5
171
330
1F
100
AcDbEntity
  8
0
100
AcDbLine
 10
-50.96166443061848
 20
-0.6121910408767645
 30
0.0
 11
-50.43335658846939
 21
-1.08218120475911
 31
0.0
  0
LINE
  5
172
330
1F
100
AcDbEntity
  8
0
100
AcDbLine
 10
-50.90599083080779
 20
2.384843515430207
 30
0.0
 11
-50.91650055203402
 21
2.361302488772336
 31
0.0
  0
LINE
  5
173
330
1F
100
AcDbEntity
  8
0
100
AcDbLine
 10
-51.05215051690249
 20
1.91885908711237
 30
0.0
 11
-51.05661437269732
 21
1.893632440632822
 31
0.0
  0
LINE
  5
174
330
1F
100
AcDbEntity
  8
0
100
AcDbLine
 10
-57.32917137489282
 20
7.28007042865125
 30
0.0
 11
-57.32066037942462
 21
7.304437940024532
 31
0.0
  0
LINE
  5
175
330
1F
100
AcDbEntity
  8
0
100
AcDbLine
 10
-51.07651853723216
 20
1.741950525091559
 30
0.0
 11
-51.08054689572554
 21
1.691417391977861
 31
0.0
  0
LINE
  5
176
330
1F
100
AcDbEntity
  8
0
100
AcDbLine
 10
-57.37945296218813
 20
7.016748455253574
 30
0.0
 11
-57.37667383231318
 21
7.05463186251415
 31
0.0
  0
LINE
  5
177
330
1F
100
AcDbEntity
  8
0
100
AcDbLine
 10
-57.18084197955871
 20
7.56264835513454
 30
0.0
 11
-57.15760791523016
 21
7.59242962104522
 31
0.0
  0
LINE
  5
178
330
1F
100
AcDbEntity
  8
0
100
AcDbLine
 10
-50.25840337742343
 20
-4.077075420969864
 30
0.0
 11
-50.72839348255721
 21
-4.605383329157378
 31
0.0
  0
LINE
  5
179
330
1F
100
AcDbEntity
  8
0
100
AcDbLine
 10
-50.90334669360326
 20
-1.610489112946941
 30
0.0
 11
-50.37503885145404
 21
-2.080479276829309
 31
0.0
  0
LINE
  5
17A
330
1F
100
AcDbEntity
  8
0
100
AcDbLine
 10
-50.31672111443878
 20
-3.078777348899643
 30
0.0
 11
-50.78671121957256
 21
-3.607085257087067
 31
0.0
  0
LINE
  5
17B
330
1F
100
AcDbEntity
  8
0
100
AcDbLine
 10
-57.3807012372159
 20
6.941465414697737
 30
0.0
 11
-57.38078785506259
 21
6.978999763356003
 31
0.0
  0
LINE
  5
17C
330
1F
100
AcDbEntity
  8
0
100
AcDbLine
 10
-50.14176790339263
 20
-6.073671565110397
 30
0.0
 11
-50.61175800852642
 21
-6.601979473297708
 31
0.0
  0
LINE
  5
17D
330
1F
100
AcDbEntity
  8
0
100
AcDbLine
 10
-50.84502895658796
 20
-2.608787185017274
 30
0.0
 11
-50.31672111443878
 21
-3.078777348899643
 31
0.0
  0
LINE
  5
17E
330
1F
100
AcDbEntity
  8
0
100
AcDbLine
 10
-50.49167432548474
 20
-0.0838831326889117
 30
0.0
 11
-50.96166443061848
 21
-0.6121910408767645
 31
0.0
  0
LINE
  5
17F
330
1F
100
AcDbEntity
  8
0
100
AcDbLine
 10
-57.36209385183404
 20
7.155683363512548
 30
0.0
 11
-57.35681020942537
 21
7.180816762872042
 31
0.0
  0
LINE
  5
180
330
1F
100
AcDbEntity
  8
0
100
AcDbLine
 10
-56.91368267890871
 20
7.808806695681846
 30
0.0
 11
-56.89177429275468
 21
7.822209200805309
 31
0.0
  0
LINE
  5
181
330
1F
100
AcDbEntity
  8
0
100
AcDbLine
 10
-57.28045619308088
 20
7.399392991293463
 30
0.0
 11
-57.2689212479391
 21
7.422387368086319
 31
0.0
  0
LINE
  5
182
330
1F
100
AcDbEntity
  8
0
100
AcDbLine
 10
-56.89177429275468
 20
7.822209200805309
 30
0.0
 11
-56.86949174558441
 21
7.835065495927861
 31
0.0
  0
LINE
  5
183
330
1F
100
AcDbEntity
  8
0
100
AcDbLine
 10
-50.43335658846939
 20
-1.08218120475911
 30
0.0
 11
-50.90334669360326
 21
-1.610489112946941
 31
0.0
  0
LINE
  5
184
330
1F
100
AcDbEntity
  8
0
100
AcDbLine
 10
-57.38078785506259
 20
6.978999763356003
 30
0.0
 11
-57.37945296218813
 21
7.016748455253574
 31
0.0
  0
LINE
  5
185
330
1F
100
AcDbEntity
  8
0
100
AcDbLine
 10
-57.33704811742254
 20
7.255499592962447
 30
0.0
 11
-57.32917137489282
 21
7.28007042865125
 31
0.0
  0
LINE
  5
186
330
1F
100
AcDbEntity
  8
0
100
AcDbLine
 10
-57.36672175004541
 20
7.130472820284567
 30
0.0
 11
-57.36209385183404
 21
7.155683363512548
 31
0.0
  0
LINE
  5
187
330
1F
100
AcDbEntity
  8
0
100
AcDbLine
 10
-50.54999206250019
 20
0.9144149393812869
 30
0.0
 11
-51.01998216763397
 21
0.3861070311933891
 31
0.0
  0
LINE
  5
188
330
1F
100
AcDbEntity
  8
0
100
AcDbLine
 10
-57.35681020942537
 20
7.180816762872042
 30
0.0
 11
-57.35087249455029
 21
7.205847541726168
 31
0.0
  0
LINE
  5
189
330
1F
100
AcDbEntity
  8
0
100
AcDbLine
 10
-50.61175800852642
 20
-6.601979473297708
 30
0.0
 11
-50.66541597568691
 21
-8.998904252595276
 31
0.0
  0
LINE
  5
18A
330
1F
100
AcDbEntity
  8
0
100
AcDbLine
 10
-56.68038224043946
 20
7.916649096753256
 30
0.0
 11
-56.65574033942844
 21
7.924036445367392
 31
0.0
  0
LINE
  5
18B
330
1F
100
AcDbEntity
  8
0
100
AcDbLine
 10
-57.08227987012663
 20
7.675350543786365
 30
0.0
 11
-57.05503558236003
 21
7.701168820846792
 31
0.0
  0
LINE
  5
18C
330
1F
100
AcDbEntity
  8
0
100
AcDbLine
 10
-57.37667383231318
 20
7.05463186251415
 30
0.0
 11
-57.3740101652046
 21
7.079921880824075
 31
0.0
  0
LINE
  5
18D
330
1F
100
AcDbEntity
  8
0
100
AcDbLine
 10
-56.82388721369362
 20
7.859079362625696
 30
0.0
 11
-56.80060872498906
 21
7.870209541554614
 31
0.0
  0
LINE
  5
18E
330
1F
100
AcDbEntity
  8
0
100
AcDbLine
 10
-57.13342240764607
 20
7.621133208077368
 30
0.0
 11
-57.10835643286675
 21
7.648718513569393
 31
0.0
  0
LINE
  5
18F
330
1F
100
AcDbEntity
  8
0
100
AcDbLine
 10
-56.80060872498906
 20
7.870209541554614
 30
0.0
 11
-56.77704293027772
 21
7.880738827061018
 31
0.0
  0
LINE
  5
190
330
1F
100
AcDbEntity
  8
0
100
AcDbLine
 10
-50.72839348255721
 20
-4.605383329157378
 30
0.0
 11
-50.20008564040789
 21
-5.075373493040085
 31
0.0
  0
LINE
  5
191
330
1F
100
AcDbEntity
  8
0
100
AcDbLine
 10
-57.05503558236003
 20
7.701168820846792
 30
0.0
 11
-57.02665996395678
 21
7.726100121622224
 31
0.0
  0
LINE
  5
192
330
1F
100
AcDbEntity
  8
0
100
AcDbLine
 10
-57.25681920224756
 20
7.445040074346806
 30
0.0
 11
-57.24416514610095
 21
7.467330515348812
 31
0.0
  0
LINE
  5
193
330
1F
100
AcDbEntity
  8
0
100
AcDbLine
 10
-57.02665996395678
 20
7.726100121622224
 30
0.0
 11
-56.99719534457238
 21
7.750073275314307
 31
0.0
  0
LINE
  5
194
330
1F
100
AcDbEntity
  8
0
100
AcDbLine
 10
-57.15760791523016
 20
7.59242962104522
 30
0.0
 11
-57.13342240764607
 21
7.621133208077368
 31
0.0
  0
LINE
  5
195
330
1F
100
AcDbEntity
  8
0
100
AcDbLine
 10
-57.34428369557639
 20
7.230750258762303
 30
0.0
 11
-57.33704811742254
 21
7.255499592962447
 31
0.0
  0
LINE
  5
196
330
1F
100
AcDbEntity
  8
0
100
AcDbLine
 10
-57.24416514610095
 20
7.467330515348812
 30
0.0
 11
-57.2309751420213
 21
7.489238975820603
 31
0.0
  0
LINE
  5
197
330
1F
100
AcDbEntity
  8
0
100
AcDbLine
 10
-57.2689212479391
 20
7.422387368086319
 30
0.0
 11
-57.25681920224756
 21
7.445040074346806
 31
0.0
  0
LINE
  5
198
330
1F
100
AcDbEntity
  8
0
100
AcDbLine
 10
-56.84685559480197
 20
7.847360297601626
 30
0.0
 11
-56.82388721369362
 21
7.859079362625696
 31
0.0
  0
LINE
  5
199
330
1F
100
AcDbEntity
  8
0
100
AcDbLine
 10
-56.41818965071659
 20
7.961845246053198
 30
0.0
 11
-56.38092345323
 21
7.962539872217455
 31
0.0
  0
LINE
  5
19A
330
1F
100
AcDbEntity
  8
0
100
AcDbLine
 10
-56.99719534457238
 20
7.750073275314307
 30
0.0
 11
-56.97697079972064
 21
7.76548910593216
 31
0.0
  0
LINE
  5
19B
330
1F
100
AcDbEntity
  8
0
100
AcDbLine
 10
-56.95629918422571
 20
7.780429036723691
 30
0.0
 11
-56.93519722439415
 21
7.794874246008952
 31
0.0
  0
LINE
  5
19C
330
1F
100
AcDbEntity
  8
0
100
AcDbLine
 10
-57.2309751420213
 20
7.489238975820603
 30
0.0
 11
-57.21726616176669
 21
7.510746675358964
 31
0.0
  0
LINE
  5
19D
330
1F
100
AcDbEntity
  8
0
100
AcDbLine
 10
-51.01998216763397
 20
0.3861070311933891
 30
0.0
 11
-50.49167432548474
 21
-0.0838831326889117
 31
0.0
  0
LINE
  5
19E
330
1F
100
AcDbEntity
  8
0
100
AcDbLine
 10
-56.93519722439415
 20
7.794874246008952
 30
0.0
 11
-56.91368267890871
 21
7.808806695681846
 31
0.0
  0
LINE
  5
19F
330
1F
100
AcDbEntity
  8
0
100
AcDbLine
 10
-56.60606010357679
 20
7.936867063667434
 30
0.0
 11
-56.58107246781793
 21
7.942305334940371
 31
0.0
  0
LINE
  5
1A0
330
1F
100
AcDbEntity
  8
0
100
AcDbLine
 10
-56.75321323575098
 20
7.890656396787814
 30
0.0
 11
-56.72914357477668
 21
7.89995265036558
 31
0.0
  0
LINE
  5
1A1
330
1F
100
AcDbEntity
  8
0
100
AcDbLine
 10
-56.49327175898504
 20
7.956208758234566
 30
0.0
 11
-56.45566516529201
 21
7.959742797945779
 31
0.0
  0
LINE
  5
1A2
330
1F
100
AcDbEntity
  8
0
100
AcDbLine
 10
-57.31152331930766
 20
7.328577674572236
 30
0.0
 11
-57.30176963348208
 21
7.352465634800333
 31
0.0
  0
LINE
  5
1A3
330
1F
100
AcDbEntity
  8
0
100
AcDbLine
 10
-46.78574529323576
 20
9.874221668860494
 30
0.0
 11
-47.14611598741681
 21
9.924269736933182
 31
0.0
  0
LINE
  5
1A4
330
1F
100
AcDbEntity
  8
0
100
AcDbLine
 10
-57.35087249455029
 20
7.205847541726168
 30
0.0
 11
-57.34428369557639
 21
7.230750258762303
 31
0.0
  0
LINE
  5
1A5
330
1F
100
AcDbEntity
  8
0
100
AcDbLine
 10
-57.20305601954035
 20
7.531835818485048
 30
0.0
 11
-57.18084197955871
 21
7.56264835513454
 31
0.0
  0
LINE
  5
1A6
330
1F
100
AcDbEntity
  8
0
100
AcDbLine
 10
-56.97697079972064
 20
7.76548910593216
 30
0.0
 11
-56.95629918422571
 21
7.780429036723691
 31
0.0
  0
LINE
  5
1A7
330
1F
100
AcDbEntity
  8
0
100
AcDbLine
 10
-49.39154944931295
 20
11.05217316465517
 30
0.0
 11
-49.64685496807417
 21
11.311385345318
 31
0.0
  0
LINE
  5
1A8
330
1F
100
AcDbEntity
  8
0
100
AcDbLine
 10
-57.21726616176669
 20
7.510746675358964
 30
0.0
 11
-57.20305601954035
 21
7.531835818485048
 31
0.0
  0
LINE
  5
1A9
330
1F
100
AcDbEntity
  8
0
100
AcDbLine
 10
-48.8217535504085
 20
10.60058350331984
 30
0.0
 11
-49.11590005848702
 21
10.81470890808034
 31
0.0
  0
LINE
  5
1AA
330
1F
100
AcDbEntity
  8
0
100
AcDbLine
 10
-56.58107246781793
 20
7.942305334940371
 30
0.0
 11
-56.55602024841172
 21
7.947091092140565
 31
0.0
  0
LINE
  5
1AB
330
1F
100
AcDbEntity
  8
0
100
AcDbLine
 10
-57.30176963348208
 20
7.352465634800333
 30
0.0
 11
-57.29140997910079
 21
7.376078357683225
 31
0.0
  0
LINE
  5
1AC
330
1F
100
AcDbEntity
  8
0
100
AcDbLine
 10
-49.64685496807417
 20
11.311385345318
 30
0.0
 11
-49.88010615680776
 21
11.59060881883325
 31
0.0
  0
LINE
  5
1AD
330
1F
100
AcDbEntity
  8
0
100
AcDbLine
 10
-56.55602024841172
 20
7.947091092140565
 30
0.0
 11
-56.53092861410369
 21
7.951225083033159
 31
0.0
  0
LINE
  5
1AE
330
1F
100
AcDbEntity
  8
0
100
AcDbLine
 10
-48.18596262006543
 20
10.24792153820874
 30
0.0
 11
-48.51108060412704
 21
10.41123151593028
 31
0.0
  0
LINE
  5
1AF
330
1F
100
AcDbEntity
  8
0
100
AcDbLine
 10
-47.84857777536367
 20
10.11174769006786
 30
0.0
 11
-48.18596262006543
 21
10.24792153820874
 31
0.0
  0
LINE
  5
1B0
330
1F
100
AcDbEntity
  8
0
100
AcDbLine
 10
-56.72914357477668
 20
7.89995265036558
 30
0.0
 11
-56.70485832784468
 21
7.908619240333429
 31
0.0
  0
LINE
  5
1B1
330
1F
100
AcDbEntity
  8
0
100
AcDbLine
 10
-57.32066037942462
 20
7.304437940024532
 30
0.0
 11
-57.31152331930766
 21
7.328577674572236
 31
0.0
  0
LINE
  5
1B2
330
1F
100
AcDbEntity
  8
0
100
AcDbLine
 10
-57.10835643286675
 20
7.648718513569393
 30
0.0
 11
-57.08227987012663
 21
7.675350543786365
 31
0.0
  0
LINE
  5
1B3
330
1F
100
AcDbEntity
  8
0
100
AcDbLine
 10
-56.63095784854644
 20
7.930776819214022
 30
0.0
 11
-56.60606010357679
 21
7.936867063667434
 31
0.0
  0
LINE
  5
1B4
330
1F
100
AcDbEntity
  8
0
100
AcDbLine
 10
-49.98679444931339
 20
16.65514205896471
 30
0.0
 11
-49.7508270734608
 21
16.96386001744748
 31
0.0
  0
LINE
  5
1B5
330
1F
100
AcDbEntity
  8
0
100
AcDbLine
 10
-50.08974031387289
 20
11.88797288528055
 30
0.0
 11
-50.2743529635067
 21
12.20148530909171
 31
0.0
  0
LINE
  5
1B6
330
1F
100
AcDbEntity
  8
0
100
AcDbLine
 10
-49.88010615680776
 20
11.59060881883325
 30
0.0
 11
-50.08974031387289
 21
11.88797288528055
 31
0.0
  0
LINE
  5
1B7
330
1F
100
AcDbEntity
  8
0
100
AcDbLine
 10
-50.76989571694842
 20
14.48670222615259
 30
0.0
 11
-50.72031467150131
 21
14.87209697649875
 31
0.0
  0
LINE
  5
1B8
330
1F
100
AcDbEntity
  8
0
100
AcDbLine
 10
-56.77704293027772
 20
7.880738827061018
 30
0.0
 11
-56.75321323575098
 21
7.890656396787814
 31
0.0
  0
LINE
  5
1B9
330
1F
100
AcDbEntity
  8
0
100
AcDbLine
 10
-56.65574033942844
 20
7.924036445367392
 30
0.0
 11
-56.63095784854644
 21
7.930776819214022
 31
0.0
  0
LINE
  5
1BA
330
1F
100
AcDbEntity
  8
0
100
AcDbLine
 10
-48.51108060412704
 20
10.41123151593028
 30
0.0
 11
-48.8217535504085
 21
10.60058350331984
 31
0.0
  0
LINE
  5
1BB
330
1F
100
AcDbEntity
  8
0
100
AcDbLine
 10
-50.563742300709
 20
12.86845941681804
 30
0.0
 11
-50.66658018061431
 21
13.21745260675403
 31
0.0
  0
LINE
  5
1BC
330
1F
100
AcDbEntity
  8
0
100
AcDbLine
 10
-47.14611598741681
 20
9.924269736933182
 30
0.0
 11
-47.5011864308509
 21
10.00362228881254
 31
0.0
  0
LINE
  5
1BD
330
1F
100
AcDbEntity
  8
0
100
AcDbLine
 10
-56.86949174558441
 20
7.835065495927861
 30
0.0
 11
-56.84685559480197
 21
7.847360297601626
 31
0.0
  0
LINE
  5
1BE
330
1F
100
AcDbEntity
  8
0
100
AcDbLine
 10
-50.5213813879847
 20
15.62257768676929
 30
0.0
 11
-50.37354936350482
 21
15.98192860349442
 31
0.0
  0
LINE
  5
1BF
330
1F
100
AcDbEntity
  8
0
100
AcDbLine
 10
-50.43270726532266
 20
12.52904566633352
 30
0.0
 11
-50.563742300709
 21
12.86845941681804
 31
0.0
  0
LINE
  5
1C0
330
1F
100
AcDbEntity
  8
0
100
AcDbLine
 10
-49.11590005848702
 20
10.81470890808034
 30
0.0
 11
-49.39154944931295
 21
11.05217316465517
 31
0.0
  0
LINE
  5
1C1
330
1F
100
AcDbEntity
  8
0
100
AcDbLine
 10
-57.29140997910079
 20
7.376078357683225
 30
0.0
 11
-57.28045619308088
 21
7.399392991293463
 31
0.0
  0
LINE
  5
1C2
330
1F
100
AcDbEntity
  8
0
100
AcDbLine
 10
48.8217535504088
 20
10.60058350331972
 30
0.0
 11
48.51108060412733
 21
10.41123151592997
 31
0.0
  0
LINE
  5
1C3
330
1F
100
AcDbEntity
  8
0
100
AcDbLine
 10
-50.37354936350482
 20
15.98192860349442
 30
0.0
 11
-50.19489864469641
 21
16.32699570851441
 31
0.0
  0
LINE
  5
1C4
330
1F
100
AcDbEntity
  8
0
100
AcDbLine
 10
-50.72031467150131
 20
14.87209697649875
 30
0.0
 11
-50.63726501148918
 21
15.25168905561034
 31
0.0
  0
LINE
  5
1C5
330
1F
100
AcDbEntity
  8
0
100
AcDbLine
 10
-50.66658018061431
 20
13.21745260675403
 30
0.0
 11
-50.74053192709808
 21
13.573687103447
 31
0.0
  0
LINE
  5
1C6
330
1F
100
AcDbEntity
  8
0
100
AcDbLine
 10
-50.76989571694842
 20
14.48670222615259
 30
0.0
 11
-50.78510208924229
 21
13.93477625997036
 31
0.0
  0
LINE
  5
1C7
330
1F
100
AcDbEntity
  8
0
100
AcDbLine
 10
47.84857777536387
 20
10.11174769006758
 30
0.0
 11
47.50118643085115
 21
10.00362228881233
 31
0.0
  0
LINE
  5
1C8
330
1F
100
AcDbEntity
  8
0
100
AcDbLine
 10
-27.15167192187653
 20
7.962539872217506
 30
0.0
 11
-46.78574529323576
 21
9.874221668860494
 31
0.0
  0
LINE
  5
1C9
330
1F
100
AcDbEntity
  8
0
100
AcDbLine
 10
50.56374230070924
 20
12.86845941681776
 30
0.0
 11
50.43270726532295
 21
12.52904566633344
 31
0.0
  0
LINE
  5
1CA
330
1F
100
AcDbEntity
  8
0
100
AcDbLine
 10
-56.53092861410369
 20
7.951225083033159
 30
0.0
 11
-56.49327175898504
 21
7.956208758234566
 31
0.0
  0
LINE
  5
1CB
330
1F
100
AcDbEntity
  8
0
100
AcDbLine
 10
-56.45566516529201
 20
7.959742797945779
 30
0.0
 11
-56.41818965071659
 21
7.961845246053198
 31
0.0
  0
LINE
  5
1CC
330
1F
100
AcDbEntity
  8
0
100
AcDbLine
 10
54.80606914232016
 20
-18.50358157481815
 30
0.0
 11
55.18959659644658
 21
-18.34471928191879
 31
0.0
  0
LINE
  5
1CD
330
1F
100
AcDbEntity
  8
0
100
AcDbLine
 10
54.39449348747696
 20
-18.5577665444975
 30
0.0
 11
54.80606914232016
 21
-18.50358157481815
 31
0.0
  0
LINE
  5
1CE
330
1F
100
AcDbEntity
  8
0
100
AcDbLine
 10
49.39154944931325
 20
11.05217316465521
 30
0.0
 11
49.11590005848723
 21
10.81470890808017
 31
0.0
  0
LINE
  5
1CF
330
1F
100
AcDbEntity
  8
0
100
AcDbLine
 10
-48.89475850662104
 20
17.7507010908709
 30
0.0
 11
-48.56728416893385
 21
17.95986113873703
 31
0.0
  0
LINE
  5
1D0
330
1F
100
AcDbEntity
  8
0
100
AcDbLine
 10
-52.85840541114853
 20
-17.3791358340716
 30
0.0
 11
-52.80422044824227
 21
-16.96756012778165
 31
0.0
  0
LINE
  5
1D1
330
1F
100
AcDbEntity
  8
0
100
AcDbLine
 10
50.78510208924259
 20
13.93477625997005
 30
0.0
 11
50.74053192709832
 21
13.57368710344649
 31
0.0
  0
LINE
  5
1D2
330
1F
100
AcDbEntity
  8
0
100
AcDbLine
 10
49.88010615680796
 20
11.59060881883315
 30
0.0
 11
49.64685496807437
 21
11.31138534531783
 31
0.0
  0
LINE
  5
1D3
330
1F
100
AcDbEntity
  8
0
100
AcDbLine
 10
-50.63726501148918
 20
15.25168905561034
 30
0.0
 11
-50.5213813879847
 21
15.62257768676929
 31
0.0
  0
LINE
  5
1D4
330
1F
100
AcDbEntity
  8
0
100
AcDbLine
 10
-55.18952977515063
 20
-18.34471928191747
 30
0.0
 11
-54.80600232102417
 21
-18.50358157481685
 31
0.0
  0
LINE
  5
1D5
330
1F
100
AcDbEntity
  8
0
100
AcDbLine
 10
50.74053192709832
 20
13.57368710344649
 30
0.0
 11
50.66658018061447
 21
13.21745260675375
 31
0.0
  0
LINE
  5
1D6
330
1F
100
AcDbEntity
  8
0
100
AcDbLine
 10
50.7999920625004
 20
14.29830090487057
 30
0.0
 11
50.79999206250049
 21
14.11276654449714
 31
0.0
  0
LINE
  5
1D7
330
1F
100
AcDbEntity
  8
0
100
AcDbLine
 10
-48.56728416893385
 20
17.95986113873703
 30
0.0
 11
-48.22279430171346
 21
18.13962235811083
 31
0.0
  0
LINE
  5
1D8
330
1F
100
AcDbEntity
  8
0
100
AcDbLine
 10
-56.70485832784468
 20
7.908619240333429
 30
0.0
 11
-56.68038224043946
 21
7.916649096753256
 31
0.0
  0
LINE
  5
1D9
330
1F
100
AcDbEntity
  8
0
100
AcDbLine
 10
-50.2743529635067
 20
12.20148530909171
 30
0.0
 11
-50.43270726532266
 21
12.52904566633352
 31
0.0
  0
LINE
  5
1DA
330
1F
100
AcDbEntity
  8
0
100
AcDbLine
 10
-47.5011864308509
 20
10.00362228881254
 30
0.0
 11
-47.84857777536367
 21
10.11174769006786
 31
0.0
  0
LINE
  5
1DB
330
1F
100
AcDbEntity
  8
0
100
AcDbLine
 10
50.66658018061447
 20
13.21745260675375
 30
0.0
 11
50.56374230070924
 21
12.86845941681776
 31
0.0
  0
LINE
  5
1DC
330
1F
100
AcDbEntity
  8
0
100
AcDbLine
 10
-48.22279430171346
 20
18.13962235811083
 30
0.0
 11
-47.86392143667265
 21
18.28861104498559
 31
0.0
  0
LINE
  5
1DD
330
1F
100
AcDbEntity
  8
0
100
AcDbLine
 10
53.27004788728745
 20
-18.09200586852807
 30
0.0
 11
53.59939037850752
 21
-18.34471928191879
 31
0.0
  0
LINE
  5
1DE
330
1F
100
AcDbEntity
  8
0
100
AcDbLine
 10
-53.08152649130252
 20
-10.24522997269458
 30
0.0
 11
-53.02652649451868
 21
-10.09405465468254
 31
0.0
  0
LINE
  5
1DF
330
1F
100
AcDbEntity
  8
0
100
AcDbLine
 10
-53.5993235572118
 20
-18.34471928191742
 30
0.0
 11
-53.26998106599169
 21
-18.09200586852685
 31
0.0
  0
LINE
  5
1E0
330
1F
100
AcDbEntity
  8
0
100
AcDbLine
 10
-54.39442666618119
 20
-18.55776654449611
 30
0.0
 11
-53.98285101133821
 21
-18.50358157481685
 31
0.0
  0
LINE
  5
1E1
330
1F
100
AcDbEntity
  8
0
100
AcDbLine
 10
-46.72885243385327
 20
18.54078258563611
 30
0.0
 11
-46.34065286952672
 21
18.55776654449751
 31
0.0
  0
LINE
  5
1E2
330
1F
100
AcDbEntity
  8
0
100
AcDbLine
 10
53.59939037850752
 20
-18.34471928191879
 30
0.0
 11
53.98291783263421
 21
-18.50358157481813
 31
0.0
  0
LINE
  5
1E3
330
1F
100
AcDbEntity
  8
0
100
AcDbLine
 10
-47.11408544455529
 20
18.48996049751524
 30
0.0
 11
-46.72885243385327
 21
18.54078258563611
 31
0.0
  0
LINE
  5
1E4
330
1F
100
AcDbEntity
  8
0
100
AcDbLine
 10
-47.49340801789583
 20
18.405688653702
 30
0.0
 11
-47.11408544455529
 21
18.48996049751524
 31
0.0
  0
LINE
  5
1E5
330
1F
100
AcDbEntity
  8
0
100
AcDbLine
 10
50.43270726532295
 20
12.52904566633344
 30
0.0
 11
50.27435296350704
 21
12.20148530909104
 31
0.0
  0
LINE
  5
1E6
330
1F
100
AcDbEntity
  8
0
100
AcDbLine
 10
48.18596262006564
 20
10.24792153820859
 30
0.0
 11
47.84857777536387
 21
10.11174769006758
 31
0.0
  0
LINE
  5
1E7
330
1F
100
AcDbEntity
  8
0
100
AcDbLine
 10
49.64685496807437
 20
11.31138534531783
 30
0.0
 11
49.39154944931325
 21
11.05217316465521
 31
0.0
  0
LINE
  5
1E8
330
1F
100
AcDbEntity
  8
0
100
AcDbLine
 10
-50.19489864469641
 20
16.32699570851441
 30
0.0
 11
-49.98679444931339
 21
16.65514205896471
 31
0.0
  0
LINE
  5
1E9
330
1F
100
AcDbEntity
  8
0
100
AcDbLine
 10
53.98291783263421
 20
-18.50358157481813
 30
0.0
 11
54.39449348747696
 21
-18.5577665444975
 31
0.0
  0
LINE
  5
1EA
330
1F
100
AcDbEntity
  8
0
100
AcDbLine
 10
50.08974031387318
 20
11.88797288528044
 30
0.0
 11
49.88010615680796
 21
11.59060881883315
 31
0.0
  0
LINE
  5
1EB
330
1F
100
AcDbEntity
  8
0
100
AcDbLine
 10
-50.74053192709808
 20
13.573687103447
 30
0.0
 11
-50.78510208924229
 21
13.93477625997036
 31
0.0
  0
LINE
  5
1EC
330
1F
100
AcDbEntity
  8
0
100
AcDbLine
 10
-55.98463288412016
 20
-16.96756012778156
 30
0.0
 11
-55.9304479212139
 21
-17.3791358340716
 31
0.0
  0
LINE
  5
1ED
330
1F
100
AcDbEntity
  8
0
100
AcDbLine
 10
-52.01460882647851
 20
-9.114157478959392
 30
0.0
 11
-51.86174373285836
 21
-9.06404525999946
 31
0.0
  0
LINE
  5
1EE
330
1F
100
AcDbEntity
  8
0
100
AcDbLine
 10
-49.48879973882818
 20
17.25079041496104
 30
0.0
 11
-49.20271481278144
 21
17.51374057925914
 31
0.0
  0
LINE
  5
1EF
330
1F
100
AcDbEntity
  8
0
100
AcDbLine
 10
52.85847223244443
 20
-17.3791358340729
 30
0.0
 11
53.01733450548602
 21
-17.76266333614017
 31
0.0
  0
LINE
  5
1F0
330
1F
100
AcDbEntity
  8
0
100
AcDbLine
 10
55.77165246946817
 20
-17.7626633361403
 30
0.0
 11
55.93051474250966
 21
-17.37913583407283
 31
0.0
  0
LINE
  5
1F1
330
1F
100
AcDbEntity
  8
0
100
AcDbLine
 10
53.01733450548602
 20
-17.76266333614017
 30
0.0
 11
53.27004788728745
 21
-18.09200586852807
 31
0.0
  0
LINE
  5
1F2
330
1F
100
AcDbEntity
  8
0
100
AcDbLine
 10
-49.20271481278144
 20
17.51374057925914
 30
0.0
 11
-48.89475850662104
 21
17.7507010908709
 31
0.0
  0
LINE
  5
1F3
330
1F
100
AcDbEntity
  8
0
100
AcDbLine
 10
47.50118643085115
 20
10.00362228881233
 30
0.0
 11
47.14611598741706
 21
9.924269736932832
 31
0.0
  0
LINE
  5
1F4
330
1F
100
AcDbEntity
  8
0
100
AcDbLine
 10
-53.15985393752558
 20
-10.88060803541399
 30
0.0
 11
-53.16196205287249
 21
-10.71975240751407
 31
0.0
  0
LINE
  5
1F5
330
1F
100
AcDbEntity
  8
0
100
AcDbLine
 10
50.79999206250049
 20
14.11276654449714
 30
0.0
 11
50.78510208924259
 21
13.93477625997005
 31
0.0
  0
LINE
  5
1F6
330
1F
100
AcDbEntity
  8
0
100
AcDbLine
 10
50.27435296350704
 20
12.20148530909104
 30
0.0
 11
50.08974031387318
 21
11.88797288528044
 31
0.0
  0
LINE
  5
1F7
330
1F
100
AcDbEntity
  8
0
100
AcDbLine
 10
-49.7508270734608
 20
16.96386001744748
 30
0.0
 11
-49.48879973882818
 21
17.25079041496104
 31
0.0
  0
LINE
  5
1F8
330
1F
100
AcDbEntity
  8
0
100
AcDbLine
 10
-47.86392143667265
 20
18.28861104498559
 30
0.0
 11
-47.49340801789583
 21
18.405688653702
 31
0.0
  0
LINE
  5
1F9
330
1F
100
AcDbEntity
  8
0
100
AcDbLine
 10
-52.16231882784604
 20
-9.177881314530836
 30
0.0
 11
-52.01460882647851
 21
-9.114157478959392
 31
0.0
  0
LINE
  5
1FA
330
1F
100
AcDbEntity
  8
0
100
AcDbLine
 10
55.93051474250966
 20
-17.37913583407283
 30
0.0
 11
55.98469970541602
 21
-16.96756012778286
 31
0.0
  0
LINE
  5
1FB
330
1F
100
AcDbEntity
  8
0
100
AcDbLine
 10
-52.43748890493453
 20
-9.343970047953716
 30
0.0
 11
-52.30366454988575
 21
-9.254695109157522
 31
0.0
  0
LINE
  5
1FC
330
1F
100
AcDbEntity
  8
0
100
AcDbLine
 10
49.21218318603315
 20
17.51783409416102
 30
0.0
 11
49.49808186761351
 21
17.25585618687132
 31
0.0
  0
LINE
  5
1FD
330
1F
100
AcDbEntity
  8
0
100
AcDbLine
 10
-53.98285101133821
 20
-18.50358157481685
 30
0.0
 11
-53.5993235572118
 21
-18.34471928191742
 31
0.0
  0
LINE
  5
1FE
330
1F
100
AcDbEntity
  8
0
100
AcDbLine
 10
-53.02652649451868
 20
-10.09405465468254
 30
0.0
 11
-52.95808762134983
 21
-9.948469296054284
 31
0.0
  0
LINE
  5
1FF
330
1F
100
AcDbEntity
  8
0
100
AcDbLine
 10
52.80428726953817
 20
-16.96756012778277
 30
0.0
 11
52.85847223244443
 21
-17.3791358340729
 31
0.0
  0
LINE
  5
200
330
1F
100
AcDbEntity
  8
0
100
AcDbLine
 10
55.18959659644658
 20
-18.34471928191879
 30
0.0
 11
55.51893908766665
 21
-18.09200586852829
 31
0.0
  0
LINE
  5
201
330
1F
100
AcDbEntity
  8
0
100
AcDbLine
 10
-52.78323969675217
 20
-9.678780117099246
 30
0.0
 11
-52.67826198950203
 21
-9.556884032650315
 31
0.0
  0
LINE
  5
202
330
1F
100
AcDbEntity
  8
0
100
AcDbLine
 10
49.76005974215582
 20
16.96995746955361
 30
0.0
 11
49.99612299984872
 21
16.66231380407751
 31
0.0
  0
LINE
  5
203
330
1F
100
AcDbEntity
  8
0
100
AcDbLine
 10
49.11590005848723
 20
10.81470890808017
 30
0.0
 11
48.8217535504088
 21
10.60058350331972
 31
0.0
  0
LINE
  5
204
330
1F
100
AcDbEntity
  8
0
100
AcDbLine
 10
-55.9304479212139
 20
-17.3791358340716
 30
0.0
 11
-55.77158564817231
 21
-17.76266333613889
 31
0.0
  0
LINE
  5
205
330
1F
100
AcDbEntity
  8
0
100
AcDbLine
 10
-55.77158564817231
 20
-17.76266333613889
 30
0.0
 11
-55.51887226637074
 21
-18.09200586852685
 31
0.0
  0
LINE
  5
206
330
1F
100
AcDbEntity
  8
0
100
AcDbLine
 10
56.38092345323025
 20
7.962539872217105
 30
0.0
 11
56.41818965071679
 21
7.961845246053029
 31
0.0
  0
LINE
  5
207
330
1F
100
AcDbEntity
  8
0
100
AcDbLine
 10
-50.66541597568691
 20
-8.998904252595276
 30
0.0
 11
-51.29558577670679
 21
-9.006181805232622
 31
0.0
  0
LINE
  5
208
330
1F
100
AcDbEntity
  8
0
100
AcDbLine
 10
-55.51887226637074
 20
-18.09200586852685
 30
0.0
 11
-55.18952977515063
 21
-18.34471928191747
 31
0.0
  0
LINE
  5
209
330
1F
100
AcDbEntity
  8
0
100
AcDbLine
 10
50.20447505676186
 20
16.33526654449717
 30
0.0
 11
50.38353022793607
 21
15.99130471793458
 31
0.0
  0
LINE
  5
20A
330
1F
100
AcDbEntity
  8
0
100
AcDbLine
 10
50.53192579540212
 20
15.6330460815797
 30
0.0
 11
50.64853237928788
 21
15.26321719997786
 31
0.0
  0
LINE
  5
20B
330
1F
100
AcDbEntity
  8
0
100
AcDbLine
 10
-52.80422044824227
 20
-16.96756012778165
 30
0.0
 11
-53.15985393752558
 21
-10.88060803541399
 31
0.0
  0
LINE
  5
20C
330
1F
100
AcDbEntity
  8
0
100
AcDbLine
 10
56.63095784854628
 20
7.93077681921365
 30
0.0
 11
56.65574033942864
 21
7.924036445366974
 31
0.0
  0
LINE
  5
20D
330
1F
100
AcDbEntity
  8
0
100
AcDbLine
 10
56.58107246781773
 20
7.94230533493975
 30
0.0
 11
56.60606010357704
 21
7.936867063667107
 31
0.0
  0
LINE
  5
20E
330
1F
100
AcDbEntity
  8
0
100
AcDbLine
 10
-54.80600232102417
 20
-18.50358157481685
 30
0.0
 11
-54.39442666618119
 21
-18.55776654449611
 31
0.0
  0
LINE
  5
20F
330
1F
100
AcDbEntity
  8
0
100
AcDbLine
 10
49.99612299984872
 20
16.66231380407751
 30
0.0
 11
50.20447505676186
 21
16.33526654449717
 31
0.0
  0
LINE
  5
210
330
1F
100
AcDbEntity
  8
0
100
AcDbLine
 10
-52.30366454988575
 20
-9.254695109157522
 30
0.0
 11
-52.16231882784604
 21
-9.177881314530836
 31
0.0
  0
LINE
  5
211
330
1F
100
AcDbEntity
  8
0
100
AcDbLine
 10
55.51893908766665
 20
-18.09200586852829
 30
0.0
 11
55.77165246946817
 21
-17.7626633361403
 31
0.0
  0
LINE
  5
212
330
1F
100
AcDbEntity
  8
0
100
AcDbLine
 10
-51.86174373285836
 20
-9.06404525999946
 30
0.0
 11
-51.29558577670679
 21
-9.006181805232622
 31
0.0
  0
LINE
  5
213
330
1F
100
AcDbEntity
  8
0
100
AcDbLine
 10
-52.95808762134983
 20
-9.948469296054284
 30
0.0
 11
-52.87677012770356
 21
-9.809665691084959
 31
0.0
  0
LINE
  5
214
330
1F
100
AcDbEntity
  8
0
100
AcDbLine
 10
50.64853237928788
 20
15.26321719997786
 30
0.0
 11
50.73246253308093
 21
14.88463269422642
 31
0.0
  0
LINE
  5
215
330
1F
100
AcDbEntity
  8
0
100
AcDbLine
 10
49.49808186761351
 20
17.25585618687132
 30
0.0
 11
49.76005974215582
 21
16.96995746955361
 31
0.0
  0
LINE
  5
216
330
1F
100
AcDbEntity
  8
0
100
AcDbLine
 10
-53.12263736943824
 20
-10.40075769515874
 30
0.0
 11
-53.08152649130252
 21
-10.24522997269458
 31
0.0
  0
LINE
  5
217
330
1F
100
AcDbEntity
  8
0
100
AcDbLine
 10
-53.26998106599169
 20
-18.09200586852685
 30
0.0
 11
-53.01726768419017
 21
-17.76266333613889
 31
0.0
  0
LINE
  5
218
330
1F
100
AcDbEntity
  8
0
100
AcDbLine
 10
56.53092861410367
 20
7.951225083032765
 30
0.0
 11
56.55602024841178
 21
7.947091092140102
 31
0.0
  0
LINE
  5
219
330
1F
100
AcDbEntity
  8
0
100
AcDbLine
 10
48.51108060412733
 20
10.41123151592997
 30
0.0
 11
48.18596262006564
 21
10.24792153820859
 31
0.0
  0
LINE
  5
21A
330
1F
100
AcDbEntity
  8
0
100
AcDbLine
 10
-53.01726768419017
 20
-17.76266333613889
 30
0.0
 11
-52.85840541114853
 21
-17.3791358340716
 31
0.0
  0
LINE
  5
21B
330
1F
100
AcDbEntity
  8
0
100
AcDbLine
 10
-55.98463288412016
 20
-16.96756012778156
 30
0.0
 11
-57.3807012372159
 21
6.941465414697737
 31
0.0
  0
LINE
  5
21C
330
1F
100
AcDbEntity
  8
0
100
AcDbLine
 10
47.50544312980001
 20
18.4063068423521
 30
0.0
 11
47.87527196517315
 21
18.28970024389034
 31
0.0
  0
LINE
  5
21D
330
1F
100
AcDbEntity
  8
0
100
AcDbLine
 10
56.68038224043976
 20
7.916649096752906
 30
0.0
 11
56.70485832784474
 21
7.908619240332966
 31
0.0
  0
LINE
  5
21E
330
1F
100
AcDbEntity
  8
0
100
AcDbLine
 10
-52.56269637692053
 20
-9.444975306322569
 30
0.0
 11
-52.43748890493453
 21
-9.343970047953716
 31
0.0
  0
LINE
  5
21F
330
1F
100
AcDbEntity
  8
0
100
AcDbLine
 10
56.75321323575096
 20
7.890656396787442
 30
0.0
 11
56.77704293027774
 21
7.8807388270606
 31
0.0
  0
LINE
  5
220
330
1F
100
AcDbEntity
  8
0
100
AcDbLine
 10
56.72914357477693
 20
7.89995265036514
 30
0.0
 11
56.75321323575096
 21
7.890656396787442
 31
0.0
  0
LINE
  5
221
330
1F
100
AcDbEntity
  8
0
100
AcDbLine
 10
-52.67826198950203
 20
-9.556884032650315
 30
0.0
 11
-52.56269637692053
 21
-9.444975306322569
 31
0.0
  0
LINE
  5
222
330
1F
100
AcDbEntity
  8
0
100
AcDbLine
 10
-53.16196205287249
 20
-10.71975240751407
 30
0.0
 11
-53.14952258609176
 21
-10.55936463738811
 31
0.0
  0
LINE
  5
223
330
1F
100
AcDbEntity
  8
0
100
AcDbLine
 10
56.49327175898475
 20
7.956208758234104
 30
0.0
 11
56.53092861410367
 21
7.951225083032765
 31
0.0
  0
LINE
  5
224
330
1F
100
AcDbEntity
  8
0
100
AcDbLine
 10
50.38353022793607
 20
15.99130471793458
 30
0.0
 11
50.53192579540212
 21
15.6330460815797
 31
0.0
  0
LINE
  5
225
330
1F
100
AcDbEntity
  8
0
100
AcDbLine
 10
47.14611598741706
 20
9.924269736932832
 30
0.0
 11
46.7857452932361
 21
9.87422166886019
 31
0.0
  0
LINE
  5
226
330
1F
100
AcDbEntity
  8
0
100
AcDbLine
 10
50.78307749763246
 20
14.50017382101046
 30
0.0
 11
50.7999920625004
 21
14.29830090487057
 31
0.0
  0
LINE
  5
227
330
1F
100
AcDbEntity
  8
0
100
AcDbLine
 10
-53.14952258609176
 20
-10.55936463738811
 30
0.0
 11
-53.12263736943824
 21
-10.40075769515874
 31
0.0
  0
LINE
  5
228
330
1F
100
AcDbEntity
  8
0
100
AcDbLine
 10
56.41818965071679
 20
7.961845246053029
 30
0.0
 11
56.45566516529217
 21
7.959742797945272
 31
0.0
  0
LINE
  5
229
330
1F
100
AcDbEntity
  8
0
100
AcDbLine
 10
46.35499261812546
 20
18.55776654449716
 30
0.0
 11
46.7423998462129
 21
18.54085197751499
 31
0.0
  0
LINE
  5
22A
330
1F
100
AcDbEntity
  8
0
100
AcDbLine
 10
56.55602024841178
 20
7.947091092140102
 30
0.0
 11
56.58107246781773
 21
7.94230533493975
 31
0.0
  0
LINE
  5
22B
330
1F
100
AcDbEntity
  8
0
100
AcDbLine
 10
46.7857452932361
 20
9.87422166886019
 30
0.0
 11
27.15167192187689
 21
7.962539872217512
 31
0.0
  0
LINE
  5
22C
330
1F
100
AcDbEntity
  8
0
100
AcDbLine
 10
48.23353055674573
 20
18.14130465787512
 30
0.0
 11
48.57749234031289
 21
17.96224946431893
 31
0.0
  0
LINE
  5
22D
330
1F
100
AcDbEntity
  8
0
100
AcDbLine
 10
-52.87677012770356
 20
-9.809665691084959
 30
0.0
 11
-52.78323969675217
 21
-9.678780117099246
 31
0.0
  0
LINE
  5
22E
330
1F
100
AcDbEntity
  8
0
100
AcDbLine
 10
46.7423998462129
 20
18.54085197751499
 30
0.0
 11
47.12685867137176
 21
18.49023700663649
 31
0.0
  0
LINE
  5
22F
330
1F
100
AcDbEntity
  8
0
100
AcDbLine
 10
47.87527196517315
 20
18.28970024389034
 30
0.0
 11
48.23353055674573
 21
18.14130465787512
 31
0.0
  0
LINE
  5
230
330
1F
100
AcDbEntity
  8
0
100
AcDbLine
 10
57.08227987012688
 20
7.675350543785948
 30
0.0
 11
57.10835643286673
 21
7.648718513568705
 31
0.0
  0
LINE
  5
231
330
1F
100
AcDbEntity
  8
0
100
AcDbLine
 10
56.93519722439404
 20
7.794874246008332
 30
0.0
 11
56.95629918422583
 21
7.780429036723138
 31
0.0
  0
LINE
  5
232
330
1F
100
AcDbEntity
  8
0
100
AcDbLine
 10
56.45566516529217
 20
7.959742797945272
 30
0.0
 11
56.49327175898475
 21
7.956208758234104
 31
0.0
  0
LINE
  5
233
330
1F
100
AcDbEntity
  8
0
100
AcDbLine
 10
50.73246253308093
 20
14.88463269422642
 30
0.0
 11
50.78307749763246
 21
14.50017382101046
 31
0.0
  0
LINE
  5
234
330
1F
100
AcDbEntity
  8
0
100
AcDbLine
 10
47.12685867137176
 20
18.49023700663649
 30
0.0
 11
47.50544312980001
 21
18.4063068423521
 31
0.0
  0
LINE
  5
235
330
1F
100
AcDbEntity
  8
0
100
AcDbLine
 10
48.90453955901229
 20
17.75389738136153
 30
0.0
 11
49.21218318603315
 21
17.51783409416102
 31
0.0
  0
LINE
  5
236
330
1F
100
AcDbEntity
  8
0
100
AcDbLine
 10
56.65574033942864
 20
7.924036445366974
 30
0.0
 11
56.68038224043976
 21
7.916649096752906
 31
0.0
  0
LINE
  5
237
330
1F
100
AcDbEntity
  8
0
100
AcDbLine
 10
57.05503558236028
 20
7.70116882084633
 30
0.0
 11
57.08227987012688
 21
7.675350543785948
 31
0.0
  0
LINE
  5
238
330
1F
100
AcDbEntity
  8
0
100
AcDbLine
 10
56.95629918422583
 20
7.780429036723138
 30
0.0
 11
56.9769707997208
 21
7.765489105931788
 31
0.0
  0
LINE
  5
239
330
1F
100
AcDbEntity
  8
0
100
AcDbLine
 10
56.80060872498922
 20
7.870209541554151
 30
0.0
 11
56.82388721369382
 21
7.859079362625256
 31
0.0
  0
LINE
  5
23A
330
1F
100
AcDbEntity
  8
0
100
AcDbLine
 10
52.43750002697231
 20
-9.34396662704603
 30
0.0
 11
52.30367608851438
 21
-9.25469254974039
 31
0.0
  0
LINE
  5
23B
330
1F
100
AcDbEntity
  8
0
100
AcDbLine
 10
52.16233089488897
 20
-9.17787950980076
 30
0.0
 11
52.01462151757064
 21
-9.114156309488466
 31
0.0
  0
LINE
  5
23C
330
1F
100
AcDbEntity
  8
0
100
AcDbLine
 10
53.15987058311183
 20
-10.88059320196961
 30
0.0
 11
52.80428726953817
 21
-16.96756012778277
 31
0.0
  0
LINE
  5
23D
330
1F
100
AcDbEntity
  8
0
100
AcDbLine
 10
56.84685559480221
 20
7.847360297601298
 30
0.0
 11
56.86949174558457
 21
7.835065495927466
 31
0.0
  0
LINE
  5
23E
330
1F
100
AcDbEntity
  8
0
100
AcDbLine
 10
56.86949174558457
 20
7.835065495927466
 30
0.0
 11
56.89177429275483
 21
7.822209200805072
 31
0.0
  0
LINE
  5
23F
330
1F
100
AcDbEntity
  8
0
100
AcDbLine
 10
52.56270720883249
 20
-9.444970931666031
 30
0.0
 11
52.43750002697231
 21
-9.34396662704603
 31
0.0
  0
LINE
  5
240
330
1F
100
AcDbEntity
  8
0
100
AcDbLine
 10
52.01462151757064
 20
-9.114156309488466
 30
0.0
 11
51.61175712612899
 21
-9.064044595811302
 31
0.0
  0
LINE
  5
241
330
1F
100
AcDbEntity
  8
0
100
AcDbLine
 10
56.91368267890878
 20
7.808806695681316
 30
0.0
 11
56.93519722439404
 21
7.794874246008332
 31
0.0
  0
LINE
  5
242
330
1F
100
AcDbEntity
  8
0
100
AcDbLine
 10
56.70485832784474
 20
7.908619240332966
 30
0.0
 11
56.72914357477693
 21
7.89995265036514
 31
0.0
  0
LINE
  5
243
330
1F
100
AcDbEntity
  8
0
100
AcDbLine
 10
53.16197738073014
 20
-10.71973838151651
 30
0.0
 11
53.14953674905966
 21
-10.55935152885927
 31
0.0
  0
LINE
  5
244
330
1F
100
AcDbEntity
  8
0
100
AcDbLine
 10
56.9769707997208
 20
7.765489105931788
 30
0.0
 11
56.99719534457254
 21
7.750073275313889
 31
0.0
  0
LINE
  5
245
330
1F
100
AcDbEntity
  8
0
100
AcDbLine
 10
56.99719534457254
 20
7.750073275313889
 30
0.0
 11
57.02665996395698
 21
7.726100121621965
 31
0.0
  0
LINE
  5
246
330
1F
100
AcDbEntity
  8
0
100
AcDbLine
 10
56.77704293027774
 20
7.8807388270606
 30
0.0
 11
56.80060872498922
 21
7.870209541554151
 31
0.0
  0
LINE
  5
247
330
1F
100
AcDbEntity
  8
0
100
AcDbLine
 10
56.60606010357704
 20
7.936867063667107
 30
0.0
 11
56.63095784854628
 21
7.93077681921365
 31
0.0
  0
LINE
  5
248
330
1F
100
AcDbEntity
  8
0
100
AcDbLine
 10
51.61175712612899
 20
-9.064044595811302
 30
0.0
 11
50.66541597568727
 21
-8.998904252595246
 31
0.0
  0
LINE
  5
249
330
1F
100
AcDbEntity
  8
0
100
AcDbLine
 10
53.15987058311183
 20
-10.88059320196961
 30
0.0
 11
53.16197738073014
 21
-10.71973838151651
 31
0.0
  0
LINE
  5
24A
330
1F
100
AcDbEntity
  8
0
100
AcDbLine
 10
52.67827267063655
 20
-9.556878628271557
 30
0.0
 11
52.56270720883249
 21
-9.444970931666031
 31
0.0
  0
LINE
  5
24B
330
1F
100
AcDbEntity
  8
0
100
AcDbLine
 10
53.02653815207369
 20
-10.09404474636661
 30
0.0
 11
52.95809878483792
 21
-9.948460531213353
 31
0.0
  0
LINE
  5
24C
330
1F
100
AcDbEntity
  8
0
100
AcDbLine
 10
53.08153881444189
 20
-10.24521894470464
 30
0.0
 11
53.02653815207369
 21
-10.09404474636661
 31
0.0
  0
LINE
  5
24D
330
1F
100
AcDbEntity
  8
0
100
AcDbLine
 10
52.95809878483792
 20
-9.948460531213353
 30
0.0
 11
52.87678096694314
 21
-9.809658071941362
 31
0.0
  0
LINE
  5
24E
330
1F
100
AcDbEntity
  8
0
100
AcDbLine
 10
52.30367608851438
 20
-9.25469254974039
 30
0.0
 11
52.16233089488897
 21
-9.17787950980076
 31
0.0
  0
LINE
  5
24F
330
1F
100
AcDbEntity
  8
0
100
AcDbLine
 10
48.57749234031289
 20
17.96224946431893
 30
0.0
 11
48.90453955901229
 21
17.75389738136153
 31
0.0
  0
LINE
  5
250
330
1F
100
AcDbEntity
  8
0
100
AcDbLine
 10
57.02665996395698
 20
7.726100121621965
 30
0.0
 11
57.05503558236028
 21
7.70116882084633
 31
0.0
  0
LINE
  5
251
330
1F
100
AcDbEntity
  8
0
100
AcDbLine
 10
52.87678096694314
 20
-9.809658071941362
 30
0.0
 11
52.78325037739101
 21
-9.678773624845906
 31
0.0
  0
LINE
  5
252
330
1F
100
AcDbEntity
  8
0
100
AcDbLine
 10
53.12265052884693
 20
-10.40074559314949
 30
0.0
 11
53.08153881444189
 21
-10.24521894470464
 31
0.0
  0
LINE
  5
253
330
1F
100
AcDbEntity
  8
0
100
AcDbLine
 10
53.14953674905966
 20
-10.55935152885927
 30
0.0
 11
53.12265052884693
 21
-10.40074559314949
 31
0.0
  0
LINE
  5
254
330
1F
100
AcDbEntity
  8
0
100
AcDbLine
 10
56.89177429275483
 20
7.822209200805072
 30
0.0
 11
56.91368267890878
 21
7.808806695681316
 31
0.0
  0
LINE
  5
255
330
1F
100
AcDbEntity
  8
0
100
AcDbLine
 10
52.78325037739101
 20
-9.678773624845906
 30
0.0
 11
52.67827267063655
 21
-9.556878628271557
 31
0.0
  0
LINE
  5
256
330
1F
100
AcDbEntity
  8
0
100
AcDbLine
 10
32.40369043983478
 20
18.48961819707538
 30
0.0
 11
32.15596166530961
 21
18.40552560951981
 31
0.0
  0
LINE
  5
257
330
1F
100
AcDbEntity
  8
0
100
AcDbLine
 10
21.24885138805722
 20
18.14447322507969
 30
0.0
 11
21.44554209241282
 21
17.97198010687032
 31
0.0
  0
LINE
  5
258
330
1F
100
AcDbEntity
  8
0
100
AcDbLine
 10
20.03132853003963
 20
18.55776654449731
 30
0.0
 11
20.5489666202447
 21
18.48961819707539
 31
0.0
  0
LINE
  5
259
330
1F
100
AcDbEntity
  8
0
100
AcDbLine
 10
21.03132853003977
 20
18.28981735206618
 30
0.0
 11
21.24885138805722
 21
18.14447322507969
 31
0.0
  0
LINE
  5
25A
330
1F
100
AcDbEntity
  8
0
100
AcDbLine
 10
21.96318018261789
 20
17.07540463470227
 30
0.0
 11
22.03132853003972
 21
16.55776654449729
 31
0.0
  0
LINE
  5
25B
330
1F
100
AcDbEntity
  8
0
100
AcDbLine
 10
30.92132853003976
 20
16.55776654449721
 30
0.0
 11
22.03132853003972
 21
16.55776654449729
 31
0.0
  0
LINE
  5
25C
330
1F
100
AcDbEntity
  8
0
100
AcDbLine
 10
20.79669539476987
 20
18.40552560951992
 30
0.0
 11
21.03132853003977
 21
18.28981735206618
 31
0.0
  0
LINE
  5
25D
330
1F
100
AcDbEntity
  8
0
100
AcDbLine
 10
21.87908759506224
 20
17.32313340922748
 30
0.0
 11
21.96318018261789
 21
17.07540463470227
 31
0.0
  0
LINE
  5
25E
330
1F
100
AcDbEntity
  8
0
100
AcDbLine
 10
32.92132853003976
 20
18.55776654449721
 30
0.0
 11
32.40369043983478
 21
18.48961819707538
 31
0.0
  0
LINE
  5
25F
330
1F
100
AcDbEntity
  8
0
100
AcDbLine
 10
31.70380567202226
 20
18.14447322507967
 30
0.0
 11
31.50711496766666
 21
17.9719801068704
 31
0.0
  0
LINE
  5
260
330
1F
100
AcDbEntity
  8
0
100
AcDbLine
 10
31.9213285300398
 20
18.28981735206635
 30
0.0
 11
31.70380567202226
 21
18.14447322507967
 31
0.0
  0
LINE
  5
261
330
1F
100
AcDbEntity
  8
0
100
AcDbLine
 10
31.07356946501724
 20
17.32313340922745
 30
0.0
 11
30.98947687746168
 21
17.07540463470246
 31
0.0
  0
LINE
  5
262
330
1F
100
AcDbEntity
  8
0
100
AcDbLine
 10
31.50711496766666
 20
17.9719801068704
 30
0.0
 11
31.33462184945729
 21
17.77528940251461
 31
0.0
  0
LINE
  5
263
330
1F
100
AcDbEntity
  8
0
100
AcDbLine
 10
21.44554209241282
 20
17.97198010687032
 30
0.0
 11
21.61803521062227
 21
17.77528940251461
 31
0.0
  0
LINE
  5
264
330
1F
100
AcDbEntity
  8
0
100
AcDbLine
 10
32.15596166530961
 20
18.40552560951981
 30
0.0
 11
31.9213285300398
 21
18.28981735206635
 31
0.0
  0
LINE
  5
265
330
1F
100
AcDbEntity
  8
0
100
AcDbLine
 10
21.61803521062227
 20
17.77528940251461
 30
0.0
 11
21.76337933760859
 21
17.5577665444972
 31
0.0
  0
LINE
  5
266
330
1F
100
AcDbEntity
  8
0
100
AcDbLine
 10
31.33462184945729
 20
17.77528940251461
 30
0.0
 11
31.18927772247089
 21
17.55776654449748
 31
0.0
  0
LINE
  5
267
330
1F
100
AcDbEntity
  8
0
100
AcDbLine
 10
20.5489666202447
 20
18.48961819707539
 30
0.0
 11
20.79669539476987
 21
18.40552560951992
 31
0.0
  0
LINE
  5
268
330
1F
100
AcDbEntity
  8
0
100
AcDbLine
 10
21.76337933760859
 20
17.5577665444972
 30
0.0
 11
21.87908759506224
 21
17.32313340922748
 31
0.0
  0
LINE
  5
269
330
1F
100
AcDbEntity
  8
0
100
AcDbLine
 10
31.18927772247089
 20
17.55776654449748
 30
0.0
 11
31.07356946501724
 21
17.32313340922745
 31
0.0
  0
LINE
  5
26A
330
1F
100
AcDbEntity
  8
0
100
AcDbLine
 10
30.98947687746168
 20
17.07540463470246
 30
0.0
 11
30.92132853003976
 21
16.55776654449721
 31
0.0
  0
LINE
  5
26B
330
1F
100
AcDbEntity
  8
0
100
AcDbLine
 10
32.92132853003976
 20
18.55776654449721
 30
0.0
 11
46.35499261812546
 21
18.55776654449716
 31
0.0
  0
LINE
  5
26C
330
1F
100
AcDbEntity
  8
0
100
AcDbLine
 10
-46.34065286952672
 20
18.55776654449751
 30
0.0
 11
20.03132853003963
 21
18.55776654449731
 31
0.0
  0
LINE
  5
26D
330
1F
100
AcDbEntity
  8
0
100
AcDbLine
 10
-49.08501777906301
 20
3.557766544497585
 30
0.0
 11
49.08501777906332
 21
3.557766544497638
 31
0.0
  0
LINE
  5
26E
330
1F
100
AcDbEntity
  8
0
100
AcDbLine
 10
-27.15167192187653
 20
7.962539872217506
 30
0.0
 11
-56.38092345323
 21
7.962539872217455
 31
0.0
  0
LINE
  5
26F
330
1F
100
AcDbEntity
  8
0
100
AcDbLine
 10
27.15167192187689
 20
7.962539872217512
 30
0.0
 11
56.38092345323025
 21
7.962539872217105
 31
0.0
  0
ENDSEC
  0
SECTION
  2
OBJECTS
  0
DICTIONARY
  5
C
330
0
100
AcDbDictionary
  3
ACAD_GROUP
350
D
  3
ACAD_LAYOUT
350
1A
  3
ACAD_MATERIAL
350
43
  3
ACAD_MLEADERSTYLE
350
292
  3
ACAD_MLINESTYLE
350
17
  3
ACAD_PLOTSETTINGS
350
19
  3
ACAD_SCALELIST
350
47
  3
ACAD_VISUALSTYLE
350
2A
  3
ACDBHEADERROUNDTRIPXREC
350
270
  3
ACDBVARIABLEDICTIONARY
350
290
  0
DICTIONARY
  5
297
330
8
100
AcDbDictionary
280
     1
  3
ACAD_XREC_ROUNDTRIP
360
298
  0
DICTIONARY
  5
D
102
{ACAD_REACTORS
330
C
102
}
330
C
100
AcDbDictionary
  0
DICTIONARY
  5
1A
102
{ACAD_REACTORS
330
C
102
}
330
C
100
AcDbDictionary
  0
DICTIONARY
  5
43
102
{ACAD_REACTORS
330
C
102
}
330
C
100
AcDbDictionary
  3
BYBLOCK
350
45
  3
BYLAYER
350
44
  3
GLOBAL
350
46
  0
DICTIONARY
  5
292
102
{ACAD_REACTORS
330
C
102
}
330
C
100
AcDbDictionary
  0
DICTIONARY
  5
17
102
{ACAD_REACTORS
330
C
102
}
330
C
100
AcDbDictionary
  3
STANDARD
350
18
  0
DICTIONARY
  5
19
102
{ACAD_REACTORS
330
C
102
}
330
C
100
AcDbDictionary
  0
DICTIONARY
  5
47
102
{ACAD_REACTORS
330
C
102
}
330
C
100
AcDbDictionary
  3
A0
350
48
  3
A1
350
49
  3
A2
350
4A
  3
A3
350
4B
  3
A4
350
4C
  3
A5
350
4D
  3
A6
350
4E
  3
A7
350
4F
  3
A8
350
50
  3
A9
350
51
  3
B0
350
52
  3
B1
350
53
  3
B2
350
54
  3
B3
350
55
  3
B4
350
56
  3
B5
350
57
  3
B6
350
58
  3
B7
350
59
  3
B8
350
5A
  3
B9
350
5B
  3
C0
350
5C
  3
C1
350
5D
  3
C2
350
5E
  3
C3
350
5F
  3
C4
350
60
  3
C5
350
61
  3
C6
350
62
  3
C7
350
63
  3
C8
350
64
  3
C9
350
65
  3
D0
350
66
  3
D1
350
67
  3
D2
350
68
  0
DICTIONARY
  5
2A
102
{ACAD_REACTORS
330
C
102
}
330
C
100
AcDbDictionary
  3
2DWIREFRAME
350
2F
  3
BASIC
350
32
  3
BRIGHTEN
350
36
  3
COLORCHANGE
350
3A
  3
CONCEPTUAL
350
34
  3
DIM
350
35
  3
EDGECOLOROFF
350
3D
  3
FACEPATTERN
350
39
  3
FLAT
350
2B
  3
FLATWITHEDGES
350
2C
  3
GOURAUD
350
2D
  3
GOURAUDWITHEDGES
350
2E
  3
HIDDEN
350
31
  3
JITTEROFF
350
3B
  3
LINEPATTERN
350
38
  3
OVERHANGOFF
350
3C
  3
REALISTIC
350
33
  3
SHADED
350
42
  3
SHADED_WITH_EDGES
350
41
  3
SHADES_OF_GRAY
350
3E
  3
SKETCHY
350
3F
  3
THICKEN
350
37
  3
WIREFRAME
350
30
  3
X-RAY
350
40
  0
DICTIONARY
  5
270
102
{ACAD_REACTORS
330
C
102
}
330
C
100
AcDbDictionary
  3
CEPSNTYPE
350
279
  3
DIMSTYLEDATA
350
28F
  3
FINGERPRINTGUID
350
27A
  3
HYPERLINKBASE
350
273
  3
INSUNITS
350
278
  3
LAYOUTDICT
350
275
  3
LWETCUNION
350
277
  3
PLOTSETDICT
350
276
  3
PSVPSCALE
350
27C
  3
PUCSBASE
350
27F
  3
PUCSORGBACK
350
285
  3
PUCSORGBOTTOM
350
281
  3
PUCSORGFRONT
350
284
  3
PUCSORGLEFT
350
282
  3
PUCSORGRIGHT
350
283
  3
PUCSORGTOP
350
280
  3
PUCSORTHOREF
350
27D
  3
PUCSORTHOVIEW
350
27E
  3
STYLESHEET
350
274
  3
TSTACKALIGN
350
271
  3
TSTACKSIZE
350
272
  3
UCSBASE
350
288
  3
UCSORGBACK
350
28E
  3
UCSORGBOTTOM
350
28A
  3
UCSORGFRONT
350
28D
  3
UCSORGLEFT
350
28B
  3
UCSORGRIGHT
350
28C
  3
UCSORGTOP
350
289
  3
UCSORTHOREF
350
286
  3
UCSORTHOVIEW
350
287
  3
VERSIONGUID
350
27B
  0
DICTIONARY
  5
290
102
{ACAD_REACTORS
330
C
102
}
330
C
100
AcDbDictionary
  3
CANNOSCALE
350
299
  3
DIMASSOC
350
295
  3
HIDETEXT
350
296
  3
MSLTSCALE
350
29A
  0
XRECORD
  5
298
102
{ACAD_REACTORS
330
297
102
}
330
297
100
AcDbXrecord
102
VTR_0.000_0.000_1.000_1.000_GRIDDISPLAY
 70
     3
102
VTR_0.000_0.000_1.000_1.000_GRIDMAJOR
 70
     5
102
VTR_0.000_0.000_1.000_1.000_DEFAULTLIGHTING
280
     1
102
VTR_0.000_0.000_1.000_1.000_DEFAULTLIGHTINGTYPE
 70
     1
102
VTR_0.000_0.000_1.000_1.000_BRIGHTNESS
141
0.0
102
VTR_0.000_0.000_1.000_1.000_CONTRAST
142
0.0
  0
MATERIAL
  5
45
102
{ACAD_REACTORS
330
43
102
}
102
{ACAD_XDICTIONARY
360
29D
102
}
330
43
100
AcDbMaterial
  1
BYBLOCK
  0
MATERIAL
  5
44
102
{ACAD_REACTORS
330
43
102
}
102
{ACAD_XDICTIONARY
360
29B
102
}
330
43
100
AcDbMaterial
  1
BYLAYER
  0
MATERIAL
  5
46
102
{ACAD_REACTORS
330
43
102
}
102
{ACAD_XDICTIONARY
360
29F
102
}
330
43
100
AcDbMaterial
  1
GLOBAL
  0
MLINESTYLE
  5
18
102
{ACAD_REACTORS
330
17
102
}
330
17
100
AcDbMlineStyle
  2
Standard
 70
     0
  3

 62
   256
 51
90.0
 52
90.0
 71
     2
 49
0.5
 62
   256
  6
BYLAYER
 49
-0.5
 62
   256
  6
BYLAYER
  0
ACAD_PROXY_OBJECT
  5
48
102
{ACAD_REACTORS
330
47
102
}
330
47
100
AcDbProxyObject
 90
      499
 91
      503
 93
       41
310
903313A31580
  0
ACAD_PROXY_OBJECT
  5
49
102
{ACAD_REACTORS
330
47
102
}
330
47
100
AcDbProxyObject
 90
      499
 91
      503
 93
      105
310
903313A324000000000000004000
  0
ACAD_PROXY_OBJECT
  5
4A
102
{ACAD_REACTORS
330
47
102
}
330
47
100
AcDbProxyObject
 90
      499
 91
      503
 93
      105
310
903313A344000000000000104000
  0
ACAD_PROXY_OBJECT
  5
4B
102
{ACAD_REACTORS
330
47
102
}
330
47
100
AcDbProxyObject
 90
      499
 91
      503
 93
      105
310
903313A354000000000000144000
  0
ACAD_PROXY_OBJECT
  5
4C
102
{ACAD_REACTORS
330
47
102
}
330
47
100
AcDbProxyObject
 90
      499
 91
      503
 93
      105
310
903313A384000000000000204000
  0
ACAD_PROXY_OBJECT
  5
4D
102
{ACAD_REACTORS
330
47
102
}
330
47
100
AcDbProxyObject
 90
      499
 91
      503
 93
      113
310
904313A31304000000000000244000
  0
ACAD_PROXY_OBJECT
  5
4E
102
{ACAD_REACTORS
330
47
102
}
330
47
100
AcDbProxyObject
 90
      499
 91
      503
 93
      113
310
904313A31364000000000000304000
  0
ACAD_PROXY_OBJECT
  5
4F
102
{ACAD_REACTORS
330
47
102
}
330
47
100
AcDbProxyObject
 90
      499
 91
      503
 93
      113
310
904313A32304000000000000344000
  0
ACAD_PROXY_OBJECT
  5
50
102
{ACAD_REACTORS
330
47
102
}
330
47
100
AcDbProxyObject
 90
      499
 91
      503
 93
      113
310
904313A333040000000000003E4000
  0
ACAD_PROXY_OBJECT
  5
51
102
{ACAD_REACTORS
330
47
102
}
330
47
100
AcDbProxyObject
 90
      499
 91
      503
 93
      113
310
904313A34304000000000000444000
  0
ACAD_PROXY_OBJECT
  5
52
102
{ACAD_REACTORS
330
47
102
}
330
47
100
AcDbProxyObject
 90
      499
 91
      503
 93
      113
310
904313A35304000000000000494000
  0
ACAD_PROXY_OBJECT
  5
53
102
{ACAD_REACTORS
330
47
102
}
330
47
100
AcDbProxyObject
 90
      499
 91
      503
 93
      121
310
905313A3130304000000000000594000
  0
ACAD_PROXY_OBJECT
  5
54
102
{ACAD_REACTORS
330
47
102
}
330
47
100
AcDbProxyObject
 90
      499
 91
      503
 93
      105
310
903323A310000000000000010100
  0
ACAD_PROXY_OBJECT
  5
55
102
{ACAD_REACTORS
330
47
102
}
330
47
100
AcDbProxyObject
 90
      499
 91
      503
 93
      105
310
903343A310000000000000410100
  0
ACAD_PROXY_OBJECT
  5
56
102
{ACAD_REACTORS
330
47
102
}
330
47
100
AcDbProxyObject
 90
      499
 91
      503
 93
      105
310
903383A310000000000000810100
  0
ACAD_PROXY_OBJECT
  5
57
102
{ACAD_REACTORS
330
47
102
}
330
47
100
AcDbProxyObject
 90
      499
 91
      503
 93
      113
310
90431303A310000000000000910100
  0
ACAD_PROXY_OBJECT
  5
58
102
{ACAD_REACTORS
330
47
102
}
330
47
100
AcDbProxyObject
 90
      499
 91
      503
 93
      121
310
9053130303A310000000000001650100
  0
ACAD_PROXY_OBJECT
  5
59
102
{ACAD_REACTORS
330
47
102
}
330
47
100
AcDbProxyObject
 90
      499
 91
      503
 93
      257
310
90E312F31323822203D2031272D3022000000000000200FC000000000000284000
  0
ACAD_PROXY_OBJECT
  5
5A
102
{ACAD_REACTORS
330
47
102
}
330
47
100
AcDbProxyObject
 90
      499
 91
      503
 93
      249
310
90D312F363422203D2031272D3022000000000000240FC000000000000284000
  0
ACAD_PROXY_OBJECT
  5
5B
102
{ACAD_REACTORS
330
47
102
}
330
47
100
AcDbProxyObject
 90
      499
 91
      503
 93
      249
310
90D312F333222203D2031272D3022000000000000280FC000000000000284000
  0
ACAD_PROXY_OBJECT
  5
5C
102
{ACAD_REACTORS
330
47
102
}
330
47
100
AcDbProxyObject
 90
      499
 91
      503
 93
      249
310
90D312F313622203D2031272D30220000000000002C0FC000000000000284000
  0
ACAD_PROXY_OBJECT
  5
5D
102
{ACAD_REACTORS
330
47
102
}
330
47
100
AcDbProxyObject
 90
      499
 91
      503
 93
      249
310
90D332F333222203D2031272D30220000000000002E0FC000000000000284000
  0
ACAD_PROXY_OBJECT
  5
5E
102
{ACAD_REACTORS
330
47
102
}
330
47
100
AcDbProxyObject
 90
      499
 91
      503
 93
      241
310
90C312F3822203D2031272D3022000000000000300FC000000000000284000
  0
ACAD_PROXY_OBJECT
  5
5F
102
{ACAD_REACTORS
330
47
102
}
330
47
100
AcDbProxyObject
 90
      499
 91
      503
 93
      249
310
90D332F313622203D2031272D3022000000000000320FC000000000000284000
  0
ACAD_PROXY_OBJECT
  5
60
102
{ACAD_REACTORS
330
47
102
}
330
47
100
AcDbProxyObject
 90
      499
 91
      503
 93
      241
310
90C312F3422203D2031272D3022000000000000340FC000000000000284000
  0
ACAD_PROXY_OBJECT
  5
61
102
{ACAD_REACTORS
330
47
102
}
330
47
100
AcDbProxyObject
 90
      499
 91
      503
 93
      241
310
90C332F3822203D2031272D3022000000000000360FC000000000000284000
  0
ACAD_PROXY_OBJECT
  5
62
102
{ACAD_REACTORS
330
47
102
}
330
47
100
AcDbProxyObject
 90
      499
 91
      503
 93
      241
310
90C312F3222203D2031272D3022000000000000380FC000000000000284000
  0
ACAD_PROXY_OBJECT
  5
63
102
{ACAD_REACTORS
330
47
102
}
330
47
100
AcDbProxyObject
 90
      499
 91
      503
 93
      241
310
90C332F3422203D2031272D30220000000000003A0FC000000000000284000
  0
ACAD_PROXY_OBJECT
  5
64
102
{ACAD_REACTORS
330
47
102
}
330
47
100
AcDbProxyObject
 90
      499
 91
      503
 93
      161
310
90A3122203D2031272D30224000000000000284000
  0
ACAD_PROXY_OBJECT
  5
65
102
{ACAD_REACTORS
330
47
102
}
330
47
100
AcDbProxyObject
 90
      499
 91
      503
 93
      257
310
90E312D312F3222203D2031272D30220000000000003E0FC000000000000284000
  0
ACAD_PROXY_OBJECT
  5
66
102
{ACAD_REACTORS
330
47
102
}
330
47
100
AcDbProxyObject
 90
      499
 91
      503
 93
      225
310
90A3322203D2031272D302200000000000002100000000000000284000
  0
ACAD_PROXY_OBJECT
  5
67
102
{ACAD_REACTORS
330
47
102
}
330
47
100
AcDbProxyObject
 90
      499
 91
      503
 93
      225
310
90A3622203D2031272D302200000000000006100000000000000284000
  0
ACAD_PROXY_OBJECT
  5
68
102
{ACAD_REACTORS
330
47
102
}
330
47
100
AcDbProxyObject
 90
      499
 91
      503
 93
      249
310
90D31272D3022203D2031272D30220000000000000A100000000000000284000
  0
ACAD_PROXY_OBJECT
  5
2F
102
{ACAD_REACTORS
330
2A
102
}
330
2A
100
AcDbProxyObject
 90
      499
 91
      501
 93
      436
310
42CC9915DA5C99599C985B595049028333333333333E33F0000000000000F90107901411070040501600405405064090741402480A0340
1001
ACAD
1000
AcDbSavedByObjectVersion
1070
     0
  0
ACAD_PROXY_OBJECT
  5
32
102
{ACAD_REACTORS
330
2A
102
}
330
2A
100
AcDbProxyObject
 90
      499
 91
      501
 93
      388
310
4150985CDA58D07406404333333333333E33F0000000000000F90107A41107004050150841D405064090741402480A0350
1001
ACAD
1000
AcDbSavedByObjectVersion
1070
     0
  0
ACAD_PROXY_OBJECT
  5
36
102
{ACAD_REACTORS
330
2A
102
}
330
2A
100
AcDbProxyObject
 90
      499
 91
      501
 93
      428
310
42109C9A59DA1D195B90C409028333333333333E33F0000000000000F9010790141107004050150841D405064090741402480A029950
1001
ACAD
1000
AcDbSavedByObjectVersion
1070
     0
  0
ACAD_PROXY_OBJECT
  5
3A
102
{ACAD_REACTORS
330
2A
102
}
330
2A
100
AcDbProxyObject
 90
      499
 91
      501
 93
      452
310
42D0DBDB1BDC90DA185B99D95104090240C333333333333E33F0000000000000F90108901411070040501508421405064090741402480A0350
1001
ACAD
1000
AcDbSavedByObjectVersion
1070
     0
  0
ACAD_PROXY_OBJECT
  5
34
102
{ACAD_REACTORS
330
2A
102
}
330
2A
100
AcDbProxyObject
 90
      499
 91
      501
 93
      500
310
4290DBDB98D95C1D1D585B10940D028333333333333E33F0000000000000F90107902409070040501000000000018199010841D405064090740C02480A0340
1001
ACAD
1000
AcDbSavedByObjectVersion
1070
     0
  0
ACAD_PROXY_OBJECT
  5
35
102
{ACAD_REACTORS
330
2A
102
}
330
2A
100
AcDbProxyObject
 90
      499
 91
      501
 93
      412
310
40D11A5B50B409028333333333333E33F0000000000000F9010790141107004050150841D405064090741402480A02677FFFFFD0
1001
ACAD
1000
AcDbSavedByObjectVersion
1070
     0
  0
ACAD_PROXY_OBJECT
  5
3D
102
{ACAD_REACTORS
330
2A
102
}
330
2A
100
AcDbProxyObject
 90
      499
 91
      501
 93
      452
310
43115919D950DBDB1BDC93D999916409028333333333333E33F0000000000000F9010790141107004050150841D405064090741402480A0350
1001
ACAD
1000
AcDbSavedByObjectVersion
1070
     0
  0
ACAD_PROXY_OBJECT
  5
39
102
{ACAD_REACTORS
330
2A
102
}
330
2A
100
AcDbProxyObject
 90
      499
 91
      501
 93
      444
310
42D19858D95C185D1D195C9B90F409028333333333333E33F0000000000000F9010790141107004050150841D405064090741402480A0350
1001
ACAD
1000
AcDbSavedByObjectVersion
1070
     0
  0
ACAD_PROXY_OBJECT
  5
2B
102
{ACAD_REACTORS
330
2A
102
}
330
2A
100
AcDbProxyObject
 90
      499
 91
      501
 93
      380
310
41119B185D240901404333333333333E33F0000000000000F9010740A907004050150841D405064090741402480A1B50
1001
ACAD
1000
AcDbSavedByObjectVersion
1070
     0
  0
ACAD_PROXY_OBJECT
  5
2C
102
{ACAD_REACTORS
330
2A
102
}
330
2A
100
AcDbProxyObject
 90
      499
 91
      501
 93
      468
310
43519B185D15DA5D1A115919D95CD0140901404333333333333E33F0000000000000F90107409019070040501600405405064090741402480A1B50
1001
ACAD
1000
AcDbSavedByObjectVersion
1070
     0
  0
ACAD_PROXY_OBJECT
  5
2D
102
{ACAD_REACTORS
330
2A
102
}
330
2A
100
AcDbProxyObject
 90
      499
 91
      501
 93
      404
310
41D1DBDD5C985D5910240902404333333333333E33F0000000000000F9010740A9070040501641D405064090741402480A1B50
1001
ACAD
1000
AcDbSavedByObjectVersion
1070
     0
  0
ACAD_PROXY_OBJECT
  5
2E
102
{ACAD_REACTORS
330
2A
102
}
330
2A
100
AcDbProxyObject
 90
      499
 91
      501
 93
      492
310
4411DBDD5C985D5915DA5D1A115919D95CD0340902404333333333333E33F0000000000000F90107409019070040501600405405064090741402480A1B50
1001
ACAD
1000
AcDbSavedByObjectVersion
1070
     0
  0
ACAD_PROXY_OBJECT
  5
31
102
{ACAD_REACTORS
330
2A
102
}
330
2A
100
AcDbProxyObject
 90
      499
 91
      501
 93
      476
310
41921A5919195B90640502408333333333333E33F0000000000000F901079024090700405020000000000001110200405405064090740C02480A0340
1001
ACAD
1000
AcDbSavedByObjectVersion
1070
     0
  0
ACAD_PROXY_OBJECT
  5
3B
102
{ACAD_REACTORS
330
2A
102
}
330
2A
100
AcDbProxyObject
 90
      499
 91
      501
 93
      428
310
42529A5D1D195C93D999914409028333333333333E33F0000000000000F9010790141107004050150A41D405064090741402480A0350
1001
ACAD
1000
AcDbSavedByObjectVersion
1070
     0
  0
ACAD_PROXY_OBJECT
  5
38
102
{ACAD_REACTORS
330
2A
102
}
330
2A
100
AcDbProxyObject
 90
      499
 91
      501
 93
      444
310
42D31A5B995C185D1D195C9B90E409028333333333333E33F0000000000000F9010790141107004050750841D405064090741402483A0350
1001
ACAD
1000
AcDbSavedByObjectVersion
1070
     0
  0
ACAD_PROXY_OBJECT
  5
3C
102
{ACAD_REACTORS
330
2A
102
}
330
2A
100
AcDbProxyObject
 90
      499
 91
      501
 93
      444
310
42D3DD995C9A185B99D3D999915409028333333333333E33F0000000000000F9010790141107004050150941D405064090741402480A0350
1001
ACAD
1000
AcDbSavedByObjectVersion
1070
     0
  0
ACAD_PROXY_OBJECT
  5
33
102
{ACAD_REACTORS
330
2A
102
}
330
2A
100
AcDbProxyObject
 90
      499
 91
      501
 93
      428
310
425499585B1A5CDD1A58D08409038333333333333E33F0000000000000F9010740A907004050150800405405064090740C02480A1B40
1001
ACAD
1000
AcDbSavedByObjectVersion
1070
     0
  0
ACAD_PROXY_OBJECT
  5
42
102
{ACAD_REACTORS
330
2A
102
}
330
2A
100
AcDbProxyObject
 90
      499
 91
      501
 93
      420
310
4194DA1859195911B40902404333333333333E33F0000000000000F9010740A41107004050150800405405064090840C02480A0B40
1001
ACAD
1000
AcDbSavedByObjectVersion
1070
     0
  0
ACAD_PROXY_OBJECT
  5
41
102
{ACAD_REACTORS
330
2A
102
}
330
2A
100
AcDbProxyObject
 90
      499
 91
      501
 93
      516
310
4454DA18591959081DDA5D1A08195919D95CD1A40902404333333333333E33F0000000000000F901074090142907004050250800405405064090740C02480A0B40
1001
ACAD
1000
AcDbSavedByObjectVersion
1070
     0
  0
ACAD_PROXY_OBJECT
  5
3E
102
{ACAD_REACTORS
330
2A
102
}
330
2A
100
AcDbProxyObject
 90
      499
 91
      501
 93
      532
310
4394DA1859195CC81BD98811DC985E5174090240C333333333333E33F0000000000000F901079024090741D01000000000000111010841D405064090740C02480A0340
1001
ACAD
1000
AcDbSavedByObjectVersion
1070
     0
  0
ACAD_PROXY_OBJECT
  5
3F
102
{ACAD_REACTORS
330
2A
102
}
330
2A
100
AcDbProxyObject
 90
      499
 91
      501
 93
      476
310
41D4DAD95D18DA1E51840502408333333333333E33F0000000000000F901079024090741D01000000000000111010B41D405064090741802480A0340
1001
ACAD
1000
AcDbSavedByObjectVersion
1070
     0
  0
ACAD_PROXY_OBJECT
  5
37
102
{ACAD_REACTORS
330
2A
102
}
330
2A
100
AcDbProxyObject
 90
      499
 91
      501
 93
      412
310
41D51A1A58DAD95B90D409028333333333333E33F0000000000000F9010790141107004050150C41D405064090741402480A0350
1001
ACAD
1000
AcDbSavedByObjectVersion
1070
     0
  0
ACAD_PROXY_OBJECT
  5
30
102
{ACAD_REACTORS
330
2A
102
}
330
2A
100
AcDbProxyObject
 90
      499
 91
      501
 93
      420
310
4255DA5C99599C985B595059028333333333333E33F0000000000000F90107901411070040501600405405064090740C02480A0340
1001
ACAD
1000
AcDbSavedByObjectVersion
1070
     0
  0
ACAD_PROXY_OBJECT
  5
40
102
{ACAD_REACTORS
330
2A
102
}
330
2A
100
AcDbProxyObject
 90
      499
 91
      501
 93
      404
310
41560B54985E51940902404000000000000E03F0000000000000F9010740501907004050150841D405064090740C02480A1B40
1001
ACAD
1000
AcDbSavedByObjectVersion
1070
     0
  0
XRECORD
  5
279
102
{ACAD_REACTORS
330
270
102
}
330
270
100
AcDbXrecord
 90
        0
  0
XRECORD
  5
28F
102
{ACAD_REACTORS
330
270
102
}
330
270
100
AcDbXrecord
1000
DSTYLE
1002
{
1070
   171
 70
     2
1070
   143
 40
25.4
1070
   274
 70
     2
1070
    41
 40
0.18
1070
   141
 40
0.09
1070
   271
 70
     4
1070
    43
 40
0.38
1070
   278
 70
    46
1070
    44
 40
0.18
1070
    42
 40
0.0625
1070
   147
 40
0.09
1070
    77
 70
     0
1070
   272
 70
     4
1070
    73
 70
     1
1070
   172
 70
     0
1070
    74
 70
     1
1070
   283
 70
     1
1070
   340
340
11
1070
   140
 40
0.18
1070
   284
 70
     0
1070
    78
 70
     0
1002
}
  0
XRECORD
  5
27A
102
{ACAD_REACTORS
330
270
102
}
330
270
100
AcDbXrecord
  1
{6EF04F74-C5E4-40C5-B5E1-01FECB117C3A}
  0
XRECORD
  5
273
102
{ACAD_REACTORS
330
270
102
}
330
270
100
AcDbXrecord
  1

  0
XRECORD
  5
278
102
{ACAD_REACTORS
330
270
102
}
330
270
100
AcDbXrecord
 90
        4
  0
XRECORD
  5
275
102
{ACAD_REACTORS
330
270
102
}
330
270
100
AcDbXrecord
340
1A
  0
XRECORD
  5
277
102
{ACAD_REACTORS
330
270
102
}
330
270
100
AcDbXrecord
 90
    10781
  0
XRECORD
  5
276
102
{ACAD_REACTORS
330
270
102
}
330
270
100
AcDbXrecord
340
19
  0
XRECORD
  5
27C
102
{ACAD_REACTORS
330
270
102
}
330
270
100
AcDbXrecord
 40
0.0
  0
XRECORD
  5
27F
102
{ACAD_REACTORS
330
270
102
}
330
270
100
AcDbXrecord
340
0
  0
XRECORD
  5
285
102
{ACAD_REACTORS
330
270
102
}
330
270
100
AcDbXrecord
 10
0.0
 20
0.0
 30
0.0
  0
XRECORD
  5
281
102
{ACAD_REACTORS
330
270
102
}
330
270
100
AcDbXrecord
 10
0.0
 20
0.0
 30
0.0
  0
XRECORD
  5
284
102
{ACAD_REACTORS
330
270
102
}
330
270
100
AcDbXrecord
 10
0.0
 20
0.0
 30
0.0
  0
XRECORD
  5
282
102
{ACAD_REACTORS
330
270
102
}
330
270
100
AcDbXrecord
 10
0.0
 20
0.0
 30
0.0
  0
XRECORD
  5
283
102
{ACAD_REACTORS
330
270
102
}
330
270
100
AcDbXrecord
 10
0.0
 20
0.0
 30
0.0
  0
XRECORD
  5
280
102
{ACAD_REACTORS
330
270
102
}
330
270
100
AcDbXrecord
 10
0.0
 20
0.0
 30
0.0
  0
XRECORD
  5
27D
102
{ACAD_REACTORS
330
270
102
}
330
270
100
AcDbXrecord
340
0
  0
XRECORD
  5
27E
102
{ACAD_REACTORS
330
270
102
}
330
270
100
AcDbXrecord
 70
     0
  0
XRECORD
  5
274
102
{ACAD_REACTORS
330
270
102
}
330
270
100
AcDbXrecord
  1

  0
XRECORD
  5
271
102
{ACAD_REACTORS
330
270
102
}
330
270
100
AcDbXrecord
 90
        1
  0
XRECORD
  5
272
102
{ACAD_REACTORS
330
270
102
}
330
270
100
AcDbXrecord
 90
       70
  0
XRECORD
  5
288
102
{ACAD_REACTORS
330
270
102
}
330
270
100
AcDbXrecord
340
0
  0
XRECORD
  5
28E
102
{ACAD_REACTORS
330
270
102
}
330
270
100
AcDbXrecord
 10
0.0
 20
0.0
 30
0.0
  0
XRECORD
  5
28A
102
{ACAD_REACTORS
330
270
102
}
330
270
100
AcDbXrecord
 10
0.0
 20
0.0
 30
0.0
  0
XRECORD
  5
28D
102
{ACAD_REACTORS
330
270
102
}
330
270
100
AcDbXrecord
 10
0.0
 20
0.0
 30
0.0
  0
XRECORD
  5
28B
102
{ACAD_REACTORS
330
270
102
}
330
270
100
AcDbXrecord
 10
0.0
 20
0.0
 30
0.0
  0
XRECORD
  5
28C
102
{ACAD_REACTORS
330
270
102
}
330
270
100
AcDbXrecord
 10
0.0
 20
0.0
 30
0.0
  0
XRECORD
  5
289
102
{ACAD_REACTORS
330
270
102
}
330
270
100
AcDbXrecord
 10
0.0
 20
0.0
 30
0.0
  0
XRECORD
  5
286
102
{ACAD_REACTORS
330
270
102
}
330
270
100
AcDbXrecord
340
0
  0
XRECORD
  5
287
102
{ACAD_REACTORS
330
270
102
}
330
270
100
AcDbXrecord
 70
     0
  0
XRECORD
  5
27B
102
{ACAD_REACTORS
330
270
102
}
330
270
100
AcDbXrecord
  1
{FAEB1C32-E019-11D5-929B-00C0DF256EC4}
  0
DICTIONARYVAR
  5
299
102
{ACAD_REACTORS
330
290
102
}
330
290
100
DictionaryVariables
280
     0
  1
1:1
  0
DICTIONARYVAR
  5
295
102
{ACAD_REACTORS
330
290
102
}
330
290
100
DictionaryVariables
280
     0
  1
2
  0
DICTIONARYVAR
  5
296
102
{ACAD_REACTORS
330
290
102
}
330
290
100
DictionaryVariables
280
     0
  1
1
  0
DICTIONARYVAR
  5
29A
102
{ACAD_REACTORS
330
290
102
}
330
290
100
DictionaryVariables
280
     0
  1
1
  0
DICTIONARY
  5
29D
330
45
100
AcDbDictionary
280
     1
  3
ACAD_XREC_ROUNDTRIP
360
29E
  0
DICTIONARY
  5
29B
330
44
100
AcDbDictionary
280
     1
  3
ACAD_XREC_ROUNDTRIP
360
29C
  0
DICTIONARY
  5
29F
330
46
100
AcDbDictionary
280
     1
  3
ACAD_XREC_ROUNDTRIP
360
2A0
  0
XRECORD
  5
29E
102
{ACAD_REACTORS
330
29D
102
}
330
29D
100
AcDbXrecord
102
MATERIAL
148
0.0
149
0.0
149
0.0
 93
        0
 94
      127
282
     0
 72
     1
 77
     1
171
     1
175
     1
179
     1
273
     0
  0
XRECORD
  5
29C
102
{ACAD_REACTORS
330
29B
102
}
330
29B
100
AcDbXrecord
102
MATERIAL
148
0.0
149
0.0
149
0.0
 93
        0
 94
      127
282
     0
 72
     1
 77
     1
171
     1
175
     1
179
     1
273
     0
  0
XRECORD
  5
2A0
102
{ACAD_REACTORS
330
29F
102
}
330
29F
100
AcDbXrecord
102
MATERIAL
148
0.0
149
0.0
149
0.0
 93
        0
 94
      127
282
     0
 72
     1
 77
     1
171
     1
175
     1
179
     1
273
     0
  0
ENDSEC
  0
EOF
