  0
SECTION
  2
HEADER
  9
$ACADVER
  1
AC1014
  9
$ACADMAINTVER
 70
     9
  9
$DWGCODEPAGE
  3
ANSI_1252
  9
$INSBASE
 10
0.0
 20
0.0
 30
0.0
  9
$EXTMIN
 10
1.000000000000000E+20
 20
1.000000000000000E+20
 30
1.000000000000000E+20
  9
$EXTMAX
 10
-1.000000000000000E+20
 20
-1.000000000000000E+20
 30
-1.000000000000000E+20
  9
$LIMMIN
 10
0.0
 20
0.0
  9
$LIMMAX
 10
12.0
 20
9.0
  9
$ORTHOMODE
 70
     0
  9
$REGENMODE
 70
     1
  9
$FILLMODE
 70
     1
  9
$QTEXTMODE
 70
     0
  9
$MIRRTEXT
 70
     1
  9
$DRAGMODE
 70
     2
  9
$LTSCALE
 40
1.0
  9
$OSMODE
 70
    37
  9
$ATTMODE
 70
     1
  9
$TEXTSIZE
 40
0.2
  9
$TRACEWID
 40
0.05
  9
$TEXTSTYLE
  7
STANDARD
  9
$CLAYER
  8
0
  9
$CELTYPE
  6
BYLAYER
  9
$CECOLOR
 62
   256
  9
$CELTSCALE
 40
1.0
  9
$DELOBJ
 70
     1
  9
$DISPSILH
 70
     0
  9
$DIMSCALE
 40
1.0
  9
$DIMASZ
 40
0.18
  9
$DIMEXO
 40
0.0625
  9
$DIMDLI
 40
0.38
  9
$DIMRND
 40
0.0
  9
$DIMDLE
 40
0.0
  9
$DIMEXE
 40
0.18
  9
$DIMTP
 40
0.0
  9
$DIMTM
 40
0.0
  9
$DIMTXT
 40
0.18
  9
$DIMCEN
 40
0.09
  9
$DIMTSZ
 40
0.0
  9
$DIMTOL
 70
     0
  9
$DIMLIM
 70
     0
  9
$DIMTIH
 70
     1
  9
$DIMTOH
 70
     1
  9
$DIMSE1
 70
     0
  9
$DIMSE2
 70
     0
  9
$DIMTAD
 70
     0
  9
$DIMZIN
 70
     0
  9
$DIMBLK
  1

  9
$DIMASO
 70
     1
  9
$DIMSHO
 70
     1
  9
$DIMPOST
  1

  9
$DIMAPOST
  1

  9
$DIMALT
 70
     0
  9
$DIMALTD
 70
     2
  9
$DIMALTF
 40
25.4
  9
$DIMLFAC
 40
1.0
  9
$DIMTOFL
 70
     0
  9
$DIMTVP
 40
0.0
  9
$DIMTIX
 70
     0
  9
$DIMSOXD
 70
     0
  9
$DIMSAH
 70
     0
  9
$DIMBLK1
  1

  9
$DIMBLK2
  1

  9
$DIMSTYLE
  2
STANDARD
  9
$DIMCLRD
 70
     0
  9
$DIMCLRE
 70
     0
  9
$DIMCLRT
 70
     0
  9
$DIMTFAC
 40
1.0
  9
$DIMGAP
 40
0.09
  9
$DIMJUST
 70
     0
  9
$DIMSD1
 70
     0
  9
$DIMSD2
 70
     0
  9
$DIMTOLJ
 70
     1
  9
$DIMTZIN
 70
     0
  9
$DIMALTZ
 70
     0
  9
$DIMALTTZ
 70
     0
  9
$DIMFIT
 70
     3
  9
$DIMUPT
 70
     0
  9
$DIMUNIT
 70
     2
  9
$DIMDEC
 70
     4
  9
$DIMTDEC
 70
     4
  9
$DIMALTU
 70
     2
  9
$DIMALTTD
 70
     2
  9
$DIMTXSTY
  7
STANDARD
  9
$DIMAUNIT
 70
     0
  9
$LUNITS
 70
     2
  9
$LUPREC
 70
     4
  9
$SKETCHINC
 40
0.1
  9
$FILLETRAD
 40
0.5
  9
$AUNITS
 70
     0
  9
$AUPREC
 70
     0
  9
$MENU
  1
.
  9
$ELEVATION
 40
0.0
  9
$PELEVATION
 40
0.0
  9
$THICKNESS
 40
0.0
  9
$LIMCHECK
 70
     0
  9
$CHAMFERA
 40
0.0
  9
$CHAMFERB
 40
0.0
  9
$CHAMFERC
 40
0.0
  9
$CHAMFERD
 40
0.0
  9
$SKPOLY
 70
     0
  9
$TDCREATE
 40
2457013.656080949
  9
$TDUPDATE
 40
2457013.656081215
  9
$TDINDWG
 40
0.0000000116
  9
$TDUSRTIMER
 40
0.0000000116
  9
$USRTIMER
 70
     1
  9
$ANGBASE
 50
0.0
  9
$ANGDIR
 70
     0
  9
$PDMODE
 70
     0
  9
$PDSIZE
 40
0.0
  9
$PLINEWID
 40
0.0
  9
$COORDS
 70
     1
  9
$SPLFRAME
 70
     0
  9
$SPLINETYPE
 70
     6
  9
$SPLINESEGS
 70
     8
  9
$ATTDIA
 70
     0
  9
$ATTREQ
 70
     1
  9
$HANDLING
 70
     1
  9
$HANDSEED
  5
2A9
  9
$SURFTAB1
 70
     6
  9
$SURFTAB2
 70
     6
  9
$SURFTYPE
 70
     6
  9
$SURFU
 70
     6
  9
$SURFV
 70
     6
  9
$UCSNAME
  2

  9
$UCSORG
 10
0.0
 20
0.0
 30
0.0
  9
$UCSXDIR
 10
1.0
 20
0.0
 30
0.0
  9
$UCSYDIR
 10
0.0
 20
1.0
 30
0.0
  9
$PUCSNAME
  2

  9
$PUCSORG
 10
0.0
 20
0.0
 30
0.0
  9
$PUCSXDIR
 10
1.0
 20
0.0
 30
0.0
  9
$PUCSYDIR
 10
0.0
 20
1.0
 30
0.0
  9
$USERI1
 70
     0
  9
$USERI2
 70
     0
  9
$USERI3
 70
     0
  9
$USERI4
 70
     0
  9
$USERI5
 70
     0
  9
$USERR1
 40
0.0
  9
$USERR2
 40
0.0
  9
$USERR3
 40
0.0
  9
$USERR4
 40
0.0
  9
$USERR5
 40
0.0
  9
$WORLDVIEW
 70
     1
  9
$SHADEDGE
 70
     3
  9
$SHADEDIF
 70
    70
  9
$TILEMODE
 70
     1
  9
$MAXACTVP
 70
    64
  9
$PINSBASE
 10
0.0
 20
0.0
 30
0.0
  9
$PLIMCHECK
 70
     0
  9
$PEXTMIN
 10
1.000000000000000E+20
 20
1.000000000000000E+20
 30
1.000000000000000E+20
  9
$PEXTMAX
 10
-1.000000000000000E+20
 20
-1.000000000000000E+20
 30
-1.000000000000000E+20
  9
$PLIMMIN
 10
0.0
 20
0.0
  9
$PLIMMAX
 10
12.0
 20
9.0
  9
$UNITMODE
 70
     0
  9
$VISRETAIN
 70
     1
  9
$PLINEGEN
 70
     0
  9
$PSLTSCALE
 70
     1
  9
$TREEDEPTH
 70
  3020
  9
$PICKSTYLE
 70
     1
  9
$CMLSTYLE
  2
STANDARD
  9
$CMLJUST
 70
     0
  9
$CMLSCALE
 40
1.0
  9
$PROXYGRAPHICS
 70
     1
  9
$MEASUREMENT
 70
     1
  0
ENDSEC
  0
SECTION
  2
CLASSES
  0
CLASS
  1
ACDBDICTIONARYWDFLT
  2
AcDbDictionaryWithDefault
  3
ObjectDBX Classes
 90
        0
280
     0
281
     0
  0
CLASS
  1
VISUALSTYLE
  2
AcDbVisualStyle
  3
ObjectDBX Classes
 90
     4095
280
     0
281
     0
  0
CLASS
  1
MATERIAL
  2
AcDbMaterial
  3
ObjectDBX Classes
 90
     1153
280
     0
281
     0
  0
CLASS
  1
SCALE
  2
AcDbScale
  3
ObjectDBX Classes
 90
     1153
280
     0
281
     0
  0
CLASS
  1
SUN
  2
AcDbSun
  3
SCENEOE
 90
     1153
280
     0
281
     0
  0
CLASS
  1
DICTIONARYVAR
  2
AcDbDictionaryVar
  3
ObjectDBX Classes
 90
        0
280
     0
281
     0
  0
CLASS
  1
XRECORD
  2
AcDbXrecord
  3
ObjectDBX Classes
 90
        0
280
     0
281
     0
  0
CLASS
  1
LWPOLYLINE
  2
AcDbPolyline
  3
ObjectDBX Classes
 90
        0
280
     0
281
     1
  0
CLASS
  1
HATCH
  2
AcDbHatch
  3
ObjectDBX Classes
 90
        0
280
     0
281
     1
  0
CLASS
  1
ACDBPLACEHOLDER
  2
AcDbPlaceHolder
  3
ObjectDBX Classes
 90
        0
280
     0
281
     0
  0
CLASS
  1
LAYOUT
  2
AcDbLayout
  3
ObjectDBX Classes
 90
        0
280
     0
281
     0
  0
ENDSEC
  0
SECTION
  2
TABLES
  0
TABLE
  2
VPORT
  5
8
102
{ACAD_XDICTIONARY
360
29F
102
}
330
0
100
AcDbSymbolTable
 70
     1
  0
VPORT
  5
29
330
8
100
AcDbSymbolTableRecord
100
AcDbViewportTableRecord
  2
*ACTIVE
 70
     0
 10
0.0
 20
0.0
 11
1.0
 21
1.0
 12
0.0
 22
0.0
 13
0.0
 23
0.0
 14
0.5
 24
0.5
 15
0.5
 25
0.5
 16
0.0
 26
0.0
 36
1.0
 17
0.0
 27
0.0
 37
-1000.0
 40
67.42460079965981
 41
2.146478873239436
 42
50.0
 43
560.9660116956844
 44
716.6944054058366
 50
0.0
 51
0.0
 71
     0
 72
   100
 73
     1
 74
     3
 75
     0
 76
     0
 77
     0
 78
     0
  0
ENDTAB
  0
TABLE
  2
LTYPE
  5
5
330
0
100
AcDbSymbolTable
 70
     1
  0
LTYPE
  5
14
330
5
100
AcDbSymbolTableRecord
100
AcDbLinetypeTableRecord
  2
BYBLOCK
 70
     0
  3

 72
    65
 73
     0
 40
0.0
  0
LTYPE
  5
15
330
5
100
AcDbSymbolTableRecord
100
AcDbLinetypeTableRecord
  2
BYLAYER
 70
     0
  3

 72
    65
 73
     0
 40
0.0
  0
LTYPE
  5
16
330
5
100
AcDbSymbolTableRecord
100
AcDbLinetypeTableRecord
  2
CONTINUOUS
 70
     0
  3
Solid line
 72
    65
 73
     0
 40
0.0
  0
ENDTAB
  0
TABLE
  2
LAYER
  5
2
330
0
100
AcDbSymbolTable
 70
     3
  0
LAYER
  5
10
330
2
100
AcDbSymbolTableRecord
100
AcDbLayerTableRecord
  2
0
 70
     0
 62
     7
  6
CONTINUOUS
  0
LAYER
  5
6A
330
2
100
AcDbSymbolTableRecord
100
AcDbLayerTableRecord
  2
PROFILEEDGES
 70
     0
 62
     7
  6
CONTINUOUS
  0
LAYER
  5
6B
330
2
100
AcDbSymbolTableRecord
100
AcDbLayerTableRecord
  2
SECTIONCUTEDGES
 70
     0
 62
     7
  6
CONTINUOUS
  0
ENDTAB
  0
TABLE
  2
STYLE
  5
3
330
0
100
AcDbSymbolTable
 70
     1
  0
STYLE
  5
11
330
3
100
AcDbSymbolTableRecord
100
AcDbTextStyleTableRecord
  2
STANDARD
 70
     0
 40
0.0
 41
1.0
 50
0.0
 71
     0
 42
0.2
  3
txt
  4

  0
ENDTAB
  0
TABLE
  2
VIEW
  5
6
330
0
100
AcDbSymbolTable
 70
     0
  0
ENDTAB
  0
TABLE
  2
UCS
  5
7
330
0
100
AcDbSymbolTable
 70
     0
  0
ENDTAB
  0
TABLE
  2
APPID
  5
9
330
0
100
AcDbSymbolTable
 70
     1
  0
APPID
  5
12
330
9
100
AcDbSymbolTableRecord
100
AcDbRegAppTableRecord
  2
ACAD
 70
     0
  0
ENDTAB
  0
TABLE
  2
DIMSTYLE
  5
A
330
0
100
AcDbSymbolTable
 70
     1
  0
DIMSTYLE
105
27
330
A
100
AcDbSymbolTableRecord
100
AcDbDimStyleTableRecord
  2
STANDARD
 70
     0
  3

  4

  5

  6

  7

 40
1.0
 41
0.18
 42
0.0625
 43
0.38
 44
0.18
 45
0.0
 46
0.0
 47
0.0
 48
0.0
140
0.18
141
0.09
142
0.0
143
25.4
144
1.0
145
0.0
146
1.0
147
0.09
 71
     0
 72
     0
 73
     1
 74
     1
 75
     0
 76
     0
 77
     0
 78
     0
170
     0
171
     2
172
     0
173
     0
174
     0
175
     0
176
     0
177
     0
178
     0
270
     2
271
     4
272
     4
273
     2
274
     2
340
11
275
     0
280
     0
281
     0
282
     0
283
     1
284
     0
285
     0
286
     0
287
     3
288
     0
  0
ENDTAB
  0
TABLE
  2
BLOCK_RECORD
  5
1
330
0
100
AcDbSymbolTable
 70
     1
  0
BLOCK_RECORD
  5
1F
330
1
100
AcDbSymbolTableRecord
100
AcDbBlockTableRecord
  2
*MODEL_SPACE
  0
BLOCK_RECORD
  5
1B
330
1
100
AcDbSymbolTableRecord
100
AcDbBlockTableRecord
  2
*PAPER_SPACE
  0
ENDTAB
  0
ENDSEC
  0
SECTION
  2
BLOCKS
  0
BLOCK
  5
20
330
1F
100
AcDbEntity
  8
0
100
AcDbBlockBegin
  2
*MODEL_SPACE
 70
     0
 10
0.0
 20
0.0
 30
0.0
  3
*MODEL_SPACE
  1

  0
ENDBLK
  5
21
330
1F
100
AcDbEntity
  8
0
100
AcDbBlockEnd
  0
BLOCK
  5
1C
330
1B
100
AcDbEntity
 67
     1
  8
0
100
AcDbBlockBegin
  2
*PAPER_SPACE
 70
     0
 10
0.0
 20
0.0
 30
0.0
  3
*PAPER_SPACE
  1

  0
ENDBLK
  5
1D
330
1B
100
AcDbEntity
 67
     1
  8
0
100
AcDbBlockEnd
  0
ENDSEC
  0
SECTION
  2
ENTITIES
  0
LINE
  5
6C
330
1F
100
AcDbEntity
  8
0
100
AcDbLine
 10
68.58108185441354
 20
7.703390120052314
 30
0.0
 11
68.59479083466829
 21
7.681882420513818
 31
0.0
  0
LINE
  5
6D
330
1F
100
AcDbEntity
  8
0
100
AcDbLine
 10
68.6844760720717
 20
7.497081384717792
 30
0.0
 11
68.6929870675398
 21
7.472713873344443
 31
0.0
  0
LINE
  5
6E
330
1F
100
AcDbEntity
  8
0
100
AcDbLine
 10
68.62063489489447
 20
7.637683519040134
 30
0.0
 11
68.63273694058627
 21
7.615030812779692
 31
0.0
  0
LINE
  5
6F
330
1F
100
AcDbEntity
  8
0
100
AcDbLine
 10
68.7008638100697
 20
7.44814303765582
 30
0.0
 11
68.70809938822362
 21
7.42339370345545
 31
0.0
  0
LINE
  5
70
330
1F
100
AcDbEntity
  8
0
100
AcDbLine
 10
68.18770290634075
 20
8.051722807318956
 30
0.0
 11
68.21067128744913
 21
8.040003742295
 31
0.0
  0
LINE
  5
71
330
1F
100
AcDbEntity
  8
0
100
AcDbLine
 10
61.56390133305511
 20
-4.882730048346399
 30
0.0
 11
62.09220917520452
 21
-4.412739884463693
 31
0.0
  0
LINE
  5
72
330
1F
100
AcDbEntity
  8
0
100
AcDbLine
 10
68.6442718857281
 20
7.592036435986723
 30
0.0
 11
68.65522567174783
 21
7.56872180237644
 31
0.0
  0
LINE
  5
73
330
1F
100
AcDbEntity
  8
0
100
AcDbLine
 10
68.63273694058627
 20
7.615030812779692
 30
0.0
 11
68.6442718857281
 21
7.592036435986723
 31
0.0
  0
LINE
  5
74
330
1F
100
AcDbEntity
  8
0
100
AcDbLine
 10
68.60798083874793
 20
7.659973960042118
 30
0.0
 11
68.62063489489447
 21
7.637683519040134
 31
0.0
  0
LINE
  5
75
330
1F
100
AcDbEntity
  8
0
100
AcDbLine
 10
68.66558532612925
 20
7.545109079493638
 30
0.0
 11
68.67533901195452
 21
7.521221119265451
 31
0.0
  0
LINE
  5
76
330
1F
100
AcDbEntity
  8
0
100
AcDbLine
 10
68.73450923518803
 20
7.297854005542164
 30
0.0
 11
68.73782585785159
 21
7.272565325517358
 31
0.0
  0
LINE
  5
77
330
1F
100
AcDbEntity
  8
0
100
AcDbLine
 10
68.7206259020725
 20
7.373460207565325
 30
0.0
 11
68.72590954448131
 21
7.348326808205695
 31
0.0
  0
LINE
  5
78
330
1F
100
AcDbEntity
  8
0
100
AcDbLine
 10
68.74460354770949
 20
7.171643208049218
 30
0.0
 11
68.7445169298632
 21
7.134108859391155
 31
0.0
  0
LINE
  5
79
330
1F
100
AcDbEntity
  8
0
100
AcDbLine
 10
68.52142360787701
 20
7.78507306573839
 30
0.0
 11
68.54465767220552
 21
7.755291799827755
 31
0.0
  0
LINE
  5
7A
330
1F
100
AcDbEntity
  8
0
100
AcDbLine
 10
68.72590954448131
 20
7.348326808205695
 30
0.0
 11
68.73053744269245
 21
7.32311626497794
 31
0.0
  0
LINE
  5
7B
330
1F
100
AcDbEntity
  8
0
100
AcDbLine
 10
68.67533901195452
 20
7.521221119265451
 30
0.0
 11
68.6844760720717
 21
7.497081384717792
 31
0.0
  0
LINE
  5
7C
330
1F
100
AcDbEntity
  8
0
100
AcDbLine
 10
68.73053744269245
 20
7.32311626497794
 30
0.0
 11
68.73450923518803
 21
7.297854005542164
 31
0.0
  0
LINE
  5
7D
330
1F
100
AcDbEntity
  8
0
100
AcDbLine
 10
68.71468818719737
 20
7.398490986419496
 30
0.0
 11
68.7206259020725
 21
7.373460207565325
 31
0.0
  0
LINE
  5
7E
330
1F
100
AcDbEntity
  8
0
100
AcDbLine
 10
68.6929870675398
 20
7.472713873344443
 30
0.0
 11
68.7008638100697
 21
7.44814303765582
 31
0.0
  0
LINE
  5
7F
330
1F
100
AcDbEntity
  8
0
100
AcDbLine
 10
62.44875940434661
 20
1.733226739899813
 30
0.0
 11
62.44856227537816
 21
1.78332977146884
 31
0.0
  0
LINE
  5
80
330
1F
100
AcDbEntity
  8
0
100
AcDbLine
 10
61.50558359603985
 20
-5.881028120416731
 30
0.0
 11
62.03389143818898
 21
-5.411037956533868
 31
0.0
  0
LINE
  5
81
330
1F
100
AcDbEntity
  8
0
100
AcDbLine
 10
68.56687171218734
 20
7.724479263178037
 30
0.0
 11
68.58108185441354
 21
7.703390120052314
 31
0.0
  0
LINE
  5
82
330
1F
100
AcDbEntity
  8
0
100
AcDbLine
 10
62.38230504991132
 20
2.261963233461565
 30
0.0
 11
62.37555395640631
 21
2.286830762281913
 31
0.0
  0
LINE
  5
83
330
1F
100
AcDbEntity
  8
0
100
AcDbLine
 10
62.02923166833424
 20
-8.806260807901545
 30
0.0
 11
61.97557370117365
 21
-6.409336028604088
 31
0.0
  0
LINE
  5
84
330
1F
100
AcDbEntity
  8
0
100
AcDbLine
 10
68.49723810029342
 20
7.813776652770719
 30
0.0
 11
68.52142360787701
 21
7.78507306573839
 31
0.0
  0
LINE
  5
85
330
1F
100
AcDbEntity
  8
0
100
AcDbLine
 10
61.62221907007064
 20
-3.884431976276201
 30
0.0
 11
62.15052691221933
 21
-3.414441812393494
 31
0.0
  0
LINE
  5
86
330
1F
100
AcDbEntity
  8
0
100
AcDbLine
 10
61.97557370117365
 20
-6.409336028604088
 30
0.0
 11
61.50558359603985
 21
-5.881028120416731
 31
0.0
  0
LINE
  5
87
330
1F
100
AcDbEntity
  8
0
100
AcDbLine
 10
62.42456582771273
 20
2.061023384876096
 30
0.0
 11
62.42043006534399
 21
2.086275885326283
 31
0.0
  0
LINE
  5
88
330
1F
100
AcDbEntity
  8
0
100
AcDbLine
 10
68.7445169298632
 20
7.134108859391155
 30
0.0
 11
68.74303709316027
 21
7.096865572605662
 31
0.0
  0
LINE
  5
89
330
1F
100
AcDbEntity
  8
0
100
AcDbLine
 10
68.65522567174783
 20
7.56872180237644
 30
0.0
 11
68.66558532612925
 21
7.545109079493638
 31
0.0
  0
LINE
  5
8A
330
1F
100
AcDbEntity
  8
0
100
AcDbLine
 10
68.74303709316027
 20
7.096865572605662
 30
0.0
 11
67.34851539806299
 21
-16.77491668308916
 31
0.0
  0
LINE
  5
8B
330
1F
100
AcDbEntity
  8
0
100
AcDbLine
 10
68.74048952495986
 20
7.247275307207342
 30
0.0
 11
68.7432686548353
 21
7.209391899946925
 31
0.0
  0
LINE
  5
8C
330
1F
100
AcDbEntity
  8
0
100
AcDbLine
 10
68.54465767220552
 20
7.755291799827755
 30
0.0
 11
68.56687171218734
 21
7.724479263178037
 31
0.0
  0
LINE
  5
8D
330
1F
100
AcDbEntity
  8
0
100
AcDbLine
 10
62.44033422987916
 20
1.934593969785268
 30
0.0
 11
62.43783342628726
 21
1.959881208397471
 31
0.0
  0
LINE
  5
8E
330
1F
100
AcDbEntity
  8
0
100
AcDbLine
 10
68.70809938822362
 20
7.42339370345545
 30
0.0
 11
68.71468818719737
 21
7.398490986419496
 31
0.0
  0
LINE
  5
8F
330
1F
100
AcDbEntity
  8
0
100
AcDbLine
 10
62.41117426892134
 20
2.136696971781772
 30
0.0
 11
62.40605441522571
 21
2.161852841358885
 31
0.0
  0
LINE
  5
90
330
1F
100
AcDbEntity
  8
0
100
AcDbLine
 10
62.37555395640631
 20
2.286830762281913
 30
0.0
 11
62.3684794323516
 21
2.311621593265233
 31
0.0
  0
LINE
  5
91
330
1F
100
AcDbEntity
  8
0
100
AcDbLine
 10
68.73782585785159
 20
7.272565325517358
 30
0.0
 11
68.74048952495986
 21
7.247275307207342
 31
0.0
  0
LINE
  5
92
330
1F
100
AcDbEntity
  8
0
100
AcDbLine
 10
68.47217212551365
 20
7.841361958262405
 30
0.0
 11
68.49723810029342
 21
7.813776652770719
 31
0.0
  0
LINE
  5
93
330
1F
100
AcDbEntity
  8
0
100
AcDbLine
 10
62.40060698410417
 20
2.186963770501571
 30
0.0
 11
62.39483247557926
 21
2.212023388289645
 31
0.0
  0
LINE
  5
94
330
1F
100
AcDbEntity
  8
0
100
AcDbLine
 10
61.85549001813151
 20
0.1087603120047293
 30
0.0
 11
62.38379786028091
 21
0.5787504758869623
 31
0.0
  0
LINE
  5
95
330
1F
100
AcDbEntity
  8
0
100
AcDbLine
 10
61.73885454410107
 20
-1.887835832135668
 30
0.0
 11
62.26716238625048
 21
-1.417845668253209
 31
0.0
  0
LINE
  5
96
330
1F
100
AcDbEntity
  8
0
100
AcDbLine
 10
62.44856227537816
 20
1.78332977146884
 30
0.0
 11
62.4471013520585
 21
1.833623450327372
 31
0.0
  0
LINE
  5
97
330
1F
100
AcDbEntity
  8
0
100
AcDbLine
 10
62.20884464923504
 20
-2.416143740323363
 30
0.0
 11
61.73885454410107
 21
-1.887835832135668
 31
0.0
  0
LINE
  5
98
330
1F
100
AcDbEntity
  8
0
100
AcDbLine
 10
62.43783342628726
 20
1.959881208397471
 30
0.0
 11
62.43500689566226
 21
1.985174006405255
 31
0.0
  0
LINE
  5
99
330
1F
100
AcDbEntity
  8
0
100
AcDbLine
 10
68.7432686548353
 20
7.209391899946925
 30
0.0
 11
68.74460354770949
 21
7.171643208049218
 31
0.0
  0
LINE
  5
9A
330
1F
100
AcDbEntity
  8
0
100
AcDbLine
 10
68.59479083466829
 20
7.681882420513818
 30
0.0
 11
68.60798083874793
 21
7.659973960042118
 31
0.0
  0
LINE
  5
9B
330
1F
100
AcDbEntity
  8
0
100
AcDbLine
 10
62.09220917520452
 20
-4.412739884463693
 30
0.0
 11
61.62221907007064
 21
-3.884431976276201
 31
0.0
  0
LINE
  5
9C
330
1F
100
AcDbEntity
  8
0
100
AcDbLine
 10
62.03389143818898
 20
-5.411037956533868
 30
0.0
 11
61.56390133305511
 21
-4.882730048346399
 31
0.0
  0
LINE
  5
9D
330
1F
100
AcDbEntity
  8
0
100
AcDbLine
 10
62.4454293662797
 20
1.633774500581389
 30
0.0
 11
62.44770898545131
 21
1.6833601442679
 31
0.0
  0
LINE
  5
9E
330
1F
100
AcDbEntity
  8
0
100
AcDbLine
 10
61.68053680708582
 20
-2.88613390420607
 30
0.0
 11
62.20884464923504
 21
-2.416143740323363
 31
0.0
  0
LINE
  5
9F
330
1F
100
AcDbEntity
  8
0
100
AcDbLine
 10
62.39483247557926
 20
2.212023388289645
 30
0.0
 11
62.38873155435392
 21
2.237025328209532
 31
0.0
  0
LINE
  5
A0
330
1F
100
AcDbEntity
  8
0
100
AcDbLine
 10
61.7971722811167
 20
-0.8895377600654468
 30
0.0
 11
62.32548012326556
 21
-0.4195475961831235
 31
0.0
  0
LINE
  5
A1
330
1F
100
AcDbEntity
  8
0
100
AcDbLine
 10
62.00220239571239
 20
3.01018948684822
 30
0.0
 11
61.97015780734929
 21
3.048705674771642
 31
0.0
  0
LINE
  5
A2
330
1F
100
AcDbEntity
  8
0
100
AcDbLine
 10
62.16225875997635
 20
2.781997623658835
 30
0.0
 11
62.14893684929522
 21
2.803808196398987
 31
0.0
  0
LINE
  5
A3
330
1F
100
AcDbEntity
  8
0
100
AcDbLine
 10
62.35336554511225
 20
2.36094800978114
 30
0.0
 11
62.3453293150386
 21
2.385471102059649
 31
0.0
  0
LINE
  5
A4
330
1F
100
AcDbEntity
  8
0
100
AcDbLine
 10
62.42837365033507
 20
2.03575136645525
 30
0.0
 11
62.42456582771273
 21
2.061023384876096
 31
0.0
  0
LINE
  5
A5
330
1F
100
AcDbEntity
  8
0
100
AcDbLine
 10
62.38379786028091
 20
0.5787504758869623
 30
0.0
 11
61.91380775514731
 21
1.107058384074905
 31
0.0
  0
LINE
  5
A6
330
1F
100
AcDbEntity
  8
0
100
AcDbLine
 10
62.40605441522571
 20
2.161852841358885
 30
0.0
 11
62.40060698410417
 21
2.186963770501571
 31
0.0
  0
LINE
  5
A7
330
1F
100
AcDbEntity
  8
0
100
AcDbLine
 10
62.43185384806825
 20
2.010466144414953
 30
0.0
 11
62.42837365033507
 21
2.03575136645525
 31
0.0
  0
LINE
  5
A8
330
1F
100
AcDbEntity
  8
0
100
AcDbLine
 10
62.44211559729672
 20
1.577048547957409
 30
0.0
 11
62.4454293662797
 21
1.633774500581389
 31
0.0
  0
LINE
  5
A9
330
1F
100
AcDbEntity
  8
0
100
AcDbLine
 10
62.3100332038682
 20
2.482485593902005
 30
0.0
 11
62.30043239858569
 21
2.506439457467718
 31
0.0
  0
LINE
  5
AA
330
1F
100
AcDbEntity
  8
0
100
AcDbLine
 10
62.38873155435392
 20
2.237025328209532
 30
0.0
 11
62.38230504991132
 21
2.261963233461565
 31
0.0
  0
LINE
  5
AB
330
1F
100
AcDbEntity
  8
0
100
AcDbLine
 10
61.91380775514731
 20
1.107058384074905
 30
0.0
 11
62.44211559729672
 21
1.577048547957409
 31
0.0
  0
LINE
  5
AC
330
1F
100
AcDbEntity
  8
0
100
AcDbLine
 10
62.4471013520585
 20
1.833623450327372
 30
0.0
 11
62.44436258837262
 21
1.88406083667157
 31
0.0
  0
LINE
  5
AD
330
1F
100
AcDbEntity
  8
0
100
AcDbLine
 10
62.29052583221714
 20
2.530261514358154
 30
0.0
 11
62.28031624468106
 21
2.553945933465977
 31
0.0
  0
LINE
  5
AE
330
1F
100
AcDbEntity
  8
0
100
AcDbLine
 10
62.3453293150386
 20
2.385471102059649
 30
0.0
 11
62.33697591856933
 21
2.409892520508308
 31
0.0
  0
LINE
  5
AF
330
1F
100
AcDbEntity
  8
0
100
AcDbLine
 10
62.15052691221933
 20
-3.414441812393494
 30
0.0
 11
61.68053680708582
 21
-2.88613390420607
 31
0.0
  0
LINE
  5
B0
330
1F
100
AcDbEntity
  8
0
100
AcDbLine
 10
62.32548012326556
 20
-0.4195475961831235
 30
0.0
 11
61.85549001813151
 21
0.1087603120047293
 31
0.0
  0
LINE
  5
B1
330
1F
100
AcDbEntity
  8
0
100
AcDbLine
 10
62.28031624468106
 20
2.553945933465977
 30
0.0
 11
62.269806523455
 21
2.577486960123847
 31
0.0
  0
LINE
  5
B2
330
1F
100
AcDbEntity
  8
0
100
AcDbLine
 10
62.43500689566226
 20
1.985174006405255
 30
0.0
 11
62.43185384806825
 21
2.010466144414953
 31
0.0
  0
LINE
  5
B3
330
1F
100
AcDbEntity
  8
0
100
AcDbLine
 10
62.42043006534399
 20
2.086275885326283
 30
0.0
 11
62.41596620954952
 21
2.111502531806034
 31
0.0
  0
LINE
  5
B4
330
1F
100
AcDbEntity
  8
0
100
AcDbLine
 10
62.26716238625048
 20
-1.417845668253209
 30
0.0
 11
61.7971722811167
 21
-0.8895377600654468
 31
0.0
  0
LINE
  5
B5
330
1F
100
AcDbEntity
  8
0
100
AcDbLine
 10
62.44436258837262
 20
1.88406083667157
 30
0.0
 11
62.44033422987916
 21
1.934593969785268
 31
0.0
  0
LINE
  5
B6
330
1F
100
AcDbEntity
  8
0
100
AcDbLine
 10
62.44770898545131
 20
1.6833601442679
 30
0.0
 11
62.44875940434661
 21
1.733226739899813
 31
0.0
  0
LINE
  5
B7
330
1F
100
AcDbEntity
  8
0
100
AcDbLine
 10
62.41596620954952
 20
2.111502531806034
 30
0.0
 11
62.41117426892134
 21
2.136696971781772
 31
0.0
  0
LINE
  5
B8
330
1F
100
AcDbEntity
  8
0
100
AcDbLine
 10
62.31932565820394
 20
2.458405826463246
 30
0.0
 11
62.3100332038682
 21
2.482485593902005
 31
0.0
  0
LINE
  5
B9
330
1F
100
AcDbEntity
  8
0
100
AcDbLine
 10
62.269806523455
 20
2.577486960123847
 30
0.0
 11
62.25899970090092
 21
2.600878920743244
 31
0.0
  0
LINE
  5
BA
330
1F
100
AcDbEntity
  8
0
100
AcDbLine
 10
62.06371316949697
 20
2.930309522934995
 30
0.0
 11
62.03340115815984
 21
2.970715122901014
 31
0.0
  0
LINE
  5
BB
330
1F
100
AcDbEntity
  8
0
100
AcDbLine
 10
62.23650758840925
 20
2.647193381963169
 30
0.0
 11
62.22482906113091
 21
2.670104980930556
 31
0.0
  0
LINE
  5
BC
330
1F
100
AcDbEntity
  8
0
100
AcDbLine
 10
62.22482906113091
 20
2.670104980930556
 30
0.0
 11
62.21286695132457
 21
2.692845719019828
 31
0.0
  0
LINE
  5
BD
330
1F
100
AcDbEntity
  8
0
100
AcDbLine
 10
61.47053515076098
 20
3.469748646368467
 30
0.0
 11
61.44834361391047
 21
3.482743451862719
 31
0.0
  0
LINE
  5
BE
330
1F
100
AcDbEntity
  8
0
100
AcDbLine
 10
62.3684794323516
 20
2.311621593265233
 30
0.0
 11
62.36108280009851
 21
2.336329430682539
 31
0.0
  0
LINE
  5
BF
330
1F
100
AcDbEntity
  8
0
100
AcDbLine
 10
61.75946999492415
 20
3.261115610609861
 30
0.0
 11
61.72090089554613
 21
3.293732400318055
 31
0.0
  0
LINE
  5
C0
330
1F
100
AcDbEntity
  8
0
100
AcDbLine
 10
61.35780969950132
 20
3.531915535283821
 30
0.0
 11
61.33476099263823
 21
3.543488970009331
 31
0.0
  0
LINE
  5
C1
330
1F
100
AcDbEntity
  8
0
100
AcDbLine
 10
62.0930986043334
 20
2.889001881727561
 30
0.0
 11
62.06371316949697
 21
2.930309522934995
 31
0.0
  0
LINE
  5
C2
330
1F
100
AcDbEntity
  8
0
100
AcDbLine
 10
61.57858838748882
 20
3.400759501020973
 30
0.0
 11
61.55738101403984
 21
3.41507873677555
 31
0.0
  0
LINE
  5
C3
330
1F
100
AcDbEntity
  8
0
100
AcDbLine
 10
61.14527371480453
 20
3.625235545489168
 30
0.0
 11
61.12103928633717
 21
3.634060495474494
 31
0.0
  0
LINE
  5
C4
330
1F
100
AcDbEntity
  8
0
100
AcDbLine
 10
62.21286695132457
 20
2.692845719019828
 30
0.0
 11
62.20062496974784
 21
2.715410393451867
 31
0.0
  0
LINE
  5
C5
330
1F
100
AcDbEntity
  8
0
100
AcDbLine
 10
62.30043239858569
 20
2.506439457467718
 30
0.0
 11
62.29052583221714
 21
2.530261514358154
 31
0.0
  0
LINE
  5
C6
330
1F
100
AcDbEntity
  8
0
100
AcDbLine
 10
62.3283073241024
 20
2.434206124806236
 30
0.0
 11
62.31932565820394
 21
2.458405826463246
 31
0.0
  0
LINE
  5
C7
330
1F
100
AcDbEntity
  8
0
100
AcDbLine
 10
61.62036627546522
 20
3.371369750138988
 30
0.0
 11
61.5995849337036
 21
3.386188318205275
 31
0.0
  0
LINE
  5
C8
330
1F
100
AcDbEntity
  8
0
100
AcDbLine
 10
62.03340115815984
 20
2.970715122901014
 30
0.0
 11
62.00220239571239
 21
3.01018948684822
 31
0.0
  0
LINE
  5
C9
330
1F
100
AcDbEntity
  8
0
100
AcDbLine
 10
62.25899970090092
 20
2.600878920743244
 30
0.0
 11
62.2478989514151
 21
2.624116227344437
 31
0.0
  0
LINE
  5
CA
330
1F
100
AcDbEntity
  8
0
100
AcDbLine
 10
61.09670322093989
 20
3.642568725424729
 30
0.0
 11
61.07227172650944
 21
3.650758548084667
 31
0.0
  0
LINE
  5
CB
330
1F
100
AcDbEntity
  8
0
100
AcDbLine
 10
61.5995849337036
 20
3.386188318205275
 30
0.0
 11
61.57858838748882
 21
3.400759501020973
 31
0.0
  0
LINE
  5
CC
330
1F
100
AcDbEntity
  8
0
100
AcDbLine
 10
62.2478989514151
 20
2.624116227344437
 30
0.0
 11
62.23650758840925
 21
2.647193381963169
 31
0.0
  0
LINE
  5
CD
330
1F
100
AcDbEntity
  8
0
100
AcDbLine
 10
61.97015780734929
 20
3.048705674771642
 30
0.0
 11
61.93730926457174
 21
3.086239042695649
 31
0.0
  0
LINE
  5
CE
330
1F
100
AcDbEntity
  8
0
100
AcDbLine
 10
62.12151888878572
 20
2.846823595475596
 30
0.0
 11
62.10743174824449
 21
2.868019522683355
 31
0.0
  0
LINE
  5
CF
330
1F
100
AcDbEntity
  8
0
100
AcDbLine
 10
62.14893684929522
 20
2.803808196398987
 30
0.0
 11
62.13535542418831
 21
2.825418357871307
 31
0.0
  0
LINE
  5
D0
330
1F
100
AcDbEntity
  8
0
100
AcDbLine
 10
62.10743174824449
 20
2.868019522683355
 30
0.0
 11
62.0930986043334
 21
2.889001881727561
 31
0.0
  0
LINE
  5
D1
330
1F
100
AcDbEntity
  8
0
100
AcDbLine
 10
62.33697591856933
 20
2.409892520508308
 30
0.0
 11
62.3283073241024
 21
2.434206124806236
 31
0.0
  0
LINE
  5
D2
330
1F
100
AcDbEntity
  8
0
100
AcDbLine
 10
62.20062496974784
 20
2.715410393451867
 30
0.0
 11
62.18810695253882
 21
2.73779390775108
 31
0.0
  0
LINE
  5
D3
330
1F
100
AcDbEntity
  8
0
100
AcDbLine
 10
61.42597005642062
 20
3.4954612366133
 30
0.0
 11
61.40341967161014
 21
3.50789824211343
 31
0.0
  0
LINE
  5
D4
330
1F
100
AcDbEntity
  8
0
100
AcDbLine
 10
61.93730926457174
 20
3.086239042695649
 30
0.0
 11
61.90369943098548
 21
3.12276727189641
 31
0.0
  0
LINE
  5
D5
330
1F
100
AcDbEntity
  8
0
100
AcDbLine
 10
61.12103928633717
 20
3.634060495474494
 30
0.0
 11
61.09670322093989
 21
3.642568725424729
 31
0.0
  0
LINE
  5
D6
330
1F
100
AcDbEntity
  8
0
100
AcDbLine
 10
62.17531685745469
 20
2.759991275455315
 30
0.0
 11
62.16225875997635
 21
2.781997623658835
 31
0.0
  0
LINE
  5
D7
330
1F
100
AcDbEntity
  8
0
100
AcDbLine
 10
62.36108280009851
 20
2.336329430682539
 30
0.0
 11
62.35336554511225
 21
2.36094800978114
 31
0.0
  0
LINE
  5
D8
330
1F
100
AcDbEntity
  8
0
100
AcDbLine
 10
61.02314745279367
 20
3.666177033661462
 30
0.0
 11
60.99846724410778
 21
3.673403135492091
 31
0.0
  0
LINE
  5
D9
330
1F
100
AcDbEntity
  8
0
100
AcDbLine
 10
61.90369943098548
 20
3.12276727189641
 30
0.0
 11
61.86919342443744
 21
3.15845015209273
 31
0.0
  0
LINE
  5
DA
330
1F
100
AcDbEntity
  8
0
100
AcDbLine
 10
62.13535542418831
 20
2.825418357871307
 30
0.0
 11
62.12151888878572
 21
2.846823595475596
 31
0.0
  0
LINE
  5
DB
330
1F
100
AcDbEntity
  8
0
100
AcDbLine
 10
62.18810695253882
 20
2.73779390775108
 30
0.0
 11
62.17531685745469
 21
2.759991275455315
 31
0.0
  0
LINE
  5
DC
330
1F
100
AcDbEntity
  8
0
100
AcDbLine
 10
61.51435192306914
 20
3.442943636121044
 30
0.0
 11
61.49253957965428
 21
3.456480705169242
 31
0.0
  0
LINE
  5
DD
330
1F
100
AcDbEntity
  8
0
100
AcDbLine
 10
61.79705772997222
 20
3.227667886451004
 30
0.0
 11
61.75946999492415
 21
3.261115610609861
 31
0.0
  0
LINE
  5
DE
330
1F
100
AcDbEntity
  8
0
100
AcDbLine
 10
61.33476099263823
 20
3.543488970009331
 30
0.0
 11
61.31155721074891
 21
3.554767925974623
 31
0.0
  0
LINE
  5
DF
330
1F
100
AcDbEntity
  8
0
100
AcDbLine
 10
38.51548761452372
 20
3.750409989191389
 30
0.0
 11
-25.86249837816159
 21
3.365123099802827
 31
0.0
  0
LINE
  5
E0
330
1F
100
AcDbEntity
  8
0
100
AcDbLine
 10
-60.97371673698556
 20
3.295018819514614
 30
0.0
 11
-60.9984672441074
 21
3.288116246103619
 31
0.0
  0
LINE
  5
E1
330
1F
100
AcDbEntity
  8
0
100
AcDbLine
 10
60.89910677240387
 20
3.699064372092379
 30
0.0
 11
60.87413844137303
 21
3.704665765071826
 31
0.0
  0
LINE
  5
E2
330
1F
100
AcDbEntity
  8
0
100
AcDbLine
 10
61.55738101403984
 20
3.41507873677555
 30
0.0
 11
61.53596731692064
 21
3.4291415660497
 31
0.0
  0
LINE
  5
E3
330
1F
100
AcDbEntity
  8
0
100
AcDbLine
 10
61.833639593203
 20
3.193431654470281
 30
0.0
 11
61.79705772997222
 21
3.227667886451004
 31
0.0
  0
LINE
  5
E4
330
1F
100
AcDbEntity
  8
0
100
AcDbLine
 10
-60.84913150088607
 20
3.324654025249306
 30
0.0
 11
-60.87413844137309
 21
3.319378875683377
 31
0.0
  0
LINE
  5
E5
330
1F
100
AcDbEntity
  8
0
100
AcDbLine
 10
-61.38069775485517
 20
3.13476395057238
 30
0.0
 11
-61.40341967161011
 21
3.122611352724868
 31
0.0
  0
LINE
  5
E6
330
1F
100
AcDbEntity
  8
0
100
AcDbLine
 10
60.74884379345773
 20
3.727780410823626
 30
0.0
 11
60.69863159518082
 21
3.734748892179678
 31
0.0
  0
LINE
  5
E7
330
1F
100
AcDbEntity
  8
0
100
AcDbLine
 10
61.24107242580624
 20
3.586807898879885
 30
0.0
 11
61.21730573742042
 21
3.59687965566377
 31
0.0
  0
LINE
  5
E8
330
1F
100
AcDbEntity
  8
0
100
AcDbLine
 10
61.49253957965428
 20
3.456480705169242
 30
0.0
 11
61.47053515076098
 21
3.469748646368467
 31
0.0
  0
LINE
  5
E9
330
1F
100
AcDbEntity
  8
0
100
AcDbLine
 10
61.66126648505531
 20
3.341009190958108
 30
0.0
 11
61.64092816469336
 21
3.356308456622621
 31
0.0
  0
LINE
  5
EA
330
1F
100
AcDbEntity
  8
0
100
AcDbLine
 10
61.64092816469336
 20
3.356308456622621
 30
0.0
 11
61.62036627546522
 21
3.371369750138988
 31
0.0
  0
LINE
  5
EB
330
1F
100
AcDbEntity
  8
0
100
AcDbLine
 10
61.19341303675269
 20
3.606643038333455
 30
0.0
 11
61.16940033888061
 21
3.61609572375038
 31
0.0
  0
LINE
  5
EC
330
1F
100
AcDbEntity
  8
0
100
AcDbLine
 10
61.31155721074891
 20
3.554767925974623
 30
0.0
 11
61.28820401522912
 21
3.565749327867031
 31
0.0
  0
LINE
  5
ED
330
1F
100
AcDbEntity
  8
0
100
AcDbLine
 10
61.68137725439674
 20
3.325476795386868
 30
0.0
 11
61.66126648505531
 21
3.341009190958108
 31
0.0
  0
LINE
  5
EE
330
1F
100
AcDbEntity
  8
0
100
AcDbLine
 10
61.21730573742042
 20
3.59687965566377
 30
0.0
 11
61.19341303675269
 21
3.606643038333455
 31
0.0
  0
LINE
  5
EF
330
1F
100
AcDbEntity
  8
0
100
AcDbLine
 10
61.44834361391047
 20
3.482743451862719
 30
0.0
 11
61.42597005642062
 21
3.4954612366133
 31
0.0
  0
LINE
  5
F0
330
1F
100
AcDbEntity
  8
0
100
AcDbLine
 10
61.40341967161014
 20
3.50789824211343
 30
0.0
 11
61.3806977548551
 21
3.520050839960942
 31
0.0
  0
LINE
  5
F1
330
1F
100
AcDbEntity
  8
0
100
AcDbLine
 10
61.28820401522912
 20
3.565749327867031
 30
0.0
 11
61.26470714780015
 21
3.576430245994882
 31
0.0
  0
LINE
  5
F2
330
1F
100
AcDbEntity
  8
0
100
AcDbLine
 10
60.92403015980081
 20
3.693136951782637
 30
0.0
 11
60.89910677240387
 21
3.699064372092379
 31
0.0
  0
LINE
  5
F3
330
1F
100
AcDbEntity
  8
0
100
AcDbLine
 10
61.53596731692064
 20
3.4291415660497
 30
0.0
 11
61.51435192306914
 21
3.442943636121044
 31
0.0
  0
LINE
  5
F4
330
1F
100
AcDbEntity
  8
0
100
AcDbLine
 10
60.44883347171027
 20
3.750409989191339
 30
0.0
 11
60.19883350296025
 21
3.750409989191364
 31
0.0
  0
LINE
  5
F5
330
1F
100
AcDbEntity
  8
0
100
AcDbLine
 10
61.26470714780015
 20
3.576430245994882
 30
0.0
 11
61.24107242580624
 21
3.586807898879885
 31
0.0
  0
LINE
  5
F6
330
1F
100
AcDbEntity
  8
0
100
AcDbLine
 10
60.87413844137303
 20
3.704665765071826
 30
0.0
 11
60.84913150088605
 21
3.70994091463798
 31
0.0
  0
LINE
  5
F7
330
1F
100
AcDbEntity
  8
0
100
AcDbLine
 10
60.19883350296025
 20
3.750409989191364
 30
0.0
 11
38.51548761452372
 21
3.750409989191389
 31
0.0
  0
LINE
  5
F8
330
1F
100
AcDbEntity
  8
0
100
AcDbLine
 10
61.16940033888061
 20
3.61609572375038
 30
0.0
 11
61.14527371480453
 21
3.625235545489168
 31
0.0
  0
LINE
  5
F9
330
1F
100
AcDbEntity
  8
0
100
AcDbLine
 10
61.86919342443744
 20
3.15845015209273
 30
0.0
 11
61.833639593203
 21
3.193431654470281
 31
0.0
  0
LINE
  5
FA
330
1F
100
AcDbEntity
  8
0
100
AcDbLine
 10
61.3806977548551
 20
3.520050839960942
 30
0.0
 11
61.35780969950132
 21
3.531915535283821
 31
0.0
  0
LINE
  5
FB
330
1F
100
AcDbEntity
  8
0
100
AcDbLine
 10
-38.51548761452367
 20
3.365123099802804
 30
0.0
 11
-60.19883350296009
 21
3.365123099802776
 31
0.0
  0
LINE
  5
FC
330
1F
100
AcDbEntity
  8
0
100
AcDbLine
 10
61.72090089554613
 20
3.293732400318055
 30
0.0
 11
61.68137725439674
 21
3.325476795386868
 31
0.0
  0
LINE
  5
FD
330
1F
100
AcDbEntity
  8
0
100
AcDbLine
 10
61.04775104612992
 20
3.658628438263728
 30
0.0
 11
61.02314745279367
 21
3.666177033661462
 31
0.0
  0
LINE
  5
FE
330
1F
100
AcDbEntity
  8
0
100
AcDbLine
 10
60.59831689583429
 20
3.744815840648776
 30
0.0
 11
60.54831063838309
 21
3.747934529926435
 31
0.0
  0
LINE
  5
FF
330
1F
100
AcDbEntity
  8
0
100
AcDbLine
 10
60.4984676602651
 20
3.749794006010596
 30
0.0
 11
60.44883347171027
 21
3.750409989191339
 31
0.0
  0
LINE
  5
100
330
1F
100
AcDbEntity
  8
0
100
AcDbLine
 10
-60.89910677240398
 20
3.313777482703907
 30
0.0
 11
-60.92403015980075
 21
3.30785006239403
 31
0.0
  0
LINE
  5
101
330
1F
100
AcDbEntity
  8
0
100
AcDbLine
 10
-60.64843977444751
 20
3.355137500239946
 30
0.0
 11
-60.69863159518071
 21
3.349462002791229
 31
0.0
  0
LINE
  5
102
330
1F
100
AcDbEntity
  8
0
100
AcDbLine
 10
60.97371673698558
 20
3.680305708903063
 30
0.0
 11
60.94890226234323
 21
3.686883883185667
 31
0.0
  0
LINE
  5
103
330
1F
100
AcDbEntity
  8
0
100
AcDbLine
 10
-60.79902706207378
 20
3.334225539650078
 30
0.0
 11
-60.82409227290811
 21
3.329602877484633
 31
0.0
  0
LINE
  5
104
330
1F
100
AcDbEntity
  8
0
100
AcDbLine
 10
-60.44883347170993
 20
3.365123099802708
 30
0.0
 11
-60.49846766026481
 21
3.364507116621944
 31
0.0
  0
LINE
  5
105
330
1F
100
AcDbEntity
  8
0
100
AcDbLine
 10
-60.49846766026481
 20
3.364507116621944
 30
0.0
 11
-60.54831063838276
 21
3.362647640537715
 31
0.0
  0
LINE
  5
106
330
1F
100
AcDbEntity
  8
0
100
AcDbLine
 10
60.54831063838309
 20
3.747934529926435
 30
0.0
 11
60.4984676602651
 21
3.749794006010596
 31
0.0
  0
LINE
  5
107
330
1F
100
AcDbEntity
  8
0
100
AcDbLine
 10
60.64843977444744
 20
3.740424389628733
 30
0.0
 11
60.59831689583429
 21
3.744815840648776
 31
0.0
  0
LINE
  5
108
330
1F
100
AcDbEntity
  8
0
100
AcDbLine
 10
60.69863159518082
 20
3.734748892179678
 30
0.0
 11
60.64843977444744
 21
3.740424389628733
 31
0.0
  0
LINE
  5
109
330
1F
100
AcDbEntity
  8
0
100
AcDbLine
 10
-61.6203662754652
 20
2.986082860750562
 30
0.0
 11
-61.64092816469316
 21
2.971021567234059
 31
0.0
  0
LINE
  5
10A
330
1F
100
AcDbEntity
  8
0
100
AcDbLine
 10
60.84913150088605
 20
3.70994091463798
 30
0.0
 11
60.82409227290786
 21
3.71488976687306
 31
0.0
  0
LINE
  5
10B
330
1F
100
AcDbEntity
  8
0
100
AcDbLine
 10
-60.94890226234303
 20
3.30159699379706
 30
0.0
 11
-60.97371673698556
 21
3.295018819514614
 31
0.0
  0
LINE
  5
10C
330
1F
100
AcDbEntity
  8
0
100
AcDbLine
 10
-60.19883350296009
 20
3.365123099802776
 30
0.0
 11
-60.44883347170993
 21
3.365123099802708
 31
0.0
  0
LINE
  5
10D
330
1F
100
AcDbEntity
  8
0
100
AcDbLine
 10
-60.92403015980075
 20
3.30785006239403
 30
0.0
 11
-60.94890226234303
 21
3.30159699379706
 31
0.0
  0
LINE
  5
10E
330
1F
100
AcDbEntity
  8
0
100
AcDbLine
 10
61.07227172650944
 20
3.650758548084667
 30
0.0
 11
61.04775104612992
 21
3.658628438263728
 31
0.0
  0
LINE
  5
10F
330
1F
100
AcDbEntity
  8
0
100
AcDbLine
 10
60.94890226234323
 20
3.686883883185667
 30
0.0
 11
60.92403015980081
 21
3.693136951782637
 31
0.0
  0
LINE
  5
110
330
1F
100
AcDbEntity
  8
0
100
AcDbLine
 10
-61.28820401522923
 20
3.180462438478491
 30
0.0
 11
-61.31155721074853
 21
3.169481036585994
 31
0.0
  0
LINE
  5
111
330
1F
100
AcDbEntity
  8
0
100
AcDbLine
 10
-60.87413844137309
 20
3.319378875683377
 30
0.0
 11
-60.89910677240398
 21
3.313777482703907
 31
0.0
  0
LINE
  5
112
330
1F
100
AcDbEntity
  8
0
100
AcDbLine
 10
-61.40341967161011
 20
3.122611352724868
 30
0.0
 11
-61.42597005642033
 21
3.110174347224806
 31
0.0
  0
LINE
  5
113
330
1F
100
AcDbEntity
  8
0
100
AcDbLine
 10
-60.9984672441074
 20
3.288116246103619
 30
0.0
 11
-61.02314745279365
 21
3.2808901442729
 31
0.0
  0
LINE
  5
114
330
1F
100
AcDbEntity
  8
0
100
AcDbLine
 10
-60.77394215063189
 20
3.338522279003
 30
0.0
 11
-60.79902706207378
 21
3.334225539650078
 31
0.0
  0
LINE
  5
115
330
1F
100
AcDbEntity
  8
0
100
AcDbLine
 10
-61.1934130367524
 20
3.221356148944938
 30
0.0
 11
-61.21730573742022
 21
3.211592766275208
 31
0.0
  0
LINE
  5
116
330
1F
100
AcDbEntity
  8
0
100
AcDbLine
 10
60.79902706207416
 20
3.719512429038527
 30
0.0
 11
60.773942150632
 21
3.723809168391607
 31
0.0
  0
LINE
  5
117
330
1F
100
AcDbEntity
  8
0
100
AcDbLine
 10
-61.24107242580627
 20
3.2015210094913
 30
0.0
 11
-61.26470714779972
 21
3.191143356606208
 31
0.0
  0
LINE
  5
118
330
1F
100
AcDbEntity
  8
0
100
AcDbLine
 10
-25.86249837816159
 20
3.365123099802827
 30
0.0
 11
-38.51548761452367
 21
3.365123099802804
 31
0.0
  0
LINE
  5
119
330
1F
100
AcDbEntity
  8
0
100
AcDbLine
 10
60.773942150632
 20
3.723809168391607
 30
0.0
 11
60.74884379345773
 21
3.727780410823626
 31
0.0
  0
LINE
  5
11A
330
1F
100
AcDbEntity
  8
0
100
AcDbLine
 10
60.99846724410778
 20
3.673403135492091
 30
0.0
 11
60.97371673698558
 21
3.680305708903063
 31
0.0
  0
LINE
  5
11B
330
1F
100
AcDbEntity
  8
0
100
AcDbLine
 10
-60.59831689583418
 20
3.359528951260033
 30
0.0
 11
-60.64843977444751
 21
3.355137500239946
 31
0.0
  0
LINE
  5
11C
330
1F
100
AcDbEntity
  8
0
100
AcDbLine
 10
-60.69863159518071
 20
3.349462002791229
 30
0.0
 11
-60.7488437934574
 21
3.3424935214352
 31
0.0
  0
LINE
  5
11D
330
1F
100
AcDbEntity
  8
0
100
AcDbLine
 10
60.82409227290786
 20
3.71488976687306
 30
0.0
 11
60.79902706207416
 21
3.719512429038527
 31
0.0
  0
LINE
  5
11E
330
1F
100
AcDbEntity
  8
0
100
AcDbLine
 10
-61.31155721074853
 20
3.169481036585994
 30
0.0
 11
-61.33476099263839
 21
3.158202080620544
 31
0.0
  0
LINE
  5
11F
330
1F
100
AcDbEntity
  8
0
100
AcDbLine
 10
-61.12103928633711
 20
3.248773606085954
 30
0.0
 11
-61.14527371480415
 21
3.239948656100583
 31
0.0
  0
LINE
  5
120
330
1F
100
AcDbEntity
  8
0
100
AcDbLine
 10
-61.75946999492432
 20
2.875828721221344
 30
0.0
 11
-61.79705772997201
 21
2.842380997062646
 31
0.0
  0
LINE
  5
121
330
1F
100
AcDbEntity
  8
0
100
AcDbLine
 10
-61.42597005642033
 20
3.110174347224806
 30
0.0
 11
-61.44834361391035
 21
3.097456562474022
 31
0.0
  0
LINE
  5
122
330
1F
100
AcDbEntity
  8
0
100
AcDbLine
 10
-61.16940033888032
 20
3.23080883436184
 30
0.0
 11
-61.1934130367524
 21
3.221356148944938
 31
0.0
  0
LINE
  5
123
330
1F
100
AcDbEntity
  8
0
100
AcDbLine
 10
-60.82409227290811
 20
3.329602877484633
 30
0.0
 11
-60.84913150088607
 21
3.324654025249306
 31
0.0
  0
LINE
  5
124
330
1F
100
AcDbEntity
  8
0
100
AcDbLine
 10
-62.06371316949676
 20
2.545022633546501
 30
0.0
 11
-62.09309860433324
 21
2.503714992339021
 31
0.0
  0
LINE
  5
125
330
1F
100
AcDbEntity
  8
0
100
AcDbLine
 10
-61.33476099263839
 20
3.158202080620544
 30
0.0
 11
-61.35780969950112
 21
3.146628645895214
 31
0.0
  0
LINE
  5
126
330
1F
100
AcDbEntity
  8
0
100
AcDbLine
 10
-61.97015780734908
 20
2.663418785383103
 30
0.0
 11
-62.00220239571246
 21
2.624902597459636
 31
0.0
  0
LINE
  5
127
330
1F
100
AcDbEntity
  8
0
100
AcDbLine
 10
-62.33697591856908
 20
2.0246056311197
 30
0.0
 11
-62.34532931503858
 21
2.000184212671132
 31
0.0
  0
LINE
  5
128
330
1F
100
AcDbEntity
  8
0
100
AcDbLine
 10
-61.68137725439654
 20
2.940189905998352
 30
0.0
 11
-61.72090089554602
 21
2.908445510929448
 31
0.0
  0
LINE
  5
129
330
1F
100
AcDbEntity
  8
0
100
AcDbLine
 10
-61.35780969950112
 20
3.146628645895214
 30
0.0
 11
-61.38069775485517
 21
3.13476395057238
 31
0.0
  0
LINE
  5
12A
330
1F
100
AcDbEntity
  8
0
100
AcDbLine
 10
-61.44834361391035
 20
3.097456562474022
 30
0.0
 11
-61.47053515076077
 21
3.084461756979927
 31
0.0
  0
LINE
  5
12B
330
1F
100
AcDbEntity
  8
0
100
AcDbLine
 10
-61.09670322093987
 20
3.257281836036257
 30
0.0
 11
-61.12103928633711
 21
3.248773606085954
 31
0.0
  0
LINE
  5
12C
330
1F
100
AcDbEntity
  8
0
100
AcDbLine
 10
-62.21286695132482
 20
2.307558829631199
 30
0.0
 11
-62.22482906113093
 21
2.284818091541926
 31
0.0
  0
LINE
  5
12D
330
1F
100
AcDbEntity
  8
0
100
AcDbLine
 10
-60.54831063838276
 20
3.362647640537715
 30
0.0
 11
-60.59831689583418
 21
3.359528951260033
 31
0.0
  0
LINE
  5
12E
330
1F
100
AcDbEntity
  8
0
100
AcDbLine
 10
-60.7488437934574
 20
3.3424935214352
 30
0.0
 11
-60.77394215063189
 21
3.338522279003
 31
0.0
  0
LINE
  5
12F
330
1F
100
AcDbEntity
  8
0
100
AcDbLine
 10
-62.29052583221712
 20
2.144974624969727
 30
0.0
 11
-62.30043239858558
 21
2.121152568079156
 31
0.0
  0
LINE
  5
130
330
1F
100
AcDbEntity
  8
0
100
AcDbLine
 10
-62.09309860433324
 20
2.503714992339021
 30
0.0
 11
-62.10743174824425
 21
2.482732633294815
 31
0.0
  0
LINE
  5
131
330
1F
100
AcDbEntity
  8
0
100
AcDbLine
 10
-61.26470714779972
 20
3.191143356606208
 30
0.0
 11
-61.28820401522923
 21
3.180462438478491
 31
0.0
  0
LINE
  5
132
330
1F
100
AcDbEntity
  8
0
100
AcDbLine
 10
-62.14893684929528
 20
2.418521307010425
 30
0.0
 11
-62.16225875997624
 21
2.39671073427034
 31
0.0
  0
LINE
  5
133
330
1F
100
AcDbEntity
  8
0
100
AcDbLine
 10
-62.12151888878569
 20
2.461536706087101
 30
0.0
 11
-62.13535542418833
 21
2.440131468482722
 31
0.0
  0
LINE
  5
134
330
1F
100
AcDbEntity
  8
0
100
AcDbLine
 10
-61.90369943098528
 20
2.737480382508028
 30
0.0
 11
-61.93730926457182
 21
2.700952153306929
 31
0.0
  0
LINE
  5
135
330
1F
100
AcDbEntity
  8
0
100
AcDbLine
 10
-61.8336395932027
 20
2.808144765081719
 30
0.0
 11
-61.86919342443715
 21
2.773163262704077
 31
0.0
  0
LINE
  5
136
330
1F
100
AcDbEntity
  8
0
100
AcDbLine
 10
-62.13535542418833
 20
2.440131468482722
 30
0.0
 11
-62.14893684929528
 21
2.418521307010425
 31
0.0
  0
LINE
  5
137
330
1F
100
AcDbEntity
  8
0
100
AcDbLine
 10
-62.30043239858558
 20
2.121152568079156
 30
0.0
 11
-62.31003320386796
 21
2.097198704513307
 31
0.0
  0
LINE
  5
138
330
1F
100
AcDbEntity
  8
0
100
AcDbLine
 10
-61.47053515076077
 20
3.084461756979927
 30
0.0
 11
-61.49253957965403
 21
3.071193815780612
 31
0.0
  0
LINE
  5
139
330
1F
100
AcDbEntity
  8
0
100
AcDbLine
 10
-61.66126648505521
 20
2.9557223015695
 30
0.0
 11
-61.68137725439654
 21
2.940189905998352
 31
0.0
  0
LINE
  5
13A
330
1F
100
AcDbEntity
  8
0
100
AcDbLine
 10
-62.10743174824425
 20
2.482732633294815
 30
0.0
 11
-62.12151888878569
 21
2.461536706087101
 31
0.0
  0
LINE
  5
13B
330
1F
100
AcDbEntity
  8
0
100
AcDbLine
 10
-61.64092816469316
 20
2.971021567234059
 30
0.0
 11
-61.66126648505521
 21
2.9557223015695
 31
0.0
  0
LINE
  5
13C
330
1F
100
AcDbEntity
  8
0
100
AcDbLine
 10
-62.31932565820365
 20
2.073118937074684
 30
0.0
 11
-62.32830732410219
 21
2.048919235417584
 31
0.0
  0
LINE
  5
13D
330
1F
100
AcDbEntity
  8
0
100
AcDbLine
 10
-61.04775104612977
 20
3.273341548875211
 30
0.0
 11
-61.0722717265096
 21
3.26547165869615
 31
0.0
  0
LINE
  5
13E
330
1F
100
AcDbEntity
  8
0
100
AcDbLine
 10
-61.0722717265096
 20
3.26547165869615
 30
0.0
 11
-61.09670322093987
 21
3.257281836036257
 31
0.0
  0
LINE
  5
13F
330
1F
100
AcDbEntity
  8
0
100
AcDbLine
 10
-61.14527371480415
 20
3.239948656100583
 30
0.0
 11
-61.16940033888032
 21
3.23080883436184
 31
0.0
  0
LINE
  5
140
330
1F
100
AcDbEntity
  8
0
100
AcDbLine
 10
-61.51435192306894
 20
3.057656746732617
 30
0.0
 11
-61.5359673169203
 21
3.043854676661183
 31
0.0
  0
LINE
  5
141
330
1F
100
AcDbEntity
  8
0
100
AcDbLine
 10
-61.21730573742022
 20
3.211592766275208
 30
0.0
 11
-61.24107242580627
 21
3.2015210094913
 31
0.0
  0
LINE
  5
142
330
1F
100
AcDbEntity
  8
0
100
AcDbLine
 10
-61.55738101403964
 20
3.029791847386808
 30
0.0
 11
-61.57858838748862
 21
3.01547261163232
 31
0.0
  0
LINE
  5
143
330
1F
100
AcDbEntity
  8
0
100
AcDbLine
 10
-61.02314745279365
 20
3.2808901442729
 30
0.0
 11
-61.04775104612977
 21
3.273341548875211
 31
0.0
  0
LINE
  5
144
330
1F
100
AcDbEntity
  8
0
100
AcDbLine
 10
-62.18810695253866
 20
2.352507018362586
 30
0.0
 11
-62.20062496974763
 21
2.330123504063192
 31
0.0
  0
LINE
  5
145
330
1F
100
AcDbEntity
  8
0
100
AcDbLine
 10
-62.23650758840922
 20
2.261906492574585
 30
0.0
 11
-62.2478989514149
 21
2.238829337955784
 31
0.0
  0
LINE
  5
146
330
1F
100
AcDbEntity
  8
0
100
AcDbLine
 10
-61.49253957965403
 20
3.071193815780612
 30
0.0
 11
-61.51435192306894
 21
3.057656746732617
 31
0.0
  0
LINE
  5
147
330
1F
100
AcDbEntity
  8
0
100
AcDbLine
 10
-61.57858838748862
 20
3.01547261163232
 30
0.0
 11
-61.59958493370331
 21
3.000901428816532
 31
0.0
  0
LINE
  5
148
330
1F
100
AcDbEntity
  8
0
100
AcDbLine
 10
-62.42456582771261
 20
1.675736495487489
 30
0.0
 11
-62.42837365033505
 21
1.650464477066823
 31
0.0
  0
LINE
  5
149
330
1F
100
AcDbEntity
  8
0
100
AcDbLine
 10
-62.03340115815954
 20
2.585428233512339
 30
0.0
 11
-62.06371316949676
 21
2.545022633546501
 31
0.0
  0
LINE
  5
14A
330
1F
100
AcDbEntity
  8
0
100
AcDbLine
 10
-62.43500689566241
 20
1.599887117016693
 30
0.0
 11
-62.43783342628729
 21
1.574594319008977
 31
0.0
  0
LINE
  5
14B
330
1F
100
AcDbEntity
  8
0
100
AcDbLine
 10
-62.4454293662796
 20
1.248487611193029
 30
0.0
 11
-62.44211559729642
 21
1.191761658568892
 31
0.0
  0
LINE
  5
14C
330
1F
100
AcDbEntity
  8
0
100
AcDbLine
 10
-61.5359673169203
 20
3.043854676661183
 30
0.0
 11
-61.55738101403964
 21
3.029791847386808
 31
0.0
  0
LINE
  5
14D
330
1F
100
AcDbEntity
  8
0
100
AcDbLine
 10
-62.37555395640629
 20
1.901543872893329
 30
0.0
 11
-62.38230504991148
 21
1.87667634407289
 31
0.0
  0
LINE
  5
14E
330
1F
100
AcDbEntity
  8
0
100
AcDbLine
 10
-61.79705772997201
 20
2.842380997062646
 30
0.0
 11
-61.8336395932027
 21
2.808144765081719
 31
0.0
  0
LINE
  5
14F
330
1F
100
AcDbEntity
  8
0
100
AcDbLine
 10
-62.38873155435373
 20
1.851738438820857
 30
0.0
 11
-62.39483247557888
 21
1.826736498900992
 31
0.0
  0
LINE
  5
150
330
1F
100
AcDbEntity
  8
0
100
AcDbLine
 10
-62.41117426892131
 20
1.751410082393232
 30
0.0
 11
-62.41596620954941
 21
1.726215642417494
 31
0.0
  0
LINE
  5
151
330
1F
100
AcDbEntity
  8
0
100
AcDbLine
 10
-62.44436258837246
 20
1.498773947282986
 30
0.0
 11
-62.4471013520582
 21
1.44833656093881
 31
0.0
  0
LINE
  5
152
330
1F
100
AcDbEntity
  8
0
100
AcDbLine
 10
-62.16225875997624
 20
2.39671073427034
 30
0.0
 11
-62.17531685745444
 21
2.374704386066911
 31
0.0
  0
LINE
  5
153
330
1F
100
AcDbEntity
  8
0
100
AcDbLine
 10
-62.00220239571246
 20
2.624902597459636
 30
0.0
 11
-62.03340115815954
 21
2.585428233512339
 31
0.0
  0
LINE
  5
154
330
1F
100
AcDbEntity
  8
0
100
AcDbLine
 10
-62.43185384806823
 20
1.625179255026368
 30
0.0
 11
-62.43500689566241
 21
1.599887117016693
 31
0.0
  0
LINE
  5
155
330
1F
100
AcDbEntity
  8
0
100
AcDbLine
 10
-61.93730926457182
 20
2.700952153306929
 30
0.0
 11
-61.97015780734908
 21
2.663418785383103
 31
0.0
  0
LINE
  5
156
330
1F
100
AcDbEntity
  8
0
100
AcDbLine
 10
-62.36108280009839
 20
1.951042541293976
 30
0.0
 11
-62.36847943235122
 21
1.926334703876716
 31
0.0
  0
LINE
  5
157
330
1F
100
AcDbEntity
  8
0
100
AcDbLine
 10
-62.44875940434659
 20
1.347939850511228
 30
0.0
 11
-62.44770898545116
 21
1.298073254879473
 31
0.0
  0
LINE
  5
158
330
1F
100
AcDbEntity
  8
0
100
AcDbLine
 10
-62.43783342628729
 20
1.574594319008977
 30
0.0
 11
-62.44033422987908
 21
1.549307080396683
 31
0.0
  0
LINE
  5
159
330
1F
100
AcDbEntity
  8
0
100
AcDbLine
 10
-61.72090089554602
 20
2.908445510929448
 30
0.0
 11
-61.75946999492432
 21
2.875828721221344
 31
0.0
  0
LINE
  5
15A
330
1F
100
AcDbEntity
  8
0
100
AcDbLine
 10
-62.42837365033505
 20
1.650464477066823
 30
0.0
 11
-62.43185384806823
 21
1.625179255026368
 31
0.0
  0
LINE
  5
15B
330
1F
100
AcDbEntity
  8
0
100
AcDbLine
 10
-62.17531685745444
 20
2.374704386066911
 30
0.0
 11
-62.18810695253866
 21
2.352507018362586
 31
0.0
  0
LINE
  5
15C
330
1F
100
AcDbEntity
  8
0
100
AcDbLine
 10
-62.35336554511214
 20
1.975661120392624
 30
0.0
 11
-62.36108280009839
 21
1.951042541293976
 31
0.0
  0
LINE
  5
15D
330
1F
100
AcDbEntity
  8
0
100
AcDbLine
 10
-62.2478989514149
 20
2.238829337955784
 30
0.0
 11
-62.25899970090067
 21
2.215592031354727
 31
0.0
  0
LINE
  5
15E
330
1F
100
AcDbEntity
  8
0
100
AcDbLine
 10
-61.86919342443715
 20
2.773163262704077
 30
0.0
 11
-61.90369943098528
 21
2.737480382508028
 31
0.0
  0
LINE
  5
15F
330
1F
100
AcDbEntity
  8
0
100
AcDbLine
 10
-62.28031624468095
 20
2.16865904407746
 30
0.0
 11
-62.29052583221712
 21
2.144974624969727
 31
0.0
  0
LINE
  5
160
330
1F
100
AcDbEntity
  8
0
100
AcDbLine
 10
-62.42043006534423
 20
1.700988995937946
 30
0.0
 11
-62.42456582771261
 21
1.675736495487489
 31
0.0
  0
LINE
  5
161
330
1F
100
AcDbEntity
  8
0
100
AcDbLine
 10
-62.40060698410401
 20
1.801676881112874
 30
0.0
 11
-62.4060544152255
 21
1.77656595197039
 31
0.0
  0
LINE
  5
162
330
1F
100
AcDbEntity
  8
0
100
AcDbLine
 10
-62.36847943235122
 20
1.926334703876716
 30
0.0
 11
-62.37555395640629
 21
1.901543872893329
 31
0.0
  0
LINE
  5
163
330
1F
100
AcDbEntity
  8
0
100
AcDbLine
 10
-62.22482906113093
 20
2.284818091541926
 30
0.0
 11
-62.23650758840922
 21
2.261906492574585
 31
0.0
  0
LINE
  5
164
330
1F
100
AcDbEntity
  8
0
100
AcDbLine
 10
-61.59958493370331
 20
3.000901428816532
 30
0.0
 11
-61.6203662754652
 21
2.986082860750562
 31
0.0
  0
LINE
  5
165
330
1F
100
AcDbEntity
  8
0
100
AcDbLine
 10
-62.20062496974763
 20
2.330123504063192
 30
0.0
 11
-62.21286695132482
 21
2.307558829631199
 31
0.0
  0
LINE
  5
166
330
1F
100
AcDbEntity
  8
0
100
AcDbLine
 10
-61.56390133305482
 20
-5.268016937734961
 30
0.0
 11
-62.03389143818864
 21
-5.79632484592241
 31
0.0
  0
LINE
  5
167
330
1F
100
AcDbEntity
  8
0
100
AcDbLine
 10
-62.38230504991148
 20
1.87667634407289
 30
0.0
 11
-62.38873155435373
 21
1.851738438820857
 31
0.0
  0
LINE
  5
168
330
1F
100
AcDbEntity
  8
0
100
AcDbLine
 10
-62.44211559729642
 20
1.191761658568892
 30
0.0
 11
-61.91380775514711
 21
0.7217714946864109
 31
0.0
  0
LINE
  5
169
330
1F
100
AcDbEntity
  8
0
100
AcDbLine
 10
-62.44770898545116
 20
1.298073254879473
 30
0.0
 11
-62.4454293662796
 21
1.248487611193029
 31
0.0
  0
LINE
  5
16A
330
1F
100
AcDbEntity
  8
0
100
AcDbLine
 10
-62.44856227537809
 20
1.39804288208021
 30
0.0
 11
-62.44875940434659
 21
1.347939850511228
 31
0.0
  0
LINE
  5
16B
330
1F
100
AcDbEntity
  8
0
100
AcDbLine
 10
-62.03389143818864
 20
-5.79632484592241
 30
0.0
 11
-61.50558359603956
 21
-6.266315009805274
 31
0.0
  0
LINE
  5
16C
330
1F
100
AcDbEntity
  8
0
100
AcDbLine
 10
-62.4471013520582
 20
1.44833656093881
 30
0.0
 11
-62.44856227537809
 21
1.39804288208021
 31
0.0
  0
LINE
  5
16D
330
1F
100
AcDbEntity
  8
0
100
AcDbLine
 10
-62.32830732410219
 20
2.048919235417584
 30
0.0
 11
-62.33697591856908
 21
2.0246056311197
 31
0.0
  0
LINE
  5
16E
330
1F
100
AcDbEntity
  8
0
100
AcDbLine
 10
-61.73885454410097
 20
-2.273122721524185
 30
0.0
 11
-62.20884464923488
 21
-2.80143062971215
 31
0.0
  0
LINE
  5
16F
330
1F
100
AcDbEntity
  8
0
100
AcDbLine
 10
-68.73782585785149
 20
6.887278436129225
 30
0.0
 11
-68.73450923518776
 21
6.912567116154233
 31
0.0
  0
LINE
  5
170
330
1F
100
AcDbEntity
  8
0
100
AcDbLine
 10
-62.34532931503858
 20
2.000184212671132
 30
0.0
 11
-62.35336554511214
 21
1.975661120392624
 31
0.0
  0
LINE
  5
171
330
1F
100
AcDbEntity
  8
0
100
AcDbLine
 10
-62.25899970090067
 20
2.215592031354727
 30
0.0
 11
-62.26980652345471
 21
2.19220007073533
 31
0.0
  0
LINE
  5
172
330
1F
100
AcDbEntity
  8
0
100
AcDbLine
 10
-62.4060544152255
 20
1.77656595197039
 30
0.0
 11
-62.41117426892131
 21
1.751410082393232
 31
0.0
  0
LINE
  5
173
330
1F
100
AcDbEntity
  8
0
100
AcDbLine
 10
-62.15052691221948
 20
-3.799728701781943
 30
0.0
 11
-61.62221907007035
 21
-4.26971886566474
 31
0.0
  0
LINE
  5
174
330
1F
100
AcDbEntity
  8
0
100
AcDbLine
 10
-68.73450923518776
 20
6.912567116154233
 30
0.0
 11
-68.73053744269231
 21
6.937829375589693
 31
0.0
  0
LINE
  5
175
330
1F
100
AcDbEntity
  8
0
100
AcDbLine
 10
-62.31003320386796
 20
2.097198704513307
 30
0.0
 11
-62.31932565820365
 21
2.073118937074684
 31
0.0
  0
LINE
  5
176
330
1F
100
AcDbEntity
  8
0
100
AcDbLine
 10
-62.39483247557888
 20
1.826736498900992
 30
0.0
 11
-62.40060698410401
 21
1.801676881112874
 31
0.0
  0
LINE
  5
177
330
1F
100
AcDbEntity
  8
0
100
AcDbLine
 10
-62.3254801232654
 20
-0.8048344855716405
 30
0.0
 11
-61.79717228111632
 21
-1.274824649453986
 31
0.0
  0
LINE
  5
178
330
1F
100
AcDbEntity
  8
0
100
AcDbLine
 10
-62.26980652345471
 20
2.19220007073533
 30
0.0
 11
-62.28031624468095
 21
2.16865904407746
 31
0.0
  0
LINE
  5
179
330
1F
100
AcDbEntity
  8
0
100
AcDbLine
 10
-62.41596620954941
 20
1.726215642417494
 30
0.0
 11
-62.42043006534423
 21
1.700988995937946
 31
0.0
  0
LINE
  5
17A
330
1F
100
AcDbEntity
  8
0
100
AcDbLine
 10
-68.69298706753972
 20
7.087426983956399
 30
0.0
 11
-68.68447607207152
 21
7.111794495329659
 31
0.0
  0
LINE
  5
17B
330
1F
100
AcDbEntity
  8
0
100
AcDbLine
 10
-62.44033422987908
 20
1.549307080396683
 30
0.0
 11
-62.44436258837246
 21
1.498773947282986
 31
0.0
  0
LINE
  5
17C
330
1F
100
AcDbEntity
  8
0
100
AcDbLine
 10
-68.74326865483503
 20
6.824105010558724
 30
0.0
 11
-68.74048952496008
 21
6.861988417819298
 31
0.0
  0
LINE
  5
17D
330
1F
100
AcDbEntity
  8
0
100
AcDbLine
 10
-68.54465767220562
 20
7.370004910439689
 30
0.0
 11
-68.52142360787705
 21
7.399786176350369
 31
0.0
  0
LINE
  5
17E
330
1F
100
AcDbEntity
  8
0
100
AcDbLine
 10
-61.62221907007035
 20
-4.26971886566474
 30
0.0
 11
-62.09220917520413
 21
-4.798026773852254
 31
0.0
  0
LINE
  5
17F
330
1F
100
AcDbEntity
  8
0
100
AcDbLine
 10
-62.26716238625018
 20
-1.803132557641816
 30
0.0
 11
-61.73885454410097
 21
-2.273122721524185
 31
0.0
  0
LINE
  5
180
330
1F
100
AcDbEntity
  8
0
100
AcDbLine
 10
-61.6805368070857
 20
-3.271420793594519
 30
0.0
 11
-62.15052691221948
 21
-3.799728701781943
 31
0.0
  0
LINE
  5
181
330
1F
100
AcDbEntity
  8
0
100
AcDbLine
 10
-68.7445169298628
 20
6.748821970002886
 30
0.0
 11
-68.74460354770949
 21
6.78635631866113
 31
0.0
  0
LINE
  5
182
330
1F
100
AcDbEntity
  8
0
100
AcDbLine
 10
-61.50558359603956
 20
-6.266315009805274
 30
0.0
 11
-61.97557370117334
 21
-6.794622917992585
 31
0.0
  0
LINE
  5
183
330
1F
100
AcDbEntity
  8
0
100
AcDbLine
 10
-62.20884464923488
 20
-2.80143062971215
 30
0.0
 11
-61.6805368070857
 21
-3.271420793594519
 31
0.0
  0
LINE
  5
184
330
1F
100
AcDbEntity
  8
0
100
AcDbLine
 10
-61.85549001813167
 20
-0.2765265773837878
 30
0.0
 11
-62.3254801232654
 21
-0.8048344855716405
 31
0.0
  0
LINE
  5
185
330
1F
100
AcDbEntity
  8
0
100
AcDbLine
 10
-68.72590954448094
 20
6.963039918817698
 30
0.0
 11
-68.72062590207227
 21
6.988173318177191
 31
0.0
  0
LINE
  5
186
330
1F
100
AcDbEntity
  8
0
100
AcDbLine
 10
-68.27749837155561
 20
7.616163250986995
 30
0.0
 11
-68.25558998540157
 21
7.629565756110436
 31
0.0
  0
LINE
  5
187
330
1F
100
AcDbEntity
  8
0
100
AcDbLine
 10
-68.64427188572778
 20
7.20674954659859
 30
0.0
 11
-68.632736940586
 21
7.229743923391446
 31
0.0
  0
LINE
  5
188
330
1F
100
AcDbEntity
  8
0
100
AcDbLine
 10
-68.25558998540157
 20
7.629565756110436
 30
0.0
 11
-68.23330743823131
 21
7.642422051233011
 31
0.0
  0
LINE
  5
189
330
1F
100
AcDbEntity
  8
0
100
AcDbLine
 10
-61.79717228111632
 20
-1.274824649453986
 30
0.0
 11
-62.26716238625018
 21
-1.803132557641816
 31
0.0
  0
LINE
  5
18A
330
1F
100
AcDbEntity
  8
0
100
AcDbLine
 10
-68.74460354770949
 20
6.78635631866113
 30
0.0
 11
-68.74326865483503
 21
6.824105010558724
 31
0.0
  0
LINE
  5
18B
330
1F
100
AcDbEntity
  8
0
100
AcDbLine
 10
-68.70086381006944
 20
7.062856148267596
 30
0.0
 11
-68.69298706753972
 21
7.087426983956399
 31
0.0
  0
LINE
  5
18C
330
1F
100
AcDbEntity
  8
0
100
AcDbLine
 10
-68.73053744269231
 20
6.937829375589693
 30
0.0
 11
-68.72590954448094
 21
6.963039918817698
 31
0.0
  0
LINE
  5
18D
330
1F
100
AcDbEntity
  8
0
100
AcDbLine
 10
-61.91380775514711
 20
0.7217714946864109
 30
0.0
 11
-62.38379786028089
 21
0.193463586498513
 31
0.0
  0
LINE
  5
18E
330
1F
100
AcDbEntity
  8
0
100
AcDbLine
 10
-68.72062590207227
 20
6.988173318177191
 30
0.0
 11
-68.7146881871972
 21
7.013204097031295
 31
0.0
  0
LINE
  5
18F
330
1F
100
AcDbEntity
  8
0
100
AcDbLine
 10
-61.97557370117334
 20
-6.794622917992585
 30
0.0
 11
-62.02923166833384
 21
-9.191547697290154
 31
0.0
  0
LINE
  5
190
330
1F
100
AcDbEntity
  8
0
100
AcDbLine
 10
-68.04419793308637
 20
7.724005652058382
 30
0.0
 11
-68.01955603207534
 21
7.731393000672519
 31
0.0
  0
LINE
  5
191
330
1F
100
AcDbEntity
  8
0
100
AcDbLine
 10
-68.44609556277352
 20
7.482707099091492
 30
0.0
 11
-68.41885127500693
 21
7.508525376151919
 31
0.0
  0
LINE
  5
192
330
1F
100
AcDbEntity
  8
0
100
AcDbLine
 10
-68.74048952496008
 20
6.861988417819298
 30
0.0
 11
-68.73782585785149
 21
6.887278436129225
 31
0.0
  0
LINE
  5
193
330
1F
100
AcDbEntity
  8
0
100
AcDbLine
 10
-68.18770290634052
 20
7.666435917930846
 30
0.0
 11
-68.16442441763596
 21
7.67756609685974
 31
0.0
  0
LINE
  5
194
330
1F
100
AcDbEntity
  8
0
100
AcDbLine
 10
-68.49723810029296
 20
7.428489763382495
 30
0.0
 11
-68.47217212551365
 21
7.45607506887452
 31
0.0
  0
LINE
  5
195
330
1F
100
AcDbEntity
  8
0
100
AcDbLine
 10
-68.16442441763596
 20
7.67756609685974
 30
0.0
 11
-68.14085862292461
 21
7.688095382366145
 31
0.0
  0
LINE
  5
196
330
1F
100
AcDbEntity
  8
0
100
AcDbLine
 10
-62.09220917520413
 20
-4.798026773852254
 30
0.0
 11
-61.56390133305482
 21
-5.268016937734961
 31
0.0
  0
LINE
  5
197
330
1F
100
AcDbEntity
  8
0
100
AcDbLine
 10
-68.41885127500693
 20
7.508525376151919
 30
0.0
 11
-68.39047565660368
 21
7.533456676927351
 31
0.0
  0
LINE
  5
198
330
1F
100
AcDbEntity
  8
0
100
AcDbLine
 10
-68.62063489489447
 20
7.252396629651932
 30
0.0
 11
-68.60798083874785
 21
7.274687070653961
 31
0.0
  0
LINE
  5
199
330
1F
100
AcDbEntity
  8
0
100
AcDbLine
 10
-68.39047565660368
 20
7.533456676927351
 30
0.0
 11
-68.36101103721928
 21
7.557429830619456
 31
0.0
  0
LINE
  5
19A
330
1F
100
AcDbEntity
  8
0
100
AcDbLine
 10
-68.52142360787705
 20
7.399786176350369
 30
0.0
 11
-68.49723810029296
 21
7.428489763382495
 31
0.0
  0
LINE
  5
19B
330
1F
100
AcDbEntity
  8
0
100
AcDbLine
 10
-68.70809938822329
 20
7.038106814067429
 30
0.0
 11
-68.70086381006944
 21
7.062856148267596
 31
0.0
  0
LINE
  5
19C
330
1F
100
AcDbEntity
  8
0
100
AcDbLine
 10
-68.60798083874785
 20
7.274687070653961
 30
0.0
 11
-68.5947908346682
 21
7.29659553112573
 31
0.0
  0
LINE
  5
19D
330
1F
100
AcDbEntity
  8
0
100
AcDbLine
 10
-65.74473939587695
 20
7.769896427522718
 30
0.0
 11
-38.51548761452367
 21
7.769896427522633
 31
0.0
  0
LINE
  5
19E
330
1F
100
AcDbEntity
  8
0
100
AcDbLine
 10
-68.632736940586
 20
7.229743923391446
 30
0.0
 11
-68.62063489489447
 21
7.252396629651932
 31
0.0
  0
LINE
  5
19F
330
1F
100
AcDbEntity
  8
0
100
AcDbLine
 10
-68.21067128744886
 20
7.654716852906753
 30
0.0
 11
-68.18770290634052
 21
7.666435917930846
 31
0.0
  0
LINE
  5
1A0
330
1F
100
AcDbEntity
  8
0
100
AcDbLine
 10
-67.7820053433635
 20
7.769201801358324
 30
0.0
 11
-67.7447391458769
 21
7.769896427522582
 31
0.0
  0
LINE
  5
1A1
330
1F
100
AcDbEntity
  8
0
100
AcDbLine
 10
-68.36101103721928
 20
7.557429830619456
 30
0.0
 11
-68.34078649236754
 21
7.572845661237287
 31
0.0
  0
LINE
  5
1A2
330
1F
100
AcDbEntity
  8
0
100
AcDbLine
 10
-68.32011487687261
 20
7.587785592028817
 30
0.0
 11
-68.29901291704105
 21
7.602230801314102
 31
0.0
  0
LINE
  5
1A3
330
1F
100
AcDbEntity
  8
0
100
AcDbLine
 10
-68.5947908346682
 20
7.29659553112573
 30
0.0
 11
-68.58108185441358
 21
7.318103230664113
 31
0.0
  0
LINE
  5
1A4
330
1F
100
AcDbEntity
  8
0
100
AcDbLine
 10
-62.38379786028089
 20
0.193463586498513
 30
0.0
 11
-61.85549001813167
 21
-0.2765265773837878
 31
0.0
  0
LINE
  5
1A5
330
1F
100
AcDbEntity
  8
0
100
AcDbLine
 10
-68.29901291704105
 20
7.602230801314102
 30
0.0
 11
-68.27749837155561
 21
7.616163250986995
 31
0.0
  0
LINE
  5
1A6
330
1F
100
AcDbEntity
  8
0
100
AcDbLine
 10
-67.9698757962237
 20
7.744223618972561
 30
0.0
 11
-67.94488816046484
 21
7.749661890245497
 31
0.0
  0
LINE
  5
1A7
330
1F
100
AcDbEntity
  8
0
100
AcDbLine
 10
-68.11702892839789
 20
7.698012952092941
 30
0.0
 11
-68.09295926742358
 21
7.707309205670707
 31
0.0
  0
LINE
  5
1A8
330
1F
100
AcDbEntity
  8
0
100
AcDbLine
 10
-67.85708745163194
 20
7.763565313539693
 30
0.0
 11
-67.81948085793891
 21
7.767099353250906
 31
0.0
  0
LINE
  5
1A9
330
1F
100
AcDbEntity
  8
0
100
AcDbLine
 10
-68.67533901195456
 20
7.135934229877362
 30
0.0
 11
-68.66558532612898
 21
7.159822190105483
 31
0.0
  0
LINE
  5
1AA
330
1F
100
AcDbEntity
  8
0
100
AcDbLine
 10
-58.14956098588267
 20
9.681578224165644
 30
0.0
 11
-58.50993168006372
 21
9.731626292238332
 31
0.0
  0
LINE
  5
1AB
330
1F
100
AcDbEntity
  8
0
100
AcDbLine
 10
-68.7146881871972
 20
7.013204097031295
 30
0.0
 11
-68.70809938822329
 21
7.038106814067429
 31
0.0
  0
LINE
  5
1AC
330
1F
100
AcDbEntity
  8
0
100
AcDbLine
 10
-68.56687171218725
 20
7.339192373790175
 30
0.0
 11
-68.54465767220562
 21
7.370004910439689
 31
0.0
  0
LINE
  5
1AD
330
1F
100
AcDbEntity
  8
0
100
AcDbLine
 10
-68.34078649236754
 20
7.572845661237287
 30
0.0
 11
-68.32011487687261
 21
7.587785592028817
 31
0.0
  0
LINE
  5
1AE
330
1F
100
AcDbEntity
  8
0
100
AcDbLine
 10
-60.75536514195986
 20
10.85952971996032
 30
0.0
 11
-61.01067066072108
 21
11.11874190062315
 31
0.0
  0
LINE
  5
1AF
330
1F
100
AcDbEntity
  8
0
100
AcDbLine
 10
-68.58108185441358
 20
7.318103230664113
 30
0.0
 11
-68.56687171218725
 21
7.339192373790175
 31
0.0
  0
LINE
  5
1B0
330
1F
100
AcDbEntity
  8
0
100
AcDbLine
 10
-60.1855692430554
 20
10.40794005862497
 30
0.0
 11
-60.47971575113392
 21
10.62206546338547
 31
0.0
  0
LINE
  5
1B1
330
1F
100
AcDbEntity
  8
0
100
AcDbLine
 10
-67.94488816046484
 20
7.749661890245497
 30
0.0
 11
-67.91983594105862
 21
7.754447647445692
 31
0.0
  0
LINE
  5
1B2
330
1F
100
AcDbEntity
  8
0
100
AcDbLine
 10
-68.66558532612898
 20
7.159822190105483
 30
0.0
 11
-68.65522567174769
 21
7.183434912988352
 31
0.0
  0
LINE
  5
1B3
330
1F
100
AcDbEntity
  8
0
100
AcDbLine
 10
-61.01067066072108
 20
11.11874190062315
 30
0.0
 11
-61.24392184945466
 21
11.39796537413837
 31
0.0
  0
LINE
  5
1B4
330
1F
100
AcDbEntity
  8
0
100
AcDbLine
 10
-67.91983594105862
 20
7.754447647445692
 30
0.0
 11
-67.89474430675058
 21
7.758581638338286
 31
0.0
  0
LINE
  5
1B5
330
1F
100
AcDbEntity
  8
0
100
AcDbLine
 10
-67.7447391458769
 20
7.769896427522582
 30
0.0
 11
-65.74473939587695
 21
7.769896427522718
 31
0.0
  0
LINE
  5
1B6
330
1F
100
AcDbEntity
  8
0
100
AcDbLine
 10
-59.54977831271233
 20
10.05527809351387
 30
0.0
 11
-59.87489629677393
 21
10.2185880712354
 31
0.0
  0
LINE
  5
1B7
330
1F
100
AcDbEntity
  8
0
100
AcDbLine
 10
-59.21239346801057
 20
9.919104245372987
 30
0.0
 11
-59.54977831271233
 21
10.05527809351387
 31
0.0
  0
LINE
  5
1B8
330
1F
100
AcDbEntity
  8
0
100
AcDbLine
 10
-68.09295926742358
 20
7.707309205670707
 30
0.0
 11
-68.06867402049157
 21
7.715975795638577
 31
0.0
  0
LINE
  5
1B9
330
1F
100
AcDbEntity
  8
0
100
AcDbLine
 10
-68.68447607207152
 20
7.111794495329659
 30
0.0
 11
-68.67533901195456
 21
7.135934229877362
 31
0.0
  0
LINE
  5
1BA
330
1F
100
AcDbEntity
  8
0
100
AcDbLine
 10
-68.47217212551365
 20
7.45607506887452
 30
0.0
 11
-68.44609556277352
 21
7.482707099091492
 31
0.0
  0
LINE
  5
1BB
330
1F
100
AcDbEntity
  8
0
100
AcDbLine
 10
-67.99477354119334
 20
7.738133374519149
 30
0.0
 11
-67.9698757962237
 21
7.744223618972561
 31
0.0
  0
LINE
  5
1BC
330
1F
100
AcDbEntity
  8
0
100
AcDbLine
 10
-61.35061014196028
 20
16.46249861426984
 30
0.0
 11
-61.11464276610771
 21
16.77121657275264
 31
0.0
  0
LINE
  5
1BD
330
1F
100
AcDbEntity
  8
0
100
AcDbLine
 10
-61.45355600651978
 20
11.69532944058569
 30
0.0
 11
-61.6381686561536
 21
12.00884186439683
 31
0.0
  0
LINE
  5
1BE
330
1F
100
AcDbEntity
  8
0
100
AcDbLine
 10
-61.24392184945466
 20
11.39796537413837
 30
0.0
 11
-61.45355600651978
 21
11.69532944058569
 31
0.0
  0
LINE
  5
1BF
330
1F
100
AcDbEntity
  8
0
100
AcDbLine
 10
-62.13371140959532
 20
14.29405878145774
 30
0.0
 11
-62.08413036414821
 21
14.67945353180388
 31
0.0
  0
LINE
  5
1C0
330
1F
100
AcDbEntity
  8
0
100
AcDbLine
 10
-68.14085862292461
 20
7.688095382366145
 30
0.0
 11
-68.11702892839789
 21
7.698012952092941
 31
0.0
  0
LINE
  5
1C1
330
1F
100
AcDbEntity
  8
0
100
AcDbLine
 10
-68.01955603207534
 20
7.731393000672519
 30
0.0
 11
-67.99477354119334
 21
7.738133374519149
 31
0.0
  0
LINE
  5
1C2
330
1F
100
AcDbEntity
  8
0
100
AcDbLine
 10
-59.87489629677393
 20
10.2185880712354
 30
0.0
 11
-60.1855692430554
 21
10.40794005862497
 31
0.0
  0
LINE
  5
1C3
330
1F
100
AcDbEntity
  8
0
100
AcDbLine
 10
-61.92755799335589
 20
12.67581597212317
 30
0.0
 11
-62.03039587326121
 21
13.02480916205915
 31
0.0
  0
LINE
  5
1C4
330
1F
100
AcDbEntity
  8
0
100
AcDbLine
 10
-58.50993168006372
 20
9.731626292238332
 30
0.0
 11
-58.8650021234978
 21
9.81097884411767
 31
0.0
  0
LINE
  5
1C5
330
1F
100
AcDbEntity
  8
0
100
AcDbLine
 10
-68.23330743823131
 20
7.642422051233011
 30
0.0
 11
-68.21067128744886
 21
7.654716852906753
 31
0.0
  0
LINE
  5
1C6
330
1F
100
AcDbEntity
  8
0
100
AcDbLine
 10
-61.8851970806316
 20
15.42993424207441
 30
0.0
 11
-61.73736505615172
 21
15.78928515879954
 31
0.0
  0
LINE
  5
1C7
330
1F
100
AcDbEntity
  8
0
100
AcDbLine
 10
-61.79652295796956
 20
12.33640222163866
 30
0.0
 11
-61.92755799335589
 21
12.67581597212317
 31
0.0
  0
LINE
  5
1C8
330
1F
100
AcDbEntity
  8
0
100
AcDbLine
 10
-60.47971575113392
 20
10.62206546338547
 30
0.0
 11
-60.75536514195986
 21
10.85952971996032
 31
0.0
  0
LINE
  5
1C9
330
1F
100
AcDbEntity
  8
0
100
AcDbLine
 10
-68.65522567174769
 20
7.183434912988352
 30
0.0
 11
-68.64427188572778
 21
7.20674954659859
 31
0.0
  0
LINE
  5
1CA
330
1F
100
AcDbEntity
  8
0
100
AcDbLine
 10
60.18556924305572
 20
10.79322694801342
 30
0.0
 11
59.87489629677425
 21
10.60387496062367
 31
0.0
  0
LINE
  5
1CB
330
1F
100
AcDbEntity
  8
0
100
AcDbLine
 10
-61.73736505615172
 20
15.78928515879954
 30
0.0
 11
-61.55871433734331
 21
16.13435226381954
 31
0.0
  0
LINE
  5
1CC
330
1F
100
AcDbEntity
  8
0
100
AcDbLine
 10
-62.08413036414821
 20
14.67945353180388
 30
0.0
 11
-62.00108070413608
 21
15.05904561091549
 31
0.0
  0
LINE
  5
1CD
330
1F
100
AcDbEntity
  8
0
100
AcDbLine
 10
-62.03039587326121
 20
13.02480916205915
 30
0.0
 11
-62.10434761974497
 21
13.38104365875213
 31
0.0
  0
LINE
  5
1CE
330
1F
100
AcDbEntity
  8
0
100
AcDbLine
 10
-62.13371140959532
 20
14.29405878145774
 30
0.0
 11
-62.14891778188919
 21
13.74213281527548
 31
0.0
  0
LINE
  5
1CF
330
1F
100
AcDbEntity
  8
0
100
AcDbLine
 10
59.2123934680108
 20
10.30439113476128
 30
0.0
 11
58.86500212349807
 21
10.19626573350603
 31
0.0
  0
LINE
  5
1D0
330
1F
100
AcDbEntity
  8
0
100
AcDbLine
 10
-38.51548761452367
 20
7.769896427522633
 30
0.0
 11
-58.14956098588267
 21
9.681578224165644
 31
0.0
  0
LINE
  5
1D1
330
1F
100
AcDbEntity
  8
0
100
AcDbLine
 10
61.92755799335617
 20
13.06110286151146
 30
0.0
 11
61.79652295796989
 21
12.72168911102714
 31
0.0
  0
LINE
  5
1D2
330
1F
100
AcDbEntity
  8
0
100
AcDbLine
 10
-67.89474430675058
 20
7.758581638338286
 30
0.0
 11
-67.85708745163194
 21
7.763565313539693
 31
0.0
  0
LINE
  5
1D3
330
1F
100
AcDbEntity
  8
0
100
AcDbLine
 10
-67.81948085793891
 20
7.767099353250906
 30
0.0
 11
-67.7820053433635
 21
7.769201801358324
 31
0.0
  0
LINE
  5
1D4
330
1F
100
AcDbEntity
  8
0
100
AcDbLine
 10
66.16988483496714
 20
-18.31093813012445
 30
0.0
 11
66.55341228909354
 21
-18.15207583722509
 31
0.0
  0
LINE
  5
1D5
330
1F
100
AcDbEntity
  8
0
100
AcDbLine
 10
65.75830918012393
 20
-18.3651230998038
 30
0.0
 11
66.16988483496714
 21
-18.31093813012445
 31
0.0
  0
LINE
  5
1D6
330
1F
100
AcDbEntity
  8
0
100
AcDbLine
 10
60.75536514196017
 20
11.24481660934891
 30
0.0
 11
60.47971575113415
 21
11.00735235277387
 31
0.0
  0
LINE
  5
1D7
330
1F
100
AcDbEntity
  8
0
100
AcDbLine
 10
-60.25857419926794
 20
17.55805764617605
 30
0.0
 11
-59.93109986158075
 21
17.76721769404216
 31
0.0
  0
LINE
  5
1D8
330
1F
100
AcDbEntity
  8
0
100
AcDbLine
 10
-64.2222211037954
 20
-17.57177927876648
 30
0.0
 11
-64.16803614088914
 21
-17.16020357247653
 31
0.0
  0
LINE
  5
1D9
330
1F
100
AcDbEntity
  8
0
100
AcDbLine
 10
62.14891778188952
 20
14.12741970466375
 30
0.0
 11
62.10434761974525
 21
13.76633054814019
 31
0.0
  0
LINE
  5
1DA
330
1F
100
AcDbEntity
  8
0
100
AcDbLine
 10
61.24392184945489
 20
11.78325226352685
 30
0.0
 11
61.01067066072131
 21
11.50402879001153
 31
0.0
  0
LINE
  5
1DB
330
1F
100
AcDbEntity
  8
0
100
AcDbLine
 10
-62.00108070413608
 20
15.05904561091549
 30
0.0
 11
-61.8851970806316
 21
15.42993424207441
 31
0.0
  0
LINE
  5
1DC
330
1F
100
AcDbEntity
  8
0
100
AcDbLine
 10
-66.55334546779751
 20
-18.53736272661234
 30
0.0
 11
-66.16981801367105
 21
-18.69622501951173
 31
0.0
  0
LINE
  5
1DD
330
1F
100
AcDbEntity
  8
0
100
AcDbLine
 10
62.10434761974525
 20
13.76633054814019
 30
0.0
 11
62.0303958732614
 21
13.41009605144744
 31
0.0
  0
LINE
  5
1DE
330
1F
100
AcDbEntity
  8
0
100
AcDbLine
 10
62.16380775514733
 20
14.49094434956427
 30
0.0
 11
62.16380775514742
 21
14.30540998919084
 31
0.0
  0
LINE
  5
1DF
330
1F
100
AcDbEntity
  8
0
100
AcDbLine
 10
-59.93109986158075
 20
17.76721769404216
 30
0.0
 11
-59.58660999436037
 21
17.94697891341598
 31
0.0
  0
LINE
  5
1E0
330
1F
100
AcDbEntity
  8
0
100
AcDbLine
 10
-68.06867402049157
 20
7.715975795638577
 30
0.0
 11
-68.04419793308637
 21
7.724005652058382
 31
0.0
  0
LINE
  5
1E1
330
1F
100
AcDbEntity
  8
0
100
AcDbLine
 10
-61.6381686561536
 20
12.00884186439683
 30
0.0
 11
-61.79652295796956
 21
12.33640222163866
 31
0.0
  0
LINE
  5
1E2
330
1F
100
AcDbEntity
  8
0
100
AcDbLine
 10
-58.8650021234978
 20
9.81097884411767
 30
0.0
 11
-59.21239346801057
 21
9.919104245372987
 31
0.0
  0
LINE
  5
1E3
330
1F
100
AcDbEntity
  8
0
100
AcDbLine
 10
62.0303958732614
 20
13.41009605144744
 30
0.0
 11
61.92755799335617
 21
13.06110286151146
 31
0.0
  0
LINE
  5
1E4
330
1F
100
AcDbEntity
  8
0
100
AcDbLine
 10
-59.58660999436037
 20
17.94697891341598
 30
0.0
 11
-59.22773712931956
 21
18.09596760029074
 31
0.0
  0
LINE
  5
1E5
330
1F
100
AcDbEntity
  8
0
100
AcDbLine
 10
-57.70446856217362
 20
18.36512309980263
 30
0.0
 11
-25.86249837816139
 21
18.3651230998026
 31
0.0
  0
LINE
  5
1E6
330
1F
100
AcDbEntity
  8
0
100
AcDbLine
 10
64.63386357993443
 20
-17.89936242383436
 30
0.0
 11
64.96320607115449
 21
-18.15207583722509
 31
0.0
  0
LINE
  5
1E7
330
1F
100
AcDbEntity
  8
0
100
AcDbLine
 10
-64.44534218394939
 20
-10.43787341738945
 30
0.0
 11
-64.39034218716559
 21
-10.28669809937741
 31
0.0
  0
LINE
  5
1E8
330
1F
100
AcDbEntity
  8
0
100
AcDbLine
 10
-64.96313924985867
 20
-18.5373627266123
 30
0.0
 11
-64.63379675863857
 21
-18.28464931322173
 31
0.0
  0
LINE
  5
1E9
330
1F
100
AcDbEntity
  8
0
100
AcDbLine
 10
-65.75824235882807
 20
-18.75040998919098
 30
0.0
 11
-65.3466667039851
 21
-18.69622501951173
 31
0.0
  0
LINE
  5
1EA
330
1F
100
AcDbEntity
  8
0
100
AcDbLine
 10
-58.09266812650017
 20
18.34813914094126
 30
0.0
 11
-57.70446856217362
 21
18.36512309980263
 31
0.0
  0
LINE
  5
1EB
330
1F
100
AcDbEntity
  8
0
100
AcDbLine
 10
64.96320607115449
 20
-18.15207583722509
 30
0.0
 11
65.34673352528118
 21
-18.31093813012443
 31
0.0
  0
LINE
  5
1EC
330
1F
100
AcDbEntity
  8
0
100
AcDbLine
 10
-58.4779011372022
 20
18.29731705282037
 30
0.0
 11
-58.09266812650017
 21
18.34813914094126
 31
0.0
  0
LINE
  5
1ED
330
1F
100
AcDbEntity
  8
0
100
AcDbLine
 10
-58.85722371054273
 20
18.21304520900715
 30
0.0
 11
-58.4779011372022
 21
18.29731705282037
 31
0.0
  0
LINE
  5
1EE
330
1F
100
AcDbEntity
  8
0
100
AcDbLine
 10
61.79652295796989
 20
12.72168911102714
 30
0.0
 11
61.63816865615397
 21
12.39412875378474
 31
0.0
  0
LINE
  5
1EF
330
1F
100
AcDbEntity
  8
0
100
AcDbLine
 10
59.54977831271256
 20
10.44056498290229
 30
0.0
 11
59.2123934680108
 21
10.30439113476128
 31
0.0
  0
LINE
  5
1F0
330
1F
100
AcDbEntity
  8
0
100
AcDbLine
 10
61.01067066072131
 20
11.50402879001153
 30
0.0
 11
60.75536514196017
 21
11.24481660934891
 31
0.0
  0
LINE
  5
1F1
330
1F
100
AcDbEntity
  8
0
100
AcDbLine
 10
-61.55871433734331
 20
16.13435226381954
 30
0.0
 11
-61.35061014196028
 21
16.46249861426984
 31
0.0
  0
LINE
  5
1F2
330
1F
100
AcDbEntity
  8
0
100
AcDbLine
 10
65.34673352528118
 20
-18.31093813012443
 30
0.0
 11
65.75830918012393
 21
-18.3651230998038
 31
0.0
  0
LINE
  5
1F3
330
1F
100
AcDbEntity
  8
0
100
AcDbLine
 10
61.45355600652011
 20
12.08061632997414
 30
0.0
 11
61.24392184945489
 21
11.78325226352685
 31
0.0
  0
LINE
  5
1F4
330
1F
100
AcDbEntity
  8
0
100
AcDbLine
 10
-25.86249837816139
 20
18.3651230998026
 30
0.0
 11
31.39514422268657
 21
18.750409989191
 31
0.0
  0
LINE
  5
1F5
330
1F
100
AcDbEntity
  8
0
100
AcDbLine
 10
-62.10434761974497
 20
13.38104365875213
 30
0.0
 11
-62.14891778188919
 21
13.74213281527548
 31
0.0
  0
LINE
  5
1F6
330
1F
100
AcDbEntity
  8
0
100
AcDbLine
 10
-67.34844857676704
 20
-17.16020357247644
 30
0.0
 11
-67.29426361386078
 21
-17.57177927876648
 31
0.0
  0
LINE
  5
1F7
330
1F
100
AcDbEntity
  8
0
100
AcDbLine
 10
-63.37842451912542
 20
-9.306800923654267
 30
0.0
 11
-63.22555942550526
 21
-9.256688704694337
 31
0.0
  0
LINE
  5
1F8
330
1F
100
AcDbEntity
  8
0
100
AcDbLine
 10
-60.85261543147508
 20
17.05814697026616
 30
0.0
 11
-60.56653050542834
 21
17.32109713456429
 31
0.0
  0
LINE
  5
1F9
330
1F
100
AcDbEntity
  8
0
100
AcDbLine
 10
64.2222879250914
 20
-17.1864923893792
 30
0.0
 11
64.38115019813299
 21
-17.57001989144647
 31
0.0
  0
LINE
  5
1FA
330
1F
100
AcDbEntity
  8
0
100
AcDbLine
 10
67.13546816211513
 20
-17.5700198914466
 30
0.0
 11
67.29433043515664
 21
-17.18649238937913
 31
0.0
  0
LINE
  5
1FB
330
1F
100
AcDbEntity
  8
0
100
AcDbLine
 10
64.38115019813299
 20
-17.57001989144647
 30
0.0
 11
64.63386357993443
 21
-17.89936242383436
 31
0.0
  0
LINE
  5
1FC
330
1F
100
AcDbEntity
  8
0
100
AcDbLine
 10
-60.56653050542834
 20
17.32109713456429
 30
0.0
 11
-60.25857419926794
 21
17.55805764617605
 31
0.0
  0
LINE
  5
1FD
330
1F
100
AcDbEntity
  8
0
100
AcDbLine
 10
58.86500212349807
 20
10.19626573350603
 30
0.0
 11
58.50993168006399
 21
10.11691318162653
 31
0.0
  0
LINE
  5
1FE
330
1F
100
AcDbEntity
  8
0
100
AcDbLine
 10
-64.52366963017246
 20
-11.07325148010886
 30
0.0
 11
-64.52577774551936
 21
-10.91239585220894
 31
0.0
  0
LINE
  5
1FF
330
1F
100
AcDbEntity
  8
0
100
AcDbLine
 10
62.16380775514742
 20
14.30540998919084
 30
0.0
 11
62.14891778188952
 21
14.12741970466375
 31
0.0
  0
LINE
  5
200
330
1F
100
AcDbEntity
  8
0
100
AcDbLine
 10
61.63816865615397
 20
12.39412875378474
 30
0.0
 11
61.45355600652011
 21
12.08061632997414
 31
0.0
  0
LINE
  5
201
330
1F
100
AcDbEntity
  8
0
100
AcDbLine
 10
-61.11464276610771
 20
16.77121657275264
 30
0.0
 11
-60.85261543147508
 21
17.05814697026616
 31
0.0
  0
LINE
  5
202
330
1F
100
AcDbEntity
  8
0
100
AcDbLine
 10
-59.22773712931956
 20
18.09596760029074
 30
0.0
 11
-58.85722371054273
 21
18.21304520900715
 31
0.0
  0
LINE
  5
203
330
1F
100
AcDbEntity
  8
0
100
AcDbLine
 10
-63.52613452049295
 20
-9.370524759225713
 30
0.0
 11
-63.37842451912542
 21
-9.306800923654267
 31
0.0
  0
LINE
  5
204
330
1F
100
AcDbEntity
  8
0
100
AcDbLine
 10
67.29433043515664
 20
-17.18649238937913
 30
0.0
 11
67.34851539806299
 21
-16.77491668308916
 31
0.0
  0
LINE
  5
205
330
1F
100
AcDbEntity
  8
0
100
AcDbLine
 10
-63.80130459758144
 20
-9.536613492648593
 30
0.0
 11
-63.66748024253265
 21
-9.447338553852399
 31
0.0
  0
LINE
  5
206
330
1F
100
AcDbEntity
  8
0
100
AcDbLine
 10
60.57599887868009
 20
17.71047753885471
 30
0.0
 11
60.86189756026045
 21
17.44849963156502
 31
0.0
  0
LINE
  5
207
330
1F
100
AcDbEntity
  8
0
100
AcDbLine
 10
-65.3466667039851
 20
-18.69622501951173
 30
0.0
 11
-64.96313924985867
 21
-18.5373627266123
 31
0.0
  0
LINE
  5
208
330
1F
100
AcDbEntity
  8
0
100
AcDbLine
 10
-64.39034218716559
 20
-10.28669809937741
 30
0.0
 11
-64.32190331399674
 21
-10.14111274074916
 31
0.0
  0
LINE
  5
209
330
1F
100
AcDbEntity
  8
0
100
AcDbLine
 10
64.16810296218515
 20
-16.77491668308907
 30
0.0
 11
64.2222879250914
 21
-17.1864923893792
 31
0.0
  0
LINE
  5
20A
330
1F
100
AcDbEntity
  8
0
100
AcDbLine
 10
66.55341228909354
 20
-18.15207583722509
 30
0.0
 11
66.88275478031362
 21
-17.89936242383459
 31
0.0
  0
LINE
  5
20B
330
1F
100
AcDbEntity
  8
0
100
AcDbLine
 10
-64.14705538939907
 20
-9.87142356179412
 30
0.0
 11
-64.04207768214893
 21
-9.749527477345191
 31
0.0
  0
LINE
  5
20C
330
1F
100
AcDbEntity
  8
0
100
AcDbLine
 10
61.12387543480276
 20
17.16260091424731
 30
0.0
 11
61.35993869249566
 21
16.85495724877121
 31
0.0
  0
LINE
  5
20D
330
1F
100
AcDbEntity
  8
0
100
AcDbLine
 10
60.47971575113415
 20
11.00735235277387
 30
0.0
 11
60.18556924305572
 21
10.79322694801342
 31
0.0
  0
LINE
  5
20E
330
1F
100
AcDbEntity
  8
0
100
AcDbLine
 10
-67.29426361386078
 20
-17.57177927876648
 30
0.0
 11
-67.13540134081919
 21
-17.95530678083377
 31
0.0
  0
LINE
  5
20F
330
1F
100
AcDbEntity
  8
0
100
AcDbLine
 10
-67.13540134081919
 20
-17.95530678083377
 30
0.0
 11
-66.88268795901762
 21
-18.28464931322173
 31
0.0
  0
LINE
  5
210
330
1F
100
AcDbEntity
  8
0
100
AcDbLine
 10
67.74473914587718
 20
8.155183316910806
 30
0.0
 11
67.78200534336372
 21
8.154488690746728
 31
0.0
  0
LINE
  5
211
330
1F
100
AcDbEntity
  8
0
100
AcDbLine
 10
-62.02923166833384
 20
-9.191547697290154
 30
0.0
 11
-62.65940146935371
 21
-9.198825249927499
 31
0.0
  0
LINE
  5
212
330
1F
100
AcDbEntity
  8
0
100
AcDbLine
 10
-66.88268795901762
 20
-18.28464931322173
 30
0.0
 11
-66.55334546779751
 21
-18.53736272661234
 31
0.0
  0
LINE
  5
213
330
1F
100
AcDbEntity
  8
0
100
AcDbLine
 10
61.5682907494088
 20
16.52790998919087
 30
0.0
 11
61.747345920583
 21
16.18394816262828
 31
0.0
  0
LINE
  5
214
330
1F
100
AcDbEntity
  8
0
100
AcDbLine
 10
61.89574148804905
 20
15.82568952627341
 30
0.0
 11
62.01234807193481
 21
15.45586064467156
 31
0.0
  0
LINE
  5
215
330
1F
100
AcDbEntity
  8
0
100
AcDbLine
 10
-64.16803614088914
 20
-17.16020357247653
 30
0.0
 11
-64.52366963017246
 21
-11.07325148010886
 31
0.0
  0
LINE
  5
216
330
1F
100
AcDbEntity
  8
0
100
AcDbLine
 10
67.9947735411932
 20
8.12342026390735
 30
0.0
 11
68.01955603207557
 21
8.116679890060675
 31
0.0
  0
LINE
  5
217
330
1F
100
AcDbEntity
  8
0
100
AcDbLine
 10
67.94488816046466
 20
8.13494877963345
 30
0.0
 11
67.96987579622397
 21
8.129510508360807
 31
0.0
  0
LINE
  5
218
330
1F
100
AcDbEntity
  8
0
100
AcDbLine
 10
-66.16981801367105
 20
-18.69622501951173
 30
0.0
 11
-65.75824235882807
 21
-18.75040998919098
 31
0.0
  0
LINE
  5
219
330
1F
100
AcDbEntity
  8
0
100
AcDbLine
 10
61.35993869249566
 20
16.85495724877121
 30
0.0
 11
61.5682907494088
 21
16.52790998919087
 31
0.0
  0
LINE
  5
21A
330
1F
100
AcDbEntity
  8
0
100
AcDbLine
 10
-63.66748024253265
 20
-9.447338553852399
 30
0.0
 11
-63.52613452049295
 21
-9.370524759225713
 31
0.0
  0
LINE
  5
21B
330
1F
100
AcDbEntity
  8
0
100
AcDbLine
 10
66.88275478031362
 20
-17.89936242383459
 30
0.0
 11
67.13546816211513
 21
-17.5700198914466
 31
0.0
  0
LINE
  5
21C
330
1F
100
AcDbEntity
  8
0
100
AcDbLine
 10
-63.22555942550526
 20
-9.256688704694337
 30
0.0
 11
-62.65940146935371
 21
-9.198825249927499
 31
0.0
  0
LINE
  5
21D
330
1F
100
AcDbEntity
  8
0
100
AcDbLine
 10
-64.32190331399674
 20
-10.14111274074916
 30
0.0
 11
-64.24058582035046
 21
-10.00230913577983
 31
0.0
  0
LINE
  5
21E
330
1F
100
AcDbEntity
  8
0
100
AcDbLine
 10
62.01234807193481
 20
15.45586064467156
 30
0.0
 11
62.09627822572786
 21
15.07727613892012
 31
0.0
  0
LINE
  5
21F
330
1F
100
AcDbEntity
  8
0
100
AcDbLine
 10
60.86189756026045
 20
17.44849963156502
 30
0.0
 11
61.12387543480276
 21
17.16260091424731
 31
0.0
  0
LINE
  5
220
330
1F
100
AcDbEntity
  8
0
100
AcDbLine
 10
-64.48645306208512
 20
-10.59340113985362
 30
0.0
 11
-64.44534218394939
 21
-10.43787341738945
 31
0.0
  0
LINE
  5
221
330
1F
100
AcDbEntity
  8
0
100
AcDbLine
 10
-64.63379675863857
 20
-18.28464931322173
 30
0.0
 11
-64.38108337683704
 21
-17.95530678083377
 31
0.0
  0
LINE
  5
222
330
1F
100
AcDbEntity
  8
0
100
AcDbLine
 10
67.89474430675058
 20
8.143868527726465
 30
0.0
 11
67.91983594105871
 21
8.139734536833803
 31
0.0
  0
LINE
  5
223
330
1F
100
AcDbEntity
  8
0
100
AcDbLine
 10
59.87489629677425
 20
10.60387496062367
 30
0.0
 11
59.54977831271256
 21
10.44056498290229
 31
0.0
  0
LINE
  5
224
330
1F
100
AcDbEntity
  8
0
100
AcDbLine
 10
-64.38108337683704
 20
-17.95530678083377
 30
0.0
 11
-64.2222211037954
 21
-17.57177927876648
 31
0.0
  0
LINE
  5
225
330
1F
100
AcDbEntity
  8
0
100
AcDbLine
 10
-67.34844857676704
 20
-17.16020357247644
 30
0.0
 11
-68.7445169298628
 21
6.748821970002886
 31
0.0
  0
LINE
  5
226
330
1F
100
AcDbEntity
  8
0
100
AcDbLine
 10
58.86925882244694
 20
18.5989502870458
 30
0.0
 11
59.23908765782008
 21
18.48234368858404
 31
0.0
  0
LINE
  5
227
330
1F
100
AcDbEntity
  8
0
100
AcDbLine
 10
68.04419793308668
 20
8.109292541446607
 30
0.0
 11
68.06867402049167
 21
8.101262685026667
 31
0.0
  0
LINE
  5
228
330
1F
100
AcDbEntity
  8
0
100
AcDbLine
 10
-63.92651206956743
 20
-9.637618751017444
 30
0.0
 11
-63.80130459758144
 21
-9.536613492648593
 31
0.0
  0
LINE
  5
229
330
1F
100
AcDbEntity
  8
0
100
AcDbLine
 10
68.11702892839789
 20
8.083299841481143
 30
0.0
 11
68.14085862292465
 21
8.073382271754301
 31
0.0
  0
LINE
  5
22A
330
1F
100
AcDbEntity
  8
0
100
AcDbLine
 10
68.09295926742385
 20
8.092596095058841
 30
0.0
 11
68.11702892839789
 21
8.083299841481143
 31
0.0
  0
LINE
  5
22B
330
1F
100
AcDbEntity
  8
0
100
AcDbLine
 10
-64.04207768214893
 20
-9.749527477345191
 30
0.0
 11
-63.92651206956743
 21
-9.637618751017444
 31
0.0
  0
LINE
  5
22C
330
1F
100
AcDbEntity
  8
0
100
AcDbLine
 10
-64.52577774551936
 20
-10.91239585220894
 30
0.0
 11
-64.51333827873864
 21
-10.75200808208298
 31
0.0
  0
LINE
  5
22D
330
1F
100
AcDbEntity
  8
0
100
AcDbLine
 10
67.85708745163167
 20
8.148852202927804
 30
0.0
 11
67.89474430675058
 21
8.143868527726465
 31
0.0
  0
LINE
  5
22E
330
1F
100
AcDbEntity
  8
0
100
AcDbLine
 10
61.747345920583
 20
16.18394816262828
 30
0.0
 11
61.89574148804905
 21
15.82568952627341
 31
0.0
  0
LINE
  5
22F
330
1F
100
AcDbEntity
  8
0
100
AcDbLine
 10
58.50993168006399
 20
10.11691318162653
 30
0.0
 11
58.14956098588303
 21
10.06686511355389
 31
0.0
  0
LINE
  5
230
330
1F
100
AcDbEntity
  8
0
100
AcDbLine
 10
62.1468931902794
 20
14.69281726570416
 30
0.0
 11
62.16380775514733
 21
14.49094434956427
 31
0.0
  0
LINE
  5
231
330
1F
100
AcDbEntity
  8
0
100
AcDbLine
 10
-64.51333827873864
 20
-10.75200808208298
 30
0.0
 11
-64.48645306208512
 21
-10.59340113985362
 31
0.0
  0
LINE
  5
232
330
1F
100
AcDbEntity
  8
0
100
AcDbLine
 10
38.51548761452381
 20
8.155183316911218
 30
0.0
 11
65.7447393958769
 21
8.15518331691076
 31
0.0
  0
LINE
  5
233
330
1F
100
AcDbEntity
  8
0
100
AcDbLine
 10
67.78200534336372
 20
8.154488690746728
 30
0.0
 11
67.8194808579391
 21
8.152386242638972
 31
0.0
  0
LINE
  5
234
330
1F
100
AcDbEntity
  8
0
100
AcDbLine
 10
57.7188083107724
 20
18.75040998919086
 30
0.0
 11
58.10621553885983
 21
18.73349542220869
 31
0.0
  0
LINE
  5
235
330
1F
100
AcDbEntity
  8
0
100
AcDbLine
 10
67.91983594105871
 20
8.139734536833803
 30
0.0
 11
67.94488816046466
 21
8.13494877963345
 31
0.0
  0
LINE
  5
236
330
1F
100
AcDbEntity
  8
0
100
AcDbLine
 10
58.14956098588303
 20
10.06686511355389
 30
0.0
 11
38.51548761452381
 21
8.155183316911218
 31
0.0
  0
LINE
  5
237
330
1F
100
AcDbEntity
  8
0
100
AcDbLine
 10
59.59734624939266
 20
18.33394810256882
 30
0.0
 11
59.94130803295982
 21
18.15489290901263
 31
0.0
  0
LINE
  5
238
330
1F
100
AcDbEntity
  8
0
100
AcDbLine
 10
-64.24058582035046
 20
-10.00230913577983
 30
0.0
 11
-64.14705538939907
 21
-9.87142356179412
 31
0.0
  0
LINE
  5
239
330
1F
100
AcDbEntity
  8
0
100
AcDbLine
 10
58.10621553885983
 20
18.73349542220869
 30
0.0
 11
58.49067436401869
 21
18.68288045133019
 31
0.0
  0
LINE
  5
23A
330
1F
100
AcDbEntity
  8
0
100
AcDbLine
 10
59.23908765782008
 20
18.48234368858404
 30
0.0
 11
59.59734624939266
 21
18.33394810256882
 31
0.0
  0
LINE
  5
23B
330
1F
100
AcDbEntity
  8
0
100
AcDbLine
 10
68.44609556277379
 20
7.867993988479649
 30
0.0
 11
68.47217212551365
 21
7.841361958262405
 31
0.0
  0
LINE
  5
23C
330
1F
100
AcDbEntity
  8
0
100
AcDbLine
 10
68.29901291704097
 20
7.987517690702032
 30
0.0
 11
68.32011487687275
 21
7.973072481416838
 31
0.0
  0
LINE
  5
23D
330
1F
100
AcDbEntity
  8
0
100
AcDbLine
 10
65.7447393958769
 20
8.15518331691076
 30
0.0
 11
67.74473914587718
 21
8.155183316910806
 31
0.0
  0
LINE
  5
23E
330
1F
100
AcDbEntity
  8
0
100
AcDbLine
 10
67.8194808579391
 20
8.152386242638972
 30
0.0
 11
67.85708745163167
 21
8.148852202927804
 31
0.0
  0
LINE
  5
23F
330
1F
100
AcDbEntity
  8
0
100
AcDbLine
 10
62.09627822572786
 20
15.07727613892012
 30
0.0
 11
62.1468931902794
 21
14.69281726570416
 31
0.0
  0
LINE
  5
240
330
1F
100
AcDbEntity
  8
0
100
AcDbLine
 10
58.49067436401869
 20
18.68288045133019
 30
0.0
 11
58.86925882244694
 21
18.5989502870458
 31
0.0
  0
LINE
  5
241
330
1F
100
AcDbEntity
  8
0
100
AcDbLine
 10
60.26835525165922
 20
17.94654082605523
 30
0.0
 11
60.57599887868009
 21
17.71047753885471
 31
0.0
  0
LINE
  5
242
330
1F
100
AcDbEntity
  8
0
100
AcDbLine
 10
68.01955603207557
 20
8.116679890060675
 30
0.0
 11
68.04419793308668
 21
8.109292541446607
 31
0.0
  0
LINE
  5
243
330
1F
100
AcDbEntity
  8
0
100
AcDbLine
 10
68.4188512750072
 20
7.89381226554003
 30
0.0
 11
68.44609556277379
 21
7.867993988479649
 31
0.0
  0
LINE
  5
244
330
1F
100
AcDbEntity
  8
0
100
AcDbLine
 10
68.32011487687275
 20
7.973072481416838
 30
0.0
 11
68.34078649236773
 21
7.958132550625488
 31
0.0
  0
LINE
  5
245
330
1F
100
AcDbEntity
  8
0
100
AcDbLine
 10
68.16442441763614
 20
8.06285298624785
 30
0.0
 11
68.18770290634075
 21
8.051722807318956
 31
0.0
  0
LINE
  5
246
330
1F
100
AcDbEntity
  8
0
100
AcDbLine
 10
63.80131571961928
 20
-9.151323182352327
 30
0.0
 11
63.66749178116135
 21
-9.06204910504669
 31
0.0
  0
LINE
  5
247
330
1F
100
AcDbEntity
  8
0
100
AcDbLine
 10
63.52614658753594
 20
-8.985236065107058
 30
0.0
 11
63.37843721021761
 21
-8.921512864794765
 31
0.0
  0
LINE
  5
248
330
1F
100
AcDbEntity
  8
0
100
AcDbLine
 10
64.5236862757588
 20
-10.68794975727591
 30
0.0
 11
64.16810296218515
 21
-16.77491668308907
 31
0.0
  0
LINE
  5
249
330
1F
100
AcDbEntity
  8
0
100
AcDbLine
 10
68.21067128744913
 20
8.040003742295
 30
0.0
 11
68.23330743823149
 21
8.027708940621165
 31
0.0
  0
LINE
  5
24A
330
1F
100
AcDbEntity
  8
0
100
AcDbLine
 10
68.23330743823149
 20
8.027708940621165
 30
0.0
 11
68.25558998540176
 21
8.014852645498772
 31
0.0
  0
LINE
  5
24B
330
1F
100
AcDbEntity
  8
0
100
AcDbLine
 10
63.92652290147945
 20
-9.252327486972328
 30
0.0
 11
63.80131571961928
 21
-9.151323182352327
 31
0.0
  0
LINE
  5
24C
330
1F
100
AcDbEntity
  8
0
100
AcDbLine
 10
63.37843721021761
 20
-8.921512864794765
 30
0.0
 11
62.97557281877595
 21
-8.8714011511176
 31
0.0
  0
LINE
  5
24D
330
1F
100
AcDbEntity
  8
0
100
AcDbLine
 10
68.2774983715557
 20
8.001450140375015
 30
0.0
 11
68.29901291704097
 21
7.987517690702032
 31
0.0
  0
LINE
  5
24E
330
1F
100
AcDbEntity
  8
0
100
AcDbLine
 10
68.06867402049167
 20
8.101262685026667
 30
0.0
 11
68.09295926742385
 21
8.092596095058841
 31
0.0
  0
LINE
  5
24F
330
1F
100
AcDbEntity
  8
0
100
AcDbLine
 10
64.52579307337712
 20
-10.52709493682281
 30
0.0
 11
64.51335244170663
 21
-10.36670808416557
 31
0.0
  0
LINE
  5
250
330
1F
100
AcDbEntity
  8
0
100
AcDbLine
 10
68.34078649236773
 20
7.958132550625488
 30
0.0
 11
68.36101103721946
 21
7.942716720007589
 31
0.0
  0
LINE
  5
251
330
1F
100
AcDbEntity
  8
0
100
AcDbLine
 10
68.36101103721946
 20
7.942716720007589
 30
0.0
 11
68.39047565660391
 21
7.918743566315665
 31
0.0
  0
LINE
  5
252
330
1F
100
AcDbEntity
  8
0
100
AcDbLine
 10
68.14085862292465
 20
8.073382271754301
 30
0.0
 11
68.16442441763614
 21
8.06285298624785
 31
0.0
  0
LINE
  5
253
330
1F
100
AcDbEntity
  8
0
100
AcDbLine
 10
67.96987579622397
 20
8.129510508360807
 30
0.0
 11
67.9947735411932
 21
8.12342026390735
 31
0.0
  0
LINE
  5
254
330
1F
100
AcDbEntity
  8
0
100
AcDbLine
 10
62.97557281877595
 20
-8.8714011511176
 30
0.0
 11
62.02923166833424
 21
-8.806260807901545
 31
0.0
  0
LINE
  5
255
330
1F
100
AcDbEntity
  8
0
100
AcDbLine
 10
64.5236862757588
 20
-10.68794975727591
 30
0.0
 11
64.52579307337712
 21
-10.52709493682281
 31
0.0
  0
LINE
  5
256
330
1F
100
AcDbEntity
  8
0
100
AcDbLine
 10
64.04208836328353
 20
-9.364235183577854
 30
0.0
 11
63.92652290147945
 21
-9.252327486972328
 31
0.0
  0
LINE
  5
257
330
1F
100
AcDbEntity
  8
0
100
AcDbLine
 10
64.39035384472065
 20
-9.901401301672905
 30
0.0
 11
64.32191447748488
 21
-9.75581708651965
 31
0.0
  0
LINE
  5
258
330
1F
100
AcDbEntity
  8
0
100
AcDbLine
 10
64.44535450708887
 20
-10.05257550001094
 30
0.0
 11
64.39035384472065
 21
-9.901401301672905
 31
0.0
  0
LINE
  5
259
330
1F
100
AcDbEntity
  8
0
100
AcDbLine
 10
64.32191447748488
 20
-9.75581708651965
 30
0.0
 11
64.2405966595901
 21
-9.617014627247661
 31
0.0
  0
LINE
  5
25A
330
1F
100
AcDbEntity
  8
0
100
AcDbLine
 10
63.66749178116135
 20
-9.06204910504669
 30
0.0
 11
63.52614658753594
 21
-8.985236065107058
 31
0.0
  0
LINE
  5
25B
330
1F
100
AcDbEntity
  8
0
100
AcDbLine
 10
59.94130803295982
 20
18.15489290901263
 30
0.0
 11
60.26835525165922
 21
17.94654082605523
 31
0.0
  0
LINE
  5
25C
330
1F
100
AcDbEntity
  8
0
100
AcDbLine
 10
68.39047565660391
 20
7.918743566315665
 30
0.0
 11
68.4188512750072
 21
7.89381226554003
 31
0.0
  0
LINE
  5
25D
330
1F
100
AcDbEntity
  8
0
100
AcDbLine
 10
64.2405966595901
 20
-9.617014627247661
 30
0.0
 11
64.14706607003798
 21
-9.486130180152205
 31
0.0
  0
LINE
  5
25E
330
1F
100
AcDbEntity
  8
0
100
AcDbLine
 10
64.4864662214939
 20
-10.20810214845578
 30
0.0
 11
64.44535450708887
 21
-10.05257550001094
 31
0.0
  0
LINE
  5
25F
330
1F
100
AcDbEntity
  8
0
100
AcDbLine
 10
64.51335244170663
 20
-10.36670808416557
 30
0.0
 11
64.4864662214939
 21
-10.20810214845578
 31
0.0
  0
LINE
  5
260
330
1F
100
AcDbEntity
  8
0
100
AcDbLine
 10
68.25558998540176
 20
8.014852645498772
 30
0.0
 11
68.2774983715557
 21
8.001450140375015
 31
0.0
  0
LINE
  5
261
330
1F
100
AcDbEntity
  8
0
100
AcDbLine
 10
64.14706607003798
 20
-9.486130180152205
 30
0.0
 11
64.04208836328353
 21
-9.364235183577854
 31
0.0
  0
LINE
  5
262
330
1F
100
AcDbEntity
  8
0
100
AcDbLine
 10
43.76750613248171
 20
18.68226164176908
 30
0.0
 11
43.51977735795654
 21
18.59816905421352
 31
0.0
  0
LINE
  5
263
330
1F
100
AcDbEntity
  8
0
100
AcDbLine
 10
32.61266708070416
 20
18.33711666977338
 30
0.0
 11
32.80935778505976
 21
18.16462355156401
 31
0.0
  0
LINE
  5
264
330
1F
100
AcDbEntity
  8
0
100
AcDbLine
 10
31.39514422268657
 20
18.750409989191
 30
0.0
 11
31.91278231289164
 21
18.68226164176908
 31
0.0
  0
LINE
  5
265
330
1F
100
AcDbEntity
  8
0
100
AcDbLine
 10
32.3951442226867
 20
18.48246079675987
 30
0.0
 11
32.61266708070416
 21
18.33711666977338
 31
0.0
  0
LINE
  5
266
330
1F
100
AcDbEntity
  8
0
100
AcDbLine
 10
33.32699587526483
 20
17.26804807939598
 30
0.0
 11
33.39514422268665
 21
16.75040998919101
 31
0.0
  0
LINE
  5
267
330
1F
100
AcDbEntity
  8
0
100
AcDbLine
 10
42.28514422268669
 20
16.75040998919091
 30
0.0
 11
33.39514422268665
 21
16.75040998919101
 31
0.0
  0
LINE
  5
268
330
1F
100
AcDbEntity
  8
0
100
AcDbLine
 10
32.16051108741681
 20
18.59816905421361
 30
0.0
 11
32.3951442226867
 21
18.48246079675987
 31
0.0
  0
LINE
  5
269
330
1F
100
AcDbEntity
  8
0
100
AcDbLine
 10
33.24290328770917
 20
17.5157768539212
 30
0.0
 11
33.32699587526483
 21
17.26804807939598
 31
0.0
  0
LINE
  5
26A
330
1F
100
AcDbEntity
  8
0
100
AcDbLine
 10
44.28514422268669
 20
18.75040998919091
 30
0.0
 11
43.76750613248171
 21
18.68226164176908
 31
0.0
  0
LINE
  5
26B
330
1F
100
AcDbEntity
  8
0
100
AcDbLine
 10
43.06762136466919
 20
18.33711666977338
 30
0.0
 11
42.87093066031359
 21
18.1646235515641
 31
0.0
  0
LINE
  5
26C
330
1F
100
AcDbEntity
  8
0
100
AcDbLine
 10
43.28514422268673
 20
18.48246079676005
 30
0.0
 11
43.06762136466919
 21
18.33711666977338
 31
0.0
  0
LINE
  5
26D
330
1F
100
AcDbEntity
  8
0
100
AcDbLine
 10
42.43738515766417
 20
17.51577685392115
 30
0.0
 11
42.35329257010861
 21
17.26804807939616
 31
0.0
  0
LINE
  5
26E
330
1F
100
AcDbEntity
  8
0
100
AcDbLine
 10
42.87093066031359
 20
18.1646235515641
 30
0.0
 11
42.69843754210423
 21
17.96793284720832
 31
0.0
  0
LINE
  5
26F
330
1F
100
AcDbEntity
  8
0
100
AcDbLine
 10
32.80935778505976
 20
18.16462355156401
 30
0.0
 11
32.98185090326921
 21
17.96793284720832
 31
0.0
  0
LINE
  5
270
330
1F
100
AcDbEntity
  8
0
100
AcDbLine
 10
43.51977735795654
 20
18.59816905421352
 30
0.0
 11
43.28514422268673
 21
18.48246079676005
 31
0.0
  0
LINE
  5
271
330
1F
100
AcDbEntity
  8
0
100
AcDbLine
 10
32.98185090326921
 20
17.96793284720832
 30
0.0
 11
33.12719503025553
 21
17.75040998919091
 31
0.0
  0
LINE
  5
272
330
1F
100
AcDbEntity
  8
0
100
AcDbLine
 10
42.69843754210423
 20
17.96793284720832
 30
0.0
 11
42.55309341511782
 21
17.75040998919118
 31
0.0
  0
LINE
  5
273
330
1F
100
AcDbEntity
  8
0
100
AcDbLine
 10
31.91278231289164
 20
18.68226164176908
 30
0.0
 11
32.16051108741681
 21
18.59816905421361
 31
0.0
  0
LINE
  5
274
330
1F
100
AcDbEntity
  8
0
100
AcDbLine
 10
33.12719503025553
 20
17.75040998919091
 30
0.0
 11
33.24290328770917
 21
17.5157768539212
 31
0.0
  0
LINE
  5
275
330
1F
100
AcDbEntity
  8
0
100
AcDbLine
 10
42.55309341511782
 20
17.75040998919118
 30
0.0
 11
42.43738515766417
 21
17.51577685392115
 31
0.0
  0
LINE
  5
276
330
1F
100
AcDbEntity
  8
0
100
AcDbLine
 10
42.35329257010861
 20
17.26804807939616
 30
0.0
 11
42.28514422268669
 21
16.75040998919091
 31
0.0
  0
LINE
  5
277
330
1F
100
AcDbEntity
  8
0
100
AcDbLine
 10
44.28514422268669
 20
18.75040998919091
 30
0.0
 11
57.7188083107724
 21
18.75040998919086
 31
0.0
  0
ENDSEC
  0
SECTION
  2
OBJECTS
  0
DICTIONARY
  5
C
330
0
100
AcDbDictionary
  3
ACAD_GROUP
350
D
  3
ACAD_LAYOUT
350
1A
  3
ACAD_MATERIAL
350
43
  3
ACAD_MLEADERSTYLE
350
29A
  3
ACAD_MLINESTYLE
350
17
  3
ACAD_PLOTSETTINGS
350
19
  3
ACAD_SCALELIST
350
47
  3
ACAD_VISUALSTYLE
350
2A
  3
ACDBHEADERROUNDTRIPXREC
350
278
  3
ACDBVARIABLEDICTIONARY
350
298
  0
DICTIONARY
  5
29F
330
8
100
AcDbDictionary
280
     1
  3
ACAD_XREC_ROUNDTRIP
360
2A0
  0
DICTIONARY
  5
D
102
{ACAD_REACTORS
330
C
102
}
330
C
100
AcDbDictionary
  0
DICTIONARY
  5
1A
102
{ACAD_REACTORS
330
C
102
}
330
C
100
AcDbDictionary
  0
DICTIONARY
  5
43
102
{ACAD_REACTORS
330
C
102
}
330
C
100
AcDbDictionary
  3
BYBLOCK
350
45
  3
BYLAYER
350
44
  3
GLOBAL
350
46
  0
DICTIONARY
  5
29A
102
{ACAD_REACTORS
330
C
102
}
330
C
100
AcDbDictionary
  0
DICTIONARY
  5
17
102
{ACAD_REACTORS
330
C
102
}
330
C
100
AcDbDictionary
  3
STANDARD
350
18
  0
DICTIONARY
  5
19
102
{ACAD_REACTORS
330
C
102
}
330
C
100
AcDbDictionary
  0
DICTIONARY
  5
47
102
{ACAD_REACTORS
330
C
102
}
330
C
100
AcDbDictionary
  3
A0
350
48
  3
A1
350
49
  3
A2
350
4A
  3
A3
350
4B
  3
A4
350
4C
  3
A5
350
4D
  3
A6
350
4E
  3
A7
350
4F
  3
A8
350
50
  3
A9
350
51
  3
B0
350
52
  3
B1
350
53
  3
B2
350
54
  3
B3
350
55
  3
B4
350
56
  3
B5
350
57
  3
B6
350
58
  3
B7
350
59
  3
B8
350
5A
  3
B9
350
5B
  3
C0
350
5C
  3
C1
350
5D
  3
C2
350
5E
  3
C3
350
5F
  3
C4
350
60
  3
C5
350
61
  3
C6
350
62
  3
C7
350
63
  3
C8
350
64
  3
C9
350
65
  3
D0
350
66
  3
D1
350
67
  3
D2
350
68
  0
DICTIONARY
  5
2A
102
{ACAD_REACTORS
330
C
102
}
330
C
100
AcDbDictionary
  3
2DWIREFRAME
350
2F
  3
BASIC
350
32
  3
BRIGHTEN
350
36
  3
COLORCHANGE
350
3A
  3
CONCEPTUAL
350
34
  3
DIM
350
35
  3
EDGECOLOROFF
350
3D
  3
FACEPATTERN
350
39
  3
FLAT
350
2B
  3
FLATWITHEDGES
350
2C
  3
GOURAUD
350
2D
  3
GOURAUDWITHEDGES
350
2E
  3
HIDDEN
350
31
  3
JITTEROFF
350
3B
  3
LINEPATTERN
350
38
  3
OVERHANGOFF
350
3C
  3
REALISTIC
350
33
  3
SHADED
350
42
  3
SHADED_WITH_EDGES
350
41
  3
SHADES_OF_GRAY
350
3E
  3
SKETCHY
350
3F
  3
THICKEN
350
37
  3
WIREFRAME
350
30
  3
X-RAY
350
40
  0
DICTIONARY
  5
278
102
{ACAD_REACTORS
330
C
102
}
330
C
100
AcDbDictionary
  3
CEPSNTYPE
350
281
  3
DIMSTYLEDATA
350
297
  3
FINGERPRINTGUID
350
282
  3
HYPERLINKBASE
350
27B
  3
INSUNITS
350
280
  3
LAYOUTDICT
350
27D
  3
LWETCUNION
350
27F
  3
PLOTSETDICT
350
27E
  3
PSVPSCALE
350
284
  3
PUCSBASE
350
287
  3
PUCSORGBACK
350
28D
  3
PUCSORGBOTTOM
350
289
  3
PUCSORGFRONT
350
28C
  3
PUCSORGLEFT
350
28A
  3
PUCSORGRIGHT
350
28B
  3
PUCSORGTOP
350
288
  3
PUCSORTHOREF
350
285
  3
PUCSORTHOVIEW
350
286
  3
STYLESHEET
350
27C
  3
TSTACKALIGN
350
279
  3
TSTACKSIZE
350
27A
  3
UCSBASE
350
290
  3
UCSORGBACK
350
296
  3
UCSORGBOTTOM
350
292
  3
UCSORGFRONT
350
295
  3
UCSORGLEFT
350
293
  3
UCSORGRIGHT
350
294
  3
UCSORGTOP
350
291
  3
UCSORTHOREF
350
28E
  3
UCSORTHOVIEW
350
28F
  3
VERSIONGUID
350
283
  0
DICTIONARY
  5
298
102
{ACAD_REACTORS
330
C
102
}
330
C
100
AcDbDictionary
  3
CANNOSCALE
350
2A1
  3
DIMASSOC
350
29D
  3
HIDETEXT
350
29E
  3
MSLTSCALE
350
2A2
  0
XRECORD
  5
2A0
102
{ACAD_REACTORS
330
29F
102
}
330
29F
100
AcDbXrecord
102
VTR_0.000_0.000_1.000_1.000_GRIDDISPLAY
 70
     3
102
VTR_0.000_0.000_1.000_1.000_GRIDMAJOR
 70
     5
102
VTR_0.000_0.000_1.000_1.000_DEFAULTLIGHTING
280
     1
102
VTR_0.000_0.000_1.000_1.000_DEFAULTLIGHTINGTYPE
 70
     1
102
VTR_0.000_0.000_1.000_1.000_BRIGHTNESS
141
0.0
102
VTR_0.000_0.000_1.000_1.000_CONTRAST
142
0.0
  0
MATERIAL
  5
45
102
{ACAD_REACTORS
330
43
102
}
102
{ACAD_XDICTIONARY
360
2A5
102
}
330
43
100
AcDbMaterial
  1
BYBLOCK
  0
MATERIAL
  5
44
102
{ACAD_REACTORS
330
43
102
}
102
{ACAD_XDICTIONARY
360
2A3
102
}
330
43
100
AcDbMaterial
  1
BYLAYER
  0
MATERIAL
  5
46
102
{ACAD_REACTORS
330
43
102
}
102
{ACAD_XDICTIONARY
360
2A7
102
}
330
43
100
AcDbMaterial
  1
GLOBAL
  0
MLINESTYLE
  5
18
102
{ACAD_REACTORS
330
17
102
}
330
17
100
AcDbMlineStyle
  2
Standard
 70
     0
  3

 62
   256
 51
90.0
 52
90.0
 71
     2
 49
0.5
 62
   256
  6
BYLAYER
 49
-0.5
 62
   256
  6
BYLAYER
  0
ACAD_PROXY_OBJECT
  5
48
102
{ACAD_REACTORS
330
47
102
}
330
47
100
AcDbProxyObject
 90
      499
 91
      503
 93
       41
310
903313A31580
  0
ACAD_PROXY_OBJECT
  5
49
102
{ACAD_REACTORS
330
47
102
}
330
47
100
AcDbProxyObject
 90
      499
 91
      503
 93
      105
310
903313A324000000000000004000
  0
ACAD_PROXY_OBJECT
  5
4A
102
{ACAD_REACTORS
330
47
102
}
330
47
100
AcDbProxyObject
 90
      499
 91
      503
 93
      105
310
903313A344000000000000104000
  0
ACAD_PROXY_OBJECT
  5
4B
102
{ACAD_REACTORS
330
47
102
}
330
47
100
AcDbProxyObject
 90
      499
 91
      503
 93
      105
310
903313A354000000000000144000
  0
ACAD_PROXY_OBJECT
  5
4C
102
{ACAD_REACTORS
330
47
102
}
330
47
100
AcDbProxyObject
 90
      499
 91
      503
 93
      105
310
903313A384000000000000204000
  0
ACAD_PROXY_OBJECT
  5
4D
102
{ACAD_REACTORS
330
47
102
}
330
47
100
AcDbProxyObject
 90
      499
 91
      503
 93
      113
310
904313A31304000000000000244000
  0
ACAD_PROXY_OBJECT
  5
4E
102
{ACAD_REACTORS
330
47
102
}
330
47
100
AcDbProxyObject
 90
      499
 91
      503
 93
      113
310
904313A31364000000000000304000
  0
ACAD_PROXY_OBJECT
  5
4F
102
{ACAD_REACTORS
330
47
102
}
330
47
100
AcDbProxyObject
 90
      499
 91
      503
 93
      113
310
904313A32304000000000000344000
  0
ACAD_PROXY_OBJECT
  5
50
102
{ACAD_REACTORS
330
47
102
}
330
47
100
AcDbProxyObject
 90
      499
 91
      503
 93
      113
310
904313A333040000000000003E4000
  0
ACAD_PROXY_OBJECT
  5
51
102
{ACAD_REACTORS
330
47
102
}
330
47
100
AcDbProxyObject
 90
      499
 91
      503
 93
      113
310
904313A34304000000000000444000
  0
ACAD_PROXY_OBJECT
  5
52
102
{ACAD_REACTORS
330
47
102
}
330
47
100
AcDbProxyObject
 90
      499
 91
      503
 93
      113
310
904313A35304000000000000494000
  0
ACAD_PROXY_OBJECT
  5
53
102
{ACAD_REACTORS
330
47
102
}
330
47
100
AcDbProxyObject
 90
      499
 91
      503
 93
      121
310
905313A3130304000000000000594000
  0
ACAD_PROXY_OBJECT
  5
54
102
{ACAD_REACTORS
330
47
102
}
330
47
100
AcDbProxyObject
 90
      499
 91
      503
 93
      105
310
903323A310000000000000010100
  0
ACAD_PROXY_OBJECT
  5
55
102
{ACAD_REACTORS
330
47
102
}
330
47
100
AcDbProxyObject
 90
      499
 91
      503
 93
      105
310
903343A310000000000000410100
  0
ACAD_PROXY_OBJECT
  5
56
102
{ACAD_REACTORS
330
47
102
}
330
47
100
AcDbProxyObject
 90
      499
 91
      503
 93
      105
310
903383A310000000000000810100
  0
ACAD_PROXY_OBJECT
  5
57
102
{ACAD_REACTORS
330
47
102
}
330
47
100
AcDbProxyObject
 90
      499
 91
      503
 93
      113
310
90431303A310000000000000910100
  0
ACAD_PROXY_OBJECT
  5
58
102
{ACAD_REACTORS
330
47
102
}
330
47
100
AcDbProxyObject
 90
      499
 91
      503
 93
      121
310
9053130303A310000000000001650100
  0
ACAD_PROXY_OBJECT
  5
59
102
{ACAD_REACTORS
330
47
102
}
330
47
100
AcDbProxyObject
 90
      499
 91
      503
 93
      257
310
90E312F31323822203D2031272D3022000000000000200FC000000000000284000
  0
ACAD_PROXY_OBJECT
  5
5A
102
{ACAD_REACTORS
330
47
102
}
330
47
100
AcDbProxyObject
 90
      499
 91
      503
 93
      249
310
90D312F363422203D2031272D3022000000000000240FC000000000000284000
  0
ACAD_PROXY_OBJECT
  5
5B
102
{ACAD_REACTORS
330
47
102
}
330
47
100
AcDbProxyObject
 90
      499
 91
      503
 93
      249
310
90D312F333222203D2031272D3022000000000000280FC000000000000284000
  0
ACAD_PROXY_OBJECT
  5
5C
102
{ACAD_REACTORS
330
47
102
}
330
47
100
AcDbProxyObject
 90
      499
 91
      503
 93
      249
310
90D312F313622203D2031272D30220000000000002C0FC000000000000284000
  0
ACAD_PROXY_OBJECT
  5
5D
102
{ACAD_REACTORS
330
47
102
}
330
47
100
AcDbProxyObject
 90
      499
 91
      503
 93
      249
310
90D332F333222203D2031272D30220000000000002E0FC000000000000284000
  0
ACAD_PROXY_OBJECT
  5
5E
102
{ACAD_REACTORS
330
47
102
}
330
47
100
AcDbProxyObject
 90
      499
 91
      503
 93
      241
310
90C312F3822203D2031272D3022000000000000300FC000000000000284000
  0
ACAD_PROXY_OBJECT
  5
5F
102
{ACAD_REACTORS
330
47
102
}
330
47
100
AcDbProxyObject
 90
      499
 91
      503
 93
      249
310
90D332F313622203D2031272D3022000000000000320FC000000000000284000
  0
ACAD_PROXY_OBJECT
  5
60
102
{ACAD_REACTORS
330
47
102
}
330
47
100
AcDbProxyObject
 90
      499
 91
      503
 93
      241
310
90C312F3422203D2031272D3022000000000000340FC000000000000284000
  0
ACAD_PROXY_OBJECT
  5
61
102
{ACAD_REACTORS
330
47
102
}
330
47
100
AcDbProxyObject
 90
      499
 91
      503
 93
      241
310
90C332F3822203D2031272D3022000000000000360FC000000000000284000
  0
ACAD_PROXY_OBJECT
  5
62
102
{ACAD_REACTORS
330
47
102
}
330
47
100
AcDbProxyObject
 90
      499
 91
      503
 93
      241
310
90C312F3222203D2031272D3022000000000000380FC000000000000284000
  0
ACAD_PROXY_OBJECT
  5
63
102
{ACAD_REACTORS
330
47
102
}
330
47
100
AcDbProxyObject
 90
      499
 91
      503
 93
      241
310
90C332F3422203D2031272D30220000000000003A0FC000000000000284000
  0
ACAD_PROXY_OBJECT
  5
64
102
{ACAD_REACTORS
330
47
102
}
330
47
100
AcDbProxyObject
 90
      499
 91
      503
 93
      161
310
90A3122203D2031272D30224000000000000284000
  0
ACAD_PROXY_OBJECT
  5
65
102
{ACAD_REACTORS
330
47
102
}
330
47
100
AcDbProxyObject
 90
      499
 91
      503
 93
      257
310
90E312D312F3222203D2031272D30220000000000003E0FC000000000000284000
  0
ACAD_PROXY_OBJECT
  5
66
102
{ACAD_REACTORS
330
47
102
}
330
47
100
AcDbProxyObject
 90
      499
 91
      503
 93
      225
310
90A3322203D2031272D302200000000000002100000000000000284000
  0
ACAD_PROXY_OBJECT
  5
67
102
{ACAD_REACTORS
330
47
102
}
330
47
100
AcDbProxyObject
 90
      499
 91
      503
 93
      225
310
90A3622203D2031272D302200000000000006100000000000000284000
  0
ACAD_PROXY_OBJECT
  5
68
102
{ACAD_REACTORS
330
47
102
}
330
47
100
AcDbProxyObject
 90
      499
 91
      503
 93
      249
310
90D31272D3022203D2031272D30220000000000000A100000000000000284000
  0
ACAD_PROXY_OBJECT
  5
2F
102
{ACAD_REACTORS
330
2A
102
}
330
2A
100
AcDbProxyObject
 90
      499
 91
      501
 93
      436
310
42CC9915DA5C99599C985B595049028333333333333E33F0000000000000F90107901411070040501600405405064090741402480A0340
1001
ACAD
1000
AcDbSavedByObjectVersion
1070
     0
  0
ACAD_PROXY_OBJECT
  5
32
102
{ACAD_REACTORS
330
2A
102
}
330
2A
100
AcDbProxyObject
 90
      499
 91
      501
 93
      388
310
4150985CDA58D07406404333333333333E33F0000000000000F90107A41107004050150841D405064090741402480A0350
1001
ACAD
1000
AcDbSavedByObjectVersion
1070
     0
  0
ACAD_PROXY_OBJECT
  5
36
102
{ACAD_REACTORS
330
2A
102
}
330
2A
100
AcDbProxyObject
 90
      499
 91
      501
 93
      428
310
42109C9A59DA1D195B90C409028333333333333E33F0000000000000F9010790141107004050150841D405064090741402480A029950
1001
ACAD
1000
AcDbSavedByObjectVersion
1070
     0
  0
ACAD_PROXY_OBJECT
  5
3A
102
{ACAD_REACTORS
330
2A
102
}
330
2A
100
AcDbProxyObject
 90
      499
 91
      501
 93
      452
310
42D0DBDB1BDC90DA185B99D95104090240C333333333333E33F0000000000000F90108901411070040501508421405064090741402480A0350
1001
ACAD
1000
AcDbSavedByObjectVersion
1070
     0
  0
ACAD_PROXY_OBJECT
  5
34
102
{ACAD_REACTORS
330
2A
102
}
330
2A
100
AcDbProxyObject
 90
      499
 91
      501
 93
      500
310
4290DBDB98D95C1D1D585B10940D028333333333333E33F0000000000000F90107902409070040501000000000018199010841D405064090740C02480A0340
1001
ACAD
1000
AcDbSavedByObjectVersion
1070
     0
  0
ACAD_PROXY_OBJECT
  5
35
102
{ACAD_REACTORS
330
2A
102
}
330
2A
100
AcDbProxyObject
 90
      499
 91
      501
 93
      412
310
40D11A5B50B409028333333333333E33F0000000000000F9010790141107004050150841D405064090741402480A02677FFFFFD0
1001
ACAD
1000
AcDbSavedByObjectVersion
1070
     0
  0
ACAD_PROXY_OBJECT
  5
3D
102
{ACAD_REACTORS
330
2A
102
}
330
2A
100
AcDbProxyObject
 90
      499
 91
      501
 93
      452
310
43115919D950DBDB1BDC93D999916409028333333333333E33F0000000000000F9010790141107004050150841D405064090741402480A0350
1001
ACAD
1000
AcDbSavedByObjectVersion
1070
     0
  0
ACAD_PROXY_OBJECT
  5
39
102
{ACAD_REACTORS
330
2A
102
}
330
2A
100
AcDbProxyObject
 90
      499
 91
      501
 93
      444
310
42D19858D95C185D1D195C9B90F409028333333333333E33F0000000000000F9010790141107004050150841D405064090741402480A0350
1001
ACAD
1000
AcDbSavedByObjectVersion
1070
     0
  0
ACAD_PROXY_OBJECT
  5
2B
102
{ACAD_REACTORS
330
2A
102
}
330
2A
100
AcDbProxyObject
 90
      499
 91
      501
 93
      380
310
41119B185D240901404333333333333E33F0000000000000F9010740A907004050150841D405064090741402480A1B50
1001
ACAD
1000
AcDbSavedByObjectVersion
1070
     0
  0
ACAD_PROXY_OBJECT
  5
2C
102
{ACAD_REACTORS
330
2A
102
}
330
2A
100
AcDbProxyObject
 90
      499
 91
      501
 93
      468
310
43519B185D15DA5D1A115919D95CD0140901404333333333333E33F0000000000000F90107409019070040501600405405064090741402480A1B50
1001
ACAD
1000
AcDbSavedByObjectVersion
1070
     0
  0
ACAD_PROXY_OBJECT
  5
2D
102
{ACAD_REACTORS
330
2A
102
}
330
2A
100
AcDbProxyObject
 90
      499
 91
      501
 93
      404
310
41D1DBDD5C985D5910240902404333333333333E33F0000000000000F9010740A9070040501641D405064090741402480A1B50
1001
ACAD
1000
AcDbSavedByObjectVersion
1070
     0
  0
ACAD_PROXY_OBJECT
  5
2E
102
{ACAD_REACTORS
330
2A
102
}
330
2A
100
AcDbProxyObject
 90
      499
 91
      501
 93
      492
310
4411DBDD5C985D5915DA5D1A115919D95CD0340902404333333333333E33F0000000000000F90107409019070040501600405405064090741402480A1B50
1001
ACAD
1000
AcDbSavedByObjectVersion
1070
     0
  0
ACAD_PROXY_OBJECT
  5
31
102
{ACAD_REACTORS
330
2A
102
}
330
2A
100
AcDbProxyObject
 90
      499
 91
      501
 93
      476
310
41921A5919195B90640502408333333333333E33F0000000000000F901079024090700405020000000000001110200405405064090740C02480A0340
1001
ACAD
1000
AcDbSavedByObjectVersion
1070
     0
  0
ACAD_PROXY_OBJECT
  5
3B
102
{ACAD_REACTORS
330
2A
102
}
330
2A
100
AcDbProxyObject
 90
      499
 91
      501
 93
      428
310
42529A5D1D195C93D999914409028333333333333E33F0000000000000F9010790141107004050150A41D405064090741402480A0350
1001
ACAD
1000
AcDbSavedByObjectVersion
1070
     0
  0
ACAD_PROXY_OBJECT
  5
38
102
{ACAD_REACTORS
330
2A
102
}
330
2A
100
AcDbProxyObject
 90
      499
 91
      501
 93
      444
310
42D31A5B995C185D1D195C9B90E409028333333333333E33F0000000000000F9010790141107004050750841D405064090741402483A0350
1001
ACAD
1000
AcDbSavedByObjectVersion
1070
     0
  0
ACAD_PROXY_OBJECT
  5
3C
102
{ACAD_REACTORS
330
2A
102
}
330
2A
100
AcDbProxyObject
 90
      499
 91
      501
 93
      444
310
42D3DD995C9A185B99D3D999915409028333333333333E33F0000000000000F9010790141107004050150941D405064090741402480A0350
1001
ACAD
1000
AcDbSavedByObjectVersion
1070
     0
  0
ACAD_PROXY_OBJECT
  5
33
102
{ACAD_REACTORS
330
2A
102
}
330
2A
100
AcDbProxyObject
 90
      499
 91
      501
 93
      428
310
425499585B1A5CDD1A58D08409038333333333333E33F0000000000000F9010740A907004050150800405405064090740C02480A1B40
1001
ACAD
1000
AcDbSavedByObjectVersion
1070
     0
  0
ACAD_PROXY_OBJECT
  5
42
102
{ACAD_REACTORS
330
2A
102
}
330
2A
100
AcDbProxyObject
 90
      499
 91
      501
 93
      420
310
4194DA1859195911B40902404333333333333E33F0000000000000F9010740A41107004050150800405405064090840C02480A0B40
1001
ACAD
1000
AcDbSavedByObjectVersion
1070
     0
  0
ACAD_PROXY_OBJECT
  5
41
102
{ACAD_REACTORS
330
2A
102
}
330
2A
100
AcDbProxyObject
 90
      499
 91
      501
 93
      516
310
4454DA18591959081DDA5D1A08195919D95CD1A40902404333333333333E33F0000000000000F901074090142907004050250800405405064090740C02480A0B40
1001
ACAD
1000
AcDbSavedByObjectVersion
1070
     0
  0
ACAD_PROXY_OBJECT
  5
3E
102
{ACAD_REACTORS
330
2A
102
}
330
2A
100
AcDbProxyObject
 90
      499
 91
      501
 93
      532
310
4394DA1859195CC81BD98811DC985E5174090240C333333333333E33F0000000000000F901079024090741D01000000000000111010841D405064090740C02480A0340
1001
ACAD
1000
AcDbSavedByObjectVersion
1070
     0
  0
ACAD_PROXY_OBJECT
  5
3F
102
{ACAD_REACTORS
330
2A
102
}
330
2A
100
AcDbProxyObject
 90
      499
 91
      501
 93
      476
310
41D4DAD95D18DA1E51840502408333333333333E33F0000000000000F901079024090741D01000000000000111010B41D405064090741802480A0340
1001
ACAD
1000
AcDbSavedByObjectVersion
1070
     0
  0
ACAD_PROXY_OBJECT
  5
37
102
{ACAD_REACTORS
330
2A
102
}
330
2A
100
AcDbProxyObject
 90
      499
 91
      501
 93
      412
310
41D51A1A58DAD95B90D409028333333333333E33F0000000000000F9010790141107004050150C41D405064090741402480A0350
1001
ACAD
1000
AcDbSavedByObjectVersion
1070
     0
  0
ACAD_PROXY_OBJECT
  5
30
102
{ACAD_REACTORS
330
2A
102
}
330
2A
100
AcDbProxyObject
 90
      499
 91
      501
 93
      420
310
4255DA5C99599C985B595059028333333333333E33F0000000000000F90107901411070040501600405405064090740C02480A0340
1001
ACAD
1000
AcDbSavedByObjectVersion
1070
     0
  0
ACAD_PROXY_OBJECT
  5
40
102
{ACAD_REACTORS
330
2A
102
}
330
2A
100
AcDbProxyObject
 90
      499
 91
      501
 93
      404
310
41560B54985E51940902404000000000000E03F0000000000000F9010740501907004050150841D405064090740C02480A1B40
1001
ACAD
1000
AcDbSavedByObjectVersion
1070
     0
  0
XRECORD
  5
281
102
{ACAD_REACTORS
330
278
102
}
330
278
100
AcDbXrecord
 90
        0
  0
XRECORD
  5
297
102
{ACAD_REACTORS
330
278
102
}
330
278
100
AcDbXrecord
1000
DSTYLE
1002
{
1070
   171
 70
     2
1070
   143
 40
25.4
1070
   274
 70
     2
1070
    41
 40
0.18
1070
   141
 40
0.09
1070
   271
 70
     4
1070
    43
 40
0.38
1070
   278
 70
    46
1070
    44
 40
0.18
1070
    42
 40
0.0625
1070
   147
 40
0.09
1070
    77
 70
     0
1070
   272
 70
     4
1070
    73
 70
     1
1070
   172
 70
     0
1070
    74
 70
     1
1070
   283
 70
     1
1070
   340
340
11
1070
   140
 40
0.18
1070
   284
 70
     0
1070
    78
 70
     0
1002
}
  0
XRECORD
  5
282
102
{ACAD_REACTORS
330
278
102
}
330
278
100
AcDbXrecord
  1
{E2DC3574-044E-45E7-B24D-A3664860706C}
  0
XRECORD
  5
27B
102
{ACAD_REACTORS
330
278
102
}
330
278
100
AcDbXrecord
  1

  0
XRECORD
  5
280
102
{ACAD_REACTORS
330
278
102
}
330
278
100
AcDbXrecord
 90
        4
  0
XRECORD
  5
27D
102
{ACAD_REACTORS
330
278
102
}
330
278
100
AcDbXrecord
340
1A
  0
XRECORD
  5
27F
102
{ACAD_REACTORS
330
278
102
}
330
278
100
AcDbXrecord
 90
    10781
  0
XRECORD
  5
27E
102
{ACAD_REACTORS
330
278
102
}
330
278
100
AcDbXrecord
340
19
  0
XRECORD
  5
284
102
{ACAD_REACTORS
330
278
102
}
330
278
100
AcDbXrecord
 40
0.0
  0
XRECORD
  5
287
102
{ACAD_REACTORS
330
278
102
}
330
278
100
AcDbXrecord
340
0
  0
XRECORD
  5
28D
102
{ACAD_REACTORS
330
278
102
}
330
278
100
AcDbXrecord
 10
0.0
 20
0.0
 30
0.0
  0
XRECORD
  5
289
102
{ACAD_REACTORS
330
278
102
}
330
278
100
AcDbXrecord
 10
0.0
 20
0.0
 30
0.0
  0
XRECORD
  5
28C
102
{ACAD_REACTORS
330
278
102
}
330
278
100
AcDbXrecord
 10
0.0
 20
0.0
 30
0.0
  0
XRECORD
  5
28A
102
{ACAD_REACTORS
330
278
102
}
330
278
100
AcDbXrecord
 10
0.0
 20
0.0
 30
0.0
  0
XRECORD
  5
28B
102
{ACAD_REACTORS
330
278
102
}
330
278
100
AcDbXrecord
 10
0.0
 20
0.0
 30
0.0
  0
XRECORD
  5
288
102
{ACAD_REACTORS
330
278
102
}
330
278
100
AcDbXrecord
 10
0.0
 20
0.0
 30
0.0
  0
XRECORD
  5
285
102
{ACAD_REACTORS
330
278
102
}
330
278
100
AcDbXrecord
340
0
  0
XRECORD
  5
286
102
{ACAD_REACTORS
330
278
102
}
330
278
100
AcDbXrecord
 70
     0
  0
XRECORD
  5
27C
102
{ACAD_REACTORS
330
278
102
}
330
278
100
AcDbXrecord
  1

  0
XRECORD
  5
279
102
{ACAD_REACTORS
330
278
102
}
330
278
100
AcDbXrecord
 90
        1
  0
XRECORD
  5
27A
102
{ACAD_REACTORS
330
278
102
}
330
278
100
AcDbXrecord
 90
       70
  0
XRECORD
  5
290
102
{ACAD_REACTORS
330
278
102
}
330
278
100
AcDbXrecord
340
0
  0
XRECORD
  5
296
102
{ACAD_REACTORS
330
278
102
}
330
278
100
AcDbXrecord
 10
0.0
 20
0.0
 30
0.0
  0
XRECORD
  5
292
102
{ACAD_REACTORS
330
278
102
}
330
278
100
AcDbXrecord
 10
0.0
 20
0.0
 30
0.0
  0
XRECORD
  5
295
102
{ACAD_REACTORS
330
278
102
}
330
278
100
AcDbXrecord
 10
0.0
 20
0.0
 30
0.0
  0
XRECORD
  5
293
102
{ACAD_REACTORS
330
278
102
}
330
278
100
AcDbXrecord
 10
0.0
 20
0.0
 30
0.0
  0
XRECORD
  5
294
102
{ACAD_REACTORS
330
278
102
}
330
278
100
AcDbXrecord
 10
0.0
 20
0.0
 30
0.0
  0
XRECORD
  5
291
102
{ACAD_REACTORS
330
278
102
}
330
278
100
AcDbXrecord
 10
0.0
 20
0.0
 30
0.0
  0
XRECORD
  5
28E
102
{ACAD_REACTORS
330
278
102
}
330
278
100
AcDbXrecord
340
0
  0
XRECORD
  5
28F
102
{ACAD_REACTORS
330
278
102
}
330
278
100
AcDbXrecord
 70
     0
  0
XRECORD
  5
283
102
{ACAD_REACTORS
330
278
102
}
330
278
100
AcDbXrecord
  1
{FAEB1C32-E019-11D5-929B-00C0DF256EC4}
  0
DICTIONARYVAR
  5
2A1
102
{ACAD_REACTORS
330
298
102
}
330
298
100
DictionaryVariables
280
     0
  1
1:1
  0
DICTIONARYVAR
  5
29D
102
{ACAD_REACTORS
330
298
102
}
330
298
100
DictionaryVariables
280
     0
  1
2
  0
DICTIONARYVAR
  5
29E
102
{ACAD_REACTORS
330
298
102
}
330
298
100
DictionaryVariables
280
     0
  1
1
  0
DICTIONARYVAR
  5
2A2
102
{ACAD_REACTORS
330
298
102
}
330
298
100
DictionaryVariables
280
     0
  1
1
  0
DICTIONARY
  5
2A5
330
45
100
AcDbDictionary
280
     1
  3
ACAD_XREC_ROUNDTRIP
360
2A6
  0
DICTIONARY
  5
2A3
330
44
100
AcDbDictionary
280
     1
  3
ACAD_XREC_ROUNDTRIP
360
2A4
  0
DICTIONARY
  5
2A7
330
46
100
AcDbDictionary
280
     1
  3
ACAD_XREC_ROUNDTRIP
360
2A8
  0
XRECORD
  5
2A6
102
{ACAD_REACTORS
330
2A5
102
}
330
2A5
100
AcDbXrecord
102
MATERIAL
148
0.0
149
0.0
149
0.0
 93
        0
 94
      127
282
     0
 72
     1
 77
     1
171
     1
175
     1
179
     1
273
     0
  0
XRECORD
  5
2A4
102
{ACAD_REACTORS
330
2A3
102
}
330
2A3
100
AcDbXrecord
102
MATERIAL
148
0.0
149
0.0
149
0.0
 93
        0
 94
      127
282
     0
 72
     1
 77
     1
171
     1
175
     1
179
     1
273
     0
  0
XRECORD
  5
2A8
102
{ACAD_REACTORS
330
2A7
102
}
330
2A7
100
AcDbXrecord
102
MATERIAL
148
0.0
149
0.0
149
0.0
 93
        0
 94
      127
282
     0
 72
     1
 77
     1
171
     1
175
     1
179
     1
273
     0
  0
ENDSEC
  0
EOF
