  0
SECTION
  2
HEADER
  9
$ACADVER
  1
AC1014
  9
$ACADMAINTVER
 70
     9
  9
$DWGCODEPAGE
  3
ANSI_1252
  9
$INSBASE
 10
0.0
 20
0.0
 30
0.0
  9
$EXTMIN
 10
1.000000000000000E+20
 20
1.000000000000000E+20
 30
1.000000000000000E+20
  9
$EXTMAX
 10
-1.000000000000000E+20
 20
-1.000000000000000E+20
 30
-1.000000000000000E+20
  9
$LIMMIN
 10
0.0
 20
0.0
  9
$LIMMAX
 10
12.0
 20
9.0
  9
$ORTHOMODE
 70
     0
  9
$REGENMODE
 70
     1
  9
$FILLMODE
 70
     1
  9
$QTEXTMODE
 70
     0
  9
$MIRRTEXT
 70
     1
  9
$DRAGMODE
 70
     2
  9
$LTSCALE
 40
1.0
  9
$OSMODE
 70
    37
  9
$ATTMODE
 70
     1
  9
$TEXTSIZE
 40
0.2
  9
$TRACEWID
 40
0.05
  9
$TEXTSTYLE
  7
STANDARD
  9
$CLAYER
  8
0
  9
$CELTYPE
  6
BYLAYER
  9
$CECOLOR
 62
   256
  9
$CELTSCALE
 40
1.0
  9
$DELOBJ
 70
     1
  9
$DISPSILH
 70
     0
  9
$DIMSCALE
 40
1.0
  9
$DIMASZ
 40
0.18
  9
$DIMEXO
 40
0.0625
  9
$DIMDLI
 40
0.38
  9
$DIMRND
 40
0.0
  9
$DIMDLE
 40
0.0
  9
$DIMEXE
 40
0.18
  9
$DIMTP
 40
0.0
  9
$DIMTM
 40
0.0
  9
$DIMTXT
 40
0.18
  9
$DIMCEN
 40
0.09
  9
$DIMTSZ
 40
0.0
  9
$DIMTOL
 70
     0
  9
$DIMLIM
 70
     0
  9
$DIMTIH
 70
     1
  9
$DIMTOH
 70
     1
  9
$DIMSE1
 70
     0
  9
$DIMSE2
 70
     0
  9
$DIMTAD
 70
     0
  9
$DIMZIN
 70
     0
  9
$DIMBLK
  1

  9
$DIMASO
 70
     1
  9
$DIMSHO
 70
     1
  9
$DIMPOST
  1

  9
$DIMAPOST
  1

  9
$DIMALT
 70
     0
  9
$DIMALTD
 70
     2
  9
$DIMALTF
 40
25.4
  9
$DIMLFAC
 40
1.0
  9
$DIMTOFL
 70
     0
  9
$DIMTVP
 40
0.0
  9
$DIMTIX
 70
     0
  9
$DIMSOXD
 70
     0
  9
$DIMSAH
 70
     0
  9
$DIMBLK1
  1

  9
$DIMBLK2
  1

  9
$DIMSTYLE
  2
STANDARD
  9
$DIMCLRD
 70
     0
  9
$DIMCLRE
 70
     0
  9
$DIMCLRT
 70
     0
  9
$DIMTFAC
 40
1.0
  9
$DIMGAP
 40
0.09
  9
$DIMJUST
 70
     0
  9
$DIMSD1
 70
     0
  9
$DIMSD2
 70
     0
  9
$DIMTOLJ
 70
     1
  9
$DIMTZIN
 70
     0
  9
$DIMALTZ
 70
     0
  9
$DIMALTTZ
 70
     0
  9
$DIMFIT
 70
     3
  9
$DIMUPT
 70
     0
  9
$DIMUNIT
 70
     2
  9
$DIMDEC
 70
     4
  9
$DIMTDEC
 70
     4
  9
$DIMALTU
 70
     2
  9
$DIMALTTD
 70
     2
  9
$DIMTXSTY
  7
STANDARD
  9
$DIMAUNIT
 70
     0
  9
$LUNITS
 70
     2
  9
$LUPREC
 70
     4
  9
$SKETCHINC
 40
0.1
  9
$FILLETRAD
 40
0.5
  9
$AUNITS
 70
     0
  9
$AUPREC
 70
     0
  9
$MENU
  1
.
  9
$ELEVATION
 40
0.0
  9
$PELEVATION
 40
0.0
  9
$THICKNESS
 40
0.0
  9
$LIMCHECK
 70
     0
  9
$CHAMFERA
 40
0.0
  9
$CHAMFERB
 40
0.0
  9
$CHAMFERC
 40
0.0
  9
$CHAMFERD
 40
0.0
  9
$SKPOLY
 70
     0
  9
$TDCREATE
 40
2456972.678037188
  9
$TDUPDATE
 40
2456972.678037442
  9
$TDINDWG
 40
0.0000000116
  9
$TDUSRTIMER
 40
0.0000000116
  9
$USRTIMER
 70
     1
  9
$ANGBASE
 50
0.0
  9
$ANGDIR
 70
     0
  9
$PDMODE
 70
     0
  9
$PDSIZE
 40
0.0
  9
$PLINEWID
 40
0.0
  9
$COORDS
 70
     1
  9
$SPLFRAME
 70
     0
  9
$SPLINETYPE
 70
     6
  9
$SPLINESEGS
 70
     8
  9
$ATTDIA
 70
     0
  9
$ATTREQ
 70
     1
  9
$HANDLING
 70
     1
  9
$HANDSEED
  5
2A9
  9
$SURFTAB1
 70
     6
  9
$SURFTAB2
 70
     6
  9
$SURFTYPE
 70
     6
  9
$SURFU
 70
     6
  9
$SURFV
 70
     6
  9
$UCSNAME
  2

  9
$UCSORG
 10
0.0
 20
0.0
 30
0.0
  9
$UCSXDIR
 10
1.0
 20
0.0
 30
0.0
  9
$UCSYDIR
 10
0.0
 20
1.0
 30
0.0
  9
$PUCSNAME
  2

  9
$PUCSORG
 10
0.0
 20
0.0
 30
0.0
  9
$PUCSXDIR
 10
1.0
 20
0.0
 30
0.0
  9
$PUCSYDIR
 10
0.0
 20
1.0
 30
0.0
  9
$USERI1
 70
     0
  9
$USERI2
 70
     0
  9
$USERI3
 70
     0
  9
$USERI4
 70
     0
  9
$USERI5
 70
     0
  9
$USERR1
 40
0.0
  9
$USERR2
 40
0.0
  9
$USERR3
 40
0.0
  9
$USERR4
 40
0.0
  9
$USERR5
 40
0.0
  9
$WORLDVIEW
 70
     1
  9
$SHADEDGE
 70
     3
  9
$SHADEDIF
 70
    70
  9
$TILEMODE
 70
     1
  9
$MAXACTVP
 70
    64
  9
$PINSBASE
 10
0.0
 20
0.0
 30
0.0
  9
$PLIMCHECK
 70
     0
  9
$PEXTMIN
 10
1.000000000000000E+20
 20
1.000000000000000E+20
 30
1.000000000000000E+20
  9
$PEXTMAX
 10
-1.000000000000000E+20
 20
-1.000000000000000E+20
 30
-1.000000000000000E+20
  9
$PLIMMIN
 10
0.0
 20
0.0
  9
$PLIMMAX
 10
12.0
 20
9.0
  9
$UNITMODE
 70
     0
  9
$VISRETAIN
 70
     1
  9
$PLINEGEN
 70
     0
  9
$PSLTSCALE
 70
     1
  9
$TREEDEPTH
 70
  3020
  9
$PICKSTYLE
 70
     1
  9
$CMLSTYLE
  2
STANDARD
  9
$CMLJUST
 70
     0
  9
$CMLSCALE
 40
1.0
  9
$PROXYGRAPHICS
 70
     1
  9
$MEASUREMENT
 70
     1
  0
ENDSEC
  0
SECTION
  2
CLASSES
  0
CLASS
  1
ACDBDICTIONARYWDFLT
  2
AcDbDictionaryWithDefault
  3
ObjectDBX Classes
 90
        0
280
     0
281
     0
  0
CLASS
  1
VISUALSTYLE
  2
AcDbVisualStyle
  3
ObjectDBX Classes
 90
     4095
280
     0
281
     0
  0
CLASS
  1
MATERIAL
  2
AcDbMaterial
  3
ObjectDBX Classes
 90
     1153
280
     0
281
     0
  0
CLASS
  1
SCALE
  2
AcDbScale
  3
ObjectDBX Classes
 90
     1153
280
     0
281
     0
  0
CLASS
  1
SUN
  2
AcDbSun
  3
SCENEOE
 90
     1153
280
     0
281
     0
  0
CLASS
  1
DICTIONARYVAR
  2
AcDbDictionaryVar
  3
ObjectDBX Classes
 90
        0
280
     0
281
     0
  0
CLASS
  1
XRECORD
  2
AcDbXrecord
  3
ObjectDBX Classes
 90
        0
280
     0
281
     0
  0
CLASS
  1
LWPOLYLINE
  2
AcDbPolyline
  3
ObjectDBX Classes
 90
        0
280
     0
281
     1
  0
CLASS
  1
HATCH
  2
AcDbHatch
  3
ObjectDBX Classes
 90
        0
280
     0
281
     1
  0
CLASS
  1
ACDBPLACEHOLDER
  2
AcDbPlaceHolder
  3
ObjectDBX Classes
 90
        0
280
     0
281
     0
  0
CLASS
  1
LAYOUT
  2
AcDbLayout
  3
ObjectDBX Classes
 90
        0
280
     0
281
     0
  0
ENDSEC
  0
SECTION
  2
TABLES
  0
TABLE
  2
VPORT
  5
8
102
{ACAD_XDICTIONARY
360
29F
102
}
330
0
100
AcDbSymbolTable
 70
     1
  0
VPORT
  5
29
330
8
100
AcDbSymbolTableRecord
100
AcDbViewportTableRecord
  2
*ACTIVE
 70
     0
 10
0.0
 20
0.0
 11
1.0
 21
1.0
 12
0.0
 22
0.0
 13
0.0
 23
0.0
 14
0.5
 24
0.5
 15
0.5
 25
0.5
 16
0.0
 26
0.0
 36
1.0
 17
0.0
 27
0.0
 37
-1000.0
 40
72.72911994548667
 41
2.028602860286028
 42
50.0
 43
595.5383317111011
 44
755.820183202457
 50
0.0
 51
0.0
 71
     0
 72
   100
 73
     1
 74
     3
 75
     0
 76
     0
 77
     0
 78
     0
  0
ENDTAB
  0
TABLE
  2
LTYPE
  5
5
330
0
100
AcDbSymbolTable
 70
     1
  0
LTYPE
  5
14
330
5
100
AcDbSymbolTableRecord
100
AcDbLinetypeTableRecord
  2
BYBLOCK
 70
     0
  3

 72
    65
 73
     0
 40
0.0
  0
LTYPE
  5
15
330
5
100
AcDbSymbolTableRecord
100
AcDbLinetypeTableRecord
  2
BYLAYER
 70
     0
  3

 72
    65
 73
     0
 40
0.0
  0
LTYPE
  5
16
330
5
100
AcDbSymbolTableRecord
100
AcDbLinetypeTableRecord
  2
CONTINUOUS
 70
     0
  3
Solid line
 72
    65
 73
     0
 40
0.0
  0
ENDTAB
  0
TABLE
  2
LAYER
  5
2
330
0
100
AcDbSymbolTable
 70
     3
  0
LAYER
  5
10
330
2
100
AcDbSymbolTableRecord
100
AcDbLayerTableRecord
  2
0
 70
     0
 62
     7
  6
CONTINUOUS
  0
LAYER
  5
6A
330
2
100
AcDbSymbolTableRecord
100
AcDbLayerTableRecord
  2
PROFILEEDGES
 70
     0
 62
     7
  6
CONTINUOUS
  0
LAYER
  5
6B
330
2
100
AcDbSymbolTableRecord
100
AcDbLayerTableRecord
  2
SECTIONCUTEDGES
 70
     0
 62
     7
  6
CONTINUOUS
  0
ENDTAB
  0
TABLE
  2
STYLE
  5
3
330
0
100
AcDbSymbolTable
 70
     1
  0
STYLE
  5
11
330
3
100
AcDbSymbolTableRecord
100
AcDbTextStyleTableRecord
  2
STANDARD
 70
     0
 40
0.0
 41
1.0
 50
0.0
 71
     0
 42
0.2
  3
txt
  4

  0
ENDTAB
  0
TABLE
  2
VIEW
  5
6
330
0
100
AcDbSymbolTable
 70
     0
  0
ENDTAB
  0
TABLE
  2
UCS
  5
7
330
0
100
AcDbSymbolTable
 70
     0
  0
ENDTAB
  0
TABLE
  2
APPID
  5
9
330
0
100
AcDbSymbolTable
 70
     1
  0
APPID
  5
12
330
9
100
AcDbSymbolTableRecord
100
AcDbRegAppTableRecord
  2
ACAD
 70
     0
  0
ENDTAB
  0
TABLE
  2
DIMSTYLE
  5
A
330
0
100
AcDbSymbolTable
 70
     1
  0
DIMSTYLE
105
27
330
A
100
AcDbSymbolTableRecord
100
AcDbDimStyleTableRecord
  2
STANDARD
 70
     0
  3

  4

  5

  6

  7

 40
1.0
 41
0.18
 42
0.0625
 43
0.38
 44
0.18
 45
0.0
 46
0.0
 47
0.0
 48
0.0
140
0.18
141
0.09
142
0.0
143
25.4
144
1.0
145
0.0
146
1.0
147
0.09
 71
     0
 72
     0
 73
     1
 74
     1
 75
     0
 76
     0
 77
     0
 78
     0
170
     0
171
     2
172
     0
173
     0
174
     0
175
     0
176
     0
177
     0
178
     0
270
     2
271
     4
272
     4
273
     2
274
     2
340
11
275
     0
280
     0
281
     0
282
     0
283
     1
284
     0
285
     0
286
     0
287
     3
288
     0
  0
ENDTAB
  0
TABLE
  2
BLOCK_RECORD
  5
1
330
0
100
AcDbSymbolTable
 70
     1
  0
BLOCK_RECORD
  5
1F
330
1
100
AcDbSymbolTableRecord
100
AcDbBlockTableRecord
  2
*MODEL_SPACE
  0
BLOCK_RECORD
  5
1B
330
1
100
AcDbSymbolTableRecord
100
AcDbBlockTableRecord
  2
*PAPER_SPACE
  0
ENDTAB
  0
ENDSEC
  0
SECTION
  2
BLOCKS
  0
BLOCK
  5
20
330
1F
100
AcDbEntity
  8
0
100
AcDbBlockBegin
  2
*MODEL_SPACE
 70
     0
 10
0.0
 20
0.0
 30
0.0
  3
*MODEL_SPACE
  1

  0
ENDBLK
  5
21
330
1F
100
AcDbEntity
  8
0
100
AcDbBlockEnd
  0
BLOCK
  5
1C
330
1B
100
AcDbEntity
 67
     1
  8
0
100
AcDbBlockBegin
  2
*PAPER_SPACE
 70
     0
 10
0.0
 20
0.0
 30
0.0
  3
*PAPER_SPACE
  1

  0
ENDBLK
  5
1D
330
1B
100
AcDbEntity
 67
     1
  8
0
100
AcDbBlockEnd
  0
ENDSEC
  0
SECTION
  2
ENTITIES
  0
LINE
  5
6C
330
1F
100
AcDbEntity
  8
0
100
AcDbLine
 10
69.9172661617665
 20
7.510746675358614
 30
0.0
 11
69.93097514202125
 21
7.489238975820118
 31
0.0
  0
LINE
  5
6D
330
1F
100
AcDbEntity
  8
0
100
AcDbLine
 10
70.02066037942467
 20
7.304437940024092
 30
0.0
 11
70.02917137489277
 21
7.280070428650742
 31
0.0
  0
LINE
  5
6E
330
1F
100
AcDbEntity
  8
0
100
AcDbLine
 10
69.95681920224743
 20
7.445040074346434
 30
0.0
 11
69.96892124793924
 21
7.422387368085992
 31
0.0
  0
LINE
  5
6F
330
1F
100
AcDbEntity
  8
0
100
AcDbLine
 10
70.03704811742267
 20
7.255499592962119
 30
0.0
 11
70.04428369557657
 21
7.23075025876175
 31
0.0
  0
LINE
  5
70
330
1F
100
AcDbEntity
  8
0
100
AcDbLine
 10
69.52388721369371
 20
7.859079362625256
 30
0.0
 11
69.5468555948021
 21
7.847360297601298
 31
0.0
  0
LINE
  5
71
330
1F
100
AcDbEntity
  8
0
100
AcDbLine
 10
62.90008564040807
 20
-5.075373493040099
 30
0.0
 11
63.42839348255747
 21
-4.605383329157393
 31
0.0
  0
LINE
  5
72
330
1F
100
AcDbEntity
  8
0
100
AcDbLine
 10
69.98045619308105
 20
7.399392991293023
 30
0.0
 11
69.9914099791008
 21
7.37607835768274
 31
0.0
  0
LINE
  5
73
330
1F
100
AcDbEntity
  8
0
100
AcDbLine
 10
69.96892124793924
 20
7.422387368085992
 30
0.0
 11
69.98045619308105
 21
7.399392991293023
 31
0.0
  0
LINE
  5
74
330
1F
100
AcDbEntity
  8
0
100
AcDbLine
 10
69.9441651461009
 20
7.467330515348418
 30
0.0
 11
69.95681920224743
 21
7.445040074346434
 31
0.0
  0
LINE
  5
75
330
1F
100
AcDbEntity
  8
0
100
AcDbLine
 10
70.00176963348221
 20
7.352465634799938
 30
0.0
 11
70.01152331930747
 21
7.328577674571751
 31
0.0
  0
LINE
  5
76
330
1F
100
AcDbEntity
  8
0
100
AcDbLine
 10
70.070693542541
 20
7.105210560848464
 30
0.0
 11
70.07401016520454
 21
7.079921880823658
 31
0.0
  0
LINE
  5
77
330
1F
100
AcDbEntity
  8
0
100
AcDbLine
 10
70.05681020942545
 20
7.180816762871625
 30
0.0
 11
70.06209385183426
 21
7.155683363511995
 31
0.0
  0
LINE
  5
78
330
1F
100
AcDbEntity
  8
0
100
AcDbLine
 10
70.08078785506245
 20
6.978999763355518
 30
0.0
 11
70.08070123721616
 21
6.941465414697454
 31
0.0
  0
LINE
  5
79
330
1F
100
AcDbEntity
  8
0
100
AcDbLine
 10
69.85760791522998
 20
7.59242962104469
 30
0.0
 11
69.88084197955848
 21
7.562648355134055
 31
0.0
  0
LINE
  5
7A
330
1F
100
AcDbEntity
  8
0
100
AcDbLine
 10
70.06209385183426
 20
7.155683363511995
 30
0.0
 11
70.06672175004542
 21
7.13047282028424
 31
0.0
  0
LINE
  5
7B
330
1F
100
AcDbEntity
  8
0
100
AcDbLine
 10
70.01152331930747
 20
7.328577674571751
 30
0.0
 11
70.02066037942467
 21
7.304437940024092
 31
0.0
  0
LINE
  5
7C
330
1F
100
AcDbEntity
  8
0
100
AcDbLine
 10
70.06672175004542
 20
7.13047282028424
 30
0.0
 11
70.070693542541
 21
7.105210560848464
 31
0.0
  0
LINE
  5
7D
330
1F
100
AcDbEntity
  8
0
100
AcDbLine
 10
70.05087249455033
 20
7.205847541725796
 30
0.0
 11
70.05681020942545
 21
7.180816762871625
 31
0.0
  0
LINE
  5
7E
330
1F
100
AcDbEntity
  8
0
100
AcDbLine
 10
70.02917137489277
 20
7.280070428650742
 30
0.0
 11
70.03704811742267
 21
7.255499592962119
 31
0.0
  0
LINE
  5
7F
330
1F
100
AcDbEntity
  8
0
100
AcDbLine
 10
63.78494371169958
 20
1.540583295206113
 30
0.0
 11
63.78474658273112
 21
1.59068632677514
 31
0.0
  0
LINE
  5
80
330
1F
100
AcDbEntity
  8
0
100
AcDbLine
 10
62.84176790339281
 20
-6.073671565110431
 30
0.0
 11
63.37007574554195
 21
-5.603681401227568
 31
0.0
  0
LINE
  5
81
330
1F
100
AcDbEntity
  8
0
100
AcDbLine
 10
69.9030560195403
 20
7.531835818484337
 30
0.0
 11
69.9172661617665
 21
7.510746675358614
 31
0.0
  0
LINE
  5
82
330
1F
100
AcDbEntity
  8
0
100
AcDbLine
 10
63.71848935726428
 20
2.069319788767865
 30
0.0
 11
63.71173826375927
 21
2.094187317588213
 31
0.0
  0
LINE
  5
83
330
1F
100
AcDbEntity
  8
0
100
AcDbLine
 10
63.36541597568718
 20
-8.998904252595244
 30
0.0
 11
63.3117580085266
 21
-6.601979473297789
 31
0.0
  0
LINE
  5
84
330
1F
100
AcDbEntity
  8
0
100
AcDbLine
 10
69.83342240764638
 20
7.621133208077018
 30
0.0
 11
69.85760791522998
 21
7.59242962104469
 31
0.0
  0
LINE
  5
85
330
1F
100
AcDbEntity
  8
0
100
AcDbLine
 10
62.95840337742361
 20
-4.0770754209699
 30
0.0
 11
63.48671121957229
 21
-3.607085257087194
 31
0.0
  0
LINE
  5
86
330
1F
100
AcDbEntity
  8
0
100
AcDbLine
 10
63.3117580085266
 20
-6.601979473297789
 30
0.0
 11
62.84176790339281
 21
-6.073671565110431
 31
0.0
  0
LINE
  5
87
330
1F
100
AcDbEntity
  8
0
100
AcDbLine
 10
63.76075013506569
 20
1.868379940182396
 30
0.0
 11
63.75661437269695
 21
1.893632440632582
 31
0.0
  0
LINE
  5
88
330
1F
100
AcDbEntity
  8
0
100
AcDbLine
 10
70.08070123721616
 20
6.941465414697454
 30
0.0
 11
70.07922140051323
 21
6.904222127911962
 31
0.0
  0
LINE
  5
89
330
1F
100
AcDbEntity
  8
0
100
AcDbLine
 10
69.9914099791008
 20
7.37607835768274
 30
0.0
 11
70.00176963348221
 21
7.352465634799938
 31
0.0
  0
LINE
  5
8A
330
1F
100
AcDbEntity
  8
0
100
AcDbLine
 10
70.07922140051323
 20
6.904222127911962
 30
0.0
 11
68.68469970541592
 21
-16.96756012778286
 31
0.0
  0
LINE
  5
8B
330
1F
100
AcDbEntity
  8
0
100
AcDbLine
 10
70.07667383231282
 20
7.054631862513641
 30
0.0
 11
70.07945296218827
 21
7.016748455253225
 31
0.0
  0
LINE
  5
8C
330
1F
100
AcDbEntity
  8
0
100
AcDbLine
 10
69.88084197955848
 20
7.562648355134055
 30
0.0
 11
69.9030560195403
 21
7.531835818484337
 31
0.0
  0
LINE
  5
8D
330
1F
100
AcDbEntity
  8
0
100
AcDbLine
 10
63.77651853723211
 20
1.741950525091568
 30
0.0
 11
63.77401773364023
 21
1.767237763703771
 31
0.0
  0
LINE
  5
8E
330
1F
100
AcDbEntity
  8
0
100
AcDbLine
 10
70.04428369557657
 20
7.23075025876175
 30
0.0
 11
70.05087249455033
 21
7.205847541725796
 31
0.0
  0
LINE
  5
8F
330
1F
100
AcDbEntity
  8
0
100
AcDbLine
 10
63.7473585762743
 20
1.944053527088072
 30
0.0
 11
63.74223872257867
 21
1.969209396665185
 31
0.0
  0
LINE
  5
90
330
1F
100
AcDbEntity
  8
0
100
AcDbLine
 10
63.71173826375927
 20
2.094187317588213
 30
0.0
 11
63.70466373970456
 21
2.118978148571533
 31
0.0
  0
LINE
  5
91
330
1F
100
AcDbEntity
  8
0
100
AcDbLine
 10
70.07401016520454
 20
7.079921880823658
 30
0.0
 11
70.07667383231282
 21
7.054631862513641
 31
0.0
  0
LINE
  5
92
330
1F
100
AcDbEntity
  8
0
100
AcDbLine
 10
69.80835643286662
 20
7.648718513568705
 30
0.0
 11
69.83342240764638
 21
7.621133208077018
 31
0.0
  0
LINE
  5
93
330
1F
100
AcDbEntity
  8
0
100
AcDbLine
 10
63.73679129145713
 20
1.994320325807871
 30
0.0
 11
63.73101678293223
 21
2.019379943595944
 31
0.0
  0
LINE
  5
94
330
1F
100
AcDbEntity
  8
0
100
AcDbLine
 10
63.19167432548447
 20
-0.0838831326889709
 30
0.0
 11
63.71998216763388
 21
0.3861070311932622
 31
0.0
  0
LINE
  5
95
330
1F
100
AcDbEntity
  8
0
100
AcDbLine
 10
63.07503885145404
 20
-2.080479276829368
 30
0.0
 11
63.60334669360344
 21
-1.610489112946909
 31
0.0
  0
LINE
  5
96
330
1F
100
AcDbEntity
  8
0
100
AcDbLine
 10
63.78474658273112
 20
1.59068632677514
 30
0.0
 11
63.78328565941145
 21
1.640980005633672
 31
0.0
  0
LINE
  5
97
330
1F
100
AcDbEntity
  8
0
100
AcDbLine
 10
63.545028956588
 20
-2.608787185017063
 30
0.0
 11
63.07503885145404
 21
-2.080479276829368
 31
0.0
  0
LINE
  5
98
330
1F
100
AcDbEntity
  8
0
100
AcDbLine
 10
63.77401773364023
 20
1.767237763703771
 30
0.0
 11
63.77119120301522
 21
1.792530561711555
 31
0.0
  0
LINE
  5
99
330
1F
100
AcDbEntity
  8
0
100
AcDbLine
 10
70.07945296218827
 20
7.016748455253225
 30
0.0
 11
70.08078785506245
 21
6.978999763355518
 31
0.0
  0
LINE
  5
9A
330
1F
100
AcDbEntity
  8
0
100
AcDbLine
 10
69.93097514202125
 20
7.489238975820118
 30
0.0
 11
69.9441651461009
 21
7.467330515348418
 31
0.0
  0
LINE
  5
9B
330
1F
100
AcDbEntity
  8
0
100
AcDbLine
 10
63.42839348255747
 20
-4.605383329157393
 30
0.0
 11
62.95840337742361
 21
-4.0770754209699
 31
0.0
  0
LINE
  5
9C
330
1F
100
AcDbEntity
  8
0
100
AcDbLine
 10
63.37007574554195
 20
-5.603681401227568
 30
0.0
 11
62.90008564040807
 21
-5.075373493040099
 31
0.0
  0
LINE
  5
9D
330
1F
100
AcDbEntity
  8
0
100
AcDbLine
 10
63.78161367363267
 20
1.441131055887688
 30
0.0
 11
63.78389329280427
 21
1.4907166995742
 31
0.0
  0
LINE
  5
9E
330
1F
100
AcDbEntity
  8
0
100
AcDbLine
 10
63.01672111443878
 20
-3.07877734889977
 30
0.0
 11
63.545028956588
 21
-2.608787185017063
 31
0.0
  0
LINE
  5
9F
330
1F
100
AcDbEntity
  8
0
100
AcDbLine
 10
63.73101678293223
 20
2.019379943595944
 30
0.0
 11
63.72491586170689
 21
2.044381883515832
 31
0.0
  0
LINE
  5
A0
330
1F
100
AcDbEntity
  8
0
100
AcDbLine
 10
63.13335658846966
 20
-1.082181204759147
 30
0.0
 11
63.66166443061852
 21
-0.6121910408768236
 31
0.0
  0
LINE
  5
A1
330
1F
100
AcDbEntity
  8
0
100
AcDbLine
 10
63.33838670306535
 20
2.81754604215452
 30
0.0
 11
63.30634211470225
 21
2.856062230077942
 31
0.0
  0
LINE
  5
A2
330
1F
100
AcDbEntity
  8
0
100
AcDbLine
 10
63.49844306732931
 20
2.589354178965134
 30
0.0
 11
63.48512115664818
 21
2.611164751705287
 31
0.0
  0
LINE
  5
A3
330
1F
100
AcDbEntity
  8
0
100
AcDbLine
 10
63.68954985246521
 20
2.16830456508744
 30
0.0
 11
63.68151362239157
 21
2.192827657365949
 31
0.0
  0
LINE
  5
A4
330
1F
100
AcDbEntity
  8
0
100
AcDbLine
 10
63.76455795768803
 20
1.84310792176155
 30
0.0
 11
63.76075013506569
 21
1.868379940182396
 31
0.0
  0
LINE
  5
A5
330
1F
100
AcDbEntity
  8
0
100
AcDbLine
 10
63.71998216763388
 20
0.3861070311932622
 30
0.0
 11
63.24999206250028
 21
0.9144149393812051
 31
0.0
  0
LINE
  5
A6
330
1F
100
AcDbEntity
  8
0
100
AcDbLine
 10
63.74223872257867
 20
1.969209396665185
 30
0.0
 11
63.73679129145713
 21
1.994320325807871
 31
0.0
  0
LINE
  5
A7
330
1F
100
AcDbEntity
  8
0
100
AcDbLine
 10
63.76803815542122
 20
1.817822699721252
 30
0.0
 11
63.76455795768803
 21
1.84310792176155
 31
0.0
  0
LINE
  5
A8
330
1F
100
AcDbEntity
  8
0
100
AcDbLine
 10
63.77829990464968
 20
1.384405103263709
 30
0.0
 11
63.78161367363267
 21
1.441131055887688
 31
0.0
  0
LINE
  5
A9
330
1F
100
AcDbEntity
  8
0
100
AcDbLine
 10
63.64621751122117
 20
2.289842149208305
 30
0.0
 11
63.63661670593866
 21
2.313796012774018
 31
0.0
  0
LINE
  5
AA
330
1F
100
AcDbEntity
  8
0
100
AcDbLine
 10
63.72491586170689
 20
2.044381883515832
 30
0.0
 11
63.71848935726428
 21
2.069319788767865
 31
0.0
  0
LINE
  5
AB
330
1F
100
AcDbEntity
  8
0
100
AcDbLine
 10
63.24999206250028
 20
0.9144149393812051
 30
0.0
 11
63.77829990464968
 21
1.384405103263709
 31
0.0
  0
LINE
  5
AC
330
1F
100
AcDbEntity
  8
0
100
AcDbLine
 10
63.78328565941145
 20
1.640980005633672
 30
0.0
 11
63.78054689572559
 21
1.69141739197787
 31
0.0
  0
LINE
  5
AD
330
1F
100
AcDbEntity
  8
0
100
AcDbLine
 10
63.62671013957011
 20
2.337618069664454
 30
0.0
 11
63.61650055203402
 21
2.361302488772277
 31
0.0
  0
LINE
  5
AE
330
1F
100
AcDbEntity
  8
0
100
AcDbLine
 10
63.68151362239157
 20
2.192827657365949
 30
0.0
 11
63.6731602259223
 21
2.217249075814607
 31
0.0
  0
LINE
  5
AF
330
1F
100
AcDbEntity
  8
0
100
AcDbLine
 10
63.48671121957229
 20
-3.607085257087194
 30
0.0
 11
63.01672111443878
 21
-3.07877734889977
 31
0.0
  0
LINE
  5
B0
330
1F
100
AcDbEntity
  8
0
100
AcDbLine
 10
63.66166443061852
 20
-0.6121910408768236
 30
0.0
 11
63.19167432548447
 21
-0.0838831326889709
 31
0.0
  0
LINE
  5
B1
330
1F
100
AcDbEntity
  8
0
100
AcDbLine
 10
63.61650055203402
 20
2.361302488772277
 30
0.0
 11
63.60599083080797
 21
2.384843515430147
 31
0.0
  0
LINE
  5
B2
330
1F
100
AcDbEntity
  8
0
100
AcDbLine
 10
63.77119120301522
 20
1.792530561711555
 30
0.0
 11
63.76803815542122
 21
1.817822699721252
 31
0.0
  0
LINE
  5
B3
330
1F
100
AcDbEntity
  8
0
100
AcDbLine
 10
63.75661437269695
 20
1.893632440632582
 30
0.0
 11
63.75215051690249
 21
1.918859087112333
 31
0.0
  0
LINE
  5
B4
330
1F
100
AcDbEntity
  8
0
100
AcDbLine
 10
63.60334669360344
 20
-1.610489112946909
 30
0.0
 11
63.13335658846966
 21
-1.082181204759147
 31
0.0
  0
LINE
  5
B5
330
1F
100
AcDbEntity
  8
0
100
AcDbLine
 10
63.78054689572559
 20
1.69141739197787
 30
0.0
 11
63.77651853723211
 21
1.741950525091568
 31
0.0
  0
LINE
  5
B6
330
1F
100
AcDbEntity
  8
0
100
AcDbLine
 10
63.78389329280427
 20
1.4907166995742
 30
0.0
 11
63.78494371169958
 21
1.540583295206113
 31
0.0
  0
LINE
  5
B7
330
1F
100
AcDbEntity
  8
0
100
AcDbLine
 10
63.75215051690249
 20
1.918859087112333
 30
0.0
 11
63.7473585762743
 21
1.944053527088072
 31
0.0
  0
LINE
  5
B8
330
1F
100
AcDbEntity
  8
0
100
AcDbLine
 10
63.6555099655569
 20
2.265762381769546
 30
0.0
 11
63.64621751122117
 21
2.289842149208305
 31
0.0
  0
LINE
  5
B9
330
1F
100
AcDbEntity
  8
0
100
AcDbLine
 10
63.60599083080797
 20
2.384843515430147
 30
0.0
 11
63.59518400825389
 21
2.408235476049544
 31
0.0
  0
LINE
  5
BA
330
1F
100
AcDbEntity
  8
0
100
AcDbLine
 10
63.39989747684994
 20
2.737666078241295
 30
0.0
 11
63.3695854655128
 21
2.778071678207314
 31
0.0
  0
LINE
  5
BB
330
1F
100
AcDbEntity
  8
0
100
AcDbLine
 10
63.57269189576221
 20
2.454549937269469
 30
0.0
 11
63.56101336848388
 21
2.477461536236855
 31
0.0
  0
LINE
  5
BC
330
1F
100
AcDbEntity
  8
0
100
AcDbLine
 10
63.56101336848388
 20
2.477461536236855
 30
0.0
 11
63.54905125867753
 21
2.500202274326128
 31
0.0
  0
LINE
  5
BD
330
1F
100
AcDbEntity
  8
0
100
AcDbLine
 10
62.80671945811394
 20
3.277105201674767
 30
0.0
 11
62.78452792126343
 21
3.290100007169019
 31
0.0
  0
LINE
  5
BE
330
1F
100
AcDbEntity
  8
0
100
AcDbLine
 10
63.70466373970456
 20
2.118978148571533
 30
0.0
 11
63.69726710745147
 21
2.143685985988838
 31
0.0
  0
LINE
  5
BF
330
1F
100
AcDbEntity
  8
0
100
AcDbLine
 10
63.09565430227712
 20
3.068472165916161
 30
0.0
 11
63.0570852028991
 21
3.101088955624355
 31
0.0
  0
LINE
  5
C0
330
1F
100
AcDbEntity
  8
0
100
AcDbLine
 10
62.69399400685429
 20
3.339272090590121
 30
0.0
 11
62.6709452999912
 21
3.350845525315632
 31
0.0
  0
LINE
  5
C1
330
1F
100
AcDbEntity
  8
0
100
AcDbLine
 10
63.42928291168636
 20
2.696358437033861
 30
0.0
 11
63.39989747684994
 21
2.737666078241295
 31
0.0
  0
LINE
  5
C2
330
1F
100
AcDbEntity
  8
0
100
AcDbLine
 10
62.91477269484179
 20
3.208116056327272
 30
0.0
 11
62.89356532139281
 21
3.22243529208185
 31
0.0
  0
LINE
  5
C3
330
1F
100
AcDbEntity
  8
0
100
AcDbLine
 10
62.48145802215749
 20
3.432592100795467
 30
0.0
 11
62.45722359369014
 21
3.441417050780794
 31
0.0
  0
LINE
  5
C4
330
1F
100
AcDbEntity
  8
0
100
AcDbLine
 10
63.54905125867753
 20
2.500202274326128
 30
0.0
 11
63.53680927710079
 21
2.522766948758166
 31
0.0
  0
LINE
  5
C5
330
1F
100
AcDbEntity
  8
0
100
AcDbLine
 10
63.63661670593866
 20
2.313796012774018
 30
0.0
 11
63.62671013957011
 21
2.337618069664454
 31
0.0
  0
LINE
  5
C6
330
1F
100
AcDbEntity
  8
0
100
AcDbLine
 10
63.66449163145536
 20
2.241562680112536
 30
0.0
 11
63.6555099655569
 21
2.265762381769546
 31
0.0
  0
LINE
  5
C7
330
1F
100
AcDbEntity
  8
0
100
AcDbLine
 10
62.95655058281819
 20
3.178726305445288
 30
0.0
 11
62.93576924105656
 21
3.193544873511575
 31
0.0
  0
LINE
  5
C8
330
1F
100
AcDbEntity
  8
0
100
AcDbLine
 10
63.3695854655128
 20
2.778071678207314
 30
0.0
 11
63.33838670306535
 21
2.81754604215452
 31
0.0
  0
LINE
  5
C9
330
1F
100
AcDbEntity
  8
0
100
AcDbLine
 10
63.59518400825389
 20
2.408235476049544
 30
0.0
 11
63.58408325876806
 21
2.431472782650737
 31
0.0
  0
LINE
  5
CA
330
1F
100
AcDbEntity
  8
0
100
AcDbLine
 10
62.43288752829285
 20
3.449925280731029
 30
0.0
 11
62.4084560338624
 21
3.458115103390967
 31
0.0
  0
LINE
  5
CB
330
1F
100
AcDbEntity
  8
0
100
AcDbLine
 10
62.93576924105656
 20
3.193544873511575
 30
0.0
 11
62.91477269484179
 21
3.208116056327272
 31
0.0
  0
LINE
  5
CC
330
1F
100
AcDbEntity
  8
0
100
AcDbLine
 10
63.58408325876806
 20
2.431472782650737
 30
0.0
 11
63.57269189576221
 21
2.454549937269469
 31
0.0
  0
LINE
  5
CD
330
1F
100
AcDbEntity
  8
0
100
AcDbLine
 10
63.30634211470225
 20
2.856062230077942
 30
0.0
 11
63.27349357192471
 21
2.893595598001949
 31
0.0
  0
LINE
  5
CE
330
1F
100
AcDbEntity
  8
0
100
AcDbLine
 10
63.45770319613868
 20
2.654180150781896
 30
0.0
 11
63.44361605559745
 21
2.675376077989655
 31
0.0
  0
LINE
  5
CF
330
1F
100
AcDbEntity
  8
0
100
AcDbLine
 10
63.48512115664818
 20
2.611164751705287
 30
0.0
 11
63.47153973154128
 21
2.632774913177607
 31
0.0
  0
LINE
  5
D0
330
1F
100
AcDbEntity
  8
0
100
AcDbLine
 10
63.44361605559745
 20
2.675376077989655
 30
0.0
 11
63.42928291168636
 21
2.696358437033861
 31
0.0
  0
LINE
  5
D1
330
1F
100
AcDbEntity
  8
0
100
AcDbLine
 10
63.6731602259223
 20
2.217249075814607
 30
0.0
 11
63.66449163145536
 21
2.241562680112536
 31
0.0
  0
LINE
  5
D2
330
1F
100
AcDbEntity
  8
0
100
AcDbLine
 10
63.53680927710079
 20
2.522766948758166
 30
0.0
 11
63.52429125989178
 21
2.54515046305738
 31
0.0
  0
LINE
  5
D3
330
1F
100
AcDbEntity
  8
0
100
AcDbLine
 10
62.76215436377359
 20
3.3028177919196
 30
0.0
 11
62.7396039789631
 21
3.31525479741973
 31
0.0
  0
LINE
  5
D4
330
1F
100
AcDbEntity
  8
0
100
AcDbLine
 10
63.27349357192471
 20
2.893595598001949
 30
0.0
 11
63.23988373833845
 21
2.93012382720271
 31
0.0
  0
LINE
  5
D5
330
1F
100
AcDbEntity
  8
0
100
AcDbLine
 10
62.45722359369014
 20
3.441417050780794
 30
0.0
 11
62.43288752829285
 21
3.449925280731029
 31
0.0
  0
LINE
  5
D6
330
1F
100
AcDbEntity
  8
0
100
AcDbLine
 10
63.51150116480765
 20
2.567347830761615
 30
0.0
 11
63.49844306732931
 21
2.589354178965134
 31
0.0
  0
LINE
  5
D7
330
1F
100
AcDbEntity
  8
0
100
AcDbLine
 10
63.69726710745147
 20
2.143685985988838
 30
0.0
 11
63.68954985246521
 21
2.16830456508744
 31
0.0
  0
LINE
  5
D8
330
1F
100
AcDbEntity
  8
0
100
AcDbLine
 10
62.35933176014664
 20
3.473533588967762
 30
0.0
 11
62.33465155146074
 21
3.480759690798391
 31
0.0
  0
LINE
  5
D9
330
1F
100
AcDbEntity
  8
0
100
AcDbLine
 10
63.23988373833845
 20
2.93012382720271
 30
0.0
 11
63.20537773179041
 21
2.965806707399029
 31
0.0
  0
LINE
  5
DA
330
1F
100
AcDbEntity
  8
0
100
AcDbLine
 10
63.47153973154128
 20
2.632774913177607
 30
0.0
 11
63.45770319613868
 21
2.654180150781896
 31
0.0
  0
LINE
  5
DB
330
1F
100
AcDbEntity
  8
0
100
AcDbLine
 10
63.52429125989178
 20
2.54515046305738
 30
0.0
 11
63.51150116480765
 21
2.567347830761615
 31
0.0
  0
LINE
  5
DC
330
1F
100
AcDbEntity
  8
0
100
AcDbLine
 10
62.8505362304221
 20
3.250300191427344
 30
0.0
 11
62.82872388700724
 21
3.263837260475542
 31
0.0
  0
LINE
  5
DD
330
1F
100
AcDbEntity
  8
0
100
AcDbLine
 10
63.13324203732518
 20
3.035024441757304
 30
0.0
 11
63.09565430227712
 21
3.068472165916161
 31
0.0
  0
LINE
  5
DE
330
1F
100
AcDbEntity
  8
0
100
AcDbLine
 10
62.6709452999912
 20
3.350845525315632
 30
0.0
 11
62.64774151810187
 21
3.362124481280923
 31
0.0
  0
LINE
  5
DF
330
1F
100
AcDbEntity
  8
0
100
AcDbLine
 10
39.85167192187669
 20
3.557766544497689
 30
0.0
 11
-27.19868268551457
 21
3.5577665444977
 31
0.0
  0
LINE
  5
E0
330
1F
100
AcDbEntity
  8
0
100
AcDbLine
 10
-62.30990104433852
 20
3.487662264209498
 30
0.0
 11
-62.33465155146036
 21
3.480759690798504
 31
0.0
  0
LINE
  5
E1
330
1F
100
AcDbEntity
  8
0
100
AcDbLine
 10
62.23529107975683
 20
3.506420927398678
 30
0.0
 11
62.21032274872599
 21
3.512022320378126
 31
0.0
  0
LINE
  5
E2
330
1F
100
AcDbEntity
  8
0
100
AcDbLine
 10
62.89356532139281
 20
3.22243529208185
 30
0.0
 11
62.8721516242736
 21
3.236498121356
 31
0.0
  0
LINE
  5
E3
330
1F
100
AcDbEntity
  8
0
100
AcDbLine
 10
63.16982390055596
 20
3.000788209776581
 30
0.0
 11
63.13324203732518
 21
3.035024441757304
 31
0.0
  0
LINE
  5
E4
330
1F
100
AcDbEntity
  8
0
100
AcDbLine
 10
-62.18531580823904
 20
3.51729746994419
 30
0.0
 11
-62.21032274872606
 21
3.512022320378262
 31
0.0
  0
LINE
  5
E5
330
1F
100
AcDbEntity
  8
0
100
AcDbLine
 10
-62.71688206220814
 20
3.327407395267265
 30
0.0
 11
-62.73960397896307
 21
3.315254797419752
 31
0.0
  0
LINE
  5
E6
330
1F
100
AcDbEntity
  8
0
100
AcDbLine
 10
62.0850281008107
 20
3.535136966129926
 30
0.0
 11
62.03481590253379
 21
3.542105447485978
 31
0.0
  0
LINE
  5
E7
330
1F
100
AcDbEntity
  8
0
100
AcDbLine
 10
62.5772567331592
 20
3.394164454186184
 30
0.0
 11
62.55349004477338
 21
3.404236210970069
 31
0.0
  0
LINE
  5
E8
330
1F
100
AcDbEntity
  8
0
100
AcDbLine
 10
62.82872388700724
 20
3.263837260475542
 30
0.0
 11
62.80671945811394
 21
3.277105201674767
 31
0.0
  0
LINE
  5
E9
330
1F
100
AcDbEntity
  8
0
100
AcDbLine
 10
62.99745079240828
 20
3.148365746264407
 30
0.0
 11
62.97711247204632
 21
3.163665011928921
 31
0.0
  0
LINE
  5
EA
330
1F
100
AcDbEntity
  8
0
100
AcDbLine
 10
62.97711247204632
 20
3.163665011928921
 30
0.0
 11
62.95655058281819
 21
3.178726305445288
 31
0.0
  0
LINE
  5
EB
330
1F
100
AcDbEntity
  8
0
100
AcDbLine
 10
62.52959734410565
 20
3.413999593639755
 30
0.0
 11
62.50558464623357
 21
3.42345227905668
 31
0.0
  0
LINE
  5
EC
330
1F
100
AcDbEntity
  8
0
100
AcDbLine
 10
62.64774151810187
 20
3.362124481280923
 30
0.0
 11
62.62438832258208
 21
3.373105883173331
 31
0.0
  0
LINE
  5
ED
330
1F
100
AcDbEntity
  8
0
100
AcDbLine
 10
63.01756156174971
 20
3.132833350693168
 30
0.0
 11
62.99745079240828
 21
3.148365746264407
 31
0.0
  0
LINE
  5
EE
330
1F
100
AcDbEntity
  8
0
100
AcDbLine
 10
62.55349004477338
 20
3.404236210970069
 30
0.0
 11
62.52959734410565
 21
3.413999593639755
 31
0.0
  0
LINE
  5
EF
330
1F
100
AcDbEntity
  8
0
100
AcDbLine
 10
62.78452792126343
 20
3.290100007169019
 30
0.0
 11
62.76215436377359
 21
3.3028177919196
 31
0.0
  0
LINE
  5
F0
330
1F
100
AcDbEntity
  8
0
100
AcDbLine
 10
62.7396039789631
 20
3.31525479741973
 30
0.0
 11
62.71688206220806
 21
3.327407395267242
 31
0.0
  0
LINE
  5
F1
330
1F
100
AcDbEntity
  8
0
100
AcDbLine
 10
62.62438832258208
 20
3.373105883173331
 30
0.0
 11
62.60089145515311
 21
3.383786801301182
 31
0.0
  0
LINE
  5
F2
330
1F
100
AcDbEntity
  8
0
100
AcDbLine
 10
62.26021446715378
 20
3.500493507088937
 30
0.0
 11
62.23529107975683
 21
3.506420927398678
 31
0.0
  0
LINE
  5
F3
330
1F
100
AcDbEntity
  8
0
100
AcDbLine
 10
62.8721516242736
 20
3.236498121356
 30
0.0
 11
62.8505362304221
 21
3.250300191427344
 31
0.0
  0
LINE
  5
F4
330
1F
100
AcDbEntity
  8
0
100
AcDbLine
 10
61.78501777906323
 20
3.557766544497638
 30
0.0
 11
61.53501781031321
 21
3.557766544497664
 31
0.0
  0
LINE
  5
F5
330
1F
100
AcDbEntity
  8
0
100
AcDbLine
 10
62.60089145515311
 20
3.383786801301182
 30
0.0
 11
62.5772567331592
 21
3.394164454186184
 31
0.0
  0
LINE
  5
F6
330
1F
100
AcDbEntity
  8
0
100
AcDbLine
 10
62.21032274872599
 20
3.512022320378126
 30
0.0
 11
62.18531580823902
 21
3.51729746994428
 31
0.0
  0
LINE
  5
F7
330
1F
100
AcDbEntity
  8
0
100
AcDbLine
 10
61.53501781031321
 20
3.557766544497664
 30
0.0
 11
39.85167192187669
 21
3.557766544497689
 31
0.0
  0
LINE
  5
F8
330
1F
100
AcDbEntity
  8
0
100
AcDbLine
 10
62.50558464623357
 20
3.42345227905668
 30
0.0
 11
62.48145802215749
 21
3.432592100795467
 31
0.0
  0
LINE
  5
F9
330
1F
100
AcDbEntity
  8
0
100
AcDbLine
 10
63.20537773179041
 20
2.965806707399029
 30
0.0
 11
63.16982390055596
 21
3.000788209776581
 31
0.0
  0
LINE
  5
FA
330
1F
100
AcDbEntity
  8
0
100
AcDbLine
 10
62.71688206220806
 20
3.327407395267242
 30
0.0
 11
62.69399400685429
 21
3.339272090590121
 31
0.0
  0
LINE
  5
FB
330
1F
100
AcDbEntity
  8
0
100
AcDbLine
 10
-39.85167192187664
 20
3.557766544497678
 30
0.0
 11
-61.53501781031305
 21
3.557766544497661
 31
0.0
  0
LINE
  5
FC
330
1F
100
AcDbEntity
  8
0
100
AcDbLine
 10
63.0570852028991
 20
3.101088955624355
 30
0.0
 11
63.01756156174971
 21
3.132833350693168
 31
0.0
  0
LINE
  5
FD
330
1F
100
AcDbEntity
  8
0
100
AcDbLine
 10
62.38393535348288
 20
3.465984993570028
 30
0.0
 11
62.35933176014664
 21
3.473533588967762
 31
0.0
  0
LINE
  5
FE
330
1F
100
AcDbEntity
  8
0
100
AcDbLine
 10
61.93450120318726
 20
3.552172395955076
 30
0.0
 11
61.88449494573606
 21
3.555291085232735
 31
0.0
  0
LINE
  5
FF
330
1F
100
AcDbEntity
  8
0
100
AcDbLine
 10
61.83465196761806
 20
3.557150561316896
 30
0.0
 11
61.78501777906323
 21
3.557766544497638
 31
0.0
  0
LINE
  5
100
330
1F
100
AcDbEntity
  8
0
100
AcDbLine
 10
-62.23529107975694
 20
3.506420927398791
 30
0.0
 11
-62.26021446715371
 21
3.500493507088914
 31
0.0
  0
LINE
  5
101
330
1F
100
AcDbEntity
  8
0
100
AcDbLine
 10
-61.98462408180048
 20
3.54778094493483
 30
0.0
 11
-62.03481590253367
 21
3.542105447486113
 31
0.0
  0
LINE
  5
102
330
1F
100
AcDbEntity
  8
0
100
AcDbLine
 10
62.30990104433854
 20
3.487662264209363
 30
0.0
 11
62.2850865696962
 21
3.494240438491967
 31
0.0
  0
LINE
  5
103
330
1F
100
AcDbEntity
  8
0
100
AcDbLine
 10
-62.13521136942674
 20
3.526868984344962
 30
0.0
 11
-62.16027658026108
 21
3.522246322179517
 31
0.0
  0
LINE
  5
104
330
1F
100
AcDbEntity
  8
0
100
AcDbLine
 10
-61.7850177790629
 20
3.557766544497593
 30
0.0
 11
-61.83465196761777
 21
3.557150561316828
 31
0.0
  0
LINE
  5
105
330
1F
100
AcDbEntity
  8
0
100
AcDbLine
 10
-61.83465196761777
 20
3.557150561316828
 30
0.0
 11
-61.88449494573572
 21
3.555291085232599
 31
0.0
  0
LINE
  5
106
330
1F
100
AcDbEntity
  8
0
100
AcDbLine
 10
61.88449494573606
 20
3.555291085232735
 30
0.0
 11
61.83465196761806
 21
3.557150561316896
 31
0.0
  0
LINE
  5
107
330
1F
100
AcDbEntity
  8
0
100
AcDbLine
 10
61.9846240818004
 20
3.547780944935033
 30
0.0
 11
61.93450120318726
 21
3.552172395955076
 31
0.0
  0
LINE
  5
108
330
1F
100
AcDbEntity
  8
0
100
AcDbLine
 10
62.03481590253379
 20
3.542105447485978
 30
0.0
 11
61.9846240818004
 21
3.547780944935033
 31
0.0
  0
LINE
  5
109
330
1F
100
AcDbEntity
  8
0
100
AcDbLine
 10
-62.95655058281817
 20
3.178726305445446
 30
0.0
 11
-62.97711247204612
 21
3.163665011928944
 31
0.0
  0
LINE
  5
10A
330
1F
100
AcDbEntity
  8
0
100
AcDbLine
 10
62.18531580823902
 20
3.51729746994428
 30
0.0
 11
62.16027658026083
 21
3.52224632217936
 31
0.0
  0
LINE
  5
10B
330
1F
100
AcDbEntity
  8
0
100
AcDbLine
 10
-62.28508656969599
 20
3.494240438491944
 30
0.0
 11
-62.30990104433852
 21
3.487662264209498
 31
0.0
  0
LINE
  5
10C
330
1F
100
AcDbEntity
  8
0
100
AcDbLine
 10
-61.53501781031305
 20
3.557766544497661
 30
0.0
 11
-61.7850177790629
 21
3.557766544497593
 31
0.0
  0
LINE
  5
10D
330
1F
100
AcDbEntity
  8
0
100
AcDbLine
 10
-62.26021446715371
 20
3.500493507088914
 30
0.0
 11
-62.28508656969599
 21
3.494240438491944
 31
0.0
  0
LINE
  5
10E
330
1F
100
AcDbEntity
  8
0
100
AcDbLine
 10
62.4084560338624
 20
3.458115103390967
 30
0.0
 11
62.38393535348288
 21
3.465984993570028
 31
0.0
  0
LINE
  5
10F
330
1F
100
AcDbEntity
  8
0
100
AcDbLine
 10
62.2850865696962
 20
3.494240438491967
 30
0.0
 11
62.26021446715378
 21
3.500493507088937
 31
0.0
  0
LINE
  5
110
330
1F
100
AcDbEntity
  8
0
100
AcDbLine
 10
-62.62438832258219
 20
3.373105883173376
 30
0.0
 11
-62.64774151810149
 21
3.362124481280878
 31
0.0
  0
LINE
  5
111
330
1F
100
AcDbEntity
  8
0
100
AcDbLine
 10
-62.21032274872606
 20
3.512022320378262
 30
0.0
 11
-62.23529107975694
 21
3.506420927398791
 31
0.0
  0
LINE
  5
112
330
1F
100
AcDbEntity
  8
0
100
AcDbLine
 10
-62.73960397896307
 20
3.315254797419752
 30
0.0
 11
-62.76215436377329
 21
3.30281779191969
 31
0.0
  0
LINE
  5
113
330
1F
100
AcDbEntity
  8
0
100
AcDbLine
 10
-62.33465155146036
 20
3.480759690798504
 30
0.0
 11
-62.35933176014662
 21
3.473533588967785
 31
0.0
  0
LINE
  5
114
330
1F
100
AcDbEntity
  8
0
100
AcDbLine
 10
-62.11012645798485
 20
3.531165723697884
 30
0.0
 11
-62.13521136942674
 21
3.526868984344962
 31
0.0
  0
LINE
  5
115
330
1F
100
AcDbEntity
  8
0
100
AcDbLine
 10
-62.52959734410535
 20
3.413999593639823
 30
0.0
 11
-62.55349004477318
 21
3.404236210970092
 31
0.0
  0
LINE
  5
116
330
1F
100
AcDbEntity
  8
0
100
AcDbLine
 10
62.13521136942713
 20
3.526868984344826
 30
0.0
 11
62.11012645798497
 21
3.531165723697907
 31
0.0
  0
LINE
  5
117
330
1F
100
AcDbEntity
  8
0
100
AcDbLine
 10
-62.57725673315922
 20
3.394164454186184
 30
0.0
 11
-62.60089145515268
 21
3.383786801301092
 31
0.0
  0
LINE
  5
118
330
1F
100
AcDbEntity
  8
0
100
AcDbLine
 10
-27.19868268551457
 20
3.5577665444977
 30
0.0
 11
-39.85167192187664
 21
3.557766544497678
 31
0.0
  0
LINE
  5
119
330
1F
100
AcDbEntity
  8
0
100
AcDbLine
 10
62.11012645798497
 20
3.531165723697907
 30
0.0
 11
62.0850281008107
 21
3.535136966129926
 31
0.0
  0
LINE
  5
11A
330
1F
100
AcDbEntity
  8
0
100
AcDbLine
 10
62.33465155146074
 20
3.480759690798391
 30
0.0
 11
62.30990104433854
 21
3.487662264209363
 31
0.0
  0
LINE
  5
11B
330
1F
100
AcDbEntity
  8
0
100
AcDbLine
 10
-61.93450120318715
 20
3.552172395954918
 30
0.0
 11
-61.98462408180048
 21
3.54778094493483
 31
0.0
  0
LINE
  5
11C
330
1F
100
AcDbEntity
  8
0
100
AcDbLine
 10
-62.03481590253367
 20
3.542105447486113
 30
0.0
 11
-62.08502810081036
 21
3.535136966130084
 31
0.0
  0
LINE
  5
11D
330
1F
100
AcDbEntity
  8
0
100
AcDbLine
 10
62.16027658026083
 20
3.52224632217936
 30
0.0
 11
62.13521136942713
 21
3.526868984344826
 31
0.0
  0
LINE
  5
11E
330
1F
100
AcDbEntity
  8
0
100
AcDbLine
 10
-62.64774151810149
 20
3.362124481280878
 30
0.0
 11
-62.67094529999135
 21
3.350845525315429
 31
0.0
  0
LINE
  5
11F
330
1F
100
AcDbEntity
  8
0
100
AcDbLine
 10
-62.45722359369007
 20
3.441417050780839
 30
0.0
 11
-62.48145802215711
 21
3.432592100795467
 31
0.0
  0
LINE
  5
120
330
1F
100
AcDbEntity
  8
0
100
AcDbLine
 10
-63.09565430227727
 20
3.068472165916228
 30
0.0
 11
-63.13324203732498
 21
3.03502444175753
 31
0.0
  0
LINE
  5
121
330
1F
100
AcDbEntity
  8
0
100
AcDbLine
 10
-62.76215436377329
 20
3.30281779191969
 30
0.0
 11
-62.78452792126331
 21
3.290100007168906
 31
0.0
  0
LINE
  5
122
330
1F
100
AcDbEntity
  8
0
100
AcDbLine
 10
-62.50558464623327
 20
3.423452279056725
 30
0.0
 11
-62.52959734410535
 21
3.413999593639823
 31
0.0
  0
LINE
  5
123
330
1F
100
AcDbEntity
  8
0
100
AcDbLine
 10
-62.16027658026108
 20
3.522246322179517
 30
0.0
 11
-62.18531580823904
 21
3.51729746994419
 31
0.0
  0
LINE
  5
124
330
1F
100
AcDbEntity
  8
0
100
AcDbLine
 10
-63.39989747684973
 20
2.737666078241385
 30
0.0
 11
-63.4292829116862
 21
2.696358437033906
 31
0.0
  0
LINE
  5
125
330
1F
100
AcDbEntity
  8
0
100
AcDbLine
 10
-62.67094529999135
 20
3.350845525315429
 30
0.0
 11
-62.69399400685408
 21
3.339272090590099
 31
0.0
  0
LINE
  5
126
330
1F
100
AcDbEntity
  8
0
100
AcDbLine
 10
-63.30634211470205
 20
2.856062230077987
 30
0.0
 11
-63.33838670306542
 21
2.81754604215452
 31
0.0
  0
LINE
  5
127
330
1F
100
AcDbEntity
  8
0
100
AcDbLine
 10
-63.67316022592205
 20
2.217249075814585
 30
0.0
 11
-63.68151362239155
 21
2.192827657366017
 31
0.0
  0
LINE
  5
128
330
1F
100
AcDbEntity
  8
0
100
AcDbLine
 10
-63.0175615617495
 20
3.132833350693236
 30
0.0
 11
-63.05708520289898
 21
3.101088955624332
 31
0.0
  0
LINE
  5
129
330
1F
100
AcDbEntity
  8
0
100
AcDbLine
 10
-62.69399400685408
 20
3.339272090590099
 30
0.0
 11
-62.71688206220814
 21
3.327407395267265
 31
0.0
  0
LINE
  5
12A
330
1F
100
AcDbEntity
  8
0
100
AcDbLine
 10
-62.78452792126331
 20
3.290100007168906
 30
0.0
 11
-62.80671945811374
 21
3.277105201674812
 31
0.0
  0
LINE
  5
12B
330
1F
100
AcDbEntity
  8
0
100
AcDbLine
 10
-62.43288752829283
 20
3.449925280731141
 30
0.0
 11
-62.45722359369007
 21
3.441417050780839
 31
0.0
  0
LINE
  5
12C
330
1F
100
AcDbEntity
  8
0
100
AcDbLine
 10
-63.54905125867778
 20
2.500202274326083
 30
0.0
 11
-63.5610133684839
 21
2.47746153623681
 31
0.0
  0
LINE
  5
12D
330
1F
100
AcDbEntity
  8
0
100
AcDbLine
 10
-61.88449494573572
 20
3.555291085232599
 30
0.0
 11
-61.93450120318715
 21
3.552172395954918
 31
0.0
  0
LINE
  5
12E
330
1F
100
AcDbEntity
  8
0
100
AcDbLine
 10
-62.08502810081036
 20
3.535136966130084
 30
0.0
 11
-62.11012645798485
 21
3.531165723697884
 31
0.0
  0
LINE
  5
12F
330
1F
100
AcDbEntity
  8
0
100
AcDbLine
 10
-63.62671013957008
 20
2.337618069664612
 30
0.0
 11
-63.63661670593854
 21
2.31379601277404
 31
0.0
  0
LINE
  5
130
330
1F
100
AcDbEntity
  8
0
100
AcDbLine
 10
-63.4292829116862
 20
2.696358437033906
 30
0.0
 11
-63.44361605559721
 21
2.6753760779897
 31
0.0
  0
LINE
  5
131
330
1F
100
AcDbEntity
  8
0
100
AcDbLine
 10
-62.60089145515268
 20
3.383786801301092
 30
0.0
 11
-62.62438832258219
 21
3.373105883173376
 31
0.0
  0
LINE
  5
132
330
1F
100
AcDbEntity
  8
0
100
AcDbLine
 10
-63.48512115664825
 20
2.61116475170531
 30
0.0
 11
-63.49844306732921
 21
2.589354178965225
 31
0.0
  0
LINE
  5
133
330
1F
100
AcDbEntity
  8
0
100
AcDbLine
 10
-63.45770319613866
 20
2.654180150781986
 30
0.0
 11
-63.4715397315413
 21
2.632774913177607
 31
0.0
  0
LINE
  5
134
330
1F
100
AcDbEntity
  8
0
100
AcDbLine
 10
-63.23988373833824
 20
2.930123827202913
 30
0.0
 11
-63.27349357192477
 21
2.893595598001814
 31
0.0
  0
LINE
  5
135
330
1F
100
AcDbEntity
  8
0
100
AcDbLine
 10
-63.16982390055567
 20
3.000788209776604
 30
0.0
 11
-63.20537773179012
 21
2.965806707398962
 31
0.0
  0
LINE
  5
136
330
1F
100
AcDbEntity
  8
0
100
AcDbLine
 10
-63.4715397315413
 20
2.632774913177607
 30
0.0
 11
-63.48512115664825
 21
2.61116475170531
 31
0.0
  0
LINE
  5
137
330
1F
100
AcDbEntity
  8
0
100
AcDbLine
 10
-63.63661670593854
 20
2.31379601277404
 30
0.0
 11
-63.64621751122092
 21
2.289842149208192
 31
0.0
  0
LINE
  5
138
330
1F
100
AcDbEntity
  8
0
100
AcDbLine
 10
-62.80671945811374
 20
3.277105201674812
 30
0.0
 11
-62.82872388700699
 21
3.263837260475497
 31
0.0
  0
LINE
  5
139
330
1F
100
AcDbEntity
  8
0
100
AcDbLine
 10
-62.99745079240817
 20
3.148365746264385
 30
0.0
 11
-63.0175615617495
 21
3.132833350693236
 31
0.0
  0
LINE
  5
13A
330
1F
100
AcDbEntity
  8
0
100
AcDbLine
 10
-63.44361605559721
 20
2.6753760779897
 30
0.0
 11
-63.45770319613866
 21
2.654180150781986
 31
0.0
  0
LINE
  5
13B
330
1F
100
AcDbEntity
  8
0
100
AcDbLine
 10
-62.97711247204612
 20
3.163665011928944
 30
0.0
 11
-62.99745079240817
 21
3.148365746264385
 31
0.0
  0
LINE
  5
13C
330
1F
100
AcDbEntity
  8
0
100
AcDbLine
 10
-63.65550996555661
 20
2.265762381769568
 30
0.0
 11
-63.66449163145516
 21
2.241562680112469
 31
0.0
  0
LINE
  5
13D
330
1F
100
AcDbEntity
  8
0
100
AcDbLine
 10
-62.38393535348273
 20
3.465984993570096
 30
0.0
 11
-62.40845603386256
 21
3.458115103391035
 31
0.0
  0
LINE
  5
13E
330
1F
100
AcDbEntity
  8
0
100
AcDbLine
 10
-62.40845603386256
 20
3.458115103391035
 30
0.0
 11
-62.43288752829283
 21
3.449925280731141
 31
0.0
  0
LINE
  5
13F
330
1F
100
AcDbEntity
  8
0
100
AcDbLine
 10
-62.48145802215711
 20
3.432592100795467
 30
0.0
 11
-62.50558464623327
 21
3.423452279056725
 31
0.0
  0
LINE
  5
140
330
1F
100
AcDbEntity
  8
0
100
AcDbLine
 10
-62.85053623042189
 20
3.250300191427502
 30
0.0
 11
-62.87215162427326
 21
3.236498121356068
 31
0.0
  0
LINE
  5
141
330
1F
100
AcDbEntity
  8
0
100
AcDbLine
 10
-62.55349004477318
 20
3.404236210970092
 30
0.0
 11
-62.57725673315922
 21
3.394164454186184
 31
0.0
  0
LINE
  5
142
330
1F
100
AcDbEntity
  8
0
100
AcDbLine
 10
-62.8935653213926
 20
3.222435292081692
 30
0.0
 11
-62.91477269484159
 21
3.208116056327205
 31
0.0
  0
LINE
  5
143
330
1F
100
AcDbEntity
  8
0
100
AcDbLine
 10
-62.35933176014662
 20
3.473533588967785
 30
0.0
 11
-62.38393535348273
 21
3.465984993570096
 31
0.0
  0
LINE
  5
144
330
1F
100
AcDbEntity
  8
0
100
AcDbLine
 10
-63.52429125989162
 20
2.54515046305747
 30
0.0
 11
-63.53680927710059
 21
2.522766948758076
 31
0.0
  0
LINE
  5
145
330
1F
100
AcDbEntity
  8
0
100
AcDbLine
 10
-63.57269189576218
 20
2.454549937269469
 30
0.0
 11
-63.58408325876786
 21
2.431472782650669
 31
0.0
  0
LINE
  5
146
330
1F
100
AcDbEntity
  8
0
100
AcDbLine
 10
-62.82872388700699
 20
3.263837260475497
 30
0.0
 11
-62.85053623042189
 21
3.250300191427502
 31
0.0
  0
LINE
  5
147
330
1F
100
AcDbEntity
  8
0
100
AcDbLine
 10
-62.91477269484159
 20
3.208116056327205
 30
0.0
 11
-62.93576924105626
 21
3.193544873511417
 31
0.0
  0
LINE
  5
148
330
1F
100
AcDbEntity
  8
0
100
AcDbLine
 10
-63.76075013506558
 20
1.868379940182374
 30
0.0
 11
-63.76455795768801
 21
1.843107921761708
 31
0.0
  0
LINE
  5
149
330
1F
100
AcDbEntity
  8
0
100
AcDbLine
 10
-63.36958546551251
 20
2.778071678207223
 30
0.0
 11
-63.39989747684973
 21
2.737666078241385
 31
0.0
  0
LINE
  5
14A
330
1F
100
AcDbEntity
  8
0
100
AcDbLine
 10
-63.77119120301538
 20
1.792530561711577
 30
0.0
 11
-63.77401773364025
 21
1.767237763703862
 31
0.0
  0
LINE
  5
14B
330
1F
100
AcDbEntity
  8
0
100
AcDbLine
 10
-63.78161367363256
 20
1.441131055887914
 30
0.0
 11
-63.77829990464939
 21
1.384405103263777
 31
0.0
  0
LINE
  5
14C
330
1F
100
AcDbEntity
  8
0
100
AcDbLine
 10
-62.87215162427326
 20
3.236498121356068
 30
0.0
 11
-62.8935653213926
 21
3.222435292081692
 31
0.0
  0
LINE
  5
14D
330
1F
100
AcDbEntity
  8
0
100
AcDbLine
 10
-63.71173826375924
 20
2.094187317588213
 30
0.0
 11
-63.71848935726444
 21
2.069319788767775
 31
0.0
  0
LINE
  5
14E
330
1F
100
AcDbEntity
  8
0
100
AcDbLine
 10
-63.13324203732498
 20
3.03502444175753
 30
0.0
 11
-63.16982390055567
 21
3.000788209776604
 31
0.0
  0
LINE
  5
14F
330
1F
100
AcDbEntity
  8
0
100
AcDbLine
 10
-63.72491586170668
 20
2.044381883515741
 30
0.0
 11
-63.73101678293185
 21
2.019379943595877
 31
0.0
  0
LINE
  5
150
330
1F
100
AcDbEntity
  8
0
100
AcDbLine
 10
-63.74735857627427
 20
1.944053527088117
 30
0.0
 11
-63.75215051690238
 21
1.918859087112379
 31
0.0
  0
LINE
  5
151
330
1F
100
AcDbEntity
  8
0
100
AcDbLine
 10
-63.78054689572542
 20
1.69141739197787
 30
0.0
 11
-63.78328565941116
 21
1.640980005633694
 31
0.0
  0
LINE
  5
152
330
1F
100
AcDbEntity
  8
0
100
AcDbLine
 10
-63.49844306732921
 20
2.589354178965225
 30
0.0
 11
-63.51150116480741
 21
2.567347830761796
 31
0.0
  0
LINE
  5
153
330
1F
100
AcDbEntity
  8
0
100
AcDbLine
 10
-63.33838670306542
 20
2.81754604215452
 30
0.0
 11
-63.36958546551251
 21
2.778071678207223
 31
0.0
  0
LINE
  5
154
330
1F
100
AcDbEntity
  8
0
100
AcDbLine
 10
-63.76803815542119
 20
1.817822699721252
 30
0.0
 11
-63.77119120301538
 21
1.792530561711577
 31
0.0
  0
LINE
  5
155
330
1F
100
AcDbEntity
  8
0
100
AcDbLine
 10
-63.27349357192477
 20
2.893595598001814
 30
0.0
 11
-63.30634211470205
 21
2.856062230077987
 31
0.0
  0
LINE
  5
156
330
1F
100
AcDbEntity
  8
0
100
AcDbLine
 10
-63.69726710745136
 20
2.143685985988861
 30
0.0
 11
-63.70466373970417
 21
2.1189781485716
 31
0.0
  0
LINE
  5
157
330
1F
100
AcDbEntity
  8
0
100
AcDbLine
 10
-63.78494371169955
 20
1.540583295206113
 30
0.0
 11
-63.78389329280412
 21
1.490716699574358
 31
0.0
  0
LINE
  5
158
330
1F
100
AcDbEntity
  8
0
100
AcDbLine
 10
-63.77401773364025
 20
1.767237763703862
 30
0.0
 11
-63.77651853723205
 21
1.741950525091568
 31
0.0
  0
LINE
  5
159
330
1F
100
AcDbEntity
  8
0
100
AcDbLine
 10
-63.05708520289898
 20
3.101088955624332
 30
0.0
 11
-63.09565430227727
 21
3.068472165916228
 31
0.0
  0
LINE
  5
15A
330
1F
100
AcDbEntity
  8
0
100
AcDbLine
 10
-63.76455795768801
 20
1.843107921761708
 30
0.0
 11
-63.76803815542119
 21
1.817822699721252
 31
0.0
  0
LINE
  5
15B
330
1F
100
AcDbEntity
  8
0
100
AcDbLine
 10
-63.51150116480741
 20
2.567347830761796
 30
0.0
 11
-63.52429125989162
 21
2.54515046305747
 31
0.0
  0
LINE
  5
15C
330
1F
100
AcDbEntity
  8
0
100
AcDbLine
 10
-63.6895498524651
 20
2.168304565087508
 30
0.0
 11
-63.69726710745136
 21
2.143685985988861
 31
0.0
  0
LINE
  5
15D
330
1F
100
AcDbEntity
  8
0
100
AcDbLine
 10
-63.58408325876786
 20
2.431472782650669
 30
0.0
 11
-63.59518400825364
 21
2.408235476049611
 31
0.0
  0
LINE
  5
15E
330
1F
100
AcDbEntity
  8
0
100
AcDbLine
 10
-63.20537773179012
 20
2.965806707398962
 30
0.0
 11
-63.23988373833824
 21
2.930123827202913
 31
0.0
  0
LINE
  5
15F
330
1F
100
AcDbEntity
  8
0
100
AcDbLine
 10
-63.61650055203391
 20
2.361302488772345
 30
0.0
 11
-63.62671013957008
 21
2.337618069664612
 31
0.0
  0
LINE
  5
160
330
1F
100
AcDbEntity
  8
0
100
AcDbLine
 10
-63.7566143726972
 20
1.893632440632831
 30
0.0
 11
-63.76075013506558
 21
1.868379940182374
 31
0.0
  0
LINE
  5
161
330
1F
100
AcDbEntity
  8
0
100
AcDbLine
 10
-63.73679129145697
 20
1.994320325807758
 30
0.0
 11
-63.74223872257847
 21
1.969209396665275
 31
0.0
  0
LINE
  5
162
330
1F
100
AcDbEntity
  8
0
100
AcDbLine
 10
-63.70466373970417
 20
2.1189781485716
 30
0.0
 11
-63.71173826375924
 21
2.094187317588213
 31
0.0
  0
LINE
  5
163
330
1F
100
AcDbEntity
  8
0
100
AcDbLine
 10
-63.5610133684839
 20
2.47746153623681
 30
0.0
 11
-63.57269189576218
 21
2.454549937269469
 31
0.0
  0
LINE
  5
164
330
1F
100
AcDbEntity
  8
0
100
AcDbLine
 10
-62.93576924105626
 20
3.193544873511417
 30
0.0
 11
-62.95655058281817
 21
3.178726305445446
 31
0.0
  0
LINE
  5
165
330
1F
100
AcDbEntity
  8
0
100
AcDbLine
 10
-63.53680927710059
 20
2.522766948758076
 30
0.0
 11
-63.54905125867778
 21
2.500202274326083
 31
0.0
  0
LINE
  5
166
330
1F
100
AcDbEntity
  8
0
100
AcDbLine
 10
-62.90008564040778
 20
-5.075373493040076
 30
0.0
 11
-63.37007574554161
 21
-5.603681401227523
 31
0.0
  0
LINE
  5
167
330
1F
100
AcDbEntity
  8
0
100
AcDbLine
 10
-63.71848935726444
 20
2.069319788767775
 30
0.0
 11
-63.72491586170668
 21
2.044381883515741
 31
0.0
  0
LINE
  5
168
330
1F
100
AcDbEntity
  8
0
100
AcDbLine
 10
-63.77829990464939
 20
1.384405103263777
 30
0.0
 11
-63.24999206250008
 21
0.9144149393812954
 31
0.0
  0
LINE
  5
169
330
1F
100
AcDbEntity
  8
0
100
AcDbLine
 10
-63.78389329280412
 20
1.490716699574358
 30
0.0
 11
-63.78161367363256
 21
1.441131055887914
 31
0.0
  0
LINE
  5
16A
330
1F
100
AcDbEntity
  8
0
100
AcDbLine
 10
-63.78474658273105
 20
1.590686326775095
 30
0.0
 11
-63.78494371169955
 21
1.540583295206113
 31
0.0
  0
LINE
  5
16B
330
1F
100
AcDbEntity
  8
0
100
AcDbLine
 10
-63.37007574554161
 20
-5.603681401227523
 30
0.0
 11
-62.84176790339252
 21
-6.073671565110388
 31
0.0
  0
LINE
  5
16C
330
1F
100
AcDbEntity
  8
0
100
AcDbLine
 10
-63.78328565941116
 20
1.640980005633694
 30
0.0
 11
-63.78474658273105
 21
1.590686326775095
 31
0.0
  0
LINE
  5
16D
330
1F
100
AcDbEntity
  8
0
100
AcDbLine
 10
-63.66449163145516
 20
2.241562680112469
 30
0.0
 11
-63.67316022592205
 21
2.217249075814585
 31
0.0
  0
LINE
  5
16E
330
1F
100
AcDbEntity
  8
0
100
AcDbLine
 10
-63.07503885145393
 20
-2.0804792768293
 30
0.0
 11
-63.54502895658784
 21
-2.608787185017266
 31
0.0
  0
LINE
  5
16F
330
1F
100
AcDbEntity
  8
0
100
AcDbLine
 10
-70.07401016520446
 20
7.079921880824109
 30
0.0
 11
-70.07069354254072
 21
7.105210560849118
 31
0.0
  0
LINE
  5
170
330
1F
100
AcDbEntity
  8
0
100
AcDbLine
 10
-63.68151362239155
 20
2.192827657366017
 30
0.0
 11
-63.6895498524651
 21
2.168304565087508
 31
0.0
  0
LINE
  5
171
330
1F
100
AcDbEntity
  8
0
100
AcDbLine
 10
-63.59518400825364
 20
2.408235476049611
 30
0.0
 11
-63.60599083080768
 21
2.384843515430215
 31
0.0
  0
LINE
  5
172
330
1F
100
AcDbEntity
  8
0
100
AcDbLine
 10
-63.74223872257847
 20
1.969209396665275
 30
0.0
 11
-63.74735857627427
 21
1.944053527088117
 31
0.0
  0
LINE
  5
173
330
1F
100
AcDbEntity
  8
0
100
AcDbLine
 10
-63.48671121957245
 20
-3.607085257087058
 30
0.0
 11
-62.95840337742332
 21
-4.077075420969855
 31
0.0
  0
LINE
  5
174
330
1F
100
AcDbEntity
  8
0
100
AcDbLine
 10
-70.07069354254072
 20
7.105210560849118
 30
0.0
 11
-70.06672175004528
 21
7.130472820284578
 31
0.0
  0
LINE
  5
175
330
1F
100
AcDbEntity
  8
0
100
AcDbLine
 10
-63.64621751122092
 20
2.289842149208192
 30
0.0
 11
-63.65550996555661
 21
2.265762381769568
 31
0.0
  0
LINE
  5
176
330
1F
100
AcDbEntity
  8
0
100
AcDbLine
 10
-63.73101678293185
 20
2.019379943595877
 30
0.0
 11
-63.73679129145697
 21
1.994320325807758
 31
0.0
  0
LINE
  5
177
330
1F
100
AcDbEntity
  8
0
100
AcDbLine
 10
-63.66166443061837
 20
-0.6121910408767559
 30
0.0
 11
-63.13335658846928
 21
-1.082181204759102
 31
0.0
  0
LINE
  5
178
330
1F
100
AcDbEntity
  8
0
100
AcDbLine
 10
-63.60599083080768
 20
2.384843515430215
 30
0.0
 11
-63.61650055203391
 21
2.361302488772345
 31
0.0
  0
LINE
  5
179
330
1F
100
AcDbEntity
  8
0
100
AcDbLine
 10
-63.75215051690238
 20
1.918859087112379
 30
0.0
 11
-63.7566143726972
 21
1.893632440632831
 31
0.0
  0
LINE
  5
17A
330
1F
100
AcDbEntity
  8
0
100
AcDbLine
 10
-70.02917137489268
 20
7.280070428651284
 30
0.0
 11
-70.02066037942448
 21
7.304437940024544
 31
0.0
  0
LINE
  5
17B
330
1F
100
AcDbEntity
  8
0
100
AcDbLine
 10
-63.77651853723205
 20
1.741950525091568
 30
0.0
 11
-63.78054689572542
 21
1.69141739197787
 31
0.0
  0
LINE
  5
17C
330
1F
100
AcDbEntity
  8
0
100
AcDbLine
 10
-70.079452962188
 20
7.016748455253609
 30
0.0
 11
-70.07667383231305
 21
7.054631862514183
 31
0.0
  0
LINE
  5
17D
330
1F
100
AcDbEntity
  8
0
100
AcDbLine
 10
-69.88084197955858
 20
7.562648355134574
 30
0.0
 11
-69.85760791523002
 21
7.592429621045254
 31
0.0
  0
LINE
  5
17E
330
1F
100
AcDbEntity
  8
0
100
AcDbLine
 10
-62.95840337742332
 20
-4.077075420969855
 30
0.0
 11
-63.42839348255709
 21
-4.60538332915737
 31
0.0
  0
LINE
  5
17F
330
1F
100
AcDbEntity
  8
0
100
AcDbLine
 10
-63.60334669360315
 20
-1.610489112946932
 30
0.0
 11
-63.07503885145393
 21
-2.0804792768293
 31
0.0
  0
LINE
  5
180
330
1F
100
AcDbEntity
  8
0
100
AcDbLine
 10
-63.01672111443867
 20
-3.078777348899634
 30
0.0
 11
-63.48671121957245
 21
-3.607085257087058
 31
0.0
  0
LINE
  5
181
330
1F
100
AcDbEntity
  8
0
100
AcDbLine
 10
-70.08070123721575
 20
6.94146541469777
 30
0.0
 11
-70.08078785506245
 21
6.978999763356015
 31
0.0
  0
LINE
  5
182
330
1F
100
AcDbEntity
  8
0
100
AcDbLine
 10
-62.84176790339252
 20
-6.073671565110388
 30
0.0
 11
-63.3117580085263
 21
-6.6019794732977
 31
0.0
  0
LINE
  5
183
330
1F
100
AcDbEntity
  8
0
100
AcDbLine
 10
-63.54502895658784
 20
-2.608787185017266
 30
0.0
 11
-63.01672111443867
 21
-3.078777348899634
 31
0.0
  0
LINE
  5
184
330
1F
100
AcDbEntity
  8
0
100
AcDbLine
 10
-63.19167432548463
 20
-0.0838831326889032
 30
0.0
 11
-63.66166443061837
 21
-0.6121910408767559
 31
0.0
  0
LINE
  5
185
330
1F
100
AcDbEntity
  8
0
100
AcDbLine
 10
-70.06209385183391
 20
7.155683363512582
 30
0.0
 11
-70.05681020942524
 21
7.180816762872076
 31
0.0
  0
LINE
  5
186
330
1F
100
AcDbEntity
  8
0
100
AcDbLine
 10
-69.61368267890857
 20
7.80880669568188
 30
0.0
 11
-69.59177429275454
 21
7.822209200805321
 31
0.0
  0
LINE
  5
187
330
1F
100
AcDbEntity
  8
0
100
AcDbLine
 10
-69.98045619308074
 20
7.399392991293475
 30
0.0
 11
-69.96892124793897
 21
7.422387368086331
 31
0.0
  0
LINE
  5
188
330
1F
100
AcDbEntity
  8
0
100
AcDbLine
 10
-69.59177429275454
 20
7.822209200805321
 30
0.0
 11
-69.56949174558427
 21
7.835065495927894
 31
0.0
  0
LINE
  5
189
330
1F
100
AcDbEntity
  8
0
100
AcDbLine
 10
-63.13335658846928
 20
-1.082181204759102
 30
0.0
 11
-63.60334669360315
 21
-1.610489112946932
 31
0.0
  0
LINE
  5
18A
330
1F
100
AcDbEntity
  8
0
100
AcDbLine
 10
-70.08078785506245
 20
6.978999763356015
 30
0.0
 11
-70.079452962188
 21
7.016748455253609
 31
0.0
  0
LINE
  5
18B
330
1F
100
AcDbEntity
  8
0
100
AcDbLine
 10
-70.0370481174224
 20
7.25549959296248
 30
0.0
 11
-70.02917137489268
 21
7.280070428651284
 31
0.0
  0
LINE
  5
18C
330
1F
100
AcDbEntity
  8
0
100
AcDbLine
 10
-70.06672175004528
 20
7.130472820284578
 30
0.0
 11
-70.06209385183391
 21
7.155683363512582
 31
0.0
  0
LINE
  5
18D
330
1F
100
AcDbEntity
  8
0
100
AcDbLine
 10
-63.24999206250008
 20
0.9144149393812954
 30
0.0
 11
-63.71998216763385
 21
0.3861070311933975
 31
0.0
  0
LINE
  5
18E
330
1F
100
AcDbEntity
  8
0
100
AcDbLine
 10
-70.05681020942524
 20
7.180816762872076
 30
0.0
 11
-70.05087249455016
 21
7.20584754172618
 31
0.0
  0
LINE
  5
18F
330
1F
100
AcDbEntity
  8
0
100
AcDbLine
 10
-63.3117580085263
 20
-6.6019794732977
 30
0.0
 11
-63.36541597568679
 21
-8.998904252595269
 31
0.0
  0
LINE
  5
190
330
1F
100
AcDbEntity
  8
0
100
AcDbLine
 10
-69.38038224043933
 20
7.916649096753267
 30
0.0
 11
-69.35574033942831
 21
7.924036445367403
 31
0.0
  0
LINE
  5
191
330
1F
100
AcDbEntity
  8
0
100
AcDbLine
 10
-69.78227987012649
 20
7.675350543786377
 30
0.0
 11
-69.7550355823599
 21
7.701168820846804
 31
0.0
  0
LINE
  5
192
330
1F
100
AcDbEntity
  8
0
100
AcDbLine
 10
-70.07667383231305
 20
7.054631862514183
 30
0.0
 11
-70.07401016520446
 21
7.079921880824109
 31
0.0
  0
LINE
  5
193
330
1F
100
AcDbEntity
  8
0
100
AcDbLine
 10
-69.52388721369348
 20
7.85907936262573
 30
0.0
 11
-69.50060872498892
 21
7.870209541554625
 31
0.0
  0
LINE
  5
194
330
1F
100
AcDbEntity
  8
0
100
AcDbLine
 10
-69.83342240764593
 20
7.62113320807738
 30
0.0
 11
-69.80835643286662
 21
7.648718513569404
 31
0.0
  0
LINE
  5
195
330
1F
100
AcDbEntity
  8
0
100
AcDbLine
 10
-69.50060872498892
 20
7.870209541554625
 30
0.0
 11
-69.47704293027758
 21
7.880738827061029
 31
0.0
  0
LINE
  5
196
330
1F
100
AcDbEntity
  8
0
100
AcDbLine
 10
-63.42839348255709
 20
-4.60538332915737
 30
0.0
 11
-62.90008564040778
 21
-5.075373493040076
 31
0.0
  0
LINE
  5
197
330
1F
100
AcDbEntity
  8
0
100
AcDbLine
 10
-69.7550355823599
 20
7.701168820846804
 30
0.0
 11
-69.72665996395665
 21
7.726100121622236
 31
0.0
  0
LINE
  5
198
330
1F
100
AcDbEntity
  8
0
100
AcDbLine
 10
-69.95681920224743
 20
7.445040074346817
 30
0.0
 11
-69.94416514610081
 21
7.467330515348846
 31
0.0
  0
LINE
  5
199
330
1F
100
AcDbEntity
  8
0
100
AcDbLine
 10
-69.72665996395665
 20
7.726100121622236
 30
0.0
 11
-69.69719534457224
 21
7.750073275314341
 31
0.0
  0
LINE
  5
19A
330
1F
100
AcDbEntity
  8
0
100
AcDbLine
 10
-69.85760791523002
 20
7.592429621045254
 30
0.0
 11
-69.83342240764593
 21
7.62113320807738
 31
0.0
  0
LINE
  5
19B
330
1F
100
AcDbEntity
  8
0
100
AcDbLine
 10
-70.04428369557625
 20
7.230750258762314
 30
0.0
 11
-70.0370481174224
 21
7.25549959296248
 31
0.0
  0
LINE
  5
19C
330
1F
100
AcDbEntity
  8
0
100
AcDbLine
 10
-69.94416514610081
 20
7.467330515348846
 30
0.0
 11
-69.93097514202117
 21
7.489238975820615
 31
0.0
  0
LINE
  5
19D
330
1F
100
AcDbEntity
  8
0
100
AcDbLine
 10
-67.08092370322991
 20
7.962539872217602
 30
0.0
 11
-39.85167192187664
 21
7.962539872217506
 31
0.0
  0
LINE
  5
19E
330
1F
100
AcDbEntity
  8
0
100
AcDbLine
 10
-69.96892124793897
 20
7.422387368086331
 30
0.0
 11
-69.95681920224743
 21
7.445040074346817
 31
0.0
  0
LINE
  5
19F
330
1F
100
AcDbEntity
  8
0
100
AcDbLine
 10
-69.54685559480183
 20
7.847360297601637
 30
0.0
 11
-69.52388721369348
 21
7.85907936262573
 31
0.0
  0
LINE
  5
1A0
330
1F
100
AcDbEntity
  8
0
100
AcDbLine
 10
-69.11818965071646
 20
7.961845246053209
 30
0.0
 11
-69.08092345322986
 21
7.962539872217467
 31
0.0
  0
LINE
  5
1A1
330
1F
100
AcDbEntity
  8
0
100
AcDbLine
 10
-69.69719534457224
 20
7.750073275314341
 30
0.0
 11
-69.67697079972051
 21
7.765489105932172
 31
0.0
  0
LINE
  5
1A2
330
1F
100
AcDbEntity
  8
0
100
AcDbLine
 10
-69.65629918422557
 20
7.780429036723702
 30
0.0
 11
-69.63519722439402
 21
7.794874246008986
 31
0.0
  0
LINE
  5
1A3
330
1F
100
AcDbEntity
  8
0
100
AcDbLine
 10
-69.93097514202117
 20
7.489238975820615
 30
0.0
 11
-69.91726616176655
 21
7.510746675358997
 31
0.0
  0
LINE
  5
1A4
330
1F
100
AcDbEntity
  8
0
100
AcDbLine
 10
-63.71998216763385
 20
0.3861070311933975
 30
0.0
 11
-63.19167432548463
 21
-0.0838831326889032
 31
0.0
  0
LINE
  5
1A5
330
1F
100
AcDbEntity
  8
0
100
AcDbLine
 10
-69.63519722439402
 20
7.794874246008986
 30
0.0
 11
-69.61368267890857
 21
7.80880669568188
 31
0.0
  0
LINE
  5
1A6
330
1F
100
AcDbEntity
  8
0
100
AcDbLine
 10
-69.30606010357666
 20
7.936867063667445
 30
0.0
 11
-69.2810724678178
 21
7.942305334940381
 31
0.0
  0
LINE
  5
1A7
330
1F
100
AcDbEntity
  8
0
100
AcDbLine
 10
-69.45321323575085
 20
7.890656396787826
 30
0.0
 11
-69.42914357477655
 21
7.899952650365591
 31
0.0
  0
LINE
  5
1A8
330
1F
100
AcDbEntity
  8
0
100
AcDbLine
 10
-69.1932717589849
 20
7.956208758234578
 30
0.0
 11
-69.15566516529188
 21
7.959742797945791
 31
0.0
  0
LINE
  5
1A9
330
1F
100
AcDbEntity
  8
0
100
AcDbLine
 10
-70.01152331930753
 20
7.328577674572247
 30
0.0
 11
-70.00176963348194
 21
7.352465634800367
 31
0.0
  0
LINE
  5
1AA
330
1F
100
AcDbEntity
  8
0
100
AcDbLine
 10
-59.48574529323562
 20
9.874221668860528
 30
0.0
 11
-59.84611598741668
 21
9.924269736933216
 31
0.0
  0
LINE
  5
1AB
330
1F
100
AcDbEntity
  8
0
100
AcDbLine
 10
-70.05087249455016
 20
7.20584754172618
 30
0.0
 11
-70.04428369557625
 21
7.230750258762314
 31
0.0
  0
LINE
  5
1AC
330
1F
100
AcDbEntity
  8
0
100
AcDbLine
 10
-69.90305601954022
 20
7.531835818485059
 30
0.0
 11
-69.88084197955858
 21
7.562648355134574
 31
0.0
  0
LINE
  5
1AD
330
1F
100
AcDbEntity
  8
0
100
AcDbLine
 10
-69.67697079972051
 20
7.765489105932172
 30
0.0
 11
-69.65629918422557
 21
7.780429036723702
 31
0.0
  0
LINE
  5
1AE
330
1F
100
AcDbEntity
  8
0
100
AcDbLine
 10
-62.09154944931282
 20
11.05217316465521
 30
0.0
 11
-62.34685496807403
 21
11.31138534531803
 31
0.0
  0
LINE
  5
1AF
330
1F
100
AcDbEntity
  8
0
100
AcDbLine
 10
-69.91726616176655
 20
7.510746675358997
 30
0.0
 11
-69.90305601954022
 21
7.531835818485059
 31
0.0
  0
LINE
  5
1B0
330
1F
100
AcDbEntity
  8
0
100
AcDbLine
 10
-61.52175355040837
 20
10.60058350331985
 30
0.0
 11
-61.81590005848689
 21
10.81470890808035
 31
0.0
  0
LINE
  5
1B1
330
1F
100
AcDbEntity
  8
0
100
AcDbLine
 10
-69.2810724678178
 20
7.942305334940381
 30
0.0
 11
-69.25602024841159
 21
7.947091092140576
 31
0.0
  0
LINE
  5
1B2
330
1F
100
AcDbEntity
  8
0
100
AcDbLine
 10
-70.00176963348194
 20
7.352465634800367
 30
0.0
 11
-69.99140997910065
 21
7.376078357683236
 31
0.0
  0
LINE
  5
1B3
330
1F
100
AcDbEntity
  8
0
100
AcDbLine
 10
-62.34685496807403
 20
11.31138534531803
 30
0.0
 11
-62.58010615680762
 21
11.59060881883326
 31
0.0
  0
LINE
  5
1B4
330
1F
100
AcDbEntity
  8
0
100
AcDbLine
 10
-69.25602024841159
 20
7.947091092140576
 30
0.0
 11
-69.23092861410355
 21
7.951225083033171
 31
0.0
  0
LINE
  5
1B5
330
1F
100
AcDbEntity
  8
0
100
AcDbLine
 10
-69.08092345322986
 20
7.962539872217467
 30
0.0
 11
-67.08092370322991
 21
7.962539872217602
 31
0.0
  0
LINE
  5
1B6
330
1F
100
AcDbEntity
  8
0
100
AcDbLine
 10
-60.8859626200653
 20
10.24792153820875
 30
0.0
 11
-61.2110806041269
 21
10.41123151593029
 31
0.0
  0
LINE
  5
1B7
330
1F
100
AcDbEntity
  8
0
100
AcDbLine
 10
-60.54857777536353
 20
10.11174769006787
 30
0.0
 11
-60.8859626200653
 21
10.24792153820875
 31
0.0
  0
LINE
  5
1B8
330
1F
100
AcDbEntity
  8
0
100
AcDbLine
 10
-69.42914357477655
 20
7.899952650365591
 30
0.0
 11
-69.40485832784454
 21
7.908619240333462
 31
0.0
  0
LINE
  5
1B9
330
1F
100
AcDbEntity
  8
0
100
AcDbLine
 10
-70.02066037942448
 20
7.304437940024544
 30
0.0
 11
-70.01152331930753
 21
7.328577674572247
 31
0.0
  0
LINE
  5
1BA
330
1F
100
AcDbEntity
  8
0
100
AcDbLine
 10
-69.80835643286662
 20
7.648718513569404
 30
0.0
 11
-69.78227987012649
 21
7.675350543786377
 31
0.0
  0
LINE
  5
1BB
330
1F
100
AcDbEntity
  8
0
100
AcDbLine
 10
-69.3309578485463
 20
7.930776819214033
 30
0.0
 11
-69.30606010357666
 21
7.936867063667445
 31
0.0
  0
LINE
  5
1BC
330
1F
100
AcDbEntity
  8
0
100
AcDbLine
 10
-62.68679444931325
 20
16.65514205896472
 30
0.0
 11
-62.45082707346067
 21
16.96386001744752
 31
0.0
  0
LINE
  5
1BD
330
1F
100
AcDbEntity
  8
0
100
AcDbLine
 10
-62.78974031387275
 20
11.88797288528058
 30
0.0
 11
-62.97435296350657
 21
12.20148530909172
 31
0.0
  0
LINE
  5
1BE
330
1F
100
AcDbEntity
  8
0
100
AcDbLine
 10
-62.58010615680762
 20
11.59060881883326
 30
0.0
 11
-62.78974031387275
 21
11.88797288528058
 31
0.0
  0
LINE
  5
1BF
330
1F
100
AcDbEntity
  8
0
100
AcDbLine
 10
-63.46989571694829
 20
14.48670222615262
 30
0.0
 11
-63.42031467150117
 21
14.87209697649877
 31
0.0
  0
LINE
  5
1C0
330
1F
100
AcDbEntity
  8
0
100
AcDbLine
 10
-69.47704293027758
 20
7.880738827061029
 30
0.0
 11
-69.45321323575085
 21
7.890656396787826
 31
0.0
  0
LINE
  5
1C1
330
1F
100
AcDbEntity
  8
0
100
AcDbLine
 10
-69.35574033942831
 20
7.924036445367403
 30
0.0
 11
-69.3309578485463
 21
7.930776819214033
 31
0.0
  0
LINE
  5
1C2
330
1F
100
AcDbEntity
  8
0
100
AcDbLine
 10
-61.2110806041269
 20
10.41123151593029
 30
0.0
 11
-61.52175355040837
 21
10.60058350331985
 31
0.0
  0
LINE
  5
1C3
330
1F
100
AcDbEntity
  8
0
100
AcDbLine
 10
-63.26374230070886
 20
12.86845941681805
 30
0.0
 11
-63.36658018061418
 21
13.21745260675404
 31
0.0
  0
LINE
  5
1C4
330
1F
100
AcDbEntity
  8
0
100
AcDbLine
 10
-59.84611598741668
 20
9.924269736933216
 30
0.0
 11
-60.20118643085076
 21
10.00362228881256
 31
0.0
  0
LINE
  5
1C5
330
1F
100
AcDbEntity
  8
0
100
AcDbLine
 10
-69.56949174558427
 20
7.835065495927894
 30
0.0
 11
-69.54685559480183
 21
7.847360297601637
 31
0.0
  0
LINE
  5
1C6
330
1F
100
AcDbEntity
  8
0
100
AcDbLine
 10
-63.22138138798456
 20
15.6225776867693
 30
0.0
 11
-63.07354936350468
 21
15.98192860349443
 31
0.0
  0
LINE
  5
1C7
330
1F
100
AcDbEntity
  8
0
100
AcDbLine
 10
-63.13270726532252
 20
12.52904566633355
 30
0.0
 11
-63.26374230070886
 21
12.86845941681805
 31
0.0
  0
LINE
  5
1C8
330
1F
100
AcDbEntity
  8
0
100
AcDbLine
 10
-61.81590005848689
 20
10.81470890808035
 30
0.0
 11
-62.09154944931282
 21
11.05217316465521
 31
0.0
  0
LINE
  5
1C9
330
1F
100
AcDbEntity
  8
0
100
AcDbLine
 10
-69.99140997910065
 20
7.376078357683236
 30
0.0
 11
-69.98045619308074
 21
7.399392991293475
 31
0.0
  0
LINE
  5
1CA
330
1F
100
AcDbEntity
  8
0
100
AcDbLine
 10
61.52175355040868
 20
10.60058350331972
 30
0.0
 11
61.21108060412722
 21
10.41123151592997
 31
0.0
  0
LINE
  5
1CB
330
1F
100
AcDbEntity
  8
0
100
AcDbLine
 10
-63.07354936350468
 20
15.98192860349443
 30
0.0
 11
-62.89489864469628
 21
16.32699570851442
 31
0.0
  0
LINE
  5
1CC
330
1F
100
AcDbEntity
  8
0
100
AcDbLine
 10
-63.42031467150117
 20
14.87209697649877
 30
0.0
 11
-63.33726501148904
 21
15.25168905561037
 31
0.0
  0
LINE
  5
1CD
330
1F
100
AcDbEntity
  8
0
100
AcDbLine
 10
-63.36658018061418
 20
13.21745260675404
 30
0.0
 11
-63.44053192709794
 21
13.57368710344701
 31
0.0
  0
LINE
  5
1CE
330
1F
100
AcDbEntity
  8
0
100
AcDbLine
 10
-63.46989571694829
 20
14.48670222615262
 30
0.0
 11
-63.48510208924215
 21
13.93477625997037
 31
0.0
  0
LINE
  5
1CF
330
1F
100
AcDbEntity
  8
0
100
AcDbLine
 10
60.54857777536376
 20
10.11174769006758
 30
0.0
 11
60.20118643085103
 21
10.00362228881233
 31
0.0
  0
LINE
  5
1D0
330
1F
100
AcDbEntity
  8
0
100
AcDbLine
 10
-39.85167192187664
 20
7.962539872217506
 30
0.0
 11
-59.48574529323562
 21
9.874221668860528
 31
0.0
  0
LINE
  5
1D1
330
1F
100
AcDbEntity
  8
0
100
AcDbLine
 10
63.26374230070913
 20
12.86845941681776
 30
0.0
 11
63.13270726532284
 21
12.52904566633344
 31
0.0
  0
LINE
  5
1D2
330
1F
100
AcDbEntity
  8
0
100
AcDbLine
 10
-69.23092861410355
 20
7.951225083033171
 30
0.0
 11
-69.1932717589849
 21
7.956208758234578
 31
0.0
  0
LINE
  5
1D3
330
1F
100
AcDbEntity
  8
0
100
AcDbLine
 10
-69.15566516529188
 20
7.959742797945791
 30
0.0
 11
-69.11818965071646
 21
7.961845246053209
 31
0.0
  0
LINE
  5
1D4
330
1F
100
AcDbEntity
  8
0
100
AcDbLine
 10
67.50606914232007
 20
-18.50358157481815
 30
0.0
 11
67.8895965964465
 21
-18.34471928191879
 31
0.0
  0
LINE
  5
1D5
330
1F
100
AcDbEntity
  8
0
100
AcDbLine
 10
67.09449348747687
 20
-18.5577665444975
 30
0.0
 11
67.50606914232007
 21
-18.50358157481815
 31
0.0
  0
LINE
  5
1D6
330
1F
100
AcDbEntity
  8
0
100
AcDbLine
 10
62.09154944931313
 20
11.05217316465521
 30
0.0
 11
61.81590005848712
 21
10.81470890808017
 31
0.0
  0
LINE
  5
1D7
330
1F
100
AcDbEntity
  8
0
100
AcDbLine
 10
-61.59475850662091
 20
17.75070109087094
 30
0.0
 11
-61.26728416893372
 21
17.95986113873704
 31
0.0
  0
LINE
  5
1D8
330
1F
100
AcDbEntity
  8
0
100
AcDbLine
 10
-65.5584054111484
 20
-17.37913583407159
 30
0.0
 11
-65.50422044824214
 21
-16.96756012778164
 31
0.0
  0
LINE
  5
1D9
330
1F
100
AcDbEntity
  8
0
100
AcDbLine
 10
63.48510208924247
 20
13.93477625997005
 30
0.0
 11
63.44053192709821
 21
13.57368710344649
 31
0.0
  0
LINE
  5
1DA
330
1F
100
AcDbEntity
  8
0
100
AcDbLine
 10
62.58010615680784
 20
11.59060881883315
 30
0.0
 11
62.34685496807426
 21
11.31138534531783
 31
0.0
  0
LINE
  5
1DB
330
1F
100
AcDbEntity
  8
0
100
AcDbLine
 10
-63.33726501148904
 20
15.25168905561037
 30
0.0
 11
-63.22138138798456
 21
15.6225776867693
 31
0.0
  0
LINE
  5
1DC
330
1F
100
AcDbEntity
  8
0
100
AcDbLine
 10
-67.88952977515049
 20
-18.34471928191746
 30
0.0
 11
-67.50600232102404
 21
-18.50358157481685
 31
0.0
  0
LINE
  5
1DD
330
1F
100
AcDbEntity
  8
0
100
AcDbLine
 10
63.44053192709821
 20
13.57368710344649
 30
0.0
 11
63.36658018061436
 21
13.21745260675375
 31
0.0
  0
LINE
  5
1DE
330
1F
100
AcDbEntity
  8
0
100
AcDbLine
 10
63.49999206250029
 20
14.29830090487057
 30
0.0
 11
63.49999206250038
 21
14.11276654449714
 31
0.0
  0
LINE
  5
1DF
330
1F
100
AcDbEntity
  8
0
100
AcDbLine
 10
-61.26728416893372
 20
17.95986113873704
 30
0.0
 11
-60.92279430171333
 21
18.13962235811086
 31
0.0
  0
LINE
  5
1E0
330
1F
100
AcDbEntity
  8
0
100
AcDbLine
 10
-69.40485832784454
 20
7.908619240333462
 30
0.0
 11
-69.38038224043933
 21
7.916649096753267
 31
0.0
  0
LINE
  5
1E1
330
1F
100
AcDbEntity
  8
0
100
AcDbLine
 10
-62.97435296350657
 20
12.20148530909172
 30
0.0
 11
-63.13270726532252
 21
12.52904566633355
 31
0.0
  0
LINE
  5
1E2
330
1F
100
AcDbEntity
  8
0
100
AcDbLine
 10
-60.20118643085076
 20
10.00362228881256
 30
0.0
 11
-60.54857777536353
 21
10.11174769006787
 31
0.0
  0
LINE
  5
1E3
330
1F
100
AcDbEntity
  8
0
100
AcDbLine
 10
63.36658018061436
 20
13.21745260675375
 30
0.0
 11
63.26374230070913
 21
12.86845941681776
 31
0.0
  0
LINE
  5
1E4
330
1F
100
AcDbEntity
  8
0
100
AcDbLine
 10
-60.92279430171333
 20
18.13962235811086
 30
0.0
 11
-60.56392143667252
 21
18.28861104498562
 31
0.0
  0
LINE
  5
1E5
330
1F
100
AcDbEntity
  8
0
100
AcDbLine
 10
-59.04065286952658
 20
18.55776654449752
 30
0.0
 11
-27.19868268551438
 21
18.55776654449747
 31
0.0
  0
LINE
  5
1E6
330
1F
100
AcDbEntity
  8
0
100
AcDbLine
 10
65.97004788728736
 20
-18.09200586852807
 30
0.0
 11
66.29939037850743
 21
-18.34471928191879
 31
0.0
  0
LINE
  5
1E7
330
1F
100
AcDbEntity
  8
0
100
AcDbLine
 10
-65.78152649130239
 20
-10.24522997269457
 30
0.0
 11
-65.72652649451855
 21
-10.09405465468253
 31
0.0
  0
LINE
  5
1E8
330
1F
100
AcDbEntity
  8
0
100
AcDbLine
 10
-66.29932355721166
 20
-18.34471928191741
 30
0.0
 11
-65.96998106599155
 21
-18.09200586852685
 31
0.0
  0
LINE
  5
1E9
330
1F
100
AcDbEntity
  8
0
100
AcDbLine
 10
-67.09442666618105
 20
-18.5577665444961
 30
0.0
 11
-66.68285101133807
 21
-18.50358157481685
 31
0.0
  0
LINE
  5
1EA
330
1F
100
AcDbEntity
  8
0
100
AcDbLine
 10
-59.42885243385313
 20
18.54078258563614
 30
0.0
 11
-59.04065286952658
 21
18.55776654449752
 31
0.0
  0
LINE
  5
1EB
330
1F
100
AcDbEntity
  8
0
100
AcDbLine
 10
66.29939037850743
 20
-18.34471928191879
 30
0.0
 11
66.68291783263412
 21
-18.50358157481813
 31
0.0
  0
LINE
  5
1EC
330
1F
100
AcDbEntity
  8
0
100
AcDbLine
 10
-59.81408544455515
 20
18.48996049751526
 30
0.0
 11
-59.42885243385313
 21
18.54078258563614
 31
0.0
  0
LINE
  5
1ED
330
1F
100
AcDbEntity
  8
0
100
AcDbLine
 10
-60.1934080178957
 20
18.40568865370204
 30
0.0
 11
-59.81408544455515
 21
18.48996049751526
 31
0.0
  0
LINE
  5
1EE
330
1F
100
AcDbEntity
  8
0
100
AcDbLine
 10
63.13270726532284
 20
12.52904566633344
 30
0.0
 11
62.97435296350693
 21
12.20148530909104
 31
0.0
  0
LINE
  5
1EF
330
1F
100
AcDbEntity
  8
0
100
AcDbLine
 10
60.88596262006552
 20
10.24792153820859
 30
0.0
 11
60.54857777536376
 21
10.11174769006758
 31
0.0
  0
LINE
  5
1F0
330
1F
100
AcDbEntity
  8
0
100
AcDbLine
 10
62.34685496807426
 20
11.31138534531783
 30
0.0
 11
62.09154944931313
 21
11.05217316465521
 31
0.0
  0
LINE
  5
1F1
330
1F
100
AcDbEntity
  8
0
100
AcDbLine
 10
-62.89489864469628
 20
16.32699570851442
 30
0.0
 11
-62.68679444931325
 21
16.65514205896472
 31
0.0
  0
LINE
  5
1F2
330
1F
100
AcDbEntity
  8
0
100
AcDbLine
 10
66.68291783263412
 20
-18.50358157481813
 30
0.0
 11
67.09449348747687
 21
-18.5577665444975
 31
0.0
  0
LINE
  5
1F3
330
1F
100
AcDbEntity
  8
0
100
AcDbLine
 10
62.78974031387307
 20
11.88797288528044
 30
0.0
 11
62.58010615680784
 21
11.59060881883315
 31
0.0
  0
LINE
  5
1F4
330
1F
100
AcDbEntity
  8
0
100
AcDbLine
 10
-27.19868268551438
 20
18.55776654449747
 30
0.0
 11
32.73132853003953
 21
18.5577665444973
 31
0.0
  0
LINE
  5
1F5
330
1F
100
AcDbEntity
  8
0
100
AcDbLine
 10
-63.44053192709794
 20
13.57368710344701
 30
0.0
 11
-63.48510208924215
 21
13.93477625997037
 31
0.0
  0
LINE
  5
1F6
330
1F
100
AcDbEntity
  8
0
100
AcDbLine
 10
-68.68463288412002
 20
-16.96756012778155
 30
0.0
 11
-68.63044792121376
 21
-17.37913583407159
 31
0.0
  0
LINE
  5
1F7
330
1F
100
AcDbEntity
  8
0
100
AcDbLine
 10
-64.71460882647838
 20
-9.114157478959383
 30
0.0
 11
-64.56174373285822
 21
-9.064045259999451
 31
0.0
  0
LINE
  5
1F8
330
1F
100
AcDbEntity
  8
0
100
AcDbLine
 10
-62.18879973882805
 20
17.25079041496105
 30
0.0
 11
-61.9027148127813
 21
17.51374057925917
 31
0.0
  0
LINE
  5
1F9
330
1F
100
AcDbEntity
  8
0
100
AcDbLine
 10
65.55847223244434
 20
-17.3791358340729
 30
0.0
 11
65.71733450548594
 21
-17.76266333614017
 31
0.0
  0
LINE
  5
1FA
330
1F
100
AcDbEntity
  8
0
100
AcDbLine
 10
68.47165246946808
 20
-17.7626633361403
 30
0.0
 11
68.63051474250958
 21
-17.37913583407283
 31
0.0
  0
LINE
  5
1FB
330
1F
100
AcDbEntity
  8
0
100
AcDbLine
 10
65.71733450548594
 20
-17.76266333614017
 30
0.0
 11
65.97004788728736
 21
-18.09200586852807
 31
0.0
  0
LINE
  5
1FC
330
1F
100
AcDbEntity
  8
0
100
AcDbLine
 10
-61.9027148127813
 20
17.51374057925917
 30
0.0
 11
-61.59475850662091
 21
17.75070109087094
 31
0.0
  0
LINE
  5
1FD
330
1F
100
AcDbEntity
  8
0
100
AcDbLine
 10
60.20118643085103
 20
10.00362228881233
 30
0.0
 11
59.84611598741695
 21
9.924269736932832
 31
0.0
  0
LINE
  5
1FE
330
1F
100
AcDbEntity
  8
0
100
AcDbLine
 10
-65.85985393752544
 20
-10.88060803541398
 30
0.0
 11
-65.86196205287236
 21
-10.71975240751406
 31
0.0
  0
LINE
  5
1FF
330
1F
100
AcDbEntity
  8
0
100
AcDbLine
 10
63.49999206250038
 20
14.11276654449714
 30
0.0
 11
63.48510208924247
 21
13.93477625997005
 31
0.0
  0
LINE
  5
200
330
1F
100
AcDbEntity
  8
0
100
AcDbLine
 10
62.97435296350693
 20
12.20148530909104
 30
0.0
 11
62.78974031387307
 21
11.88797288528044
 31
0.0
  0
LINE
  5
201
330
1F
100
AcDbEntity
  8
0
100
AcDbLine
 10
-62.45082707346067
 20
16.96386001744752
 30
0.0
 11
-62.18879973882805
 21
17.25079041496105
 31
0.0
  0
LINE
  5
202
330
1F
100
AcDbEntity
  8
0
100
AcDbLine
 10
-60.56392143667252
 20
18.28861104498562
 30
0.0
 11
-60.1934080178957
 21
18.40568865370204
 31
0.0
  0
LINE
  5
203
330
1F
100
AcDbEntity
  8
0
100
AcDbLine
 10
-64.86231882784591
 20
-9.177881314530827
 30
0.0
 11
-64.71460882647838
 21
-9.114157478959383
 31
0.0
  0
LINE
  5
204
330
1F
100
AcDbEntity
  8
0
100
AcDbLine
 10
68.63051474250958
 20
-17.37913583407283
 30
0.0
 11
68.68469970541592
 21
-16.96756012778286
 31
0.0
  0
LINE
  5
205
330
1F
100
AcDbEntity
  8
0
100
AcDbLine
 10
-65.1374889049344
 20
-9.34397004795371
 30
0.0
 11
-65.00366454988561
 21
-9.254695109157515
 31
0.0
  0
LINE
  5
206
330
1F
100
AcDbEntity
  8
0
100
AcDbLine
 10
61.91218318603304
 20
17.51783409416102
 30
0.0
 11
62.1980818676134
 21
17.25585618687132
 31
0.0
  0
LINE
  5
207
330
1F
100
AcDbEntity
  8
0
100
AcDbLine
 10
-66.68285101133807
 20
-18.50358157481685
 30
0.0
 11
-66.29932355721166
 21
-18.34471928191741
 31
0.0
  0
LINE
  5
208
330
1F
100
AcDbEntity
  8
0
100
AcDbLine
 10
-65.72652649451855
 20
-10.09405465468253
 30
0.0
 11
-65.6580876213497
 21
-9.948469296054276
 31
0.0
  0
LINE
  5
209
330
1F
100
AcDbEntity
  8
0
100
AcDbLine
 10
65.50428726953808
 20
-16.96756012778277
 30
0.0
 11
65.55847223244434
 21
-17.3791358340729
 31
0.0
  0
LINE
  5
20A
330
1F
100
AcDbEntity
  8
0
100
AcDbLine
 10
67.8895965964465
 20
-18.34471928191879
 30
0.0
 11
68.21893908766656
 21
-18.09200586852829
 31
0.0
  0
LINE
  5
20B
330
1F
100
AcDbEntity
  8
0
100
AcDbLine
 10
-65.48323969675204
 20
-9.678780117099235
 30
0.0
 11
-65.3782619895019
 21
-9.556884032650308
 31
0.0
  0
LINE
  5
20C
330
1F
100
AcDbEntity
  8
0
100
AcDbLine
 10
62.46005974215571
 20
16.96995746955361
 30
0.0
 11
62.69612299984861
 21
16.66231380407751
 31
0.0
  0
LINE
  5
20D
330
1F
100
AcDbEntity
  8
0
100
AcDbLine
 10
61.81590005848712
 20
10.81470890808017
 30
0.0
 11
61.52175355040868
 21
10.60058350331972
 31
0.0
  0
LINE
  5
20E
330
1F
100
AcDbEntity
  8
0
100
AcDbLine
 10
-68.63044792121376
 20
-17.37913583407159
 30
0.0
 11
-68.47158564817218
 21
-17.76266333613888
 31
0.0
  0
LINE
  5
20F
330
1F
100
AcDbEntity
  8
0
100
AcDbLine
 10
-68.47158564817218
 20
-17.76266333613888
 30
0.0
 11
-68.21887226637061
 21
-18.09200586852685
 31
0.0
  0
LINE
  5
210
330
1F
100
AcDbEntity
  8
0
100
AcDbLine
 10
69.08092345323013
 20
7.962539872217105
 30
0.0
 11
69.11818965071669
 21
7.961845246053029
 31
0.0
  0
LINE
  5
211
330
1F
100
AcDbEntity
  8
0
100
AcDbLine
 10
-63.36541597568679
 20
-8.998904252595269
 30
0.0
 11
-63.99558577670668
 21
-9.006181805232613
 31
0.0
  0
LINE
  5
212
330
1F
100
AcDbEntity
  8
0
100
AcDbLine
 10
-68.21887226637061
 20
-18.09200586852685
 30
0.0
 11
-67.88952977515049
 21
-18.34471928191746
 31
0.0
  0
LINE
  5
213
330
1F
100
AcDbEntity
  8
0
100
AcDbLine
 10
62.90447505676175
 20
16.33526654449717
 30
0.0
 11
63.08353022793595
 21
15.99130471793458
 31
0.0
  0
LINE
  5
214
330
1F
100
AcDbEntity
  8
0
100
AcDbLine
 10
63.23192579540201
 20
15.6330460815797
 30
0.0
 11
63.34853237928776
 21
15.26321719997786
 31
0.0
  0
LINE
  5
215
330
1F
100
AcDbEntity
  8
0
100
AcDbLine
 10
-65.50422044824214
 20
-16.96756012778164
 30
0.0
 11
-65.85985393752544
 21
-10.88060803541398
 31
0.0
  0
LINE
  5
216
330
1F
100
AcDbEntity
  8
0
100
AcDbLine
 10
69.33095784854616
 20
7.93077681921365
 30
0.0
 11
69.35574033942852
 21
7.924036445366974
 31
0.0
  0
LINE
  5
217
330
1F
100
AcDbEntity
  8
0
100
AcDbLine
 10
69.28107246781762
 20
7.94230533493975
 30
0.0
 11
69.30606010357693
 21
7.936867063667107
 31
0.0
  0
LINE
  5
218
330
1F
100
AcDbEntity
  8
0
100
AcDbLine
 10
-67.50600232102404
 20
-18.50358157481685
 30
0.0
 11
-67.09442666618105
 21
-18.5577665444961
 31
0.0
  0
LINE
  5
219
330
1F
100
AcDbEntity
  8
0
100
AcDbLine
 10
62.69612299984861
 20
16.66231380407751
 30
0.0
 11
62.90447505676175
 21
16.33526654449717
 31
0.0
  0
LINE
  5
21A
330
1F
100
AcDbEntity
  8
0
100
AcDbLine
 10
-65.00366454988561
 20
-9.254695109157515
 30
0.0
 11
-64.86231882784591
 21
-9.177881314530827
 31
0.0
  0
LINE
  5
21B
330
1F
100
AcDbEntity
  8
0
100
AcDbLine
 10
68.21893908766656
 20
-18.09200586852829
 30
0.0
 11
68.47165246946808
 21
-17.7626633361403
 31
0.0
  0
LINE
  5
21C
330
1F
100
AcDbEntity
  8
0
100
AcDbLine
 10
-64.56174373285822
 20
-9.064045259999451
 30
0.0
 11
-63.99558577670668
 21
-9.006181805232613
 31
0.0
  0
LINE
  5
21D
330
1F
100
AcDbEntity
  8
0
100
AcDbLine
 10
-65.6580876213497
 20
-9.948469296054276
 30
0.0
 11
-65.57677012770341
 21
-9.809665691084948
 31
0.0
  0
LINE
  5
21E
330
1F
100
AcDbEntity
  8
0
100
AcDbLine
 10
63.34853237928776
 20
15.26321719997786
 30
0.0
 11
63.43246253308082
 21
14.88463269422642
 31
0.0
  0
LINE
  5
21F
330
1F
100
AcDbEntity
  8
0
100
AcDbLine
 10
62.1980818676134
 20
17.25585618687132
 30
0.0
 11
62.46005974215571
 21
16.96995746955361
 31
0.0
  0
LINE
  5
220
330
1F
100
AcDbEntity
  8
0
100
AcDbLine
 10
-65.8226373694381
 20
-10.40075769515873
 30
0.0
 11
-65.78152649130239
 21
-10.24522997269457
 31
0.0
  0
LINE
  5
221
330
1F
100
AcDbEntity
  8
0
100
AcDbLine
 10
-65.96998106599155
 20
-18.09200586852685
 30
0.0
 11
-65.71726768419003
 21
-17.76266333613888
 31
0.0
  0
LINE
  5
222
330
1F
100
AcDbEntity
  8
0
100
AcDbLine
 10
69.23092861410355
 20
7.951225083032765
 30
0.0
 11
69.25602024841167
 21
7.947091092140102
 31
0.0
  0
LINE
  5
223
330
1F
100
AcDbEntity
  8
0
100
AcDbLine
 10
61.21108060412722
 20
10.41123151592997
 30
0.0
 11
60.88596262006552
 21
10.24792153820859
 31
0.0
  0
LINE
  5
224
330
1F
100
AcDbEntity
  8
0
100
AcDbLine
 10
-65.71726768419003
 20
-17.76266333613888
 30
0.0
 11
-65.5584054111484
 21
-17.37913583407159
 31
0.0
  0
LINE
  5
225
330
1F
100
AcDbEntity
  8
0
100
AcDbLine
 10
-68.68463288412002
 20
-16.96756012778155
 30
0.0
 11
-70.08070123721575
 21
6.94146541469777
 31
0.0
  0
LINE
  5
226
330
1F
100
AcDbEntity
  8
0
100
AcDbLine
 10
60.20544312979989
 20
18.4063068423521
 30
0.0
 11
60.57527196517304
 21
18.28970024389034
 31
0.0
  0
LINE
  5
227
330
1F
100
AcDbEntity
  8
0
100
AcDbLine
 10
69.38038224043964
 20
7.916649096752906
 30
0.0
 11
69.40485832784462
 21
7.908619240332966
 31
0.0
  0
LINE
  5
228
330
1F
100
AcDbEntity
  8
0
100
AcDbLine
 10
-65.26269637692039
 20
-9.44497530632256
 30
0.0
 11
-65.1374889049344
 21
-9.34397004795371
 31
0.0
  0
LINE
  5
229
330
1F
100
AcDbEntity
  8
0
100
AcDbLine
 10
69.45321323575085
 20
7.890656396787442
 30
0.0
 11
69.47704293027762
 21
7.8807388270606
 31
0.0
  0
LINE
  5
22A
330
1F
100
AcDbEntity
  8
0
100
AcDbLine
 10
69.42914357477682
 20
7.89995265036514
 30
0.0
 11
69.45321323575085
 21
7.890656396787442
 31
0.0
  0
LINE
  5
22B
330
1F
100
AcDbEntity
  8
0
100
AcDbLine
 10
-65.3782619895019
 20
-9.556884032650308
 30
0.0
 11
-65.26269637692039
 21
-9.44497530632256
 31
0.0
  0
LINE
  5
22C
330
1F
100
AcDbEntity
  8
0
100
AcDbLine
 10
-65.86196205287236
 20
-10.71975240751406
 30
0.0
 11
-65.84952258609162
 21
-10.5593646373881
 31
0.0
  0
LINE
  5
22D
330
1F
100
AcDbEntity
  8
0
100
AcDbLine
 10
69.19327175898464
 20
7.956208758234104
 30
0.0
 11
69.23092861410355
 21
7.951225083032765
 31
0.0
  0
LINE
  5
22E
330
1F
100
AcDbEntity
  8
0
100
AcDbLine
 10
63.08353022793595
 20
15.99130471793458
 30
0.0
 11
63.23192579540201
 21
15.6330460815797
 31
0.0
  0
LINE
  5
22F
330
1F
100
AcDbEntity
  8
0
100
AcDbLine
 10
59.84611598741695
 20
9.924269736932832
 30
0.0
 11
59.48574529323599
 21
9.87422166886019
 31
0.0
  0
LINE
  5
230
330
1F
100
AcDbEntity
  8
0
100
AcDbLine
 10
63.48307749763235
 20
14.50017382101046
 30
0.0
 11
63.49999206250029
 21
14.29830090487057
 31
0.0
  0
LINE
  5
231
330
1F
100
AcDbEntity
  8
0
100
AcDbLine
 10
-65.84952258609162
 20
-10.5593646373881
 30
0.0
 11
-65.8226373694381
 21
-10.40075769515873
 31
0.0
  0
LINE
  5
232
330
1F
100
AcDbEntity
  8
0
100
AcDbLine
 10
39.85167192187678
 20
7.962539872217517
 30
0.0
 11
67.08092370322987
 21
7.962539872217061
 31
0.0
  0
LINE
  5
233
330
1F
100
AcDbEntity
  8
0
100
AcDbLine
 10
69.11818965071669
 20
7.961845246053029
 30
0.0
 11
69.15566516529205
 21
7.959742797945272
 31
0.0
  0
LINE
  5
234
330
1F
100
AcDbEntity
  8
0
100
AcDbLine
 10
59.05499261812535
 20
18.55776654449716
 30
0.0
 11
59.44239984621279
 21
18.54085197751499
 31
0.0
  0
LINE
  5
235
330
1F
100
AcDbEntity
  8
0
100
AcDbLine
 10
69.25602024841167
 20
7.947091092140102
 30
0.0
 11
69.28107246781762
 21
7.94230533493975
 31
0.0
  0
LINE
  5
236
330
1F
100
AcDbEntity
  8
0
100
AcDbLine
 10
59.48574529323599
 20
9.87422166886019
 30
0.0
 11
39.85167192187678
 21
7.962539872217517
 31
0.0
  0
LINE
  5
237
330
1F
100
AcDbEntity
  8
0
100
AcDbLine
 10
60.93353055674562
 20
18.14130465787512
 30
0.0
 11
61.27749234031278
 21
17.96224946431893
 31
0.0
  0
LINE
  5
238
330
1F
100
AcDbEntity
  8
0
100
AcDbLine
 10
-65.57677012770341
 20
-9.809665691084948
 30
0.0
 11
-65.48323969675204
 21
-9.678780117099235
 31
0.0
  0
LINE
  5
239
330
1F
100
AcDbEntity
  8
0
100
AcDbLine
 10
59.44239984621279
 20
18.54085197751499
 30
0.0
 11
59.82685867137165
 21
18.49023700663649
 31
0.0
  0
LINE
  5
23A
330
1F
100
AcDbEntity
  8
0
100
AcDbLine
 10
60.57527196517304
 20
18.28970024389034
 30
0.0
 11
60.93353055674562
 21
18.14130465787512
 31
0.0
  0
LINE
  5
23B
330
1F
100
AcDbEntity
  8
0
100
AcDbLine
 10
69.78227987012676
 20
7.675350543785948
 30
0.0
 11
69.80835643286662
 21
7.648718513568705
 31
0.0
  0
LINE
  5
23C
330
1F
100
AcDbEntity
  8
0
100
AcDbLine
 10
69.63519722439393
 20
7.794874246008332
 30
0.0
 11
69.65629918422572
 21
7.780429036723138
 31
0.0
  0
LINE
  5
23D
330
1F
100
AcDbEntity
  8
0
100
AcDbLine
 10
67.08092370322987
 20
7.962539872217061
 30
0.0
 11
69.08092345323013
 21
7.962539872217105
 31
0.0
  0
LINE
  5
23E
330
1F
100
AcDbEntity
  8
0
100
AcDbLine
 10
69.15566516529205
 20
7.959742797945272
 30
0.0
 11
69.19327175898464
 21
7.956208758234104
 31
0.0
  0
LINE
  5
23F
330
1F
100
AcDbEntity
  8
0
100
AcDbLine
 10
63.43246253308082
 20
14.88463269422642
 30
0.0
 11
63.48307749763235
 21
14.50017382101046
 31
0.0
  0
LINE
  5
240
330
1F
100
AcDbEntity
  8
0
100
AcDbLine
 10
59.82685867137165
 20
18.49023700663649
 30
0.0
 11
60.20544312979989
 21
18.4063068423521
 31
0.0
  0
LINE
  5
241
330
1F
100
AcDbEntity
  8
0
100
AcDbLine
 10
61.60453955901217
 20
17.75389738136153
 30
0.0
 11
61.91218318603304
 21
17.51783409416102
 31
0.0
  0
LINE
  5
242
330
1F
100
AcDbEntity
  8
0
100
AcDbLine
 10
69.35574033942852
 20
7.924036445366974
 30
0.0
 11
69.38038224043964
 21
7.916649096752906
 31
0.0
  0
LINE
  5
243
330
1F
100
AcDbEntity
  8
0
100
AcDbLine
 10
69.75503558236016
 20
7.70116882084633
 30
0.0
 11
69.78227987012676
 21
7.675350543785948
 31
0.0
  0
LINE
  5
244
330
1F
100
AcDbEntity
  8
0
100
AcDbLine
 10
69.65629918422572
 20
7.780429036723138
 30
0.0
 11
69.67697079972069
 21
7.765489105931788
 31
0.0
  0
LINE
  5
245
330
1F
100
AcDbEntity
  8
0
100
AcDbLine
 10
69.5006087249891
 20
7.870209541554151
 30
0.0
 11
69.52388721369371
 21
7.859079362625256
 31
0.0
  0
LINE
  5
246
330
1F
100
AcDbEntity
  8
0
100
AcDbLine
 10
65.13750002697222
 20
-9.343966627046028
 30
0.0
 11
65.0036760885143
 21
-9.25469254974039
 31
0.0
  0
LINE
  5
247
330
1F
100
AcDbEntity
  8
0
100
AcDbLine
 10
64.86233089488888
 20
-9.177879509800759
 30
0.0
 11
64.71462151757055
 21
-9.114156309488465
 31
0.0
  0
LINE
  5
248
330
1F
100
AcDbEntity
  8
0
100
AcDbLine
 10
65.85987058311174
 20
-10.88059320196961
 30
0.0
 11
65.50428726953808
 21
-16.96756012778277
 31
0.0
  0
LINE
  5
249
330
1F
100
AcDbEntity
  8
0
100
AcDbLine
 10
69.5468555948021
 20
7.847360297601298
 30
0.0
 11
69.56949174558446
 21
7.835065495927466
 31
0.0
  0
LINE
  5
24A
330
1F
100
AcDbEntity
  8
0
100
AcDbLine
 10
69.56949174558446
 20
7.835065495927466
 30
0.0
 11
69.59177429275472
 21
7.822209200805072
 31
0.0
  0
LINE
  5
24B
330
1F
100
AcDbEntity
  8
0
100
AcDbLine
 10
65.2627072088324
 20
-9.44497093166603
 30
0.0
 11
65.13750002697222
 21
-9.343966627046028
 31
0.0
  0
LINE
  5
24C
330
1F
100
AcDbEntity
  8
0
100
AcDbLine
 10
64.71462151757055
 20
-9.114156309488465
 30
0.0
 11
64.3117571261289
 21
-9.064044595811302
 31
0.0
  0
LINE
  5
24D
330
1F
100
AcDbEntity
  8
0
100
AcDbLine
 10
69.61368267890866
 20
7.808806695681316
 30
0.0
 11
69.63519722439393
 21
7.794874246008332
 31
0.0
  0
LINE
  5
24E
330
1F
100
AcDbEntity
  8
0
100
AcDbLine
 10
69.40485832784462
 20
7.908619240332966
 30
0.0
 11
69.42914357477682
 21
7.89995265036514
 31
0.0
  0
LINE
  5
24F
330
1F
100
AcDbEntity
  8
0
100
AcDbLine
 10
65.86197738073005
 20
-10.71973838151651
 30
0.0
 11
65.84953674905957
 21
-10.55935152885927
 31
0.0
  0
LINE
  5
250
330
1F
100
AcDbEntity
  8
0
100
AcDbLine
 10
69.67697079972069
 20
7.765489105931788
 30
0.0
 11
69.69719534457242
 21
7.750073275313889
 31
0.0
  0
LINE
  5
251
330
1F
100
AcDbEntity
  8
0
100
AcDbLine
 10
69.69719534457242
 20
7.750073275313889
 30
0.0
 11
69.72665996395686
 21
7.726100121621965
 31
0.0
  0
LINE
  5
252
330
1F
100
AcDbEntity
  8
0
100
AcDbLine
 10
69.47704293027762
 20
7.8807388270606
 30
0.0
 11
69.5006087249891
 21
7.870209541554151
 31
0.0
  0
LINE
  5
253
330
1F
100
AcDbEntity
  8
0
100
AcDbLine
 10
69.30606010357693
 20
7.936867063667107
 30
0.0
 11
69.33095784854616
 21
7.93077681921365
 31
0.0
  0
LINE
  5
254
330
1F
100
AcDbEntity
  8
0
100
AcDbLine
 10
64.3117571261289
 20
-9.064044595811302
 30
0.0
 11
63.36541597568718
 21
-8.998904252595244
 31
0.0
  0
LINE
  5
255
330
1F
100
AcDbEntity
  8
0
100
AcDbLine
 10
65.85987058311174
 20
-10.88059320196961
 30
0.0
 11
65.86197738073005
 21
-10.71973838151651
 31
0.0
  0
LINE
  5
256
330
1F
100
AcDbEntity
  8
0
100
AcDbLine
 10
65.37827267063646
 20
-9.556878628271555
 30
0.0
 11
65.2627072088324
 21
-9.44497093166603
 31
0.0
  0
LINE
  5
257
330
1F
100
AcDbEntity
  8
0
100
AcDbLine
 10
65.7265381520736
 20
-10.0940447463666
 30
0.0
 11
65.65809878483782
 21
-9.948460531213351
 31
0.0
  0
LINE
  5
258
330
1F
100
AcDbEntity
  8
0
100
AcDbLine
 10
65.7815388144418
 20
-10.24521894470464
 30
0.0
 11
65.7265381520736
 21
-10.0940447463666
 31
0.0
  0
LINE
  5
259
330
1F
100
AcDbEntity
  8
0
100
AcDbLine
 10
65.65809878483782
 20
-9.948460531213351
 30
0.0
 11
65.57678096694305
 21
-9.809658071941362
 31
0.0
  0
LINE
  5
25A
330
1F
100
AcDbEntity
  8
0
100
AcDbLine
 10
65.0036760885143
 20
-9.25469254974039
 30
0.0
 11
64.86233089488888
 21
-9.177879509800759
 31
0.0
  0
LINE
  5
25B
330
1F
100
AcDbEntity
  8
0
100
AcDbLine
 10
61.27749234031278
 20
17.96224946431893
 30
0.0
 11
61.60453955901217
 21
17.75389738136153
 31
0.0
  0
LINE
  5
25C
330
1F
100
AcDbEntity
  8
0
100
AcDbLine
 10
69.72665996395686
 20
7.726100121621965
 30
0.0
 11
69.75503558236016
 21
7.70116882084633
 31
0.0
  0
LINE
  5
25D
330
1F
100
AcDbEntity
  8
0
100
AcDbLine
 10
65.57678096694305
 20
-9.809658071941362
 30
0.0
 11
65.48325037739093
 21
-9.678773624845906
 31
0.0
  0
LINE
  5
25E
330
1F
100
AcDbEntity
  8
0
100
AcDbLine
 10
65.82265052884685
 20
-10.40074559314948
 30
0.0
 11
65.7815388144418
 21
-10.24521894470464
 31
0.0
  0
LINE
  5
25F
330
1F
100
AcDbEntity
  8
0
100
AcDbLine
 10
65.84953674905957
 20
-10.55935152885927
 30
0.0
 11
65.82265052884685
 21
-10.40074559314948
 31
0.0
  0
LINE
  5
260
330
1F
100
AcDbEntity
  8
0
100
AcDbLine
 10
69.59177429275472
 20
7.822209200805072
 30
0.0
 11
69.61368267890866
 21
7.808806695681316
 31
0.0
  0
LINE
  5
261
330
1F
100
AcDbEntity
  8
0
100
AcDbLine
 10
65.48325037739093
 20
-9.678773624845906
 30
0.0
 11
65.37827267063646
 21
-9.556878628271555
 31
0.0
  0
LINE
  5
262
330
1F
100
AcDbEntity
  8
0
100
AcDbLine
 10
45.10369043983467
 20
18.48961819707538
 30
0.0
 11
44.8559616653095
 21
18.40552560951982
 31
0.0
  0
LINE
  5
263
330
1F
100
AcDbEntity
  8
0
100
AcDbLine
 10
33.94885138805711
 20
18.14447322507968
 30
0.0
 11
34.14554209241272
 21
17.97198010687031
 31
0.0
  0
LINE
  5
264
330
1F
100
AcDbEntity
  8
0
100
AcDbLine
 10
32.73132853003953
 20
18.5577665444973
 30
0.0
 11
33.2489666202446
 21
18.48961819707538
 31
0.0
  0
LINE
  5
265
330
1F
100
AcDbEntity
  8
0
100
AcDbLine
 10
33.73132853003967
 20
18.28981735206617
 30
0.0
 11
33.94885138805711
 21
18.14447322507968
 31
0.0
  0
LINE
  5
266
330
1F
100
AcDbEntity
  8
0
100
AcDbLine
 10
34.66318018261779
 20
17.07540463470228
 30
0.0
 11
34.73132853003962
 21
16.55776654449731
 31
0.0
  0
LINE
  5
267
330
1F
100
AcDbEntity
  8
0
100
AcDbLine
 10
43.62132853003965
 20
16.55776654449721
 30
0.0
 11
34.73132853003962
 21
16.55776654449731
 31
0.0
  0
LINE
  5
268
330
1F
100
AcDbEntity
  8
0
100
AcDbLine
 10
33.49669539476977
 20
18.40552560951991
 30
0.0
 11
33.73132853003967
 21
18.28981735206617
 31
0.0
  0
LINE
  5
269
330
1F
100
AcDbEntity
  8
0
100
AcDbLine
 10
34.57908759506213
 20
17.3231334092275
 30
0.0
 11
34.66318018261779
 21
17.07540463470228
 31
0.0
  0
LINE
  5
26A
330
1F
100
AcDbEntity
  8
0
100
AcDbLine
 10
45.62132853003965
 20
18.55776654449721
 30
0.0
 11
45.10369043983467
 21
18.48961819707538
 31
0.0
  0
LINE
  5
26B
330
1F
100
AcDbEntity
  8
0
100
AcDbLine
 10
44.40380567202216
 20
18.14447322507968
 30
0.0
 11
44.20711496766656
 21
17.9719801068704
 31
0.0
  0
LINE
  5
26C
330
1F
100
AcDbEntity
  8
0
100
AcDbLine
 10
44.6213285300397
 20
18.28981735206635
 30
0.0
 11
44.40380567202216
 21
18.14447322507968
 31
0.0
  0
LINE
  5
26D
330
1F
100
AcDbEntity
  8
0
100
AcDbLine
 10
43.77356946501714
 20
17.32313340922745
 30
0.0
 11
43.68947687746157
 21
17.07540463470246
 31
0.0
  0
LINE
  5
26E
330
1F
100
AcDbEntity
  8
0
100
AcDbLine
 10
44.20711496766656
 20
17.9719801068704
 30
0.0
 11
44.03462184945719
 21
17.77528940251462
 31
0.0
  0
LINE
  5
26F
330
1F
100
AcDbEntity
  8
0
100
AcDbLine
 10
34.14554209241272
 20
17.97198010687031
 30
0.0
 11
34.31803521062217
 21
17.77528940251462
 31
0.0
  0
LINE
  5
270
330
1F
100
AcDbEntity
  8
0
100
AcDbLine
 10
44.8559616653095
 20
18.40552560951982
 30
0.0
 11
44.6213285300397
 21
18.28981735206635
 31
0.0
  0
LINE
  5
271
330
1F
100
AcDbEntity
  8
0
100
AcDbLine
 10
34.31803521062217
 20
17.77528940251462
 30
0.0
 11
34.46337933760849
 21
17.55776654449721
 31
0.0
  0
LINE
  5
272
330
1F
100
AcDbEntity
  8
0
100
AcDbLine
 10
44.03462184945719
 20
17.77528940251462
 30
0.0
 11
43.88927772247079
 21
17.55776654449748
 31
0.0
  0
LINE
  5
273
330
1F
100
AcDbEntity
  8
0
100
AcDbLine
 10
33.2489666202446
 20
18.48961819707538
 30
0.0
 11
33.49669539476977
 21
18.40552560951991
 31
0.0
  0
LINE
  5
274
330
1F
100
AcDbEntity
  8
0
100
AcDbLine
 10
34.46337933760849
 20
17.55776654449721
 30
0.0
 11
34.57908759506213
 21
17.3231334092275
 31
0.0
  0
LINE
  5
275
330
1F
100
AcDbEntity
  8
0
100
AcDbLine
 10
43.88927772247079
 20
17.55776654449748
 30
0.0
 11
43.77356946501714
 21
17.32313340922745
 31
0.0
  0
LINE
  5
276
330
1F
100
AcDbEntity
  8
0
100
AcDbLine
 10
43.68947687746157
 20
17.07540463470246
 30
0.0
 11
43.62132853003965
 21
16.55776654449721
 31
0.0
  0
LINE
  5
277
330
1F
100
AcDbEntity
  8
0
100
AcDbLine
 10
45.62132853003965
 20
18.55776654449721
 30
0.0
 11
59.05499261812535
 21
18.55776654449716
 31
0.0
  0
ENDSEC
  0
SECTION
  2
OBJECTS
  0
DICTIONARY
  5
C
330
0
100
AcDbDictionary
  3
ACAD_GROUP
350
D
  3
ACAD_LAYOUT
350
1A
  3
ACAD_MATERIAL
350
43
  3
ACAD_MLEADERSTYLE
350
29A
  3
ACAD_MLINESTYLE
350
17
  3
ACAD_PLOTSETTINGS
350
19
  3
ACAD_SCALELIST
350
47
  3
ACAD_VISUALSTYLE
350
2A
  3
ACDBHEADERROUNDTRIPXREC
350
278
  3
ACDBVARIABLEDICTIONARY
350
298
  0
DICTIONARY
  5
29F
330
8
100
AcDbDictionary
280
     1
  3
ACAD_XREC_ROUNDTRIP
360
2A0
  0
DICTIONARY
  5
D
102
{ACAD_REACTORS
330
C
102
}
330
C
100
AcDbDictionary
  0
DICTIONARY
  5
1A
102
{ACAD_REACTORS
330
C
102
}
330
C
100
AcDbDictionary
  0
DICTIONARY
  5
43
102
{ACAD_REACTORS
330
C
102
}
330
C
100
AcDbDictionary
  3
BYBLOCK
350
45
  3
BYLAYER
350
44
  3
GLOBAL
350
46
  0
DICTIONARY
  5
29A
102
{ACAD_REACTORS
330
C
102
}
330
C
100
AcDbDictionary
  0
DICTIONARY
  5
17
102
{ACAD_REACTORS
330
C
102
}
330
C
100
AcDbDictionary
  3
STANDARD
350
18
  0
DICTIONARY
  5
19
102
{ACAD_REACTORS
330
C
102
}
330
C
100
AcDbDictionary
  0
DICTIONARY
  5
47
102
{ACAD_REACTORS
330
C
102
}
330
C
100
AcDbDictionary
  3
A0
350
48
  3
A1
350
49
  3
A2
350
4A
  3
A3
350
4B
  3
A4
350
4C
  3
A5
350
4D
  3
A6
350
4E
  3
A7
350
4F
  3
A8
350
50
  3
A9
350
51
  3
B0
350
52
  3
B1
350
53
  3
B2
350
54
  3
B3
350
55
  3
B4
350
56
  3
B5
350
57
  3
B6
350
58
  3
B7
350
59
  3
B8
350
5A
  3
B9
350
5B
  3
C0
350
5C
  3
C1
350
5D
  3
C2
350
5E
  3
C3
350
5F
  3
C4
350
60
  3
C5
350
61
  3
C6
350
62
  3
C7
350
63
  3
C8
350
64
  3
C9
350
65
  3
D0
350
66
  3
D1
350
67
  3
D2
350
68
  0
DICTIONARY
  5
2A
102
{ACAD_REACTORS
330
C
102
}
330
C
100
AcDbDictionary
  3
2DWIREFRAME
350
2F
  3
BASIC
350
32
  3
BRIGHTEN
350
36
  3
COLORCHANGE
350
3A
  3
CONCEPTUAL
350
34
  3
DIM
350
35
  3
EDGECOLOROFF
350
3D
  3
FACEPATTERN
350
39
  3
FLAT
350
2B
  3
FLATWITHEDGES
350
2C
  3
GOURAUD
350
2D
  3
GOURAUDWITHEDGES
350
2E
  3
HIDDEN
350
31
  3
JITTEROFF
350
3B
  3
LINEPATTERN
350
38
  3
OVERHANGOFF
350
3C
  3
REALISTIC
350
33
  3
SHADED
350
42
  3
SHADED_WITH_EDGES
350
41
  3
SHADES_OF_GRAY
350
3E
  3
SKETCHY
350
3F
  3
THICKEN
350
37
  3
WIREFRAME
350
30
  3
X-RAY
350
40
  0
DICTIONARY
  5
278
102
{ACAD_REACTORS
330
C
102
}
330
C
100
AcDbDictionary
  3
CEPSNTYPE
350
281
  3
DIMSTYLEDATA
350
297
  3
FINGERPRINTGUID
350
282
  3
HYPERLINKBASE
350
27B
  3
INSUNITS
350
280
  3
LAYOUTDICT
350
27D
  3
LWETCUNION
350
27F
  3
PLOTSETDICT
350
27E
  3
PSVPSCALE
350
284
  3
PUCSBASE
350
287
  3
PUCSORGBACK
350
28D
  3
PUCSORGBOTTOM
350
289
  3
PUCSORGFRONT
350
28C
  3
PUCSORGLEFT
350
28A
  3
PUCSORGRIGHT
350
28B
  3
PUCSORGTOP
350
288
  3
PUCSORTHOREF
350
285
  3
PUCSORTHOVIEW
350
286
  3
STYLESHEET
350
27C
  3
TSTACKALIGN
350
279
  3
TSTACKSIZE
350
27A
  3
UCSBASE
350
290
  3
UCSORGBACK
350
296
  3
UCSORGBOTTOM
350
292
  3
UCSORGFRONT
350
295
  3
UCSORGLEFT
350
293
  3
UCSORGRIGHT
350
294
  3
UCSORGTOP
350
291
  3
UCSORTHOREF
350
28E
  3
UCSORTHOVIEW
350
28F
  3
VERSIONGUID
350
283
  0
DICTIONARY
  5
298
102
{ACAD_REACTORS
330
C
102
}
330
C
100
AcDbDictionary
  3
CANNOSCALE
350
2A1
  3
DIMASSOC
350
29D
  3
HIDETEXT
350
29E
  3
MSLTSCALE
350
2A2
  0
XRECORD
  5
2A0
102
{ACAD_REACTORS
330
29F
102
}
330
29F
100
AcDbXrecord
102
VTR_0.000_0.000_1.000_1.000_GRIDDISPLAY
 70
     3
102
VTR_0.000_0.000_1.000_1.000_GRIDMAJOR
 70
     5
102
VTR_0.000_0.000_1.000_1.000_DEFAULTLIGHTING
280
     1
102
VTR_0.000_0.000_1.000_1.000_DEFAULTLIGHTINGTYPE
 70
     1
102
VTR_0.000_0.000_1.000_1.000_BRIGHTNESS
141
0.0
102
VTR_0.000_0.000_1.000_1.000_CONTRAST
142
0.0
  0
MATERIAL
  5
45
102
{ACAD_REACTORS
330
43
102
}
102
{ACAD_XDICTIONARY
360
2A5
102
}
330
43
100
AcDbMaterial
  1
BYBLOCK
  0
MATERIAL
  5
44
102
{ACAD_REACTORS
330
43
102
}
102
{ACAD_XDICTIONARY
360
2A3
102
}
330
43
100
AcDbMaterial
  1
BYLAYER
  0
MATERIAL
  5
46
102
{ACAD_REACTORS
330
43
102
}
102
{ACAD_XDICTIONARY
360
2A7
102
}
330
43
100
AcDbMaterial
  1
GLOBAL
  0
MLINESTYLE
  5
18
102
{ACAD_REACTORS
330
17
102
}
330
17
100
AcDbMlineStyle
  2
Standard
 70
     0
  3

 62
   256
 51
90.0
 52
90.0
 71
     2
 49
0.5
 62
   256
  6
BYLAYER
 49
-0.5
 62
   256
  6
BYLAYER
  0
ACAD_PROXY_OBJECT
  5
48
102
{ACAD_REACTORS
330
47
102
}
330
47
100
AcDbProxyObject
 90
      499
 91
      503
 93
       41
310
903313A31580
  0
ACAD_PROXY_OBJECT
  5
49
102
{ACAD_REACTORS
330
47
102
}
330
47
100
AcDbProxyObject
 90
      499
 91
      503
 93
      105
310
903313A324000000000000004000
  0
ACAD_PROXY_OBJECT
  5
4A
102
{ACAD_REACTORS
330
47
102
}
330
47
100
AcDbProxyObject
 90
      499
 91
      503
 93
      105
310
903313A344000000000000104000
  0
ACAD_PROXY_OBJECT
  5
4B
102
{ACAD_REACTORS
330
47
102
}
330
47
100
AcDbProxyObject
 90
      499
 91
      503
 93
      105
310
903313A354000000000000144000
  0
ACAD_PROXY_OBJECT
  5
4C
102
{ACAD_REACTORS
330
47
102
}
330
47
100
AcDbProxyObject
 90
      499
 91
      503
 93
      105
310
903313A384000000000000204000
  0
ACAD_PROXY_OBJECT
  5
4D
102
{ACAD_REACTORS
330
47
102
}
330
47
100
AcDbProxyObject
 90
      499
 91
      503
 93
      113
310
904313A31304000000000000244000
  0
ACAD_PROXY_OBJECT
  5
4E
102
{ACAD_REACTORS
330
47
102
}
330
47
100
AcDbProxyObject
 90
      499
 91
      503
 93
      113
310
904313A31364000000000000304000
  0
ACAD_PROXY_OBJECT
  5
4F
102
{ACAD_REACTORS
330
47
102
}
330
47
100
AcDbProxyObject
 90
      499
 91
      503
 93
      113
310
904313A32304000000000000344000
  0
ACAD_PROXY_OBJECT
  5
50
102
{ACAD_REACTORS
330
47
102
}
330
47
100
AcDbProxyObject
 90
      499
 91
      503
 93
      113
310
904313A333040000000000003E4000
  0
ACAD_PROXY_OBJECT
  5
51
102
{ACAD_REACTORS
330
47
102
}
330
47
100
AcDbProxyObject
 90
      499
 91
      503
 93
      113
310
904313A34304000000000000444000
  0
ACAD_PROXY_OBJECT
  5
52
102
{ACAD_REACTORS
330
47
102
}
330
47
100
AcDbProxyObject
 90
      499
 91
      503
 93
      113
310
904313A35304000000000000494000
  0
ACAD_PROXY_OBJECT
  5
53
102
{ACAD_REACTORS
330
47
102
}
330
47
100
AcDbProxyObject
 90
      499
 91
      503
 93
      121
310
905313A3130304000000000000594000
  0
ACAD_PROXY_OBJECT
  5
54
102
{ACAD_REACTORS
330
47
102
}
330
47
100
AcDbProxyObject
 90
      499
 91
      503
 93
      105
310
903323A310000000000000010100
  0
ACAD_PROXY_OBJECT
  5
55
102
{ACAD_REACTORS
330
47
102
}
330
47
100
AcDbProxyObject
 90
      499
 91
      503
 93
      105
310
903343A310000000000000410100
  0
ACAD_PROXY_OBJECT
  5
56
102
{ACAD_REACTORS
330
47
102
}
330
47
100
AcDbProxyObject
 90
      499
 91
      503
 93
      105
310
903383A310000000000000810100
  0
ACAD_PROXY_OBJECT
  5
57
102
{ACAD_REACTORS
330
47
102
}
330
47
100
AcDbProxyObject
 90
      499
 91
      503
 93
      113
310
90431303A310000000000000910100
  0
ACAD_PROXY_OBJECT
  5
58
102
{ACAD_REACTORS
330
47
102
}
330
47
100
AcDbProxyObject
 90
      499
 91
      503
 93
      121
310
9053130303A310000000000001650100
  0
ACAD_PROXY_OBJECT
  5
59
102
{ACAD_REACTORS
330
47
102
}
330
47
100
AcDbProxyObject
 90
      499
 91
      503
 93
      257
310
90E312F31323822203D2031272D3022000000000000200FC000000000000284000
  0
ACAD_PROXY_OBJECT
  5
5A
102
{ACAD_REACTORS
330
47
102
}
330
47
100
AcDbProxyObject
 90
      499
 91
      503
 93
      249
310
90D312F363422203D2031272D3022000000000000240FC000000000000284000
  0
ACAD_PROXY_OBJECT
  5
5B
102
{ACAD_REACTORS
330
47
102
}
330
47
100
AcDbProxyObject
 90
      499
 91
      503
 93
      249
310
90D312F333222203D2031272D3022000000000000280FC000000000000284000
  0
ACAD_PROXY_OBJECT
  5
5C
102
{ACAD_REACTORS
330
47
102
}
330
47
100
AcDbProxyObject
 90
      499
 91
      503
 93
      249
310
90D312F313622203D2031272D30220000000000002C0FC000000000000284000
  0
ACAD_PROXY_OBJECT
  5
5D
102
{ACAD_REACTORS
330
47
102
}
330
47
100
AcDbProxyObject
 90
      499
 91
      503
 93
      249
310
90D332F333222203D2031272D30220000000000002E0FC000000000000284000
  0
ACAD_PROXY_OBJECT
  5
5E
102
{ACAD_REACTORS
330
47
102
}
330
47
100
AcDbProxyObject
 90
      499
 91
      503
 93
      241
310
90C312F3822203D2031272D3022000000000000300FC000000000000284000
  0
ACAD_PROXY_OBJECT
  5
5F
102
{ACAD_REACTORS
330
47
102
}
330
47
100
AcDbProxyObject
 90
      499
 91
      503
 93
      249
310
90D332F313622203D2031272D3022000000000000320FC000000000000284000
  0
ACAD_PROXY_OBJECT
  5
60
102
{ACAD_REACTORS
330
47
102
}
330
47
100
AcDbProxyObject
 90
      499
 91
      503
 93
      241
310
90C312F3422203D2031272D3022000000000000340FC000000000000284000
  0
ACAD_PROXY_OBJECT
  5
61
102
{ACAD_REACTORS
330
47
102
}
330
47
100
AcDbProxyObject
 90
      499
 91
      503
 93
      241
310
90C332F3822203D2031272D3022000000000000360FC000000000000284000
  0
ACAD_PROXY_OBJECT
  5
62
102
{ACAD_REACTORS
330
47
102
}
330
47
100
AcDbProxyObject
 90
      499
 91
      503
 93
      241
310
90C312F3222203D2031272D3022000000000000380FC000000000000284000
  0
ACAD_PROXY_OBJECT
  5
63
102
{ACAD_REACTORS
330
47
102
}
330
47
100
AcDbProxyObject
 90
      499
 91
      503
 93
      241
310
90C332F3422203D2031272D30220000000000003A0FC000000000000284000
  0
ACAD_PROXY_OBJECT
  5
64
102
{ACAD_REACTORS
330
47
102
}
330
47
100
AcDbProxyObject
 90
      499
 91
      503
 93
      161
310
90A3122203D2031272D30224000000000000284000
  0
ACAD_PROXY_OBJECT
  5
65
102
{ACAD_REACTORS
330
47
102
}
330
47
100
AcDbProxyObject
 90
      499
 91
      503
 93
      257
310
90E312D312F3222203D2031272D30220000000000003E0FC000000000000284000
  0
ACAD_PROXY_OBJECT
  5
66
102
{ACAD_REACTORS
330
47
102
}
330
47
100
AcDbProxyObject
 90
      499
 91
      503
 93
      225
310
90A3322203D2031272D302200000000000002100000000000000284000
  0
ACAD_PROXY_OBJECT
  5
67
102
{ACAD_REACTORS
330
47
102
}
330
47
100
AcDbProxyObject
 90
      499
 91
      503
 93
      225
310
90A3622203D2031272D302200000000000006100000000000000284000
  0
ACAD_PROXY_OBJECT
  5
68
102
{ACAD_REACTORS
330
47
102
}
330
47
100
AcDbProxyObject
 90
      499
 91
      503
 93
      249
310
90D31272D3022203D2031272D30220000000000000A100000000000000284000
  0
ACAD_PROXY_OBJECT
  5
2F
102
{ACAD_REACTORS
330
2A
102
}
330
2A
100
AcDbProxyObject
 90
      499
 91
      501
 93
      436
310
42CC9915DA5C99599C985B595049028333333333333E33F0000000000000F90107901411070040501600405405064090741402480A0340
1001
ACAD
1000
AcDbSavedByObjectVersion
1070
     0
  0
ACAD_PROXY_OBJECT
  5
32
102
{ACAD_REACTORS
330
2A
102
}
330
2A
100
AcDbProxyObject
 90
      499
 91
      501
 93
      388
310
4150985CDA58D07406404333333333333E33F0000000000000F90107A41107004050150841D405064090741402480A0350
1001
ACAD
1000
AcDbSavedByObjectVersion
1070
     0
  0
ACAD_PROXY_OBJECT
  5
36
102
{ACAD_REACTORS
330
2A
102
}
330
2A
100
AcDbProxyObject
 90
      499
 91
      501
 93
      428
310
42109C9A59DA1D195B90C409028333333333333E33F0000000000000F9010790141107004050150841D405064090741402480A029950
1001
ACAD
1000
AcDbSavedByObjectVersion
1070
     0
  0
ACAD_PROXY_OBJECT
  5
3A
102
{ACAD_REACTORS
330
2A
102
}
330
2A
100
AcDbProxyObject
 90
      499
 91
      501
 93
      452
310
42D0DBDB1BDC90DA185B99D95104090240C333333333333E33F0000000000000F90108901411070040501508421405064090741402480A0350
1001
ACAD
1000
AcDbSavedByObjectVersion
1070
     0
  0
ACAD_PROXY_OBJECT
  5
34
102
{ACAD_REACTORS
330
2A
102
}
330
2A
100
AcDbProxyObject
 90
      499
 91
      501
 93
      500
310
4290DBDB98D95C1D1D585B10940D028333333333333E33F0000000000000F90107902409070040501000000000018199010841D405064090740C02480A0340
1001
ACAD
1000
AcDbSavedByObjectVersion
1070
     0
  0
ACAD_PROXY_OBJECT
  5
35
102
{ACAD_REACTORS
330
2A
102
}
330
2A
100
AcDbProxyObject
 90
      499
 91
      501
 93
      412
310
40D11A5B50B409028333333333333E33F0000000000000F9010790141107004050150841D405064090741402480A02677FFFFFD0
1001
ACAD
1000
AcDbSavedByObjectVersion
1070
     0
  0
ACAD_PROXY_OBJECT
  5
3D
102
{ACAD_REACTORS
330
2A
102
}
330
2A
100
AcDbProxyObject
 90
      499
 91
      501
 93
      452
310
43115919D950DBDB1BDC93D999916409028333333333333E33F0000000000000F9010790141107004050150841D405064090741402480A0350
1001
ACAD
1000
AcDbSavedByObjectVersion
1070
     0
  0
ACAD_PROXY_OBJECT
  5
39
102
{ACAD_REACTORS
330
2A
102
}
330
2A
100
AcDbProxyObject
 90
      499
 91
      501
 93
      444
310
42D19858D95C185D1D195C9B90F409028333333333333E33F0000000000000F9010790141107004050150841D405064090741402480A0350
1001
ACAD
1000
AcDbSavedByObjectVersion
1070
     0
  0
ACAD_PROXY_OBJECT
  5
2B
102
{ACAD_REACTORS
330
2A
102
}
330
2A
100
AcDbProxyObject
 90
      499
 91
      501
 93
      380
310
41119B185D240901404333333333333E33F0000000000000F9010740A907004050150841D405064090741402480A1B50
1001
ACAD
1000
AcDbSavedByObjectVersion
1070
     0
  0
ACAD_PROXY_OBJECT
  5
2C
102
{ACAD_REACTORS
330
2A
102
}
330
2A
100
AcDbProxyObject
 90
      499
 91
      501
 93
      468
310
43519B185D15DA5D1A115919D95CD0140901404333333333333E33F0000000000000F90107409019070040501600405405064090741402480A1B50
1001
ACAD
1000
AcDbSavedByObjectVersion
1070
     0
  0
ACAD_PROXY_OBJECT
  5
2D
102
{ACAD_REACTORS
330
2A
102
}
330
2A
100
AcDbProxyObject
 90
      499
 91
      501
 93
      404
310
41D1DBDD5C985D5910240902404333333333333E33F0000000000000F9010740A9070040501641D405064090741402480A1B50
1001
ACAD
1000
AcDbSavedByObjectVersion
1070
     0
  0
ACAD_PROXY_OBJECT
  5
2E
102
{ACAD_REACTORS
330
2A
102
}
330
2A
100
AcDbProxyObject
 90
      499
 91
      501
 93
      492
310
4411DBDD5C985D5915DA5D1A115919D95CD0340902404333333333333E33F0000000000000F90107409019070040501600405405064090741402480A1B50
1001
ACAD
1000
AcDbSavedByObjectVersion
1070
     0
  0
ACAD_PROXY_OBJECT
  5
31
102
{ACAD_REACTORS
330
2A
102
}
330
2A
100
AcDbProxyObject
 90
      499
 91
      501
 93
      476
310
41921A5919195B90640502408333333333333E33F0000000000000F901079024090700405020000000000001110200405405064090740C02480A0340
1001
ACAD
1000
AcDbSavedByObjectVersion
1070
     0
  0
ACAD_PROXY_OBJECT
  5
3B
102
{ACAD_REACTORS
330
2A
102
}
330
2A
100
AcDbProxyObject
 90
      499
 91
      501
 93
      428
310
42529A5D1D195C93D999914409028333333333333E33F0000000000000F9010790141107004050150A41D405064090741402480A0350
1001
ACAD
1000
AcDbSavedByObjectVersion
1070
     0
  0
ACAD_PROXY_OBJECT
  5
38
102
{ACAD_REACTORS
330
2A
102
}
330
2A
100
AcDbProxyObject
 90
      499
 91
      501
 93
      444
310
42D31A5B995C185D1D195C9B90E409028333333333333E33F0000000000000F9010790141107004050750841D405064090741402483A0350
1001
ACAD
1000
AcDbSavedByObjectVersion
1070
     0
  0
ACAD_PROXY_OBJECT
  5
3C
102
{ACAD_REACTORS
330
2A
102
}
330
2A
100
AcDbProxyObject
 90
      499
 91
      501
 93
      444
310
42D3DD995C9A185B99D3D999915409028333333333333E33F0000000000000F9010790141107004050150941D405064090741402480A0350
1001
ACAD
1000
AcDbSavedByObjectVersion
1070
     0
  0
ACAD_PROXY_OBJECT
  5
33
102
{ACAD_REACTORS
330
2A
102
}
330
2A
100
AcDbProxyObject
 90
      499
 91
      501
 93
      428
310
425499585B1A5CDD1A58D08409038333333333333E33F0000000000000F9010740A907004050150800405405064090740C02480A1B40
1001
ACAD
1000
AcDbSavedByObjectVersion
1070
     0
  0
ACAD_PROXY_OBJECT
  5
42
102
{ACAD_REACTORS
330
2A
102
}
330
2A
100
AcDbProxyObject
 90
      499
 91
      501
 93
      420
310
4194DA1859195911B40902404333333333333E33F0000000000000F9010740A41107004050150800405405064090840C02480A0B40
1001
ACAD
1000
AcDbSavedByObjectVersion
1070
     0
  0
ACAD_PROXY_OBJECT
  5
41
102
{ACAD_REACTORS
330
2A
102
}
330
2A
100
AcDbProxyObject
 90
      499
 91
      501
 93
      516
310
4454DA18591959081DDA5D1A08195919D95CD1A40902404333333333333E33F0000000000000F901074090142907004050250800405405064090740C02480A0B40
1001
ACAD
1000
AcDbSavedByObjectVersion
1070
     0
  0
ACAD_PROXY_OBJECT
  5
3E
102
{ACAD_REACTORS
330
2A
102
}
330
2A
100
AcDbProxyObject
 90
      499
 91
      501
 93
      532
310
4394DA1859195CC81BD98811DC985E5174090240C333333333333E33F0000000000000F901079024090741D01000000000000111010841D405064090740C02480A0340
1001
ACAD
1000
AcDbSavedByObjectVersion
1070
     0
  0
ACAD_PROXY_OBJECT
  5
3F
102
{ACAD_REACTORS
330
2A
102
}
330
2A
100
AcDbProxyObject
 90
      499
 91
      501
 93
      476
310
41D4DAD95D18DA1E51840502408333333333333E33F0000000000000F901079024090741D01000000000000111010B41D405064090741802480A0340
1001
ACAD
1000
AcDbSavedByObjectVersion
1070
     0
  0
ACAD_PROXY_OBJECT
  5
37
102
{ACAD_REACTORS
330
2A
102
}
330
2A
100
AcDbProxyObject
 90
      499
 91
      501
 93
      412
310
41D51A1A58DAD95B90D409028333333333333E33F0000000000000F9010790141107004050150C41D405064090741402480A0350
1001
ACAD
1000
AcDbSavedByObjectVersion
1070
     0
  0
ACAD_PROXY_OBJECT
  5
30
102
{ACAD_REACTORS
330
2A
102
}
330
2A
100
AcDbProxyObject
 90
      499
 91
      501
 93
      420
310
4255DA5C99599C985B595059028333333333333E33F0000000000000F90107901411070040501600405405064090740C02480A0340
1001
ACAD
1000
AcDbSavedByObjectVersion
1070
     0
  0
ACAD_PROXY_OBJECT
  5
40
102
{ACAD_REACTORS
330
2A
102
}
330
2A
100
AcDbProxyObject
 90
      499
 91
      501
 93
      404
310
41560B54985E51940902404000000000000E03F0000000000000F9010740501907004050150841D405064090740C02480A1B40
1001
ACAD
1000
AcDbSavedByObjectVersion
1070
     0
  0
XRECORD
  5
281
102
{ACAD_REACTORS
330
278
102
}
330
278
100
AcDbXrecord
 90
        0
  0
XRECORD
  5
297
102
{ACAD_REACTORS
330
278
102
}
330
278
100
AcDbXrecord
1000
DSTYLE
1002
{
1070
   171
 70
     2
1070
   143
 40
25.4
1070
   274
 70
     2
1070
    41
 40
0.18
1070
   141
 40
0.09
1070
   271
 70
     4
1070
    43
 40
0.38
1070
   278
 70
    46
1070
    44
 40
0.18
1070
    42
 40
0.0625
1070
   147
 40
0.09
1070
    77
 70
     0
1070
   272
 70
     4
1070
    73
 70
     1
1070
   172
 70
     0
1070
    74
 70
     1
1070
   283
 70
     1
1070
   340
340
11
1070
   140
 40
0.18
1070
   284
 70
     0
1070
    78
 70
     0
1002
}
  0
XRECORD
  5
282
102
{ACAD_REACTORS
330
278
102
}
330
278
100
AcDbXrecord
  1
{C6A72D0B-BC12-432E-A059-24C742F843C5}
  0
XRECORD
  5
27B
102
{ACAD_REACTORS
330
278
102
}
330
278
100
AcDbXrecord
  1

  0
XRECORD
  5
280
102
{ACAD_REACTORS
330
278
102
}
330
278
100
AcDbXrecord
 90
        4
  0
XRECORD
  5
27D
102
{ACAD_REACTORS
330
278
102
}
330
278
100
AcDbXrecord
340
1A
  0
XRECORD
  5
27F
102
{ACAD_REACTORS
330
278
102
}
330
278
100
AcDbXrecord
 90
    10781
  0
XRECORD
  5
27E
102
{ACAD_REACTORS
330
278
102
}
330
278
100
AcDbXrecord
340
19
  0
XRECORD
  5
284
102
{ACAD_REACTORS
330
278
102
}
330
278
100
AcDbXrecord
 40
0.0
  0
XRECORD
  5
287
102
{ACAD_REACTORS
330
278
102
}
330
278
100
AcDbXrecord
340
0
  0
XRECORD
  5
28D
102
{ACAD_REACTORS
330
278
102
}
330
278
100
AcDbXrecord
 10
0.0
 20
0.0
 30
0.0
  0
XRECORD
  5
289
102
{ACAD_REACTORS
330
278
102
}
330
278
100
AcDbXrecord
 10
0.0
 20
0.0
 30
0.0
  0
XRECORD
  5
28C
102
{ACAD_REACTORS
330
278
102
}
330
278
100
AcDbXrecord
 10
0.0
 20
0.0
 30
0.0
  0
XRECORD
  5
28A
102
{ACAD_REACTORS
330
278
102
}
330
278
100
AcDbXrecord
 10
0.0
 20
0.0
 30
0.0
  0
XRECORD
  5
28B
102
{ACAD_REACTORS
330
278
102
}
330
278
100
AcDbXrecord
 10
0.0
 20
0.0
 30
0.0
  0
XRECORD
  5
288
102
{ACAD_REACTORS
330
278
102
}
330
278
100
AcDbXrecord
 10
0.0
 20
0.0
 30
0.0
  0
XRECORD
  5
285
102
{ACAD_REACTORS
330
278
102
}
330
278
100
AcDbXrecord
340
0
  0
XRECORD
  5
286
102
{ACAD_REACTORS
330
278
102
}
330
278
100
AcDbXrecord
 70
     0
  0
XRECORD
  5
27C
102
{ACAD_REACTORS
330
278
102
}
330
278
100
AcDbXrecord
  1

  0
XRECORD
  5
279
102
{ACAD_REACTORS
330
278
102
}
330
278
100
AcDbXrecord
 90
        1
  0
XRECORD
  5
27A
102
{ACAD_REACTORS
330
278
102
}
330
278
100
AcDbXrecord
 90
       70
  0
XRECORD
  5
290
102
{ACAD_REACTORS
330
278
102
}
330
278
100
AcDbXrecord
340
0
  0
XRECORD
  5
296
102
{ACAD_REACTORS
330
278
102
}
330
278
100
AcDbXrecord
 10
0.0
 20
0.0
 30
0.0
  0
XRECORD
  5
292
102
{ACAD_REACTORS
330
278
102
}
330
278
100
AcDbXrecord
 10
0.0
 20
0.0
 30
0.0
  0
XRECORD
  5
295
102
{ACAD_REACTORS
330
278
102
}
330
278
100
AcDbXrecord
 10
0.0
 20
0.0
 30
0.0
  0
XRECORD
  5
293
102
{ACAD_REACTORS
330
278
102
}
330
278
100
AcDbXrecord
 10
0.0
 20
0.0
 30
0.0
  0
XRECORD
  5
294
102
{ACAD_REACTORS
330
278
102
}
330
278
100
AcDbXrecord
 10
0.0
 20
0.0
 30
0.0
  0
XRECORD
  5
291
102
{ACAD_REACTORS
330
278
102
}
330
278
100
AcDbXrecord
 10
0.0
 20
0.0
 30
0.0
  0
XRECORD
  5
28E
102
{ACAD_REACTORS
330
278
102
}
330
278
100
AcDbXrecord
340
0
  0
XRECORD
  5
28F
102
{ACAD_REACTORS
330
278
102
}
330
278
100
AcDbXrecord
 70
     0
  0
XRECORD
  5
283
102
{ACAD_REACTORS
330
278
102
}
330
278
100
AcDbXrecord
  1
{FAEB1C32-E019-11D5-929B-00C0DF256EC4}
  0
DICTIONARYVAR
  5
2A1
102
{ACAD_REACTORS
330
298
102
}
330
298
100
DictionaryVariables
280
     0
  1
1:1
  0
DICTIONARYVAR
  5
29D
102
{ACAD_REACTORS
330
298
102
}
330
298
100
DictionaryVariables
280
     0
  1
2
  0
DICTIONARYVAR
  5
29E
102
{ACAD_REACTORS
330
298
102
}
330
298
100
DictionaryVariables
280
     0
  1
1
  0
DICTIONARYVAR
  5
2A2
102
{ACAD_REACTORS
330
298
102
}
330
298
100
DictionaryVariables
280
     0
  1
1
  0
DICTIONARY
  5
2A5
330
45
100
AcDbDictionary
280
     1
  3
ACAD_XREC_ROUNDTRIP
360
2A6
  0
DICTIONARY
  5
2A3
330
44
100
AcDbDictionary
280
     1
  3
ACAD_XREC_ROUNDTRIP
360
2A4
  0
DICTIONARY
  5
2A7
330
46
100
AcDbDictionary
280
     1
  3
ACAD_XREC_ROUNDTRIP
360
2A8
  0
XRECORD
  5
2A6
102
{ACAD_REACTORS
330
2A5
102
}
330
2A5
100
AcDbXrecord
102
MATERIAL
148
0.0
149
0.0
149
0.0
 93
        0
 94
      127
282
     0
 72
     1
 77
     1
171
     1
175
     1
179
     1
273
     0
  0
XRECORD
  5
2A4
102
{ACAD_REACTORS
330
2A3
102
}
330
2A3
100
AcDbXrecord
102
MATERIAL
148
0.0
149
0.0
149
0.0
 93
        0
 94
      127
282
     0
 72
     1
 77
     1
171
     1
175
     1
179
     1
273
     0
  0
XRECORD
  5
2A8
102
{ACAD_REACTORS
330
2A7
102
}
330
2A7
100
AcDbXrecord
102
MATERIAL
148
0.0
149
0.0
149
0.0
 93
        0
 94
      127
282
     0
 72
     1
 77
     1
171
     1
175
     1
179
     1
273
     0
  0
ENDSEC
  0
EOF
