  0
SECTION
  2
HEADER
  9
$ACADVER
  1
AC1014
  9
$ACADMAINTVER
 70
     9
  9
$DWGCODEPAGE
  3
ANSI_1252
  9
$INSBASE
 10
0.0
 20
0.0
 30
0.0
  9
$EXTMIN
 10
1.000000000000000E+20
 20
1.000000000000000E+20
 30
1.000000000000000E+20
  9
$EXTMAX
 10
-1.000000000000000E+20
 20
-1.000000000000000E+20
 30
-1.000000000000000E+20
  9
$LIMMIN
 10
0.0
 20
0.0
  9
$LIMMAX
 10
12.0
 20
9.0
  9
$ORTHOMODE
 70
     0
  9
$REGENMODE
 70
     1
  9
$FILLMODE
 70
     1
  9
$QTEXTMODE
 70
     0
  9
$MIRRTEXT
 70
     1
  9
$DRAGMODE
 70
     2
  9
$LTSCALE
 40
1.0
  9
$OSMODE
 70
    37
  9
$ATTMODE
 70
     1
  9
$TEXTSIZE
 40
0.2
  9
$TRACEWID
 40
0.05
  9
$TEXTSTYLE
  7
STANDARD
  9
$CLAYER
  8
0
  9
$CELTYPE
  6
BYLAYER
  9
$CECOLOR
 62
   256
  9
$CELTSCALE
 40
1.0
  9
$DELOBJ
 70
     1
  9
$DISPSILH
 70
     0
  9
$DIMSCALE
 40
1.0
  9
$DIMASZ
 40
0.18
  9
$DIMEXO
 40
0.0625
  9
$DIMDLI
 40
0.38
  9
$DIMRND
 40
0.0
  9
$DIMDLE
 40
0.0
  9
$DIMEXE
 40
0.18
  9
$DIMTP
 40
0.0
  9
$DIMTM
 40
0.0
  9
$DIMTXT
 40
0.18
  9
$DIMCEN
 40
0.09
  9
$DIMTSZ
 40
0.0
  9
$DIMTOL
 70
     0
  9
$DIMLIM
 70
     0
  9
$DIMTIH
 70
     1
  9
$DIMTOH
 70
     1
  9
$DIMSE1
 70
     0
  9
$DIMSE2
 70
     0
  9
$DIMTAD
 70
     0
  9
$DIMZIN
 70
     0
  9
$DIMBLK
  1

  9
$DIMASO
 70
     1
  9
$DIMSHO
 70
     1
  9
$DIMPOST
  1

  9
$DIMAPOST
  1

  9
$DIMALT
 70
     0
  9
$DIMALTD
 70
     2
  9
$DIMALTF
 40
25.4
  9
$DIMLFAC
 40
1.0
  9
$DIMTOFL
 70
     0
  9
$DIMTVP
 40
0.0
  9
$DIMTIX
 70
     0
  9
$DIMSOXD
 70
     0
  9
$DIMSAH
 70
     0
  9
$DIMBLK1
  1

  9
$DIMBLK2
  1

  9
$DIMSTYLE
  2
STANDARD
  9
$DIMCLRD
 70
     0
  9
$DIMCLRE
 70
     0
  9
$DIMCLRT
 70
     0
  9
$DIMTFAC
 40
1.0
  9
$DIMGAP
 40
0.09
  9
$DIMJUST
 70
     0
  9
$DIMSD1
 70
     0
  9
$DIMSD2
 70
     0
  9
$DIMTOLJ
 70
     1
  9
$DIMTZIN
 70
     0
  9
$DIMALTZ
 70
     0
  9
$DIMALTTZ
 70
     0
  9
$DIMFIT
 70
     3
  9
$DIMUPT
 70
     0
  9
$DIMUNIT
 70
     2
  9
$DIMDEC
 70
     4
  9
$DIMTDEC
 70
     4
  9
$DIMALTU
 70
     2
  9
$DIMALTTD
 70
     2
  9
$DIMTXSTY
  7
STANDARD
  9
$DIMAUNIT
 70
     0
  9
$LUNITS
 70
     2
  9
$LUPREC
 70
     4
  9
$SKETCHINC
 40
0.1
  9
$FILLETRAD
 40
0.5
  9
$AUNITS
 70
     0
  9
$AUPREC
 70
     0
  9
$MENU
  1
.
  9
$ELEVATION
 40
0.0
  9
$PELEVATION
 40
0.0
  9
$THICKNESS
 40
0.0
  9
$LIMCHECK
 70
     0
  9
$CHAMFERA
 40
0.0
  9
$CHAMFERB
 40
0.0
  9
$CHAMFERC
 40
0.0
  9
$CHAMFERD
 40
0.0
  9
$SKPOLY
 70
     0
  9
$TDCREATE
 40
2456972.670458449
  9
$TDUPDATE
 40
2456972.670458773
  9
$TDINDWG
 40
0.0000000116
  9
$TDUSRTIMER
 40
0.0000000116
  9
$USRTIMER
 70
     1
  9
$ANGBASE
 50
0.0
  9
$ANGDIR
 70
     0
  9
$PDMODE
 70
     0
  9
$PDSIZE
 40
0.0
  9
$PLINEWID
 40
0.0
  9
$COORDS
 70
     1
  9
$SPLFRAME
 70
     0
  9
$SPLINETYPE
 70
     6
  9
$SPLINESEGS
 70
     8
  9
$ATTDIA
 70
     0
  9
$ATTREQ
 70
     1
  9
$HANDLING
 70
     1
  9
$HANDSEED
  5
2A1
  9
$SURFTAB1
 70
     6
  9
$SURFTAB2
 70
     6
  9
$SURFTYPE
 70
     6
  9
$SURFU
 70
     6
  9
$SURFV
 70
     6
  9
$UCSNAME
  2

  9
$UCSORG
 10
0.0
 20
0.0
 30
0.0
  9
$UCSXDIR
 10
1.0
 20
0.0
 30
0.0
  9
$UCSYDIR
 10
0.0
 20
1.0
 30
0.0
  9
$PUCSNAME
  2

  9
$PUCSORG
 10
0.0
 20
0.0
 30
0.0
  9
$PUCSXDIR
 10
1.0
 20
0.0
 30
0.0
  9
$PUCSYDIR
 10
0.0
 20
1.0
 30
0.0
  9
$USERI1
 70
     0
  9
$USERI2
 70
     0
  9
$USERI3
 70
     0
  9
$USERI4
 70
     0
  9
$USERI5
 70
     0
  9
$USERR1
 40
0.0
  9
$USERR2
 40
0.0
  9
$USERR3
 40
0.0
  9
$USERR4
 40
0.0
  9
$USERR5
 40
0.0
  9
$WORLDVIEW
 70
     1
  9
$SHADEDGE
 70
     3
  9
$SHADEDIF
 70
    70
  9
$TILEMODE
 70
     1
  9
$MAXACTVP
 70
    64
  9
$PINSBASE
 10
0.0
 20
0.0
 30
0.0
  9
$PLIMCHECK
 70
     0
  9
$PEXTMIN
 10
1.000000000000000E+20
 20
1.000000000000000E+20
 30
1.000000000000000E+20
  9
$PEXTMAX
 10
-1.000000000000000E+20
 20
-1.000000000000000E+20
 30
-1.000000000000000E+20
  9
$PLIMMIN
 10
0.0
 20
0.0
  9
$PLIMMAX
 10
12.0
 20
9.0
  9
$UNITMODE
 70
     0
  9
$VISRETAIN
 70
     1
  9
$PLINEGEN
 70
     0
  9
$PSLTSCALE
 70
     1
  9
$TREEDEPTH
 70
  3020
  9
$PICKSTYLE
 70
     1
  9
$CMLSTYLE
  2
STANDARD
  9
$CMLJUST
 70
     0
  9
$CMLSCALE
 40
1.0
  9
$PROXYGRAPHICS
 70
     1
  9
$MEASUREMENT
 70
     1
  0
ENDSEC
  0
SECTION
  2
CLASSES
  0
CLASS
  1
ACDBDICTIONARYWDFLT
  2
AcDbDictionaryWithDefault
  3
ObjectDBX Classes
 90
        0
280
     0
281
     0
  0
CLASS
  1
VISUALSTYLE
  2
AcDbVisualStyle
  3
ObjectDBX Classes
 90
     4095
280
     0
281
     0
  0
CLASS
  1
MATERIAL
  2
AcDbMaterial
  3
ObjectDBX Classes
 90
     1153
280
     0
281
     0
  0
CLASS
  1
SCALE
  2
AcDbScale
  3
ObjectDBX Classes
 90
     1153
280
     0
281
     0
  0
CLASS
  1
SUN
  2
AcDbSun
  3
SCENEOE
 90
     1153
280
     0
281
     0
  0
CLASS
  1
DICTIONARYVAR
  2
AcDbDictionaryVar
  3
ObjectDBX Classes
 90
        0
280
     0
281
     0
  0
CLASS
  1
XRECORD
  2
AcDbXrecord
  3
ObjectDBX Classes
 90
        0
280
     0
281
     0
  0
CLASS
  1
LWPOLYLINE
  2
AcDbPolyline
  3
ObjectDBX Classes
 90
        0
280
     0
281
     1
  0
CLASS
  1
HATCH
  2
AcDbHatch
  3
ObjectDBX Classes
 90
        0
280
     0
281
     1
  0
CLASS
  1
ACDBPLACEHOLDER
  2
AcDbPlaceHolder
  3
ObjectDBX Classes
 90
        0
280
     0
281
     0
  0
CLASS
  1
LAYOUT
  2
AcDbLayout
  3
ObjectDBX Classes
 90
        0
280
     0
281
     0
  0
ENDSEC
  0
SECTION
  2
TABLES
  0
TABLE
  2
VPORT
  5
8
102
{ACAD_XDICTIONARY
360
297
102
}
330
0
100
AcDbSymbolTable
 70
     1
  0
VPORT
  5
29
330
8
100
AcDbSymbolTableRecord
100
AcDbViewportTableRecord
  2
*ACTIVE
 70
     0
 10
0.0
 20
0.0
 11
1.0
 21
1.0
 12
0.0
 22
0.0
 13
0.0
 23
0.0
 14
0.5
 24
0.5
 15
0.5
 25
0.5
 16
0.0
 26
0.0
 36
1.0
 17
0.0
 27
0.0
 37
-1000.0
 40
46.36926151415901
 41
2.028602860286028
 42
50.0
 43
196.9001370430553
 44
268.5957230526231
 50
0.0
 51
0.0
 71
     0
 72
   100
 73
     1
 74
     3
 75
     0
 76
     0
 77
     0
 78
     0
  0
ENDTAB
  0
TABLE
  2
LTYPE
  5
5
330
0
100
AcDbSymbolTable
 70
     1
  0
LTYPE
  5
14
330
5
100
AcDbSymbolTableRecord
100
AcDbLinetypeTableRecord
  2
BYBLOCK
 70
     0
  3

 72
    65
 73
     0
 40
0.0
  0
LTYPE
  5
15
330
5
100
AcDbSymbolTableRecord
100
AcDbLinetypeTableRecord
  2
BYLAYER
 70
     0
  3

 72
    65
 73
     0
 40
0.0
  0
LTYPE
  5
16
330
5
100
AcDbSymbolTableRecord
100
AcDbLinetypeTableRecord
  2
CONTINUOUS
 70
     0
  3
Solid line
 72
    65
 73
     0
 40
0.0
  0
ENDTAB
  0
TABLE
  2
LAYER
  5
2
330
0
100
AcDbSymbolTable
 70
     3
  0
LAYER
  5
10
330
2
100
AcDbSymbolTableRecord
100
AcDbLayerTableRecord
  2
0
 70
     0
 62
     7
  6
CONTINUOUS
  0
LAYER
  5
6A
330
2
100
AcDbSymbolTableRecord
100
AcDbLayerTableRecord
  2
PROFILEEDGES
 70
     0
 62
     7
  6
CONTINUOUS
  0
LAYER
  5
6B
330
2
100
AcDbSymbolTableRecord
100
AcDbLayerTableRecord
  2
SECTIONCUTEDGES
 70
     0
 62
     7
  6
CONTINUOUS
  0
ENDTAB
  0
TABLE
  2
STYLE
  5
3
330
0
100
AcDbSymbolTable
 70
     1
  0
STYLE
  5
11
330
3
100
AcDbSymbolTableRecord
100
AcDbTextStyleTableRecord
  2
STANDARD
 70
     0
 40
0.0
 41
1.0
 50
0.0
 71
     0
 42
0.2
  3
txt
  4

  0
ENDTAB
  0
TABLE
  2
VIEW
  5
6
330
0
100
AcDbSymbolTable
 70
     0
  0
ENDTAB
  0
TABLE
  2
UCS
  5
7
330
0
100
AcDbSymbolTable
 70
     0
  0
ENDTAB
  0
TABLE
  2
APPID
  5
9
330
0
100
AcDbSymbolTable
 70
     1
  0
APPID
  5
12
330
9
100
AcDbSymbolTableRecord
100
AcDbRegAppTableRecord
  2
ACAD
 70
     0
  0
ENDTAB
  0
TABLE
  2
DIMSTYLE
  5
A
330
0
100
AcDbSymbolTable
 70
     1
  0
DIMSTYLE
105
27
330
A
100
AcDbSymbolTableRecord
100
AcDbDimStyleTableRecord
  2
STANDARD
 70
     0
  3

  4

  5

  6

  7

 40
1.0
 41
0.18
 42
0.0625
 43
0.38
 44
0.18
 45
0.0
 46
0.0
 47
0.0
 48
0.0
140
0.18
141
0.09
142
0.0
143
25.4
144
1.0
145
0.0
146
1.0
147
0.09
 71
     0
 72
     0
 73
     1
 74
     1
 75
     0
 76
     0
 77
     0
 78
     0
170
     0
171
     2
172
     0
173
     0
174
     0
175
     0
176
     0
177
     0
178
     0
270
     2
271
     4
272
     4
273
     2
274
     2
340
11
275
     0
280
     0
281
     0
282
     0
283
     1
284
     0
285
     0
286
     0
287
     3
288
     0
  0
ENDTAB
  0
TABLE
  2
BLOCK_RECORD
  5
1
330
0
100
AcDbSymbolTable
 70
     1
  0
BLOCK_RECORD
  5
1F
330
1
100
AcDbSymbolTableRecord
100
AcDbBlockTableRecord
  2
*MODEL_SPACE
  0
BLOCK_RECORD
  5
1B
330
1
100
AcDbSymbolTableRecord
100
AcDbBlockTableRecord
  2
*PAPER_SPACE
  0
ENDTAB
  0
ENDSEC
  0
SECTION
  2
BLOCKS
  0
BLOCK
  5
20
330
1F
100
AcDbEntity
  8
0
100
AcDbBlockBegin
  2
*MODEL_SPACE
 70
     0
 10
0.0
 20
0.0
 30
0.0
  3
*MODEL_SPACE
  1

  0
ENDBLK
  5
21
330
1F
100
AcDbEntity
  8
0
100
AcDbBlockEnd
  0
BLOCK
  5
1C
330
1B
100
AcDbEntity
 67
     1
  8
0
100
AcDbBlockBegin
  2
*PAPER_SPACE
 70
     0
 10
0.0
 20
0.0
 30
0.0
  3
*PAPER_SPACE
  1

  0
ENDBLK
  5
1D
330
1B
100
AcDbEntity
 67
     1
  8
0
100
AcDbBlockEnd
  0
ENDSEC
  0
SECTION
  2
ENTITIES
  0
LINE
  5
6C
330
1F
100
AcDbEntity
  8
0
100
AcDbLine
 10
44.51726616176662
 20
7.510746675358614
 30
0.0
 11
44.53097514202137
 21
7.489238975820118
 31
0.0
  0
LINE
  5
6D
330
1F
100
AcDbEntity
  8
0
100
AcDbLine
 10
44.62066037942478
 20
7.304437940024092
 30
0.0
 11
44.62917137489288
 21
7.280070428650742
 31
0.0
  0
LINE
  5
6E
330
1F
100
AcDbEntity
  8
0
100
AcDbLine
 10
44.55681920224754
 20
7.445040074346434
 30
0.0
 11
44.56892124793935
 21
7.422387368085992
 31
0.0
  0
LINE
  5
6F
330
1F
100
AcDbEntity
  8
0
100
AcDbLine
 10
44.63704811742279
 20
7.255499592962119
 30
0.0
 11
44.64428369557669
 21
7.23075025876175
 31
0.0
  0
LINE
  5
70
330
1F
100
AcDbEntity
  8
0
100
AcDbLine
 10
44.12388721369382
 20
7.859079362625324
 30
0.0
 11
44.14685559480221
 21
7.847360297601298
 31
0.0
  0
LINE
  5
71
330
1F
100
AcDbEntity
  8
0
100
AcDbLine
 10
37.50008564040819
 20
-5.075373493040099
 30
0.0
 11
38.02839348255759
 21
-4.605383329157393
 31
0.0
  0
LINE
  5
72
330
1F
100
AcDbEntity
  8
0
100
AcDbLine
 10
44.58045619308118
 20
7.399392991293023
 30
0.0
 11
44.5914099791009
 21
7.37607835768274
 31
0.0
  0
LINE
  5
73
330
1F
100
AcDbEntity
  8
0
100
AcDbLine
 10
44.56892124793935
 20
7.422387368085992
 30
0.0
 11
44.58045619308118
 21
7.399392991293023
 31
0.0
  0
LINE
  5
74
330
1F
100
AcDbEntity
  8
0
100
AcDbLine
 10
44.54416514610102
 20
7.467330515348418
 30
0.0
 11
44.55681920224754
 21
7.445040074346434
 31
0.0
  0
LINE
  5
75
330
1F
100
AcDbEntity
  8
0
100
AcDbLine
 10
44.60176963348233
 20
7.352465634799938
 30
0.0
 11
44.61152331930759
 21
7.328577674571751
 31
0.0
  0
LINE
  5
76
330
1F
100
AcDbEntity
  8
0
100
AcDbLine
 10
44.67069354254112
 20
7.105210560848464
 30
0.0
 11
44.67401016520466
 21
7.079921880823658
 31
0.0
  0
LINE
  5
77
330
1F
100
AcDbEntity
  8
0
100
AcDbLine
 10
44.65681020942557
 20
7.180816762871625
 30
0.0
 11
44.66209385183438
 21
7.155683363511995
 31
0.0
  0
LINE
  5
78
330
1F
100
AcDbEntity
  8
0
100
AcDbLine
 10
44.68078785506257
 20
6.978999763355518
 30
0.0
 11
44.68070123721628
 21
6.941465414697454
 31
0.0
  0
LINE
  5
79
330
1F
100
AcDbEntity
  8
0
100
AcDbLine
 10
44.45760791523009
 20
7.59242962104469
 30
0.0
 11
44.4808419795586
 21
7.562648355134055
 31
0.0
  0
LINE
  5
7A
330
1F
100
AcDbEntity
  8
0
100
AcDbLine
 10
44.66209385183438
 20
7.155683363511995
 30
0.0
 11
44.66672175004553
 21
7.13047282028424
 31
0.0
  0
LINE
  5
7B
330
1F
100
AcDbEntity
  8
0
100
AcDbLine
 10
44.61152331930759
 20
7.328577674571751
 30
0.0
 11
44.62066037942478
 21
7.304437940024092
 31
0.0
  0
LINE
  5
7C
330
1F
100
AcDbEntity
  8
0
100
AcDbLine
 10
44.66672175004553
 20
7.13047282028424
 30
0.0
 11
44.67069354254112
 21
7.105210560848464
 31
0.0
  0
LINE
  5
7D
330
1F
100
AcDbEntity
  8
0
100
AcDbLine
 10
44.65087249455046
 20
7.205847541725796
 30
0.0
 11
44.65681020942557
 21
7.180816762871625
 31
0.0
  0
LINE
  5
7E
330
1F
100
AcDbEntity
  8
0
100
AcDbLine
 10
44.62917137489288
 20
7.280070428650742
 30
0.0
 11
44.63704811742279
 21
7.255499592962119
 31
0.0
  0
LINE
  5
7F
330
1F
100
AcDbEntity
  8
0
100
AcDbLine
 10
38.38494371169969
 20
1.540583295206113
 30
0.0
 11
38.38474658273123
 21
1.59068632677514
 31
0.0
  0
LINE
  5
80
330
1F
100
AcDbEntity
  8
0
100
AcDbLine
 10
37.44176790339293
 20
-6.073671565110433
 30
0.0
 11
37.97007574554206
 21
-5.603681401227568
 31
0.0
  0
LINE
  5
81
330
1F
100
AcDbEntity
  8
0
100
AcDbLine
 10
44.50305601954042
 20
7.531835818484337
 30
0.0
 11
44.51726616176662
 21
7.510746675358614
 31
0.0
  0
LINE
  5
82
330
1F
100
AcDbEntity
  8
0
100
AcDbLine
 10
38.3184893572644
 20
2.069319788767865
 30
0.0
 11
38.31173826375939
 21
2.094187317588213
 31
0.0
  0
LINE
  5
83
330
1F
100
AcDbEntity
  8
0
100
AcDbLine
 10
37.96541597568729
 20
-8.998904252595246
 30
0.0
 11
37.9117580085267
 21
-6.601979473297789
 31
0.0
  0
LINE
  5
84
330
1F
100
AcDbEntity
  8
0
100
AcDbLine
 10
44.4334224076465
 20
7.621133208077018
 30
0.0
 11
44.45760791523009
 21
7.59242962104469
 31
0.0
  0
LINE
  5
85
330
1F
100
AcDbEntity
  8
0
100
AcDbLine
 10
37.55840337742372
 20
-4.0770754209699
 30
0.0
 11
38.0867112195724
 21
-3.607085257087194
 31
0.0
  0
LINE
  5
86
330
1F
100
AcDbEntity
  8
0
100
AcDbLine
 10
37.9117580085267
 20
-6.601979473297789
 30
0.0
 11
37.44176790339293
 21
-6.073671565110433
 31
0.0
  0
LINE
  5
87
330
1F
100
AcDbEntity
  8
0
100
AcDbLine
 10
38.36075013506581
 20
1.868379940182396
 30
0.0
 11
38.35661437269707
 21
1.893632440632582
 31
0.0
  0
LINE
  5
88
330
1F
100
AcDbEntity
  8
0
100
AcDbLine
 10
44.68070123721628
 20
6.941465414697454
 30
0.0
 11
44.67922140051334
 21
6.904222127911962
 31
0.0
  0
LINE
  5
89
330
1F
100
AcDbEntity
  8
0
100
AcDbLine
 10
44.5914099791009
 20
7.37607835768274
 30
0.0
 11
44.60176963348233
 21
7.352465634799938
 31
0.0
  0
LINE
  5
8A
330
1F
100
AcDbEntity
  8
0
100
AcDbLine
 10
44.67922140051334
 20
6.904222127911962
 30
0.0
 11
43.28469970541604
 21
-16.96756012778286
 31
0.0
  0
LINE
  5
8B
330
1F
100
AcDbEntity
  8
0
100
AcDbLine
 10
44.67667383231293
 20
7.054631862513641
 30
0.0
 11
44.67945296218839
 21
7.016748455253225
 31
0.0
  0
LINE
  5
8C
330
1F
100
AcDbEntity
  8
0
100
AcDbLine
 10
44.4808419795586
 20
7.562648355134055
 30
0.0
 11
44.50305601954042
 21
7.531835818484337
 31
0.0
  0
LINE
  5
8D
330
1F
100
AcDbEntity
  8
0
100
AcDbLine
 10
38.37651853723223
 20
1.741950525091568
 30
0.0
 11
38.37401773364034
 21
1.767237763703771
 31
0.0
  0
LINE
  5
8E
330
1F
100
AcDbEntity
  8
0
100
AcDbLine
 10
44.64428369557669
 20
7.23075025876175
 30
0.0
 11
44.65087249455046
 21
7.205847541725796
 31
0.0
  0
LINE
  5
8F
330
1F
100
AcDbEntity
  8
0
100
AcDbLine
 10
38.34735857627442
 20
1.944053527088072
 30
0.0
 11
38.34223872257878
 21
1.969209396665185
 31
0.0
  0
LINE
  5
90
330
1F
100
AcDbEntity
  8
0
100
AcDbLine
 10
38.31173826375939
 20
2.094187317588213
 30
0.0
 11
38.30466373970467
 21
2.118978148571533
 31
0.0
  0
LINE
  5
91
330
1F
100
AcDbEntity
  8
0
100
AcDbLine
 10
44.67401016520466
 20
7.079921880823658
 30
0.0
 11
44.67667383231293
 21
7.054631862513641
 31
0.0
  0
LINE
  5
92
330
1F
100
AcDbEntity
  8
0
100
AcDbLine
 10
44.40835643286673
 20
7.648718513568705
 30
0.0
 11
44.4334224076465
 21
7.621133208077018
 31
0.0
  0
LINE
  5
93
330
1F
100
AcDbEntity
  8
0
100
AcDbLine
 10
38.33679129145724
 20
1.994320325807871
 30
0.0
 11
38.33101678293234
 21
2.019379943595944
 31
0.0
  0
LINE
  5
94
330
1F
100
AcDbEntity
  8
0
100
AcDbLine
 10
37.79167432548459
 20
-0.0838831326889709
 30
0.0
 11
38.31998216763399
 21
0.3861070311932622
 31
0.0
  0
LINE
  5
95
330
1F
100
AcDbEntity
  8
0
100
AcDbLine
 10
37.67503885145415
 20
-2.080479276829368
 30
0.0
 11
38.20334669360356
 21
-1.610489112946909
 31
0.0
  0
LINE
  5
96
330
1F
100
AcDbEntity
  8
0
100
AcDbLine
 10
38.38474658273123
 20
1.59068632677514
 30
0.0
 11
38.38328565941157
 21
1.640980005633672
 31
0.0
  0
LINE
  5
97
330
1F
100
AcDbEntity
  8
0
100
AcDbLine
 10
38.14502895658811
 20
-2.608787185017063
 30
0.0
 11
37.67503885145415
 21
-2.080479276829368
 31
0.0
  0
LINE
  5
98
330
1F
100
AcDbEntity
  8
0
100
AcDbLine
 10
38.37401773364034
 20
1.767237763703771
 30
0.0
 11
38.37119120301534
 21
1.792530561711555
 31
0.0
  0
LINE
  5
99
330
1F
100
AcDbEntity
  8
0
100
AcDbLine
 10
44.67945296218839
 20
7.016748455253225
 30
0.0
 11
44.68078785506257
 21
6.978999763355518
 31
0.0
  0
LINE
  5
9A
330
1F
100
AcDbEntity
  8
0
100
AcDbLine
 10
44.53097514202137
 20
7.489238975820118
 30
0.0
 11
44.54416514610102
 21
7.467330515348418
 31
0.0
  0
LINE
  5
9B
330
1F
100
AcDbEntity
  8
0
100
AcDbLine
 10
38.02839348255759
 20
-4.605383329157393
 30
0.0
 11
37.55840337742372
 21
-4.0770754209699
 31
0.0
  0
LINE
  5
9C
330
1F
100
AcDbEntity
  8
0
100
AcDbLine
 10
37.97007574554206
 20
-5.603681401227568
 30
0.0
 11
37.50008564040819
 21
-5.075373493040099
 31
0.0
  0
LINE
  5
9D
330
1F
100
AcDbEntity
  8
0
100
AcDbLine
 10
38.38161367363278
 20
1.441131055887688
 30
0.0
 11
38.38389329280439
 21
1.4907166995742
 31
0.0
  0
LINE
  5
9E
330
1F
100
AcDbEntity
  8
0
100
AcDbLine
 10
37.61672111443889
 20
-3.07877734889977
 30
0.0
 11
38.14502895658811
 21
-2.608787185017063
 31
0.0
  0
LINE
  5
9F
330
1F
100
AcDbEntity
  8
0
100
AcDbLine
 10
38.33101678293234
 20
2.019379943595944
 30
0.0
 11
38.32491586170701
 21
2.044381883515832
 31
0.0
  0
LINE
  5
A0
330
1F
100
AcDbEntity
  8
0
100
AcDbLine
 10
37.73335658846977
 20
-1.082181204759147
 30
0.0
 11
38.26166443061864
 21
-0.6121910408768236
 31
0.0
  0
LINE
  5
A1
330
1F
100
AcDbEntity
  8
0
100
AcDbLine
 10
37.93838670306547
 20
2.81754604215452
 30
0.0
 11
37.90634211470237
 21
2.856062230077942
 31
0.0
  0
LINE
  5
A2
330
1F
100
AcDbEntity
  8
0
100
AcDbLine
 10
38.09844306732943
 20
2.589354178965134
 30
0.0
 11
38.08512115664829
 21
2.611164751705287
 31
0.0
  0
LINE
  5
A3
330
1F
100
AcDbEntity
  8
0
100
AcDbLine
 10
38.28954985246533
 20
2.16830456508744
 30
0.0
 11
38.28151362239169
 21
2.192827657365949
 31
0.0
  0
LINE
  5
A4
330
1F
100
AcDbEntity
  8
0
100
AcDbLine
 10
38.36455795768814
 20
1.84310792176155
 30
0.0
 11
38.36075013506581
 21
1.868379940182396
 31
0.0
  0
LINE
  5
A5
330
1F
100
AcDbEntity
  8
0
100
AcDbLine
 10
38.31998216763399
 20
0.3861070311932622
 30
0.0
 11
37.84999206250039
 21
0.9144149393812051
 31
0.0
  0
LINE
  5
A6
330
1F
100
AcDbEntity
  8
0
100
AcDbLine
 10
38.34223872257878
 20
1.969209396665185
 30
0.0
 11
38.33679129145724
 21
1.994320325807871
 31
0.0
  0
LINE
  5
A7
330
1F
100
AcDbEntity
  8
0
100
AcDbLine
 10
38.36803815542133
 20
1.817822699721252
 30
0.0
 11
38.36455795768814
 21
1.84310792176155
 31
0.0
  0
LINE
  5
A8
330
1F
100
AcDbEntity
  8
0
100
AcDbLine
 10
38.37829990464979
 20
1.384405103263709
 30
0.0
 11
38.38161367363278
 21
1.441131055887688
 31
0.0
  0
LINE
  5
A9
330
1F
100
AcDbEntity
  8
0
100
AcDbLine
 10
38.24621751122128
 20
2.289842149208305
 30
0.0
 11
38.23661670593877
 21
2.313796012774018
 31
0.0
  0
LINE
  5
AA
330
1F
100
AcDbEntity
  8
0
100
AcDbLine
 10
38.32491586170701
 20
2.044381883515832
 30
0.0
 11
38.3184893572644
 21
2.069319788767865
 31
0.0
  0
LINE
  5
AB
330
1F
100
AcDbEntity
  8
0
100
AcDbLine
 10
37.84999206250039
 20
0.9144149393812051
 30
0.0
 11
38.37829990464979
 21
1.384405103263709
 31
0.0
  0
LINE
  5
AC
330
1F
100
AcDbEntity
  8
0
100
AcDbLine
 10
38.38328565941157
 20
1.640980005633672
 30
0.0
 11
38.3805468957257
 21
1.69141739197787
 31
0.0
  0
LINE
  5
AD
330
1F
100
AcDbEntity
  8
0
100
AcDbLine
 10
38.22671013957022
 20
2.337618069664454
 30
0.0
 11
38.21650055203413
 21
2.361302488772277
 31
0.0
  0
LINE
  5
AE
330
1F
100
AcDbEntity
  8
0
100
AcDbLine
 10
38.28151362239169
 20
2.192827657365949
 30
0.0
 11
38.27316022592241
 21
2.217249075814607
 31
0.0
  0
LINE
  5
AF
330
1F
100
AcDbEntity
  8
0
100
AcDbLine
 10
38.0867112195724
 20
-3.607085257087194
 30
0.0
 11
37.61672111443889
 21
-3.07877734889977
 31
0.0
  0
LINE
  5
B0
330
1F
100
AcDbEntity
  8
0
100
AcDbLine
 10
38.26166443061864
 20
-0.6121910408768236
 30
0.0
 11
37.79167432548459
 21
-0.0838831326889709
 31
0.0
  0
LINE
  5
B1
330
1F
100
AcDbEntity
  8
0
100
AcDbLine
 10
38.21650055203413
 20
2.361302488772277
 30
0.0
 11
38.20599083080808
 21
2.384843515430147
 31
0.0
  0
LINE
  5
B2
330
1F
100
AcDbEntity
  8
0
100
AcDbLine
 10
38.37119120301534
 20
1.792530561711555
 30
0.0
 11
38.36803815542133
 21
1.817822699721252
 31
0.0
  0
LINE
  5
B3
330
1F
100
AcDbEntity
  8
0
100
AcDbLine
 10
38.35661437269707
 20
1.893632440632582
 30
0.0
 11
38.3521505169026
 21
1.918859087112333
 31
0.0
  0
LINE
  5
B4
330
1F
100
AcDbEntity
  8
0
100
AcDbLine
 10
38.20334669360356
 20
-1.610489112946909
 30
0.0
 11
37.73335658846977
 21
-1.082181204759147
 31
0.0
  0
LINE
  5
B5
330
1F
100
AcDbEntity
  8
0
100
AcDbLine
 10
38.3805468957257
 20
1.69141739197787
 30
0.0
 11
38.37651853723223
 21
1.741950525091568
 31
0.0
  0
LINE
  5
B6
330
1F
100
AcDbEntity
  8
0
100
AcDbLine
 10
38.38389329280439
 20
1.4907166995742
 30
0.0
 11
38.38494371169969
 21
1.540583295206113
 31
0.0
  0
LINE
  5
B7
330
1F
100
AcDbEntity
  8
0
100
AcDbLine
 10
38.3521505169026
 20
1.918859087112333
 30
0.0
 11
38.34735857627442
 21
1.944053527088072
 31
0.0
  0
LINE
  5
B8
330
1F
100
AcDbEntity
  8
0
100
AcDbLine
 10
38.25550996555702
 20
2.265762381769546
 30
0.0
 11
38.24621751122128
 21
2.289842149208305
 31
0.0
  0
LINE
  5
B9
330
1F
100
AcDbEntity
  8
0
100
AcDbLine
 10
38.20599083080808
 20
2.384843515430147
 30
0.0
 11
38.195184008254
 21
2.408235476049544
 31
0.0
  0
LINE
  5
BA
330
1F
100
AcDbEntity
  8
0
100
AcDbLine
 10
37.99989747685005
 20
2.737666078241295
 30
0.0
 11
37.96958546551291
 21
2.778071678207314
 31
0.0
  0
LINE
  5
BB
330
1F
100
AcDbEntity
  8
0
100
AcDbLine
 10
38.17269189576232
 20
2.454549937269469
 30
0.0
 11
38.16101336848399
 21
2.477461536236855
 31
0.0
  0
LINE
  5
BC
330
1F
100
AcDbEntity
  8
0
100
AcDbLine
 10
38.16101336848399
 20
2.477461536236855
 30
0.0
 11
38.14905125867764
 21
2.500202274326128
 31
0.0
  0
LINE
  5
BD
330
1F
100
AcDbEntity
  8
0
100
AcDbLine
 10
37.40671945811405
 20
3.277105201674767
 30
0.0
 11
37.38452792126354
 21
3.290100007169019
 31
0.0
  0
LINE
  5
BE
330
1F
100
AcDbEntity
  8
0
100
AcDbLine
 10
38.30466373970467
 20
2.118978148571533
 30
0.0
 11
38.29726710745158
 21
2.143685985988838
 31
0.0
  0
LINE
  5
BF
330
1F
100
AcDbEntity
  8
0
100
AcDbLine
 10
37.69565430227723
 20
3.068472165916161
 30
0.0
 11
37.65708520289921
 21
3.101088955624355
 31
0.0
  0
LINE
  5
C0
330
1F
100
AcDbEntity
  8
0
100
AcDbLine
 10
37.2939940068544
 20
3.339272090590121
 30
0.0
 11
37.27094529999131
 21
3.350845525315632
 31
0.0
  0
LINE
  5
C1
330
1F
100
AcDbEntity
  8
0
100
AcDbLine
 10
38.02928291168648
 20
2.696358437033861
 30
0.0
 11
37.99989747685005
 21
2.737666078241295
 31
0.0
  0
LINE
  5
C2
330
1F
100
AcDbEntity
  8
0
100
AcDbLine
 10
37.5147726948419
 20
3.208116056327272
 30
0.0
 11
37.49356532139292
 21
3.22243529208185
 31
0.0
  0
LINE
  5
C3
330
1F
100
AcDbEntity
  8
0
100
AcDbLine
 10
37.08145802215761
 20
3.432592100795467
 30
0.0
 11
37.05722359369025
 21
3.441417050780794
 31
0.0
  0
LINE
  5
C4
330
1F
100
AcDbEntity
  8
0
100
AcDbLine
 10
38.14905125867764
 20
2.500202274326128
 30
0.0
 11
38.13680927710091
 21
2.522766948758166
 31
0.0
  0
LINE
  5
C5
330
1F
100
AcDbEntity
  8
0
100
AcDbLine
 10
38.23661670593877
 20
2.313796012774018
 30
0.0
 11
38.22671013957022
 21
2.337618069664454
 31
0.0
  0
LINE
  5
C6
330
1F
100
AcDbEntity
  8
0
100
AcDbLine
 10
38.26449163145547
 20
2.241562680112536
 30
0.0
 11
38.25550996555702
 21
2.265762381769546
 31
0.0
  0
LINE
  5
C7
330
1F
100
AcDbEntity
  8
0
100
AcDbLine
 10
37.5565505828183
 20
3.178726305445288
 30
0.0
 11
37.53576924105667
 21
3.193544873511575
 31
0.0
  0
LINE
  5
C8
330
1F
100
AcDbEntity
  8
0
100
AcDbLine
 10
37.96958546551291
 20
2.778071678207314
 30
0.0
 11
37.93838670306547
 21
2.81754604215452
 31
0.0
  0
LINE
  5
C9
330
1F
100
AcDbEntity
  8
0
100
AcDbLine
 10
38.195184008254
 20
2.408235476049544
 30
0.0
 11
38.18408325876818
 21
2.431472782650737
 31
0.0
  0
LINE
  5
CA
330
1F
100
AcDbEntity
  8
0
100
AcDbLine
 10
37.03288752829297
 20
3.449925280731029
 30
0.0
 11
37.00845603386252
 21
3.458115103390967
 31
0.0
  0
LINE
  5
CB
330
1F
100
AcDbEntity
  8
0
100
AcDbLine
 10
37.53576924105667
 20
3.193544873511575
 30
0.0
 11
37.5147726948419
 21
3.208116056327272
 31
0.0
  0
LINE
  5
CC
330
1F
100
AcDbEntity
  8
0
100
AcDbLine
 10
38.18408325876818
 20
2.431472782650737
 30
0.0
 11
38.17269189576232
 21
2.454549937269469
 31
0.0
  0
LINE
  5
CD
330
1F
100
AcDbEntity
  8
0
100
AcDbLine
 10
37.90634211470237
 20
2.856062230077942
 30
0.0
 11
37.87349357192483
 21
2.893595598001949
 31
0.0
  0
LINE
  5
CE
330
1F
100
AcDbEntity
  8
0
100
AcDbLine
 10
38.0577031961388
 20
2.654180150781896
 30
0.0
 11
38.04361605559757
 21
2.675376077989655
 31
0.0
  0
LINE
  5
CF
330
1F
100
AcDbEntity
  8
0
100
AcDbLine
 10
38.08512115664829
 20
2.611164751705287
 30
0.0
 11
38.07153973154139
 21
2.632774913177607
 31
0.0
  0
LINE
  5
D0
330
1F
100
AcDbEntity
  8
0
100
AcDbLine
 10
38.04361605559757
 20
2.675376077989655
 30
0.0
 11
38.02928291168648
 21
2.696358437033861
 31
0.0
  0
LINE
  5
D1
330
1F
100
AcDbEntity
  8
0
100
AcDbLine
 10
38.27316022592241
 20
2.217249075814607
 30
0.0
 11
38.26449163145547
 21
2.241562680112536
 31
0.0
  0
LINE
  5
D2
330
1F
100
AcDbEntity
  8
0
100
AcDbLine
 10
38.13680927710091
 20
2.522766948758166
 30
0.0
 11
38.12429125989189
 21
2.54515046305738
 31
0.0
  0
LINE
  5
D3
330
1F
100
AcDbEntity
  8
0
100
AcDbLine
 10
37.3621543637737
 20
3.3028177919196
 30
0.0
 11
37.33960397896321
 21
3.31525479741973
 31
0.0
  0
LINE
  5
D4
330
1F
100
AcDbEntity
  8
0
100
AcDbLine
 10
37.87349357192483
 20
2.893595598001949
 30
0.0
 11
37.83988373833856
 21
2.93012382720271
 31
0.0
  0
LINE
  5
D5
330
1F
100
AcDbEntity
  8
0
100
AcDbLine
 10
37.05722359369025
 20
3.441417050780794
 30
0.0
 11
37.03288752829297
 21
3.449925280731029
 31
0.0
  0
LINE
  5
D6
330
1F
100
AcDbEntity
  8
0
100
AcDbLine
 10
38.11150116480777
 20
2.567347830761615
 30
0.0
 11
38.09844306732943
 21
2.589354178965134
 31
0.0
  0
LINE
  5
D7
330
1F
100
AcDbEntity
  8
0
100
AcDbLine
 10
38.29726710745158
 20
2.143685985988838
 30
0.0
 11
38.28954985246533
 21
2.16830456508744
 31
0.0
  0
LINE
  5
D8
330
1F
100
AcDbEntity
  8
0
100
AcDbLine
 10
36.95933176014675
 20
3.473533588967762
 30
0.0
 11
36.93465155146086
 21
3.480759690798391
 31
0.0
  0
LINE
  5
D9
330
1F
100
AcDbEntity
  8
0
100
AcDbLine
 10
37.83988373833856
 20
2.93012382720271
 30
0.0
 11
37.80537773179052
 21
2.965806707399029
 31
0.0
  0
LINE
  5
DA
330
1F
100
AcDbEntity
  8
0
100
AcDbLine
 10
38.07153973154139
 20
2.632774913177607
 30
0.0
 11
38.0577031961388
 21
2.654180150781896
 31
0.0
  0
LINE
  5
DB
330
1F
100
AcDbEntity
  8
0
100
AcDbLine
 10
38.12429125989189
 20
2.54515046305738
 30
0.0
 11
38.11150116480777
 21
2.567347830761615
 31
0.0
  0
LINE
  5
DC
330
1F
100
AcDbEntity
  8
0
100
AcDbLine
 10
37.45053623042222
 20
3.250300191427344
 30
0.0
 11
37.42872388700735
 21
3.263837260475542
 31
0.0
  0
LINE
  5
DD
330
1F
100
AcDbEntity
  8
0
100
AcDbLine
 10
37.7332420373253
 20
3.035024441757304
 30
0.0
 11
37.69565430227723
 21
3.068472165916161
 31
0.0
  0
LINE
  5
DE
330
1F
100
AcDbEntity
  8
0
100
AcDbLine
 10
37.27094529999131
 20
3.350845525315632
 30
0.0
 11
37.24774151810199
 21
3.362124481280923
 31
0.0
  0
LINE
  5
DF
330
1F
100
AcDbEntity
  8
0
100
AcDbLine
 10
-36.90990104433861
 20
3.487662264209475
 30
0.0
 11
-36.93465155146045
 21
3.480759690798481
 31
0.0
  0
LINE
  5
E0
330
1F
100
AcDbEntity
  8
0
100
AcDbLine
 10
36.83529107975694
 20
3.506420927398678
 30
0.0
 11
36.8103227487261
 21
3.512022320378126
 31
0.0
  0
LINE
  5
E1
330
1F
100
AcDbEntity
  8
0
100
AcDbLine
 10
37.49356532139292
 20
3.22243529208185
 30
0.0
 11
37.47215162427371
 21
3.236498121356
 31
0.0
  0
LINE
  5
E2
330
1F
100
AcDbEntity
  8
0
100
AcDbLine
 10
37.76982390055608
 20
3.000788209776581
 30
0.0
 11
37.7332420373253
 21
3.035024441757304
 31
0.0
  0
LINE
  5
E3
330
1F
100
AcDbEntity
  8
0
100
AcDbLine
 10
-36.78531580823913
 20
3.517297469944168
 30
0.0
 11
-36.81032274872615
 21
3.512022320378239
 31
0.0
  0
LINE
  5
E4
330
1F
100
AcDbEntity
  8
0
100
AcDbLine
 10
-37.31688206220822
 20
3.327407395267242
 30
0.0
 11
-37.33960397896317
 21
3.31525479741973
 31
0.0
  0
LINE
  5
E5
330
1F
100
AcDbEntity
  8
0
100
AcDbLine
 10
36.68502810081081
 20
3.535136966129926
 30
0.0
 11
36.6348159025339
 21
3.542105447485978
 31
0.0
  0
LINE
  5
E6
330
1F
100
AcDbEntity
  8
0
100
AcDbLine
 10
37.17725673315932
 20
3.394164454186184
 30
0.0
 11
37.1534900447735
 21
3.404236210970069
 31
0.0
  0
LINE
  5
E7
330
1F
100
AcDbEntity
  8
0
100
AcDbLine
 10
37.42872388700735
 20
3.263837260475542
 30
0.0
 11
37.40671945811405
 21
3.277105201674767
 31
0.0
  0
LINE
  5
E8
330
1F
100
AcDbEntity
  8
0
100
AcDbLine
 10
37.5974507924084
 20
3.148365746264407
 30
0.0
 11
37.57711247204644
 21
3.163665011928921
 31
0.0
  0
LINE
  5
E9
330
1F
100
AcDbEntity
  8
0
100
AcDbLine
 10
37.57711247204644
 20
3.163665011928921
 30
0.0
 11
37.5565505828183
 21
3.178726305445288
 31
0.0
  0
LINE
  5
EA
330
1F
100
AcDbEntity
  8
0
100
AcDbLine
 10
37.12959734410577
 20
3.413999593639755
 30
0.0
 11
37.10558464623368
 21
3.42345227905668
 31
0.0
  0
LINE
  5
EB
330
1F
100
AcDbEntity
  8
0
100
AcDbLine
 10
37.24774151810199
 20
3.362124481280923
 30
0.0
 11
37.22438832258219
 21
3.373105883173331
 31
0.0
  0
LINE
  5
EC
330
1F
100
AcDbEntity
  8
0
100
AcDbLine
 10
37.61756156174982
 20
3.132833350693168
 30
0.0
 11
37.5974507924084
 21
3.148365746264407
 31
0.0
  0
LINE
  5
ED
330
1F
100
AcDbEntity
  8
0
100
AcDbLine
 10
37.1534900447735
 20
3.404236210970069
 30
0.0
 11
37.12959734410577
 21
3.413999593639755
 31
0.0
  0
LINE
  5
EE
330
1F
100
AcDbEntity
  8
0
100
AcDbLine
 10
37.38452792126354
 20
3.290100007169019
 30
0.0
 11
37.3621543637737
 21
3.3028177919196
 31
0.0
  0
LINE
  5
EF
330
1F
100
AcDbEntity
  8
0
100
AcDbLine
 10
37.33960397896321
 20
3.31525479741973
 30
0.0
 11
37.31688206220818
 21
3.327407395267242
 31
0.0
  0
LINE
  5
F0
330
1F
100
AcDbEntity
  8
0
100
AcDbLine
 10
37.22438832258219
 20
3.373105883173331
 30
0.0
 11
37.20089145515323
 21
3.383786801301182
 31
0.0
  0
LINE
  5
F1
330
1F
100
AcDbEntity
  8
0
100
AcDbLine
 10
36.8602144671539
 20
3.500493507088937
 30
0.0
 11
36.83529107975694
 21
3.506420927398678
 31
0.0
  0
LINE
  5
F2
330
1F
100
AcDbEntity
  8
0
100
AcDbLine
 10
37.47215162427371
 20
3.236498121356
 30
0.0
 11
37.45053623042222
 21
3.250300191427344
 31
0.0
  0
LINE
  5
F3
330
1F
100
AcDbEntity
  8
0
100
AcDbLine
 10
37.20089145515323
 20
3.383786801301182
 30
0.0
 11
37.17725673315932
 21
3.394164454186184
 31
0.0
  0
LINE
  5
F4
330
1F
100
AcDbEntity
  8
0
100
AcDbLine
 10
36.8103227487261
 20
3.512022320378126
 30
0.0
 11
36.78531580823913
 21
3.51729746994428
 31
0.0
  0
LINE
  5
F5
330
1F
100
AcDbEntity
  8
0
100
AcDbLine
 10
37.10558464623368
 20
3.42345227905668
 30
0.0
 11
37.08145802215761
 21
3.432592100795467
 31
0.0
  0
LINE
  5
F6
330
1F
100
AcDbEntity
  8
0
100
AcDbLine
 10
37.80537773179052
 20
2.965806707399029
 30
0.0
 11
37.76982390055608
 21
3.000788209776581
 31
0.0
  0
LINE
  5
F7
330
1F
100
AcDbEntity
  8
0
100
AcDbLine
 10
37.31688206220818
 20
3.327407395267242
 30
0.0
 11
37.2939940068544
 21
3.339272090590121
 31
0.0
  0
LINE
  5
F8
330
1F
100
AcDbEntity
  8
0
100
AcDbLine
 10
37.65708520289921
 20
3.101088955624355
 30
0.0
 11
37.61756156174982
 21
3.132833350693168
 31
0.0
  0
LINE
  5
F9
330
1F
100
AcDbEntity
  8
0
100
AcDbLine
 10
36.983935353483
 20
3.465984993570028
 30
0.0
 11
36.95933176014675
 21
3.473533588967762
 31
0.0
  0
LINE
  5
FA
330
1F
100
AcDbEntity
  8
0
100
AcDbLine
 10
36.53450120318737
 20
3.552172395955076
 30
0.0
 11
36.48449494573617
 21
3.555291085232735
 31
0.0
  0
LINE
  5
FB
330
1F
100
AcDbEntity
  8
0
100
AcDbLine
 10
36.43465196761818
 20
3.557150561316896
 30
0.0
 11
36.38501777906335
 21
3.557766544497638
 31
0.0
  0
LINE
  5
FC
330
1F
100
AcDbEntity
  8
0
100
AcDbLine
 10
-36.83529107975703
 20
3.506420927398769
 30
0.0
 11
-36.8602144671538
 21
3.500493507088892
 31
0.0
  0
LINE
  5
FD
330
1F
100
AcDbEntity
  8
0
100
AcDbLine
 10
-36.58462408180056
 20
3.547780944934808
 30
0.0
 11
-36.63481590253377
 21
3.542105447486091
 31
0.0
  0
LINE
  5
FE
330
1F
100
AcDbEntity
  8
0
100
AcDbLine
 10
36.90990104433865
 20
3.487662264209363
 30
0.0
 11
36.88508656969631
 21
3.494240438491967
 31
0.0
  0
LINE
  5
FF
330
1F
100
AcDbEntity
  8
0
100
AcDbLine
 10
-36.73521136942683
 20
3.526868984344939
 30
0.0
 11
-36.76027658026117
 21
3.522246322179495
 31
0.0
  0
LINE
  5
100
330
1F
100
AcDbEntity
  8
0
100
AcDbLine
 10
-36.38501777906298
 20
3.557766544497571
 30
0.0
 11
-36.43465196761787
 21
3.557150561316806
 31
0.0
  0
LINE
  5
101
330
1F
100
AcDbEntity
  8
0
100
AcDbLine
 10
-36.43465196761787
 20
3.557150561316806
 30
0.0
 11
-36.48449494573581
 21
3.555291085232577
 31
0.0
  0
LINE
  5
102
330
1F
100
AcDbEntity
  8
0
100
AcDbLine
 10
36.48449494573617
 20
3.555291085232735
 30
0.0
 11
36.43465196761818
 21
3.557150561316896
 31
0.0
  0
LINE
  5
103
330
1F
100
AcDbEntity
  8
0
100
AcDbLine
 10
36.58462408180052
 20
3.547780944935033
 30
0.0
 11
36.53450120318737
 21
3.552172395955076
 31
0.0
  0
LINE
  5
104
330
1F
100
AcDbEntity
  8
0
100
AcDbLine
 10
36.6348159025339
 20
3.542105447485978
 30
0.0
 11
36.58462408180052
 21
3.547780944935033
 31
0.0
  0
LINE
  5
105
330
1F
100
AcDbEntity
  8
0
100
AcDbLine
 10
-37.55655058281825
 20
3.178726305445423
 30
0.0
 11
-37.57711247204621
 21
3.163665011928921
 31
0.0
  0
LINE
  5
106
330
1F
100
AcDbEntity
  8
0
100
AcDbLine
 10
36.78531580823913
 20
3.51729746994428
 30
0.0
 11
36.76027658026094
 21
3.52224632217936
 31
0.0
  0
LINE
  5
107
330
1F
100
AcDbEntity
  8
0
100
AcDbLine
 10
-36.88508656969609
 20
3.494240438491921
 30
0.0
 11
-36.90990104433861
 21
3.487662264209475
 31
0.0
  0
LINE
  5
108
330
1F
100
AcDbEntity
  8
0
100
AcDbLine
 10
-36.8602144671538
 20
3.500493507088892
 30
0.0
 11
-36.88508656969609
 21
3.494240438491921
 31
0.0
  0
LINE
  5
109
330
1F
100
AcDbEntity
  8
0
100
AcDbLine
 10
37.00845603386252
 20
3.458115103390967
 30
0.0
 11
36.983935353483
 21
3.465984993570028
 31
0.0
  0
LINE
  5
10A
330
1F
100
AcDbEntity
  8
0
100
AcDbLine
 10
36.88508656969631
 20
3.494240438491967
 30
0.0
 11
36.8602144671539
 21
3.500493507088937
 31
0.0
  0
LINE
  5
10B
330
1F
100
AcDbEntity
  8
0
100
AcDbLine
 10
-37.22438832258229
 20
3.373105883173353
 30
0.0
 11
-37.24774151810158
 21
3.362124481280855
 31
0.0
  0
LINE
  5
10C
330
1F
100
AcDbEntity
  8
0
100
AcDbLine
 10
-36.81032274872615
 20
3.512022320378239
 30
0.0
 11
-36.83529107975703
 21
3.506420927398769
 31
0.0
  0
LINE
  5
10D
330
1F
100
AcDbEntity
  8
0
100
AcDbLine
 10
-37.33960397896317
 20
3.31525479741973
 30
0.0
 11
-37.36215436377339
 21
3.302817791919668
 31
0.0
  0
LINE
  5
10E
330
1F
100
AcDbEntity
  8
0
100
AcDbLine
 10
-36.93465155146045
 20
3.480759690798481
 30
0.0
 11
-36.95933176014671
 21
3.473533588967762
 31
0.0
  0
LINE
  5
10F
330
1F
100
AcDbEntity
  8
0
100
AcDbLine
 10
-36.71012645798495
 20
3.531165723697862
 30
0.0
 11
-36.73521136942683
 21
3.526868984344939
 31
0.0
  0
LINE
  5
110
330
1F
100
AcDbEntity
  8
0
100
AcDbLine
 10
-37.12959734410545
 20
3.4139995936398
 30
0.0
 11
-37.15349004477328
 21
3.404236210970069
 31
0.0
  0
LINE
  5
111
330
1F
100
AcDbEntity
  8
0
100
AcDbLine
 10
36.73521136942724
 20
3.526868984344826
 30
0.0
 11
36.71012645798508
 21
3.531165723697907
 31
0.0
  0
LINE
  5
112
330
1F
100
AcDbEntity
  8
0
100
AcDbLine
 10
-37.17725673315932
 20
3.394164454186162
 30
0.0
 11
-37.20089145515278
 21
3.38378680130107
 31
0.0
  0
LINE
  5
113
330
1F
100
AcDbEntity
  8
0
100
AcDbLine
 10
36.71012645798508
 20
3.531165723697907
 30
0.0
 11
36.68502810081081
 21
3.535136966129926
 31
0.0
  0
LINE
  5
114
330
1F
100
AcDbEntity
  8
0
100
AcDbLine
 10
36.93465155146086
 20
3.480759690798391
 30
0.0
 11
36.90990104433865
 21
3.487662264209363
 31
0.0
  0
LINE
  5
115
330
1F
100
AcDbEntity
  8
0
100
AcDbLine
 10
-36.53450120318723
 20
3.552172395954895
 30
0.0
 11
-36.58462408180056
 21
3.547780944934808
 31
0.0
  0
LINE
  5
116
330
1F
100
AcDbEntity
  8
0
100
AcDbLine
 10
-36.63481590253377
 20
3.542105447486091
 30
0.0
 11
-36.68502810081045
 21
3.535136966130061
 31
0.0
  0
LINE
  5
117
330
1F
100
AcDbEntity
  8
0
100
AcDbLine
 10
36.76027658026094
 20
3.52224632217936
 30
0.0
 11
36.73521136942724
 21
3.526868984344826
 31
0.0
  0
LINE
  5
118
330
1F
100
AcDbEntity
  8
0
100
AcDbLine
 10
-37.24774151810158
 20
3.362124481280855
 30
0.0
 11
-37.27094529999145
 21
3.350845525315406
 31
0.0
  0
LINE
  5
119
330
1F
100
AcDbEntity
  8
0
100
AcDbLine
 10
-37.05722359369016
 20
3.441417050780816
 30
0.0
 11
-37.0814580221572
 21
3.432592100795445
 31
0.0
  0
LINE
  5
11A
330
1F
100
AcDbEntity
  8
0
100
AcDbLine
 10
-37.69565430227737
 20
3.068472165916206
 30
0.0
 11
-37.73324203732507
 21
3.035024441757507
 31
0.0
  0
LINE
  5
11B
330
1F
100
AcDbEntity
  8
0
100
AcDbLine
 10
-37.36215436377339
 20
3.302817791919668
 30
0.0
 11
-37.38452792126341
 21
3.290100007168884
 31
0.0
  0
LINE
  5
11C
330
1F
100
AcDbEntity
  8
0
100
AcDbLine
 10
-37.10558464623337
 20
3.423452279056702
 30
0.0
 11
-37.12959734410545
 21
3.4139995936398
 31
0.0
  0
LINE
  5
11D
330
1F
100
AcDbEntity
  8
0
100
AcDbLine
 10
-36.76027658026117
 20
3.522246322179495
 30
0.0
 11
-36.78531580823913
 21
3.517297469944168
 31
0.0
  0
LINE
  5
11E
330
1F
100
AcDbEntity
  8
0
100
AcDbLine
 10
-37.99989747684982
 20
2.737666078241363
 30
0.0
 11
-38.02928291168629
 21
2.696358437033883
 31
0.0
  0
LINE
  5
11F
330
1F
100
AcDbEntity
  8
0
100
AcDbLine
 10
-37.27094529999145
 20
3.350845525315406
 30
0.0
 11
-37.29399400685418
 21
3.339272090590076
 31
0.0
  0
LINE
  5
120
330
1F
100
AcDbEntity
  8
0
100
AcDbLine
 10
-37.90634211470214
 20
2.856062230077965
 30
0.0
 11
-37.93838670306552
 21
2.817546042154498
 31
0.0
  0
LINE
  5
121
330
1F
100
AcDbEntity
  8
0
100
AcDbLine
 10
-38.27316022592214
 20
2.217249075814562
 30
0.0
 11
-38.28151362239164
 21
2.192827657365994
 31
0.0
  0
LINE
  5
122
330
1F
100
AcDbEntity
  8
0
100
AcDbLine
 10
-37.6175615617496
 20
3.132833350693213
 30
0.0
 11
-37.65708520289908
 21
3.10108895562431
 31
0.0
  0
LINE
  5
123
330
1F
100
AcDbEntity
  8
0
100
AcDbLine
 10
-37.29399400685418
 20
3.339272090590076
 30
0.0
 11
-37.31688206220822
 21
3.327407395267242
 31
0.0
  0
LINE
  5
124
330
1F
100
AcDbEntity
  8
0
100
AcDbLine
 10
-37.38452792126341
 20
3.290100007168884
 30
0.0
 11
-37.40671945811383
 21
3.277105201674789
 31
0.0
  0
LINE
  5
125
330
1F
100
AcDbEntity
  8
0
100
AcDbLine
 10
-37.03288752829292
 20
3.449925280731119
 30
0.0
 11
-37.05722359369016
 21
3.441417050780816
 31
0.0
  0
LINE
  5
126
330
1F
100
AcDbEntity
  8
0
100
AcDbLine
 10
-38.14905125867787
 20
2.50020227432606
 30
0.0
 11
-38.16101336848399
 21
2.477461536236788
 31
0.0
  0
LINE
  5
127
330
1F
100
AcDbEntity
  8
0
100
AcDbLine
 10
-36.48449494573581
 20
3.555291085232577
 30
0.0
 11
-36.53450120318723
 21
3.552172395954895
 31
0.0
  0
LINE
  5
128
330
1F
100
AcDbEntity
  8
0
100
AcDbLine
 10
-36.68502810081045
 20
3.535136966130061
 30
0.0
 11
-36.71012645798495
 21
3.531165723697862
 31
0.0
  0
LINE
  5
129
330
1F
100
AcDbEntity
  8
0
100
AcDbLine
 10
-38.22671013957017
 20
2.33761806966459
 30
0.0
 11
-38.23661670593864
 21
2.313796012774018
 31
0.0
  0
LINE
  5
12A
330
1F
100
AcDbEntity
  8
0
100
AcDbLine
 10
-38.02928291168629
 20
2.696358437033883
 30
0.0
 11
-38.0436160555973
 21
2.675376077989677
 31
0.0
  0
LINE
  5
12B
330
1F
100
AcDbEntity
  8
0
100
AcDbLine
 10
-37.20089145515278
 20
3.38378680130107
 30
0.0
 11
-37.22438832258229
 21
3.373105883173353
 31
0.0
  0
LINE
  5
12C
330
1F
100
AcDbEntity
  8
0
100
AcDbLine
 10
-38.08512115664834
 20
2.611164751705287
 30
0.0
 11
-38.09844306732929
 21
2.589354178965202
 31
0.0
  0
LINE
  5
12D
330
1F
100
AcDbEntity
  8
0
100
AcDbLine
 10
-38.05770319613875
 20
2.654180150781963
 30
0.0
 11
-38.07153973154139
 21
2.632774913177585
 31
0.0
  0
LINE
  5
12E
330
1F
100
AcDbEntity
  8
0
100
AcDbLine
 10
-37.83988373833834
 20
2.93012382720289
 30
0.0
 11
-37.87349357192487
 21
2.893595598001791
 31
0.0
  0
LINE
  5
12F
330
1F
100
AcDbEntity
  8
0
100
AcDbLine
 10
-37.76982390055576
 20
3.000788209776581
 30
0.0
 11
-37.8053777317902
 21
2.965806707398939
 31
0.0
  0
LINE
  5
130
330
1F
100
AcDbEntity
  8
0
100
AcDbLine
 10
-38.07153973154139
 20
2.632774913177585
 30
0.0
 11
-38.08512115664834
 21
2.611164751705287
 31
0.0
  0
LINE
  5
131
330
1F
100
AcDbEntity
  8
0
100
AcDbLine
 10
-38.23661670593864
 20
2.313796012774018
 30
0.0
 11
-38.24621751122101
 21
2.289842149208169
 31
0.0
  0
LINE
  5
132
330
1F
100
AcDbEntity
  8
0
100
AcDbLine
 10
-37.40671945811383
 20
3.277105201674789
 30
0.0
 11
-37.42872388700708
 21
3.263837260475475
 31
0.0
  0
LINE
  5
133
330
1F
100
AcDbEntity
  8
0
100
AcDbLine
 10
-37.59745079240826
 20
3.148365746264362
 30
0.0
 11
-37.6175615617496
 21
3.132833350693213
 31
0.0
  0
LINE
  5
134
330
1F
100
AcDbEntity
  8
0
100
AcDbLine
 10
-38.0436160555973
 20
2.675376077989677
 30
0.0
 11
-38.05770319613875
 21
2.654180150781963
 31
0.0
  0
LINE
  5
135
330
1F
100
AcDbEntity
  8
0
100
AcDbLine
 10
-37.57711247204621
 20
3.163665011928921
 30
0.0
 11
-37.59745079240826
 21
3.148365746264362
 31
0.0
  0
LINE
  5
136
330
1F
100
AcDbEntity
  8
0
100
AcDbLine
 10
-38.2555099655567
 20
2.265762381769546
 30
0.0
 11
-38.26449163145525
 21
2.241562680112446
 31
0.0
  0
LINE
  5
137
330
1F
100
AcDbEntity
  8
0
100
AcDbLine
 10
-36.98393535348282
 20
3.465984993570073
 30
0.0
 11
-37.00845603386265
 21
3.458115103391012
 31
0.0
  0
LINE
  5
138
330
1F
100
AcDbEntity
  8
0
100
AcDbLine
 10
-37.00845603386265
 20
3.458115103391012
 30
0.0
 11
-37.03288752829292
 21
3.449925280731119
 31
0.0
  0
LINE
  5
139
330
1F
100
AcDbEntity
  8
0
100
AcDbLine
 10
-37.0814580221572
 20
3.432592100795445
 30
0.0
 11
-37.10558464623337
 21
3.423452279056702
 31
0.0
  0
LINE
  5
13A
330
1F
100
AcDbEntity
  8
0
100
AcDbLine
 10
-37.45053623042199
 20
3.250300191427479
 30
0.0
 11
-37.47215162427335
 21
3.236498121356045
 31
0.0
  0
LINE
  5
13B
330
1F
100
AcDbEntity
  8
0
100
AcDbLine
 10
-37.15349004477328
 20
3.404236210970069
 30
0.0
 11
-37.17725673315932
 21
3.394164454186162
 31
0.0
  0
LINE
  5
13C
330
1F
100
AcDbEntity
  8
0
100
AcDbLine
 10
-37.49356532139269
 20
3.222435292081669
 30
0.0
 11
-37.51477269484167
 21
3.208116056327182
 31
0.0
  0
LINE
  5
13D
330
1F
100
AcDbEntity
  8
0
100
AcDbLine
 10
-36.95933176014671
 20
3.473533588967762
 30
0.0
 11
-36.98393535348282
 21
3.465984993570073
 31
0.0
  0
LINE
  5
13E
330
1F
100
AcDbEntity
  8
0
100
AcDbLine
 10
-38.12429125989171
 20
2.545150463057448
 30
0.0
 11
-38.13680927710069
 21
2.522766948758053
 31
0.0
  0
LINE
  5
13F
330
1F
100
AcDbEntity
  8
0
100
AcDbLine
 10
-38.17269189576228
 20
2.454549937269447
 30
0.0
 11
-38.18408325876795
 21
2.431472782650646
 31
0.0
  0
LINE
  5
140
330
1F
100
AcDbEntity
  8
0
100
AcDbLine
 10
-37.42872388700708
 20
3.263837260475475
 30
0.0
 11
-37.45053623042199
 21
3.250300191427479
 31
0.0
  0
LINE
  5
141
330
1F
100
AcDbEntity
  8
0
100
AcDbLine
 10
-37.51477269484167
 20
3.208116056327182
 30
0.0
 11
-37.53576924105636
 21
3.193544873511394
 31
0.0
  0
LINE
  5
142
330
1F
100
AcDbEntity
  8
0
100
AcDbLine
 10
-38.36075013506567
 20
1.868379940182351
 30
0.0
 11
-38.3645579576881
 21
1.843107921761685
 31
0.0
  0
LINE
  5
143
330
1F
100
AcDbEntity
  8
0
100
AcDbLine
 10
-37.9695854655126
 20
2.778071678207201
 30
0.0
 11
-37.99989747684982
 21
2.737666078241363
 31
0.0
  0
LINE
  5
144
330
1F
100
AcDbEntity
  8
0
100
AcDbLine
 10
-38.37119120301547
 20
1.792530561711555
 30
0.0
 11
-38.37401773364034
 21
1.767237763703839
 31
0.0
  0
LINE
  5
145
330
1F
100
AcDbEntity
  8
0
100
AcDbLine
 10
-38.38161367363265
 20
1.441131055887891
 30
0.0
 11
-38.37829990464948
 21
1.384405103263754
 31
0.0
  0
LINE
  5
146
330
1F
100
AcDbEntity
  8
0
100
AcDbLine
 10
-37.47215162427335
 20
3.236498121356045
 30
0.0
 11
-37.49356532139269
 21
3.222435292081669
 31
0.0
  0
LINE
  5
147
330
1F
100
AcDbEntity
  8
0
100
AcDbLine
 10
-38.31173826375934
 20
2.094187317588191
 30
0.0
 11
-38.31848935726453
 21
2.069319788767752
 31
0.0
  0
LINE
  5
148
330
1F
100
AcDbEntity
  8
0
100
AcDbLine
 10
-37.73324203732507
 20
3.035024441757507
 30
0.0
 11
-37.76982390055576
 21
3.000788209776581
 31
0.0
  0
LINE
  5
149
330
1F
100
AcDbEntity
  8
0
100
AcDbLine
 10
-38.32491586170678
 20
2.044381883515719
 30
0.0
 11
-38.33101678293193
 21
2.019379943595854
 31
0.0
  0
LINE
  5
14A
330
1F
100
AcDbEntity
  8
0
100
AcDbLine
 10
-38.34735857627437
 20
1.944053527088094
 30
0.0
 11
-38.35215051690246
 21
1.918859087112356
 31
0.0
  0
LINE
  5
14B
330
1F
100
AcDbEntity
  8
0
100
AcDbLine
 10
-38.38054689572552
 20
1.691417391977847
 30
0.0
 11
-38.38328565941126
 21
1.640980005633672
 31
0.0
  0
LINE
  5
14C
330
1F
100
AcDbEntity
  8
0
100
AcDbLine
 10
-38.09844306732929
 20
2.589354178965202
 30
0.0
 11
-38.1115011648075
 21
2.567347830761773
 31
0.0
  0
LINE
  5
14D
330
1F
100
AcDbEntity
  8
0
100
AcDbLine
 10
-37.93838670306552
 20
2.817546042154498
 30
0.0
 11
-37.9695854655126
 21
2.778071678207201
 31
0.0
  0
LINE
  5
14E
330
1F
100
AcDbEntity
  8
0
100
AcDbLine
 10
-38.36803815542128
 20
1.81782269972123
 30
0.0
 11
-38.37119120301547
 21
1.792530561711555
 31
0.0
  0
LINE
  5
14F
330
1F
100
AcDbEntity
  8
0
100
AcDbLine
 10
-37.87349357192487
 20
2.893595598001791
 30
0.0
 11
-37.90634211470214
 21
2.856062230077965
 31
0.0
  0
LINE
  5
150
330
1F
100
AcDbEntity
  8
0
100
AcDbLine
 10
-38.29726710745145
 20
2.143685985988838
 30
0.0
 11
-38.30466373970427
 21
2.118978148571578
 31
0.0
  0
LINE
  5
151
330
1F
100
AcDbEntity
  8
0
100
AcDbLine
 10
-38.38494371169964
 20
1.54058329520609
 30
0.0
 11
-38.38389329280421
 21
1.490716699574335
 31
0.0
  0
LINE
  5
152
330
1F
100
AcDbEntity
  8
0
100
AcDbLine
 10
-38.37401773364034
 20
1.767237763703839
 30
0.0
 11
-38.37651853723214
 21
1.741950525091545
 31
0.0
  0
LINE
  5
153
330
1F
100
AcDbEntity
  8
0
100
AcDbLine
 10
-37.65708520289908
 20
3.10108895562431
 30
0.0
 11
-37.69565430227737
 21
3.068472165916206
 31
0.0
  0
LINE
  5
154
330
1F
100
AcDbEntity
  8
0
100
AcDbLine
 10
-38.3645579576881
 20
1.843107921761685
 30
0.0
 11
-38.36803815542128
 21
1.81782269972123
 31
0.0
  0
LINE
  5
155
330
1F
100
AcDbEntity
  8
0
100
AcDbLine
 10
-38.1115011648075
 20
2.567347830761773
 30
0.0
 11
-38.12429125989171
 21
2.545150463057448
 31
0.0
  0
LINE
  5
156
330
1F
100
AcDbEntity
  8
0
100
AcDbLine
 10
-38.28954985246519
 20
2.168304565087486
 30
0.0
 11
-38.29726710745145
 21
2.143685985988838
 31
0.0
  0
LINE
  5
157
330
1F
100
AcDbEntity
  8
0
100
AcDbLine
 10
-38.18408325876795
 20
2.431472782650646
 30
0.0
 11
-38.19518400825373
 21
2.408235476049589
 31
0.0
  0
LINE
  5
158
330
1F
100
AcDbEntity
  8
0
100
AcDbLine
 10
-37.8053777317902
 20
2.965806707398939
 30
0.0
 11
-37.83988373833834
 21
2.93012382720289
 31
0.0
  0
LINE
  5
159
330
1F
100
AcDbEntity
  8
0
100
AcDbLine
 10
-38.216500552034
 20
2.361302488772322
 30
0.0
 11
-38.22671013957017
 21
2.33761806966459
 31
0.0
  0
LINE
  5
15A
330
1F
100
AcDbEntity
  8
0
100
AcDbLine
 10
-38.35661437269729
 20
1.893632440632808
 30
0.0
 11
-38.36075013506567
 21
1.868379940182351
 31
0.0
  0
LINE
  5
15B
330
1F
100
AcDbEntity
  8
0
100
AcDbLine
 10
-38.33679129145706
 20
1.994320325807736
 30
0.0
 11
-38.34223872257856
 21
1.969209396665252
 31
0.0
  0
LINE
  5
15C
330
1F
100
AcDbEntity
  8
0
100
AcDbLine
 10
-38.30466373970427
 20
2.118978148571578
 30
0.0
 11
-38.31173826375934
 21
2.094187317588191
 31
0.0
  0
LINE
  5
15D
330
1F
100
AcDbEntity
  8
0
100
AcDbLine
 10
-38.16101336848399
 20
2.477461536236788
 30
0.0
 11
-38.17269189576228
 21
2.454549937269447
 31
0.0
  0
LINE
  5
15E
330
1F
100
AcDbEntity
  8
0
100
AcDbLine
 10
-37.53576924105636
 20
3.193544873511394
 30
0.0
 11
-37.55655058281825
 21
3.178726305445423
 31
0.0
  0
LINE
  5
15F
330
1F
100
AcDbEntity
  8
0
100
AcDbLine
 10
-38.13680927710069
 20
2.522766948758053
 30
0.0
 11
-38.14905125867787
 21
2.50020227432606
 31
0.0
  0
LINE
  5
160
330
1F
100
AcDbEntity
  8
0
100
AcDbLine
 10
-37.50008564040787
 20
-5.075373493040099
 30
0.0
 11
-37.9700757455417
 21
-5.603681401227546
 31
0.0
  0
LINE
  5
161
330
1F
100
AcDbEntity
  8
0
100
AcDbLine
 10
-38.31848935726453
 20
2.069319788767752
 30
0.0
 11
-38.32491586170678
 21
2.044381883515719
 31
0.0
  0
LINE
  5
162
330
1F
100
AcDbEntity
  8
0
100
AcDbLine
 10
-38.37829990464948
 20
1.384405103263754
 30
0.0
 11
-37.84999206250016
 21
0.9144149393812728
 31
0.0
  0
LINE
  5
163
330
1F
100
AcDbEntity
  8
0
100
AcDbLine
 10
-38.38389329280421
 20
1.490716699574335
 30
0.0
 11
-38.38161367363265
 21
1.441131055887891
 31
0.0
  0
LINE
  5
164
330
1F
100
AcDbEntity
  8
0
100
AcDbLine
 10
-38.38474658273115
 20
1.590686326775073
 30
0.0
 11
-38.38494371169964
 21
1.54058329520609
 31
0.0
  0
LINE
  5
165
330
1F
100
AcDbEntity
  8
0
100
AcDbLine
 10
-37.9700757455417
 20
-5.603681401227546
 30
0.0
 11
-37.44176790339261
 21
-6.073671565110411
 31
0.0
  0
LINE
  5
166
330
1F
100
AcDbEntity
  8
0
100
AcDbLine
 10
-38.38328565941126
 20
1.640980005633672
 30
0.0
 11
-38.38474658273115
 21
1.590686326775073
 31
0.0
  0
LINE
  5
167
330
1F
100
AcDbEntity
  8
0
100
AcDbLine
 10
-38.26449163145525
 20
2.241562680112446
 30
0.0
 11
-38.27316022592214
 21
2.217249075814562
 31
0.0
  0
LINE
  5
168
330
1F
100
AcDbEntity
  8
0
100
AcDbLine
 10
-37.67503885145402
 20
-2.080479276829323
 30
0.0
 11
-38.14502895658794
 21
-2.608787185017289
 31
0.0
  0
LINE
  5
169
330
1F
100
AcDbEntity
  8
0
100
AcDbLine
 10
-44.67401016520457
 20
7.079921880824086
 30
0.0
 11
-44.67069354254084
 21
7.105210560849096
 31
0.0
  0
LINE
  5
16A
330
1F
100
AcDbEntity
  8
0
100
AcDbLine
 10
-38.28151362239164
 20
2.192827657365994
 30
0.0
 11
-38.28954985246519
 21
2.168304565087486
 31
0.0
  0
LINE
  5
16B
330
1F
100
AcDbEntity
  8
0
100
AcDbLine
 10
-38.19518400825373
 20
2.408235476049589
 30
0.0
 11
-38.20599083080777
 21
2.384843515430192
 31
0.0
  0
LINE
  5
16C
330
1F
100
AcDbEntity
  8
0
100
AcDbLine
 10
-38.34223872257856
 20
1.969209396665252
 30
0.0
 11
-38.34735857627437
 21
1.944053527088094
 31
0.0
  0
LINE
  5
16D
330
1F
100
AcDbEntity
  8
0
100
AcDbLine
 10
-38.08671121957254
 20
-3.607085257087081
 30
0.0
 11
-37.5584033774234
 21
-4.077075420969878
 31
0.0
  0
LINE
  5
16E
330
1F
100
AcDbEntity
  8
0
100
AcDbLine
 10
-44.67069354254084
 20
7.105210560849096
 30
0.0
 11
-44.66672175004539
 21
7.130472820284555
 31
0.0
  0
LINE
  5
16F
330
1F
100
AcDbEntity
  8
0
100
AcDbLine
 10
-38.24621751122101
 20
2.289842149208169
 30
0.0
 11
-38.2555099655567
 21
2.265762381769546
 31
0.0
  0
LINE
  5
170
330
1F
100
AcDbEntity
  8
0
100
AcDbLine
 10
-38.33101678293193
 20
2.019379943595854
 30
0.0
 11
-38.33679129145706
 21
1.994320325807736
 31
0.0
  0
LINE
  5
171
330
1F
100
AcDbEntity
  8
0
100
AcDbLine
 10
-38.26166443061846
 20
-0.6121910408767786
 30
0.0
 11
-37.73335658846937
 21
-1.082181204759124
 31
0.0
  0
LINE
  5
172
330
1F
100
AcDbEntity
  8
0
100
AcDbLine
 10
-38.20599083080777
 20
2.384843515430192
 30
0.0
 11
-38.216500552034
 21
2.361302488772322
 31
0.0
  0
LINE
  5
173
330
1F
100
AcDbEntity
  8
0
100
AcDbLine
 10
-38.35215051690246
 20
1.918859087112356
 30
0.0
 11
-38.35661437269729
 21
1.893632440632808
 31
0.0
  0
LINE
  5
174
330
1F
100
AcDbEntity
  8
0
100
AcDbLine
 10
-44.62917137489279
 20
7.280070428651261
 30
0.0
 11
-44.6206603794246
 21
7.304437940024521
 31
0.0
  0
LINE
  5
175
330
1F
100
AcDbEntity
  8
0
100
AcDbLine
 10
-38.37651853723214
 20
1.741950525091545
 30
0.0
 11
-38.38054689572552
 21
1.691417391977847
 31
0.0
  0
LINE
  5
176
330
1F
100
AcDbEntity
  8
0
100
AcDbLine
 10
-44.67945296218812
 20
7.016748455253586
 30
0.0
 11
-44.67667383231316
 21
7.054631862514161
 31
0.0
  0
LINE
  5
177
330
1F
100
AcDbEntity
  8
0
100
AcDbLine
 10
-44.48084197955869
 20
7.562648355134551
 30
0.0
 11
-44.45760791523013
 21
7.592429621045231
 31
0.0
  0
LINE
  5
178
330
1F
100
AcDbEntity
  8
0
100
AcDbLine
 10
-37.5584033774234
 20
-4.077075420969878
 30
0.0
 11
-38.02839348255718
 21
-4.605383329157393
 31
0.0
  0
LINE
  5
179
330
1F
100
AcDbEntity
  8
0
100
AcDbLine
 10
-38.20334669360324
 20
-1.610489112946955
 30
0.0
 11
-37.67503885145402
 21
-2.080479276829323
 31
0.0
  0
LINE
  5
17A
330
1F
100
AcDbEntity
  8
0
100
AcDbLine
 10
-37.61672111443875
 20
-3.078777348899657
 30
0.0
 11
-38.08671121957254
 21
-3.607085257087081
 31
0.0
  0
LINE
  5
17B
330
1F
100
AcDbEntity
  8
0
100
AcDbLine
 10
-44.68070123721587
 20
6.941465414697748
 30
0.0
 11
-44.68078785506257
 21
6.978999763355992
 31
0.0
  0
LINE
  5
17C
330
1F
100
AcDbEntity
  8
0
100
AcDbLine
 10
-37.44176790339261
 20
-6.073671565110411
 30
0.0
 11
-37.91175800852639
 21
-6.601979473297722
 31
0.0
  0
LINE
  5
17D
330
1F
100
AcDbEntity
  8
0
100
AcDbLine
 10
-38.14502895658794
 20
-2.608787185017289
 30
0.0
 11
-37.61672111443875
 21
-3.078777348899657
 31
0.0
  0
LINE
  5
17E
330
1F
100
AcDbEntity
  8
0
100
AcDbLine
 10
-37.79167432548472
 20
-0.0838831326889258
 30
0.0
 11
-38.26166443061846
 21
-0.6121910408767786
 31
0.0
  0
LINE
  5
17F
330
1F
100
AcDbEntity
  8
0
100
AcDbLine
 10
-44.66209385183402
 20
7.155683363512559
 30
0.0
 11
-44.65681020942534
 21
7.180816762872053
 31
0.0
  0
LINE
  5
180
330
1F
100
AcDbEntity
  8
0
100
AcDbLine
 10
-44.21368267890869
 20
7.808806695681834
 30
0.0
 11
-44.19177429275466
 21
7.822209200805298
 31
0.0
  0
LINE
  5
181
330
1F
100
AcDbEntity
  8
0
100
AcDbLine
 10
-44.58045619308086
 20
7.399392991293452
 30
0.0
 11
-44.56892124793908
 21
7.422387368086309
 31
0.0
  0
LINE
  5
182
330
1F
100
AcDbEntity
  8
0
100
AcDbLine
 10
-44.19177429275466
 20
7.822209200805298
 30
0.0
 11
-44.16949174558439
 21
7.83506549592785
 31
0.0
  0
LINE
  5
183
330
1F
100
AcDbEntity
  8
0
100
AcDbLine
 10
-37.73335658846937
 20
-1.082181204759124
 30
0.0
 11
-38.20334669360324
 21
-1.610489112946955
 31
0.0
  0
LINE
  5
184
330
1F
100
AcDbEntity
  8
0
100
AcDbLine
 10
-44.68078785506257
 20
6.978999763355992
 30
0.0
 11
-44.67945296218812
 21
7.016748455253586
 31
0.0
  0
LINE
  5
185
330
1F
100
AcDbEntity
  8
0
100
AcDbLine
 10
-44.63704811742252
 20
7.255499592962457
 30
0.0
 11
-44.62917137489279
 21
7.280070428651261
 31
0.0
  0
LINE
  5
186
330
1F
100
AcDbEntity
  8
0
100
AcDbLine
 10
-44.66672175004539
 20
7.130472820284555
 30
0.0
 11
-44.66209385183402
 21
7.155683363512559
 31
0.0
  0
LINE
  5
187
330
1F
100
AcDbEntity
  8
0
100
AcDbLine
 10
-37.84999206250016
 20
0.9144149393812728
 30
0.0
 11
-38.31998216763395
 21
0.386107031193375
 31
0.0
  0
LINE
  5
188
330
1F
100
AcDbEntity
  8
0
100
AcDbLine
 10
-44.65681020942534
 20
7.180816762872053
 30
0.0
 11
-44.65087249455027
 21
7.205847541726158
 31
0.0
  0
LINE
  5
189
330
1F
100
AcDbEntity
  8
0
100
AcDbLine
 10
-37.91175800852639
 20
-6.601979473297722
 30
0.0
 11
-37.96541597568689
 21
-8.99890425259529
 31
0.0
  0
LINE
  5
18A
330
1F
100
AcDbEntity
  8
0
100
AcDbLine
 10
-43.98038224043944
 20
7.916649096753244
 30
0.0
 11
-43.95574033942842
 21
7.92403644536738
 31
0.0
  0
LINE
  5
18B
330
1F
100
AcDbEntity
  8
0
100
AcDbLine
 10
-44.3822798701266
 20
7.675350543786355
 30
0.0
 11
-44.35503558236
 21
7.701168820846781
 31
0.0
  0
LINE
  5
18C
330
1F
100
AcDbEntity
  8
0
100
AcDbLine
 10
-44.67667383231316
 20
7.054631862514161
 30
0.0
 11
-44.67401016520457
 21
7.079921880824086
 31
0.0
  0
LINE
  5
18D
330
1F
100
AcDbEntity
  8
0
100
AcDbLine
 10
-44.1238872136936
 20
7.859079362625685
 30
0.0
 11
-44.10060872498904
 21
7.870209541554602
 31
0.0
  0
LINE
  5
18E
330
1F
100
AcDbEntity
  8
0
100
AcDbLine
 10
-44.43342240764604
 20
7.621133208077357
 30
0.0
 11
-44.40835643286673
 21
7.648718513569382
 31
0.0
  0
LINE
  5
18F
330
1F
100
AcDbEntity
  8
0
100
AcDbLine
 10
-44.10060872498904
 20
7.870209541554602
 30
0.0
 11
-44.07704293027769
 21
7.880738827061006
 31
0.0
  0
LINE
  5
190
330
1F
100
AcDbEntity
  8
0
100
AcDbLine
 10
-38.02839348255718
 20
-4.605383329157393
 30
0.0
 11
-37.50008564040787
 21
-5.075373493040099
 31
0.0
  0
LINE
  5
191
330
1F
100
AcDbEntity
  8
0
100
AcDbLine
 10
-44.35503558236
 20
7.701168820846781
 30
0.0
 11
-44.32665996395676
 21
7.726100121622212
 31
0.0
  0
LINE
  5
192
330
1F
100
AcDbEntity
  8
0
100
AcDbLine
 10
-44.55681920224754
 20
7.445040074346794
 30
0.0
 11
-44.54416514610092
 21
7.467330515348824
 31
0.0
  0
LINE
  5
193
330
1F
100
AcDbEntity
  8
0
100
AcDbLine
 10
-44.32665996395676
 20
7.726100121622212
 30
0.0
 11
-44.29719534457236
 21
7.750073275314295
 31
0.0
  0
LINE
  5
194
330
1F
100
AcDbEntity
  8
0
100
AcDbLine
 10
-44.45760791523013
 20
7.592429621045231
 30
0.0
 11
-44.43342240764604
 21
7.621133208077357
 31
0.0
  0
LINE
  5
195
330
1F
100
AcDbEntity
  8
0
100
AcDbLine
 10
-44.64428369557637
 20
7.230750258762292
 30
0.0
 11
-44.63704811742252
 21
7.255499592962457
 31
0.0
  0
LINE
  5
196
330
1F
100
AcDbEntity
  8
0
100
AcDbLine
 10
-44.54416514610092
 20
7.467330515348824
 30
0.0
 11
-44.53097514202128
 21
7.489238975820592
 31
0.0
  0
LINE
  5
197
330
1F
100
AcDbEntity
  8
0
100
AcDbLine
 10
-44.56892124793908
 20
7.422387368086309
 30
0.0
 11
-44.55681920224754
 21
7.445040074346794
 31
0.0
  0
LINE
  5
198
330
1F
100
AcDbEntity
  8
0
100
AcDbLine
 10
-44.14685559480194
 20
7.847360297601615
 30
0.0
 11
-44.1238872136936
 21
7.859079362625685
 31
0.0
  0
LINE
  5
199
330
1F
100
AcDbEntity
  8
0
100
AcDbLine
 10
-43.71818965071657
 20
7.961845246053186
 30
0.0
 11
-43.68092345322998
 21
7.962539872217444
 31
0.0
  0
LINE
  5
19A
330
1F
100
AcDbEntity
  8
0
100
AcDbLine
 10
-44.29719534457236
 20
7.750073275314295
 30
0.0
 11
-44.27697079972062
 21
7.765489105932149
 31
0.0
  0
LINE
  5
19B
330
1F
100
AcDbEntity
  8
0
100
AcDbLine
 10
-44.25629918422569
 20
7.780429036723679
 30
0.0
 11
-44.23519722439413
 21
7.794874246008941
 31
0.0
  0
LINE
  5
19C
330
1F
100
AcDbEntity
  8
0
100
AcDbLine
 10
-44.53097514202128
 20
7.489238975820592
 30
0.0
 11
-44.51726616176666
 21
7.510746675358975
 31
0.0
  0
LINE
  5
19D
330
1F
100
AcDbEntity
  8
0
100
AcDbLine
 10
-38.31998216763395
 20
0.386107031193375
 30
0.0
 11
-37.79167432548472
 21
-0.0838831326889258
 31
0.0
  0
LINE
  5
19E
330
1F
100
AcDbEntity
  8
0
100
AcDbLine
 10
-44.23519722439413
 20
7.794874246008941
 30
0.0
 11
-44.21368267890869
 21
7.808806695681834
 31
0.0
  0
LINE
  5
19F
330
1F
100
AcDbEntity
  8
0
100
AcDbLine
 10
-43.90606010357678
 20
7.936867063667423
 30
0.0
 11
-43.88107246781792
 21
7.942305334940359
 31
0.0
  0
LINE
  5
1A0
330
1F
100
AcDbEntity
  8
0
100
AcDbLine
 10
-44.05321323575096
 20
7.890656396787803
 30
0.0
 11
-44.02914357477665
 21
7.899952650365569
 31
0.0
  0
LINE
  5
1A1
330
1F
100
AcDbEntity
  8
0
100
AcDbLine
 10
-43.79327175898501
 20
7.956208758234555
 30
0.0
 11
-43.75566516529199
 21
7.959742797945768
 31
0.0
  0
LINE
  5
1A2
330
1F
100
AcDbEntity
  8
0
100
AcDbLine
 10
-44.61152331930764
 20
7.328577674572225
 30
0.0
 11
-44.60176963348206
 21
7.352465634800344
 31
0.0
  0
LINE
  5
1A3
330
1F
100
AcDbEntity
  8
0
100
AcDbLine
 10
-34.08574529323574
 20
9.874221668860484
 30
0.0
 11
-34.44611598741679
 21
9.92426973693317
 31
0.0
  0
LINE
  5
1A4
330
1F
100
AcDbEntity
  8
0
100
AcDbLine
 10
-44.65087249455027
 20
7.205847541726158
 30
0.0
 11
-44.64428369557637
 21
7.230750258762292
 31
0.0
  0
LINE
  5
1A5
330
1F
100
AcDbEntity
  8
0
100
AcDbLine
 10
-44.50305601954032
 20
7.531835818485036
 30
0.0
 11
-44.48084197955869
 21
7.562648355134551
 31
0.0
  0
LINE
  5
1A6
330
1F
100
AcDbEntity
  8
0
100
AcDbLine
 10
-44.27697079972062
 20
7.765489105932149
 30
0.0
 11
-44.25629918422569
 21
7.780429036723679
 31
0.0
  0
LINE
  5
1A7
330
1F
100
AcDbEntity
  8
0
100
AcDbLine
 10
-36.69154944931293
 20
11.05217316465516
 30
0.0
 11
-36.94685496807415
 21
11.31138534531799
 31
0.0
  0
LINE
  5
1A8
330
1F
100
AcDbEntity
  8
0
100
AcDbLine
 10
-44.51726616176666
 20
7.510746675358975
 30
0.0
 11
-44.50305601954032
 21
7.531835818485036
 31
0.0
  0
LINE
  5
1A9
330
1F
100
AcDbEntity
  8
0
100
AcDbLine
 10
-36.12175355040849
 20
10.60058350331983
 30
0.0
 11
-36.415900058487
 21
10.81470890808033
 31
0.0
  0
LINE
  5
1AA
330
1F
100
AcDbEntity
  8
0
100
AcDbLine
 10
-43.88107246781792
 20
7.942305334940359
 30
0.0
 11
-43.8560202484117
 21
7.947091092140553
 31
0.0
  0
LINE
  5
1AB
330
1F
100
AcDbEntity
  8
0
100
AcDbLine
 10
-44.60176963348206
 20
7.352465634800344
 30
0.0
 11
-44.59140997910077
 21
7.376078357683213
 31
0.0
  0
LINE
  5
1AC
330
1F
100
AcDbEntity
  8
0
100
AcDbLine
 10
-36.94685496807415
 20
11.31138534531799
 30
0.0
 11
-37.18010615680773
 21
11.59060881883324
 31
0.0
  0
LINE
  5
1AD
330
1F
100
AcDbEntity
  8
0
100
AcDbLine
 10
-43.8560202484117
 20
7.947091092140553
 30
0.0
 11
-43.83092861410366
 21
7.951225083033148
 31
0.0
  0
LINE
  5
1AE
330
1F
100
AcDbEntity
  8
0
100
AcDbLine
 10
-35.48596262006541
 20
10.24792153820873
 30
0.0
 11
-35.81108060412701
 21
10.41123151593026
 31
0.0
  0
LINE
  5
1AF
330
1F
100
AcDbEntity
  8
0
100
AcDbLine
 10
-35.14857777536365
 20
10.11174769006785
 30
0.0
 11
-35.48596262006541
 21
10.24792153820873
 31
0.0
  0
LINE
  5
1B0
330
1F
100
AcDbEntity
  8
0
100
AcDbLine
 10
-44.02914357477665
 20
7.899952650365569
 30
0.0
 11
-44.00485832784465
 21
7.908619240333417
 31
0.0
  0
LINE
  5
1B1
330
1F
100
AcDbEntity
  8
0
100
AcDbLine
 10
-44.6206603794246
 20
7.304437940024521
 30
0.0
 11
-44.61152331930764
 21
7.328577674572225
 31
0.0
  0
LINE
  5
1B2
330
1F
100
AcDbEntity
  8
0
100
AcDbLine
 10
-44.40835643286673
 20
7.648718513569382
 30
0.0
 11
-44.3822798701266
 21
7.675350543786355
 31
0.0
  0
LINE
  5
1B3
330
1F
100
AcDbEntity
  8
0
100
AcDbLine
 10
-43.93095784854641
 20
7.93077681921401
 30
0.0
 11
-43.90606010357678
 21
7.936867063667423
 31
0.0
  0
LINE
  5
1B4
330
1F
100
AcDbEntity
  8
0
100
AcDbLine
 10
-37.28679444931336
 20
16.6551420589647
 30
0.0
 11
-37.05082707346078
 21
16.96386001744747
 31
0.0
  0
LINE
  5
1B5
330
1F
100
AcDbEntity
  8
0
100
AcDbLine
 10
-37.38974031387286
 20
11.88797288528053
 30
0.0
 11
-37.57435296350668
 21
12.2014853090917
 31
0.0
  0
LINE
  5
1B6
330
1F
100
AcDbEntity
  8
0
100
AcDbLine
 10
-37.18010615680773
 20
11.59060881883324
 30
0.0
 11
-37.38974031387286
 21
11.88797288528053
 31
0.0
  0
LINE
  5
1B7
330
1F
100
AcDbEntity
  8
0
100
AcDbLine
 10
-38.0698957169484
 20
14.48670222615258
 30
0.0
 11
-38.02031467150129
 21
14.87209697649874
 31
0.0
  0
LINE
  5
1B8
330
1F
100
AcDbEntity
  8
0
100
AcDbLine
 10
-44.07704293027769
 20
7.880738827061006
 30
0.0
 11
-44.05321323575096
 21
7.890656396787803
 31
0.0
  0
LINE
  5
1B9
330
1F
100
AcDbEntity
  8
0
100
AcDbLine
 10
-43.95574033942842
 20
7.92403644536738
 30
0.0
 11
-43.93095784854641
 21
7.93077681921401
 31
0.0
  0
LINE
  5
1BA
330
1F
100
AcDbEntity
  8
0
100
AcDbLine
 10
-35.81108060412701
 20
10.41123151593026
 30
0.0
 11
-36.12175355040849
 21
10.60058350331983
 31
0.0
  0
LINE
  5
1BB
330
1F
100
AcDbEntity
  8
0
100
AcDbLine
 10
-37.86374230070897
 20
12.86845941681803
 30
0.0
 11
-37.96658018061429
 21
13.21745260675402
 31
0.0
  0
LINE
  5
1BC
330
1F
100
AcDbEntity
  8
0
100
AcDbLine
 10
-34.44611598741679
 20
9.92426973693317
 30
0.0
 11
-34.80118643085088
 21
10.00362228881253
 31
0.0
  0
LINE
  5
1BD
330
1F
100
AcDbEntity
  8
0
100
AcDbLine
 10
-44.16949174558439
 20
7.83506549592785
 30
0.0
 11
-44.14685559480194
 21
7.847360297601615
 31
0.0
  0
LINE
  5
1BE
330
1F
100
AcDbEntity
  8
0
100
AcDbLine
 10
-37.82138138798468
 20
15.62257768676928
 30
0.0
 11
-37.6735493635048
 21
15.9819286034944
 31
0.0
  0
LINE
  5
1BF
330
1F
100
AcDbEntity
  8
0
100
AcDbLine
 10
-37.73270726532264
 20
12.5290456663335
 30
0.0
 11
-37.86374230070897
 21
12.86845941681803
 31
0.0
  0
LINE
  5
1C0
330
1F
100
AcDbEntity
  8
0
100
AcDbLine
 10
-36.415900058487
 20
10.81470890808033
 30
0.0
 11
-36.69154944931293
 21
11.05217316465516
 31
0.0
  0
LINE
  5
1C1
330
1F
100
AcDbEntity
  8
0
100
AcDbLine
 10
-44.59140997910077
 20
7.376078357683213
 30
0.0
 11
-44.58045619308086
 21
7.399392991293452
 31
0.0
  0
LINE
  5
1C2
330
1F
100
AcDbEntity
  8
0
100
AcDbLine
 10
36.1217535504088
 20
10.6005835033197
 30
0.0
 11
35.81108060412733
 21
10.41123151592995
 31
0.0
  0
LINE
  5
1C3
330
1F
100
AcDbEntity
  8
0
100
AcDbLine
 10
-37.6735493635048
 20
15.9819286034944
 30
0.0
 11
-37.49489864469638
 21
16.3269957085144
 31
0.0
  0
LINE
  5
1C4
330
1F
100
AcDbEntity
  8
0
100
AcDbLine
 10
-38.02031467150129
 20
14.87209697649874
 30
0.0
 11
-37.93726501148916
 21
15.25168905561033
 31
0.0
  0
LINE
  5
1C5
330
1F
100
AcDbEntity
  8
0
100
AcDbLine
 10
-37.96658018061429
 20
13.21745260675402
 30
0.0
 11
-38.04053192709805
 21
13.57368710344699
 31
0.0
  0
LINE
  5
1C6
330
1F
100
AcDbEntity
  8
0
100
AcDbLine
 10
-38.0698957169484
 20
14.48670222615258
 30
0.0
 11
-38.08510208924227
 21
13.93477625997035
 31
0.0
  0
LINE
  5
1C7
330
1F
100
AcDbEntity
  8
0
100
AcDbLine
 10
35.14857777536388
 20
10.11174769006758
 30
0.0
 11
34.80118643085115
 21
10.00362228881231
 31
0.0
  0
LINE
  5
1C8
330
1F
100
AcDbEntity
  8
0
100
AcDbLine
 10
-14.45167192187652
 20
7.962539872217489
 30
0.0
 11
-34.08574529323574
 21
9.874221668860484
 31
0.0
  0
LINE
  5
1C9
330
1F
100
AcDbEntity
  8
0
100
AcDbLine
 10
37.86374230070924
 20
12.86845941681776
 30
0.0
 11
37.73270726532296
 21
12.52904566633346
 31
0.0
  0
LINE
  5
1CA
330
1F
100
AcDbEntity
  8
0
100
AcDbLine
 10
-43.83092861410366
 20
7.951225083033148
 30
0.0
 11
-43.79327175898501
 21
7.956208758234555
 31
0.0
  0
LINE
  5
1CB
330
1F
100
AcDbEntity
  8
0
100
AcDbLine
 10
-43.75566516529199
 20
7.959742797945768
 30
0.0
 11
-43.71818965071657
 21
7.961845246053186
 31
0.0
  0
LINE
  5
1CC
330
1F
100
AcDbEntity
  8
0
100
AcDbLine
 10
42.10606914232019
 20
-18.50358157481815
 30
0.0
 11
42.4895965964466
 21
-18.34471928191879
 31
0.0
  0
LINE
  5
1CD
330
1F
100
AcDbEntity
  8
0
100
AcDbLine
 10
41.69449348747698
 20
-18.5577665444975
 30
0.0
 11
42.10606914232019
 21
-18.50358157481815
 31
0.0
  0
LINE
  5
1CE
330
1F
100
AcDbEntity
  8
0
100
AcDbLine
 10
36.69154944931325
 20
11.05217316465521
 30
0.0
 11
36.41590005848722
 21
10.81470890808019
 31
0.0
  0
LINE
  5
1CF
330
1F
100
AcDbEntity
  8
0
100
AcDbLine
 10
-36.19475850662102
 20
17.75070109087089
 30
0.0
 11
-35.86728416893383
 21
17.95986113873702
 31
0.0
  0
LINE
  5
1D0
330
1F
100
AcDbEntity
  8
0
100
AcDbLine
 10
-40.15840541114851
 20
-17.37913583407162
 30
0.0
 11
-40.10422044824224
 21
-16.96756012778166
 31
0.0
  0
LINE
  5
1D1
330
1F
100
AcDbEntity
  8
0
100
AcDbLine
 10
38.08510208924258
 20
13.93477625997003
 30
0.0
 11
38.04053192709832
 21
13.57368710344645
 31
0.0
  0
LINE
  5
1D2
330
1F
100
AcDbEntity
  8
0
100
AcDbLine
 10
37.18010615680796
 20
11.5906088188331
 30
0.0
 11
36.94685496807438
 21
11.31138534531785
 31
0.0
  0
LINE
  5
1D3
330
1F
100
AcDbEntity
  8
0
100
AcDbLine
 10
-37.93726501148916
 20
15.25168905561033
 30
0.0
 11
-37.82138138798468
 21
15.62257768676928
 31
0.0
  0
LINE
  5
1D4
330
1F
100
AcDbEntity
  8
0
100
AcDbLine
 10
-42.48952977515061
 20
-18.34471928191748
 30
0.0
 11
-42.10600232102415
 21
-18.50358157481687
 31
0.0
  0
LINE
  5
1D5
330
1F
100
AcDbEntity
  8
0
100
AcDbLine
 10
38.04053192709832
 20
13.57368710344645
 30
0.0
 11
37.96658018061447
 21
13.2174526067537
 31
0.0
  0
LINE
  5
1D6
330
1F
100
AcDbEntity
  8
0
100
AcDbLine
 10
38.0999920625004
 20
14.29830090487053
 30
0.0
 11
38.09999206250049
 21
14.11276654449716
 31
0.0
  0
LINE
  5
1D7
330
1F
100
AcDbEntity
  8
0
100
AcDbLine
 10
-35.86728416893383
 20
17.95986113873702
 30
0.0
 11
-35.52279430171345
 21
18.13962235811082
 31
0.0
  0
LINE
  5
1D8
330
1F
100
AcDbEntity
  8
0
100
AcDbLine
 10
-44.00485832784465
 20
7.908619240333417
 30
0.0
 11
-43.98038224043944
 21
7.916649096753244
 31
0.0
  0
LINE
  5
1D9
330
1F
100
AcDbEntity
  8
0
100
AcDbLine
 10
-37.57435296350668
 20
12.2014853090917
 30
0.0
 11
-37.73270726532264
 21
12.5290456663335
 31
0.0
  0
LINE
  5
1DA
330
1F
100
AcDbEntity
  8
0
100
AcDbLine
 10
-34.80118643085088
 20
10.00362228881253
 30
0.0
 11
-35.14857777536365
 21
10.11174769006785
 31
0.0
  0
LINE
  5
1DB
330
1F
100
AcDbEntity
  8
0
100
AcDbLine
 10
37.96658018061447
 20
13.2174526067537
 30
0.0
 11
37.86374230070924
 21
12.86845941681776
 31
0.0
  0
LINE
  5
1DC
330
1F
100
AcDbEntity
  8
0
100
AcDbLine
 10
-35.52279430171345
 20
18.13962235811082
 30
0.0
 11
-35.16392143667263
 21
18.28861104498558
 31
0.0
  0
LINE
  5
1DD
330
1F
100
AcDbEntity
  8
0
100
AcDbLine
 10
40.57004788728748
 20
-18.09200586852807
 30
0.0
 11
40.89939037850755
 21
-18.34471928191879
 31
0.0
  0
LINE
  5
1DE
330
1F
100
AcDbEntity
  8
0
100
AcDbLine
 10
-40.38152649130249
 20
-10.24522997269459
 30
0.0
 11
-40.32652649451866
 21
-10.09405465468255
 31
0.0
  0
LINE
  5
1DF
330
1F
100
AcDbEntity
  8
0
100
AcDbLine
 10
-40.89932355721178
 20
-18.34471928191743
 30
0.0
 11
-40.56998106599167
 21
-18.09200586852687
 31
0.0
  0
LINE
  5
1E0
330
1F
100
AcDbEntity
  8
0
100
AcDbLine
 10
-41.69442666618117
 20
-18.55776654449612
 30
0.0
 11
-41.28285101133819
 21
-18.50358157481687
 31
0.0
  0
LINE
  5
1E1
330
1F
100
AcDbEntity
  8
0
100
AcDbLine
 10
-34.02885243385325
 20
18.54078258563609
 30
0.0
 11
-33.6406528695267
 21
18.5577665444975
 31
0.0
  0
LINE
  5
1E2
330
1F
100
AcDbEntity
  8
0
100
AcDbLine
 10
40.89939037850755
 20
-18.34471928191879
 30
0.0
 11
41.28291783263423
 21
-18.50358157481813
 31
0.0
  0
LINE
  5
1E3
330
1F
100
AcDbEntity
  8
0
100
AcDbLine
 10
-34.41408544455527
 20
18.48996049751523
 30
0.0
 11
-34.02885243385325
 21
18.54078258563609
 31
0.0
  0
LINE
  5
1E4
330
1F
100
AcDbEntity
  8
0
100
AcDbLine
 10
-34.79340801789581
 20
18.40568865370199
 30
0.0
 11
-34.41408544455527
 21
18.48996049751523
 31
0.0
  0
LINE
  5
1E5
330
1F
100
AcDbEntity
  8
0
100
AcDbLine
 10
37.73270726532296
 20
12.52904566633346
 30
0.0
 11
37.57435296350704
 21
12.20148530909106
 31
0.0
  0
LINE
  5
1E6
330
1F
100
AcDbEntity
  8
0
100
AcDbLine
 10
35.48596262006564
 20
10.24792153820855
 30
0.0
 11
35.14857777536388
 21
10.11174769006758
 31
0.0
  0
LINE
  5
1E7
330
1F
100
AcDbEntity
  8
0
100
AcDbLine
 10
36.94685496807438
 20
11.31138534531785
 30
0.0
 11
36.69154944931325
 21
11.05217316465521
 31
0.0
  0
LINE
  5
1E8
330
1F
100
AcDbEntity
  8
0
100
AcDbLine
 10
-37.49489864469638
 20
16.3269957085144
 30
0.0
 11
-37.28679444931336
 21
16.6551420589647
 31
0.0
  0
LINE
  5
1E9
330
1F
100
AcDbEntity
  8
0
100
AcDbLine
 10
41.28291783263423
 20
-18.50358157481813
 30
0.0
 11
41.69449348747698
 21
-18.5577665444975
 31
0.0
  0
LINE
  5
1EA
330
1F
100
AcDbEntity
  8
0
100
AcDbLine
 10
37.38974031387318
 20
11.88797288528044
 30
0.0
 11
37.18010615680796
 21
11.5906088188331
 31
0.0
  0
LINE
  5
1EB
330
1F
100
AcDbEntity
  8
0
100
AcDbLine
 10
-38.04053192709805
 20
13.57368710344699
 30
0.0
 11
-38.08510208924227
 21
13.93477625997035
 31
0.0
  0
LINE
  5
1EC
330
1F
100
AcDbEntity
  8
0
100
AcDbLine
 10
-43.28463288412014
 20
-16.96756012778157
 30
0.0
 11
-43.23044792121388
 21
-17.37913583407162
 31
0.0
  0
LINE
  5
1ED
330
1F
100
AcDbEntity
  8
0
100
AcDbLine
 10
-39.31460882647849
 20
-9.114157478959406
 30
0.0
 11
-39.16174373285834
 21
-9.064045259999475
 31
0.0
  0
LINE
  5
1EE
330
1F
100
AcDbEntity
  8
0
100
AcDbLine
 10
-36.78879973882816
 20
17.25079041496103
 30
0.0
 11
-36.50271481278141
 21
17.51374057925913
 31
0.0
  0
LINE
  5
1EF
330
1F
100
AcDbEntity
  8
0
100
AcDbLine
 10
40.15847223244445
 20
-17.3791358340729
 30
0.0
 11
40.31733450548604
 21
-17.76266333614017
 31
0.0
  0
LINE
  5
1F0
330
1F
100
AcDbEntity
  8
0
100
AcDbLine
 10
43.07165246946819
 20
-17.7626633361403
 30
0.0
 11
43.23051474250969
 21
-17.37913583407283
 31
0.0
  0
LINE
  5
1F1
330
1F
100
AcDbEntity
  8
0
100
AcDbLine
 10
40.31733450548604
 20
-17.76266333614017
 30
0.0
 11
40.57004788728748
 21
-18.09200586852807
 31
0.0
  0
LINE
  5
1F2
330
1F
100
AcDbEntity
  8
0
100
AcDbLine
 10
-36.50271481278141
 20
17.51374057925913
 30
0.0
 11
-36.19475850662102
 21
17.75070109087089
 31
0.0
  0
LINE
  5
1F3
330
1F
100
AcDbEntity
  8
0
100
AcDbLine
 10
34.80118643085115
 20
10.00362228881231
 30
0.0
 11
34.44611598741707
 21
9.924269736932764
 31
0.0
  0
LINE
  5
1F4
330
1F
100
AcDbEntity
  8
0
100
AcDbLine
 10
-40.45985393752556
 20
-10.880608035414
 30
0.0
 11
-40.46196205287247
 21
-10.71975240751408
 31
0.0
  0
LINE
  5
1F5
330
1F
100
AcDbEntity
  8
0
100
AcDbLine
 10
38.09999206250049
 20
14.11276654449716
 30
0.0
 11
38.08510208924258
 21
13.93477625997003
 31
0.0
  0
LINE
  5
1F6
330
1F
100
AcDbEntity
  8
0
100
AcDbLine
 10
37.57435296350704
 20
12.20148530909106
 30
0.0
 11
37.38974031387318
 21
11.88797288528044
 31
0.0
  0
LINE
  5
1F7
330
1F
100
AcDbEntity
  8
0
100
AcDbLine
 10
-37.05082707346078
 20
16.96386001744747
 30
0.0
 11
-36.78879973882816
 21
17.25079041496103
 31
0.0
  0
LINE
  5
1F8
330
1F
100
AcDbEntity
  8
0
100
AcDbLine
 10
-35.16392143667263
 20
18.28861104498558
 30
0.0
 11
-34.79340801789581
 21
18.40568865370199
 31
0.0
  0
LINE
  5
1F9
330
1F
100
AcDbEntity
  8
0
100
AcDbLine
 10
-39.46231882784603
 20
-9.17788131453085
 30
0.0
 11
-39.31460882647849
 21
-9.114157478959406
 31
0.0
  0
LINE
  5
1FA
330
1F
100
AcDbEntity
  8
0
100
AcDbLine
 10
43.23051474250969
 20
-17.37913583407283
 30
0.0
 11
43.28469970541604
 21
-16.96756012778286
 31
0.0
  0
LINE
  5
1FB
330
1F
100
AcDbEntity
  8
0
100
AcDbLine
 10
-39.73748890493452
 20
-9.34397004795373
 30
0.0
 11
-39.60366454988574
 21
-9.254695109157536
 31
0.0
  0
LINE
  5
1FC
330
1F
100
AcDbEntity
  8
0
100
AcDbLine
 10
36.51218318603316
 20
17.51783409416099
 30
0.0
 11
36.79808186761352
 21
17.25585618687134
 31
0.0
  0
LINE
  5
1FD
330
1F
100
AcDbEntity
  8
0
100
AcDbLine
 10
-41.28285101133819
 20
-18.50358157481687
 30
0.0
 11
-40.89932355721178
 21
-18.34471928191743
 31
0.0
  0
LINE
  5
1FE
330
1F
100
AcDbEntity
  8
0
100
AcDbLine
 10
-40.32652649451866
 20
-10.09405465468255
 30
0.0
 11
-40.25808762134982
 21
-9.948469296054297
 31
0.0
  0
LINE
  5
1FF
330
1F
100
AcDbEntity
  8
0
100
AcDbLine
 10
40.1042872695382
 20
-16.96756012778277
 30
0.0
 11
40.15847223244445
 21
-17.3791358340729
 31
0.0
  0
LINE
  5
200
330
1F
100
AcDbEntity
  8
0
100
AcDbLine
 10
42.4895965964466
 20
-18.34471928191879
 30
0.0
 11
42.81893908766666
 21
-18.09200586852829
 31
0.0
  0
LINE
  5
201
330
1F
100
AcDbEntity
  8
0
100
AcDbLine
 10
-40.08323969675215
 20
-9.678780117099258
 30
0.0
 11
-39.97826198950201
 21
-9.556884032650329
 31
0.0
  0
LINE
  5
202
330
1F
100
AcDbEntity
  8
0
100
AcDbLine
 10
37.06005974215582
 20
16.96995746955356
 30
0.0
 11
37.29612299984873
 21
16.66231380407747
 31
0.0
  0
LINE
  5
203
330
1F
100
AcDbEntity
  8
0
100
AcDbLine
 10
36.41590005848722
 20
10.81470890808019
 30
0.0
 11
36.1217535504088
 21
10.6005835033197
 31
0.0
  0
LINE
  5
204
330
1F
100
AcDbEntity
  8
0
100
AcDbLine
 10
-43.23044792121388
 20
-17.37913583407162
 30
0.0
 11
-43.07158564817229
 21
-17.7626633361389
 31
0.0
  0
LINE
  5
205
330
1F
100
AcDbEntity
  8
0
100
AcDbLine
 10
-43.07158564817229
 20
-17.7626633361389
 30
0.0
 11
-42.81887226637072
 21
-18.09200586852687
 31
0.0
  0
LINE
  5
206
330
1F
100
AcDbEntity
  8
0
100
AcDbLine
 10
43.68092345323025
 20
7.962539872217174
 30
0.0
 11
43.71818965071679
 21
7.961845246053096
 31
0.0
  0
LINE
  5
207
330
1F
100
AcDbEntity
  8
0
100
AcDbLine
 10
-37.96541597568689
 20
-8.99890425259529
 30
0.0
 11
-38.59558577670677
 21
-9.006181805232636
 31
0.0
  0
LINE
  5
208
330
1F
100
AcDbEntity
  8
0
100
AcDbLine
 10
-42.81887226637072
 20
-18.09200586852687
 30
0.0
 11
-42.48952977515061
 21
-18.34471928191748
 31
0.0
  0
LINE
  5
209
330
1F
100
AcDbEntity
  8
0
100
AcDbLine
 10
37.50447505676186
 20
16.33526654449713
 30
0.0
 11
37.68353022793607
 21
15.99130471793455
 31
0.0
  0
LINE
  5
20A
330
1F
100
AcDbEntity
  8
0
100
AcDbLine
 10
37.83192579540211
 20
15.63304608157973
 30
0.0
 11
37.94853237928788
 21
15.26321719997781
 31
0.0
  0
LINE
  5
20B
330
1F
100
AcDbEntity
  8
0
100
AcDbLine
 10
-40.10422044824224
 20
-16.96756012778166
 30
0.0
 11
-40.45985393752556
 21
-10.880608035414
 31
0.0
  0
LINE
  5
20C
330
1F
100
AcDbEntity
  8
0
100
AcDbLine
 10
43.93095784854628
 20
7.93077681921365
 30
0.0
 11
43.95574033942864
 21
7.924036445366974
 31
0.0
  0
LINE
  5
20D
330
1F
100
AcDbEntity
  8
0
100
AcDbLine
 10
43.88107246781773
 20
7.942305334939817
 30
0.0
 11
43.90606010357705
 21
7.936867063667152
 31
0.0
  0
LINE
  5
20E
330
1F
100
AcDbEntity
  8
0
100
AcDbLine
 10
-42.10600232102415
 20
-18.50358157481687
 30
0.0
 11
-41.69442666618117
 21
-18.55776654449612
 31
0.0
  0
LINE
  5
20F
330
1F
100
AcDbEntity
  8
0
100
AcDbLine
 10
37.29612299984873
 20
16.66231380407747
 30
0.0
 11
37.50447505676186
 21
16.33526654449713
 31
0.0
  0
LINE
  5
210
330
1F
100
AcDbEntity
  8
0
100
AcDbLine
 10
-39.60366454988574
 20
-9.254695109157536
 30
0.0
 11
-39.46231882784603
 21
-9.17788131453085
 31
0.0
  0
LINE
  5
211
330
1F
100
AcDbEntity
  8
0
100
AcDbLine
 10
42.81893908766666
 20
-18.09200586852829
 30
0.0
 11
43.07165246946819
 21
-17.7626633361403
 31
0.0
  0
LINE
  5
212
330
1F
100
AcDbEntity
  8
0
100
AcDbLine
 10
-39.16174373285834
 20
-9.064045259999475
 30
0.0
 11
-38.59558577670677
 21
-9.006181805232636
 31
0.0
  0
LINE
  5
213
330
1F
100
AcDbEntity
  8
0
100
AcDbLine
 10
-40.25808762134982
 20
-9.948469296054297
 30
0.0
 11
-40.17677012770353
 21
-9.809665691084971
 31
0.0
  0
LINE
  5
214
330
1F
100
AcDbEntity
  8
0
100
AcDbLine
 10
37.94853237928788
 20
15.26321719997781
 30
0.0
 11
38.03246253308093
 21
14.88463269422638
 31
0.0
  0
LINE
  5
215
330
1F
100
AcDbEntity
  8
0
100
AcDbLine
 10
36.79808186761352
 20
17.25585618687134
 30
0.0
 11
37.06005974215582
 21
16.96995746955356
 31
0.0
  0
LINE
  5
216
330
1F
100
AcDbEntity
  8
0
100
AcDbLine
 10
-40.42263736943822
 20
-10.40075769515875
 30
0.0
 11
-40.38152649130249
 21
-10.24522997269459
 31
0.0
  0
LINE
  5
217
330
1F
100
AcDbEntity
  8
0
100
AcDbLine
 10
-40.56998106599167
 20
-18.09200586852687
 30
0.0
 11
-40.31726768419014
 21
-17.7626633361389
 31
0.0
  0
LINE
  5
218
330
1F
100
AcDbEntity
  8
0
100
AcDbLine
 10
43.83092861410366
 20
7.951225083032832
 30
0.0
 11
43.85602024841179
 21
7.947091092140147
 31
0.0
  0
LINE
  5
219
330
1F
100
AcDbEntity
  8
0
100
AcDbLine
 10
35.81108060412733
 20
10.41123151592995
 30
0.0
 11
35.48596262006564
 21
10.24792153820855
 31
0.0
  0
LINE
  5
21A
330
1F
100
AcDbEntity
  8
0
100
AcDbLine
 10
-40.31726768419014
 20
-17.7626633361389
 30
0.0
 11
-40.15840541114851
 21
-17.37913583407162
 31
0.0
  0
LINE
  5
21B
330
1F
100
AcDbEntity
  8
0
100
AcDbLine
 10
-43.28463288412014
 20
-16.96756012778157
 30
0.0
 11
-44.68070123721587
 21
6.941465414697748
 31
0.0
  0
LINE
  5
21C
330
1F
100
AcDbEntity
  8
0
100
AcDbLine
 10
34.8054431298
 20
18.40630684235208
 30
0.0
 11
35.17527196517315
 21
18.2897002438903
 31
0.0
  0
LINE
  5
21D
330
1F
100
AcDbEntity
  8
0
100
AcDbLine
 10
43.98038224043976
 20
7.916649096752973
 30
0.0
 11
44.00485832784474
 21
7.908619240333011
 31
0.0
  0
LINE
  5
21E
330
1F
100
AcDbEntity
  8
0
100
AcDbLine
 10
-39.86269637692051
 20
-9.444975306322583
 30
0.0
 11
-39.73748890493452
 21
-9.34397004795373
 31
0.0
  0
LINE
  5
21F
330
1F
100
AcDbEntity
  8
0
100
AcDbLine
 10
44.05321323575096
 20
7.890656396787442
 30
0.0
 11
44.07704293027773
 21
7.880738827060646
 31
0.0
  0
LINE
  5
220
330
1F
100
AcDbEntity
  8
0
100
AcDbLine
 10
44.02914357477692
 20
7.899952650365208
 30
0.0
 11
44.05321323575096
 21
7.890656396787442
 31
0.0
  0
LINE
  5
221
330
1F
100
AcDbEntity
  8
0
100
AcDbLine
 10
-39.97826198950201
 20
-9.556884032650329
 30
0.0
 11
-39.86269637692051
 21
-9.444975306322583
 31
0.0
  0
LINE
  5
222
330
1F
100
AcDbEntity
  8
0
100
AcDbLine
 10
-40.46196205287247
 20
-10.71975240751408
 30
0.0
 11
-40.44952258609174
 21
-10.55936463738812
 31
0.0
  0
LINE
  5
223
330
1F
100
AcDbEntity
  8
0
100
AcDbLine
 10
43.79327175898474
 20
7.956208758234104
 30
0.0
 11
43.83092861410366
 21
7.951225083032832
 31
0.0
  0
LINE
  5
224
330
1F
100
AcDbEntity
  8
0
100
AcDbLine
 10
37.68353022793607
 20
15.99130471793455
 30
0.0
 11
37.83192579540211
 21
15.63304608157973
 31
0.0
  0
LINE
  5
225
330
1F
100
AcDbEntity
  8
0
100
AcDbLine
 10
34.44611598741707
 20
9.924269736932764
 30
0.0
 11
34.0857452932361
 21
9.874221668860123
 31
0.0
  0
LINE
  5
226
330
1F
100
AcDbEntity
  8
0
100
AcDbLine
 10
38.08307749763247
 20
14.50017382101042
 30
0.0
 11
38.0999920625004
 21
14.29830090487053
 31
0.0
  0
LINE
  5
227
330
1F
100
AcDbEntity
  8
0
100
AcDbLine
 10
-40.44952258609174
 20
-10.55936463738812
 30
0.0
 11
-40.42263736943822
 21
-10.40075769515875
 31
0.0
  0
LINE
  5
228
330
1F
100
AcDbEntity
  8
0
100
AcDbLine
 10
43.71818965071679
 20
7.961845246053096
 30
0.0
 11
43.75566516529217
 21
7.959742797945316
 31
0.0
  0
LINE
  5
229
330
1F
100
AcDbEntity
  8
0
100
AcDbLine
 10
33.65499261812546
 20
18.55776654449709
 30
0.0
 11
34.04239984621289
 21
18.54085197751495
 31
0.0
  0
LINE
  5
22A
330
1F
100
AcDbEntity
  8
0
100
AcDbLine
 10
43.85602024841179
 20
7.947091092140147
 30
0.0
 11
43.88107246781773
 21
7.942305334939817
 31
0.0
  0
LINE
  5
22B
330
1F
100
AcDbEntity
  8
0
100
AcDbLine
 10
34.0857452932361
 20
9.874221668860123
 30
0.0
 11
14.45167192187689
 21
7.962539872217489
 31
0.0
  0
LINE
  5
22C
330
1F
100
AcDbEntity
  8
0
100
AcDbLine
 10
35.53353055674573
 20
18.14130465787509
 30
0.0
 11
35.87749234031288
 21
17.96224946431893
 31
0.0
  0
LINE
  5
22D
330
1F
100
AcDbEntity
  8
0
100
AcDbLine
 10
-40.17677012770353
 20
-9.809665691084971
 30
0.0
 11
-40.08323969675215
 21
-9.678780117099258
 31
0.0
  0
LINE
  5
22E
330
1F
100
AcDbEntity
  8
0
100
AcDbLine
 10
34.04239984621289
 20
18.54085197751495
 30
0.0
 11
34.42685867137175
 21
18.49023700663649
 31
0.0
  0
LINE
  5
22F
330
1F
100
AcDbEntity
  8
0
100
AcDbLine
 10
35.17527196517315
 20
18.2897002438903
 30
0.0
 11
35.53353055674573
 21
18.14130465787509
 31
0.0
  0
LINE
  5
230
330
1F
100
AcDbEntity
  8
0
100
AcDbLine
 10
44.38227987012687
 20
7.675350543785948
 30
0.0
 11
44.40835643286673
 21
7.648718513568705
 31
0.0
  0
LINE
  5
231
330
1F
100
AcDbEntity
  8
0
100
AcDbLine
 10
44.23519722439404
 20
7.7948742460084
 30
0.0
 11
44.25629918422583
 21
7.780429036723138
 31
0.0
  0
LINE
  5
232
330
1F
100
AcDbEntity
  8
0
100
AcDbLine
 10
43.75566516529217
 20
7.959742797945316
 30
0.0
 11
43.79327175898474
 21
7.956208758234104
 31
0.0
  0
LINE
  5
233
330
1F
100
AcDbEntity
  8
0
100
AcDbLine
 10
38.03246253308093
 20
14.88463269422638
 30
0.0
 11
38.08307749763247
 21
14.50017382101042
 31
0.0
  0
LINE
  5
234
330
1F
100
AcDbEntity
  8
0
100
AcDbLine
 10
34.42685867137175
 20
18.49023700663649
 30
0.0
 11
34.8054431298
 21
18.40630684235208
 31
0.0
  0
LINE
  5
235
330
1F
100
AcDbEntity
  8
0
100
AcDbLine
 10
36.20453955901229
 20
17.75389738136148
 30
0.0
 11
36.51218318603316
 21
17.51783409416099
 31
0.0
  0
LINE
  5
236
330
1F
100
AcDbEntity
  8
0
100
AcDbLine
 10
43.95574033942864
 20
7.924036445366974
 30
0.0
 11
43.98038224043976
 21
7.916649096752973
 31
0.0
  0
LINE
  5
237
330
1F
100
AcDbEntity
  8
0
100
AcDbLine
 10
44.35503558236027
 20
7.70116882084633
 30
0.0
 11
44.38227987012687
 21
7.675350543785948
 31
0.0
  0
LINE
  5
238
330
1F
100
AcDbEntity
  8
0
100
AcDbLine
 10
44.25629918422583
 20
7.780429036723138
 30
0.0
 11
44.2769707997208
 21
7.765489105931834
 31
0.0
  0
LINE
  5
239
330
1F
100
AcDbEntity
  8
0
100
AcDbLine
 10
44.10060872498922
 20
7.870209541554151
 30
0.0
 11
44.12388721369382
 21
7.859079362625324
 31
0.0
  0
LINE
  5
23A
330
1F
100
AcDbEntity
  8
0
100
AcDbLine
 10
39.73750002697233
 20
-9.34396662704603
 30
0.0
 11
39.6036760885144
 21
-9.25469254974039
 31
0.0
  0
LINE
  5
23B
330
1F
100
AcDbEntity
  8
0
100
AcDbLine
 10
39.46233089488899
 20
-9.17787950980076
 30
0.0
 11
39.31462151757066
 21
-9.114156309488466
 31
0.0
  0
LINE
  5
23C
330
1F
100
AcDbEntity
  8
0
100
AcDbLine
 10
40.45987058311186
 20
-10.88059320196961
 30
0.0
 11
40.1042872695382
 21
-16.96756012778277
 31
0.0
  0
LINE
  5
23D
330
1F
100
AcDbEntity
  8
0
100
AcDbLine
 10
44.14685559480221
 20
7.847360297601298
 30
0.0
 11
44.16949174558457
 21
7.835065495927489
 31
0.0
  0
LINE
  5
23E
330
1F
100
AcDbEntity
  8
0
100
AcDbLine
 10
44.16949174558457
 20
7.835065495927489
 30
0.0
 11
44.19177429275484
 21
7.822209200805117
 31
0.0
  0
LINE
  5
23F
330
1F
100
AcDbEntity
  8
0
100
AcDbLine
 10
39.8627072088325
 20
-9.444970931666031
 30
0.0
 11
39.73750002697233
 21
-9.34396662704603
 31
0.0
  0
LINE
  5
240
330
1F
100
AcDbEntity
  8
0
100
AcDbLine
 10
39.31462151757066
 20
-9.114156309488466
 30
0.0
 11
39.16175712612902
 21
-9.064044595811302
 31
0.0
  0
LINE
  5
241
330
1F
100
AcDbEntity
  8
0
100
AcDbLine
 10
44.21368267890878
 20
7.808806695681338
 30
0.0
 11
44.23519722439404
 21
7.7948742460084
 31
0.0
  0
LINE
  5
242
330
1F
100
AcDbEntity
  8
0
100
AcDbLine
 10
44.00485832784474
 20
7.908619240333011
 30
0.0
 11
44.02914357477692
 21
7.899952650365208
 31
0.0
  0
LINE
  5
243
330
1F
100
AcDbEntity
  8
0
100
AcDbLine
 10
40.46197738073017
 20
-10.71973838151651
 30
0.0
 11
40.44953674905968
 21
-10.55935152885927
 31
0.0
  0
LINE
  5
244
330
1F
100
AcDbEntity
  8
0
100
AcDbLine
 10
44.2769707997208
 20
7.765489105931834
 30
0.0
 11
44.29719534457254
 21
7.750073275313889
 31
0.0
  0
LINE
  5
245
330
1F
100
AcDbEntity
  8
0
100
AcDbLine
 10
44.29719534457254
 20
7.750073275313889
 30
0.0
 11
44.32665996395698
 21
7.726100121621965
 31
0.0
  0
LINE
  5
246
330
1F
100
AcDbEntity
  8
0
100
AcDbLine
 10
44.07704293027773
 20
7.880738827060646
 30
0.0
 11
44.10060872498922
 21
7.870209541554151
 31
0.0
  0
LINE
  5
247
330
1F
100
AcDbEntity
  8
0
100
AcDbLine
 10
43.90606010357705
 20
7.936867063667152
 30
0.0
 11
43.93095784854628
 21
7.93077681921365
 31
0.0
  0
LINE
  5
248
330
1F
100
AcDbEntity
  8
0
100
AcDbLine
 10
39.16175712612902
 20
-9.064044595811302
 30
0.0
 11
37.96541597568729
 21
-8.998904252595246
 31
0.0
  0
LINE
  5
249
330
1F
100
AcDbEntity
  8
0
100
AcDbLine
 10
40.45987058311186
 20
-10.88059320196961
 30
0.0
 11
40.46197738073017
 21
-10.71973838151651
 31
0.0
  0
LINE
  5
24A
330
1F
100
AcDbEntity
  8
0
100
AcDbLine
 10
39.97827267063658
 20
-9.556878628271557
 30
0.0
 11
39.8627072088325
 21
-9.444970931666031
 31
0.0
  0
LINE
  5
24B
330
1F
100
AcDbEntity
  8
0
100
AcDbLine
 10
40.32653815207371
 20
-10.09404474636661
 30
0.0
 11
40.25809878483794
 21
-9.948460531213353
 31
0.0
  0
LINE
  5
24C
330
1F
100
AcDbEntity
  8
0
100
AcDbLine
 10
40.38153881444192
 20
-10.24521894470464
 30
0.0
 11
40.32653815207371
 21
-10.09404474636661
 31
0.0
  0
LINE
  5
24D
330
1F
100
AcDbEntity
  8
0
100
AcDbLine
 10
40.25809878483794
 20
-9.948460531213353
 30
0.0
 11
40.17678096694316
 21
-9.809658071941362
 31
0.0
  0
LINE
  5
24E
330
1F
100
AcDbEntity
  8
0
100
AcDbLine
 10
39.6036760885144
 20
-9.25469254974039
 30
0.0
 11
39.46233089488899
 21
-9.17787950980076
 31
0.0
  0
LINE
  5
24F
330
1F
100
AcDbEntity
  8
0
100
AcDbLine
 10
35.87749234031288
 20
17.96224946431893
 30
0.0
 11
36.20453955901229
 21
17.75389738136148
 31
0.0
  0
LINE
  5
250
330
1F
100
AcDbEntity
  8
0
100
AcDbLine
 10
44.32665996395698
 20
7.726100121621965
 30
0.0
 11
44.35503558236027
 21
7.70116882084633
 31
0.0
  0
LINE
  5
251
330
1F
100
AcDbEntity
  8
0
100
AcDbLine
 10
40.17678096694316
 20
-9.809658071941362
 30
0.0
 11
40.08325037739104
 21
-9.678773624845906
 31
0.0
  0
LINE
  5
252
330
1F
100
AcDbEntity
  8
0
100
AcDbLine
 10
40.42265052884696
 20
-10.40074559314949
 30
0.0
 11
40.38153881444192
 21
-10.24521894470464
 31
0.0
  0
LINE
  5
253
330
1F
100
AcDbEntity
  8
0
100
AcDbLine
 10
40.44953674905968
 20
-10.55935152885927
 30
0.0
 11
40.42265052884696
 21
-10.40074559314949
 31
0.0
  0
LINE
  5
254
330
1F
100
AcDbEntity
  8
0
100
AcDbLine
 10
44.19177429275484
 20
7.822209200805117
 30
0.0
 11
44.21368267890878
 21
7.808806695681338
 31
0.0
  0
LINE
  5
255
330
1F
100
AcDbEntity
  8
0
100
AcDbLine
 10
40.08325037739104
 20
-9.678773624845906
 30
0.0
 11
39.97827267063658
 21
-9.556878628271557
 31
0.0
  0
LINE
  5
256
330
1F
100
AcDbEntity
  8
0
100
AcDbLine
 10
26.05369043983474
 20
18.48961819707535
 30
0.0
 11
25.80596166530961
 21
18.40552560951979
 31
0.0
  0
LINE
  5
257
330
1F
100
AcDbEntity
  8
0
100
AcDbLine
 10
14.89885138805723
 20
18.14447322507965
 30
0.0
 11
15.09554209241283
 21
17.97198010687028
 31
0.0
  0
LINE
  5
258
330
1F
100
AcDbEntity
  8
0
100
AcDbLine
 10
13.68132853003964
 20
18.55776654449727
 30
0.0
 11
14.19896662024471
 21
18.48961819707535
 31
0.0
  0
LINE
  5
259
330
1F
100
AcDbEntity
  8
0
100
AcDbLine
 10
14.68132853003977
 20
18.28981735206614
 30
0.0
 11
14.89885138805723
 21
18.14447322507965
 31
0.0
  0
LINE
  5
25A
330
1F
100
AcDbEntity
  8
0
100
AcDbLine
 10
15.6131801826179
 20
17.07540463470225
 30
0.0
 11
15.68132853003973
 21
16.55776654449728
 31
0.0
  0
LINE
  5
25B
330
1F
100
AcDbEntity
  8
0
100
AcDbLine
 10
24.57132853003976
 20
16.55776654449718
 30
0.0
 11
15.68132853003973
 21
16.55776654449728
 31
0.0
  0
LINE
  5
25C
330
1F
100
AcDbEntity
  8
0
100
AcDbLine
 10
14.44669539476988
 20
18.40552560951988
 30
0.0
 11
14.68132853003977
 21
18.28981735206614
 31
0.0
  0
LINE
  5
25D
330
1F
100
AcDbEntity
  8
0
100
AcDbLine
 10
15.52908759506224
 20
17.32313340922742
 30
0.0
 11
15.6131801826179
 21
17.07540463470225
 31
0.0
  0
LINE
  5
25E
330
1F
100
AcDbEntity
  8
0
100
AcDbLine
 10
26.57132853003985
 20
18.55776654449718
 30
0.0
 11
26.05369043983474
 21
18.48961819707535
 31
0.0
  0
LINE
  5
25F
330
1F
100
AcDbEntity
  8
0
100
AcDbLine
 10
25.35380567202222
 20
18.14447322507965
 30
0.0
 11
25.15711496766666
 21
17.97198010687038
 31
0.0
  0
LINE
  5
260
330
1F
100
AcDbEntity
  8
0
100
AcDbLine
 10
25.5713285300399
 20
18.28981735206632
 30
0.0
 11
25.35380567202222
 21
18.14447322507965
 31
0.0
  0
LINE
  5
261
330
1F
100
AcDbEntity
  8
0
100
AcDbLine
 10
24.72356946501725
 20
17.32313340922742
 30
0.0
 11
24.63947687746168
 21
17.07540463470243
 31
0.0
  0
LINE
  5
262
330
1F
100
AcDbEntity
  8
0
100
AcDbLine
 10
25.15711496766666
 20
17.97198010687038
 30
0.0
 11
24.9846218494573
 21
17.77528940251459
 31
0.0
  0
LINE
  5
263
330
1F
100
AcDbEntity
  8
0
100
AcDbLine
 10
15.09554209241283
 20
17.97198010687028
 30
0.0
 11
15.26803521062228
 21
17.77528940251459
 31
0.0
  0
LINE
  5
264
330
1F
100
AcDbEntity
  8
0
100
AcDbLine
 10
25.80596166530961
 20
18.40552560951979
 30
0.0
 11
25.5713285300399
 21
18.28981735206632
 31
0.0
  0
LINE
  5
265
330
1F
100
AcDbEntity
  8
0
100
AcDbLine
 10
15.26803521062228
 20
17.77528940251459
 30
0.0
 11
15.4133793376086
 21
17.55776654449714
 31
0.0
  0
LINE
  5
266
330
1F
100
AcDbEntity
  8
0
100
AcDbLine
 10
24.9846218494573
 20
17.77528940251459
 30
0.0
 11
24.83927772247089
 21
17.55776654449741
 31
0.0
  0
LINE
  5
267
330
1F
100
AcDbEntity
  8
0
100
AcDbLine
 10
14.19896662024471
 20
18.48961819707535
 30
0.0
 11
14.44669539476988
 21
18.40552560951988
 31
0.0
  0
LINE
  5
268
330
1F
100
AcDbEntity
  8
0
100
AcDbLine
 10
15.4133793376086
 20
17.55776654449714
 30
0.0
 11
15.52908759506224
 21
17.32313340922742
 31
0.0
  0
LINE
  5
269
330
1F
100
AcDbEntity
  8
0
100
AcDbLine
 10
24.83927772247089
 20
17.55776654449741
 30
0.0
 11
24.72356946501725
 21
17.32313340922742
 31
0.0
  0
LINE
  5
26A
330
1F
100
AcDbEntity
  8
0
100
AcDbLine
 10
24.63947687746168
 20
17.07540463470243
 30
0.0
 11
24.57132853003976
 21
16.55776654449718
 31
0.0
  0
LINE
  5
26B
330
1F
100
AcDbEntity
  8
0
100
AcDbLine
 10
26.57132853003985
 20
18.55776654449718
 30
0.0
 11
33.65499261812546
 21
18.55776654449709
 31
0.0
  0
LINE
  5
26C
330
1F
100
AcDbEntity
  8
0
100
AcDbLine
 10
-33.6406528695267
 20
18.5577665444975
 30
0.0
 11
13.68132853003964
 21
18.55776654449727
 31
0.0
  0
LINE
  5
26D
330
1F
100
AcDbEntity
  8
0
100
AcDbLine
 10
-36.38501777906298
 20
3.557766544497571
 30
0.0
 11
36.38501777906335
 21
3.557766544497638
 31
0.0
  0
LINE
  5
26E
330
1F
100
AcDbEntity
  8
0
100
AcDbLine
 10
-14.45167192187652
 20
7.962539872217489
 30
0.0
 11
-43.68092345322998
 21
7.962539872217444
 31
0.0
  0
LINE
  5
26F
330
1F
100
AcDbEntity
  8
0
100
AcDbLine
 10
14.45167192187689
 20
7.962539872217489
 30
0.0
 11
43.68092345323025
 21
7.962539872217174
 31
0.0
  0
ENDSEC
  0
SECTION
  2
OBJECTS
  0
DICTIONARY
  5
C
330
0
100
AcDbDictionary
  3
ACAD_GROUP
350
D
  3
ACAD_LAYOUT
350
1A
  3
ACAD_MATERIAL
350
43
  3
ACAD_MLEADERSTYLE
350
292
  3
ACAD_MLINESTYLE
350
17
  3
ACAD_PLOTSETTINGS
350
19
  3
ACAD_SCALELIST
350
47
  3
ACAD_VISUALSTYLE
350
2A
  3
ACDBHEADERROUNDTRIPXREC
350
270
  3
ACDBVARIABLEDICTIONARY
350
290
  0
DICTIONARY
  5
297
330
8
100
AcDbDictionary
280
     1
  3
ACAD_XREC_ROUNDTRIP
360
298
  0
DICTIONARY
  5
D
102
{ACAD_REACTORS
330
C
102
}
330
C
100
AcDbDictionary
  0
DICTIONARY
  5
1A
102
{ACAD_REACTORS
330
C
102
}
330
C
100
AcDbDictionary
  0
DICTIONARY
  5
43
102
{ACAD_REACTORS
330
C
102
}
330
C
100
AcDbDictionary
  3
BYBLOCK
350
45
  3
BYLAYER
350
44
  3
GLOBAL
350
46
  0
DICTIONARY
  5
292
102
{ACAD_REACTORS
330
C
102
}
330
C
100
AcDbDictionary
  0
DICTIONARY
  5
17
102
{ACAD_REACTORS
330
C
102
}
330
C
100
AcDbDictionary
  3
STANDARD
350
18
  0
DICTIONARY
  5
19
102
{ACAD_REACTORS
330
C
102
}
330
C
100
AcDbDictionary
  0
DICTIONARY
  5
47
102
{ACAD_REACTORS
330
C
102
}
330
C
100
AcDbDictionary
  3
A0
350
48
  3
A1
350
49
  3
A2
350
4A
  3
A3
350
4B
  3
A4
350
4C
  3
A5
350
4D
  3
A6
350
4E
  3
A7
350
4F
  3
A8
350
50
  3
A9
350
51
  3
B0
350
52
  3
B1
350
53
  3
B2
350
54
  3
B3
350
55
  3
B4
350
56
  3
B5
350
57
  3
B6
350
58
  3
B7
350
59
  3
B8
350
5A
  3
B9
350
5B
  3
C0
350
5C
  3
C1
350
5D
  3
C2
350
5E
  3
C3
350
5F
  3
C4
350
60
  3
C5
350
61
  3
C6
350
62
  3
C7
350
63
  3
C8
350
64
  3
C9
350
65
  3
D0
350
66
  3
D1
350
67
  3
D2
350
68
  0
DICTIONARY
  5
2A
102
{ACAD_REACTORS
330
C
102
}
330
C
100
AcDbDictionary
  3
2DWIREFRAME
350
2F
  3
BASIC
350
32
  3
BRIGHTEN
350
36
  3
COLORCHANGE
350
3A
  3
CONCEPTUAL
350
34
  3
DIM
350
35
  3
EDGECOLOROFF
350
3D
  3
FACEPATTERN
350
39
  3
FLAT
350
2B
  3
FLATWITHEDGES
350
2C
  3
GOURAUD
350
2D
  3
GOURAUDWITHEDGES
350
2E
  3
HIDDEN
350
31
  3
JITTEROFF
350
3B
  3
LINEPATTERN
350
38
  3
OVERHANGOFF
350
3C
  3
REALISTIC
350
33
  3
SHADED
350
42
  3
SHADED_WITH_EDGES
350
41
  3
SHADES_OF_GRAY
350
3E
  3
SKETCHY
350
3F
  3
THICKEN
350
37
  3
WIREFRAME
350
30
  3
X-RAY
350
40
  0
DICTIONARY
  5
270
102
{ACAD_REACTORS
330
C
102
}
330
C
100
AcDbDictionary
  3
CEPSNTYPE
350
279
  3
DIMSTYLEDATA
350
28F
  3
FINGERPRINTGUID
350
27A
  3
HYPERLINKBASE
350
273
  3
INSUNITS
350
278
  3
LAYOUTDICT
350
275
  3
LWETCUNION
350
277
  3
PLOTSETDICT
350
276
  3
PSVPSCALE
350
27C
  3
PUCSBASE
350
27F
  3
PUCSORGBACK
350
285
  3
PUCSORGBOTTOM
350
281
  3
PUCSORGFRONT
350
284
  3
PUCSORGLEFT
350
282
  3
PUCSORGRIGHT
350
283
  3
PUCSORGTOP
350
280
  3
PUCSORTHOREF
350
27D
  3
PUCSORTHOVIEW
350
27E
  3
STYLESHEET
350
274
  3
TSTACKALIGN
350
271
  3
TSTACKSIZE
350
272
  3
UCSBASE
350
288
  3
UCSORGBACK
350
28E
  3
UCSORGBOTTOM
350
28A
  3
UCSORGFRONT
350
28D
  3
UCSORGLEFT
350
28B
  3
UCSORGRIGHT
350
28C
  3
UCSORGTOP
350
289
  3
UCSORTHOREF
350
286
  3
UCSORTHOVIEW
350
287
  3
VERSIONGUID
350
27B
  0
DICTIONARY
  5
290
102
{ACAD_REACTORS
330
C
102
}
330
C
100
AcDbDictionary
  3
CANNOSCALE
350
299
  3
DIMASSOC
350
295
  3
HIDETEXT
350
296
  3
MSLTSCALE
350
29A
  0
XRECORD
  5
298
102
{ACAD_REACTORS
330
297
102
}
330
297
100
AcDbXrecord
102
VTR_0.000_0.000_1.000_1.000_GRIDDISPLAY
 70
     3
102
VTR_0.000_0.000_1.000_1.000_GRIDMAJOR
 70
     5
102
VTR_0.000_0.000_1.000_1.000_DEFAULTLIGHTING
280
     1
102
VTR_0.000_0.000_1.000_1.000_DEFAULTLIGHTINGTYPE
 70
     1
102
VTR_0.000_0.000_1.000_1.000_BRIGHTNESS
141
0.0
102
VTR_0.000_0.000_1.000_1.000_CONTRAST
142
0.0
  0
MATERIAL
  5
45
102
{ACAD_REACTORS
330
43
102
}
102
{ACAD_XDICTIONARY
360
29D
102
}
330
43
100
AcDbMaterial
  1
BYBLOCK
  0
MATERIAL
  5
44
102
{ACAD_REACTORS
330
43
102
}
102
{ACAD_XDICTIONARY
360
29B
102
}
330
43
100
AcDbMaterial
  1
BYLAYER
  0
MATERIAL
  5
46
102
{ACAD_REACTORS
330
43
102
}
102
{ACAD_XDICTIONARY
360
29F
102
}
330
43
100
AcDbMaterial
  1
GLOBAL
  0
MLINESTYLE
  5
18
102
{ACAD_REACTORS
330
17
102
}
330
17
100
AcDbMlineStyle
  2
Standard
 70
     0
  3

 62
   256
 51
90.0
 52
90.0
 71
     2
 49
0.5
 62
   256
  6
BYLAYER
 49
-0.5
 62
   256
  6
BYLAYER
  0
ACAD_PROXY_OBJECT
  5
48
102
{ACAD_REACTORS
330
47
102
}
330
47
100
AcDbProxyObject
 90
      499
 91
      503
 93
       41
310
903313A31580
  0
ACAD_PROXY_OBJECT
  5
49
102
{ACAD_REACTORS
330
47
102
}
330
47
100
AcDbProxyObject
 90
      499
 91
      503
 93
      105
310
903313A324000000000000004000
  0
ACAD_PROXY_OBJECT
  5
4A
102
{ACAD_REACTORS
330
47
102
}
330
47
100
AcDbProxyObject
 90
      499
 91
      503
 93
      105
310
903313A344000000000000104000
  0
ACAD_PROXY_OBJECT
  5
4B
102
{ACAD_REACTORS
330
47
102
}
330
47
100
AcDbProxyObject
 90
      499
 91
      503
 93
      105
310
903313A354000000000000144000
  0
ACAD_PROXY_OBJECT
  5
4C
102
{ACAD_REACTORS
330
47
102
}
330
47
100
AcDbProxyObject
 90
      499
 91
      503
 93
      105
310
903313A384000000000000204000
  0
ACAD_PROXY_OBJECT
  5
4D
102
{ACAD_REACTORS
330
47
102
}
330
47
100
AcDbProxyObject
 90
      499
 91
      503
 93
      113
310
904313A31304000000000000244000
  0
ACAD_PROXY_OBJECT
  5
4E
102
{ACAD_REACTORS
330
47
102
}
330
47
100
AcDbProxyObject
 90
      499
 91
      503
 93
      113
310
904313A31364000000000000304000
  0
ACAD_PROXY_OBJECT
  5
4F
102
{ACAD_REACTORS
330
47
102
}
330
47
100
AcDbProxyObject
 90
      499
 91
      503
 93
      113
310
904313A32304000000000000344000
  0
ACAD_PROXY_OBJECT
  5
50
102
{ACAD_REACTORS
330
47
102
}
330
47
100
AcDbProxyObject
 90
      499
 91
      503
 93
      113
310
904313A333040000000000003E4000
  0
ACAD_PROXY_OBJECT
  5
51
102
{ACAD_REACTORS
330
47
102
}
330
47
100
AcDbProxyObject
 90
      499
 91
      503
 93
      113
310
904313A34304000000000000444000
  0
ACAD_PROXY_OBJECT
  5
52
102
{ACAD_REACTORS
330
47
102
}
330
47
100
AcDbProxyObject
 90
      499
 91
      503
 93
      113
310
904313A35304000000000000494000
  0
ACAD_PROXY_OBJECT
  5
53
102
{ACAD_REACTORS
330
47
102
}
330
47
100
AcDbProxyObject
 90
      499
 91
      503
 93
      121
310
905313A3130304000000000000594000
  0
ACAD_PROXY_OBJECT
  5
54
102
{ACAD_REACTORS
330
47
102
}
330
47
100
AcDbProxyObject
 90
      499
 91
      503
 93
      105
310
903323A310000000000000010100
  0
ACAD_PROXY_OBJECT
  5
55
102
{ACAD_REACTORS
330
47
102
}
330
47
100
AcDbProxyObject
 90
      499
 91
      503
 93
      105
310
903343A310000000000000410100
  0
ACAD_PROXY_OBJECT
  5
56
102
{ACAD_REACTORS
330
47
102
}
330
47
100
AcDbProxyObject
 90
      499
 91
      503
 93
      105
310
903383A310000000000000810100
  0
ACAD_PROXY_OBJECT
  5
57
102
{ACAD_REACTORS
330
47
102
}
330
47
100
AcDbProxyObject
 90
      499
 91
      503
 93
      113
310
90431303A310000000000000910100
  0
ACAD_PROXY_OBJECT
  5
58
102
{ACAD_REACTORS
330
47
102
}
330
47
100
AcDbProxyObject
 90
      499
 91
      503
 93
      121
310
9053130303A310000000000001650100
  0
ACAD_PROXY_OBJECT
  5
59
102
{ACAD_REACTORS
330
47
102
}
330
47
100
AcDbProxyObject
 90
      499
 91
      503
 93
      257
310
90E312F31323822203D2031272D3022000000000000200FC000000000000284000
  0
ACAD_PROXY_OBJECT
  5
5A
102
{ACAD_REACTORS
330
47
102
}
330
47
100
AcDbProxyObject
 90
      499
 91
      503
 93
      249
310
90D312F363422203D2031272D3022000000000000240FC000000000000284000
  0
ACAD_PROXY_OBJECT
  5
5B
102
{ACAD_REACTORS
330
47
102
}
330
47
100
AcDbProxyObject
 90
      499
 91
      503
 93
      249
310
90D312F333222203D2031272D3022000000000000280FC000000000000284000
  0
ACAD_PROXY_OBJECT
  5
5C
102
{ACAD_REACTORS
330
47
102
}
330
47
100
AcDbProxyObject
 90
      499
 91
      503
 93
      249
310
90D312F313622203D2031272D30220000000000002C0FC000000000000284000
  0
ACAD_PROXY_OBJECT
  5
5D
102
{ACAD_REACTORS
330
47
102
}
330
47
100
AcDbProxyObject
 90
      499
 91
      503
 93
      249
310
90D332F333222203D2031272D30220000000000002E0FC000000000000284000
  0
ACAD_PROXY_OBJECT
  5
5E
102
{ACAD_REACTORS
330
47
102
}
330
47
100
AcDbProxyObject
 90
      499
 91
      503
 93
      241
310
90C312F3822203D2031272D3022000000000000300FC000000000000284000
  0
ACAD_PROXY_OBJECT
  5
5F
102
{ACAD_REACTORS
330
47
102
}
330
47
100
AcDbProxyObject
 90
      499
 91
      503
 93
      249
310
90D332F313622203D2031272D3022000000000000320FC000000000000284000
  0
ACAD_PROXY_OBJECT
  5
60
102
{ACAD_REACTORS
330
47
102
}
330
47
100
AcDbProxyObject
 90
      499
 91
      503
 93
      241
310
90C312F3422203D2031272D3022000000000000340FC000000000000284000
  0
ACAD_PROXY_OBJECT
  5
61
102
{ACAD_REACTORS
330
47
102
}
330
47
100
AcDbProxyObject
 90
      499
 91
      503
 93
      241
310
90C332F3822203D2031272D3022000000000000360FC000000000000284000
  0
ACAD_PROXY_OBJECT
  5
62
102
{ACAD_REACTORS
330
47
102
}
330
47
100
AcDbProxyObject
 90
      499
 91
      503
 93
      241
310
90C312F3222203D2031272D3022000000000000380FC000000000000284000
  0
ACAD_PROXY_OBJECT
  5
63
102
{ACAD_REACTORS
330
47
102
}
330
47
100
AcDbProxyObject
 90
      499
 91
      503
 93
      241
310
90C332F3422203D2031272D30220000000000003A0FC000000000000284000
  0
ACAD_PROXY_OBJECT
  5
64
102
{ACAD_REACTORS
330
47
102
}
330
47
100
AcDbProxyObject
 90
      499
 91
      503
 93
      161
310
90A3122203D2031272D30224000000000000284000
  0
ACAD_PROXY_OBJECT
  5
65
102
{ACAD_REACTORS
330
47
102
}
330
47
100
AcDbProxyObject
 90
      499
 91
      503
 93
      257
310
90E312D312F3222203D2031272D30220000000000003E0FC000000000000284000
  0
ACAD_PROXY_OBJECT
  5
66
102
{ACAD_REACTORS
330
47
102
}
330
47
100
AcDbProxyObject
 90
      499
 91
      503
 93
      225
310
90A3322203D2031272D302200000000000002100000000000000284000
  0
ACAD_PROXY_OBJECT
  5
67
102
{ACAD_REACTORS
330
47
102
}
330
47
100
AcDbProxyObject
 90
      499
 91
      503
 93
      225
310
90A3622203D2031272D302200000000000006100000000000000284000
  0
ACAD_PROXY_OBJECT
  5
68
102
{ACAD_REACTORS
330
47
102
}
330
47
100
AcDbProxyObject
 90
      499
 91
      503
 93
      249
310
90D31272D3022203D2031272D30220000000000000A100000000000000284000
  0
ACAD_PROXY_OBJECT
  5
2F
102
{ACAD_REACTORS
330
2A
102
}
330
2A
100
AcDbProxyObject
 90
      499
 91
      501
 93
      436
310
42CC9915DA5C99599C985B595049028333333333333E33F0000000000000F90107901411070040501600405405064090741402480A0340
1001
ACAD
1000
AcDbSavedByObjectVersion
1070
     0
  0
ACAD_PROXY_OBJECT
  5
32
102
{ACAD_REACTORS
330
2A
102
}
330
2A
100
AcDbProxyObject
 90
      499
 91
      501
 93
      388
310
4150985CDA58D07406404333333333333E33F0000000000000F90107A41107004050150841D405064090741402480A0350
1001
ACAD
1000
AcDbSavedByObjectVersion
1070
     0
  0
ACAD_PROXY_OBJECT
  5
36
102
{ACAD_REACTORS
330
2A
102
}
330
2A
100
AcDbProxyObject
 90
      499
 91
      501
 93
      428
310
42109C9A59DA1D195B90C409028333333333333E33F0000000000000F9010790141107004050150841D405064090741402480A029950
1001
ACAD
1000
AcDbSavedByObjectVersion
1070
     0
  0
ACAD_PROXY_OBJECT
  5
3A
102
{ACAD_REACTORS
330
2A
102
}
330
2A
100
AcDbProxyObject
 90
      499
 91
      501
 93
      452
310
42D0DBDB1BDC90DA185B99D95104090240C333333333333E33F0000000000000F90108901411070040501508421405064090741402480A0350
1001
ACAD
1000
AcDbSavedByObjectVersion
1070
     0
  0
ACAD_PROXY_OBJECT
  5
34
102
{ACAD_REACTORS
330
2A
102
}
330
2A
100
AcDbProxyObject
 90
      499
 91
      501
 93
      500
310
4290DBDB98D95C1D1D585B10940D028333333333333E33F0000000000000F90107902409070040501000000000018199010841D405064090740C02480A0340
1001
ACAD
1000
AcDbSavedByObjectVersion
1070
     0
  0
ACAD_PROXY_OBJECT
  5
35
102
{ACAD_REACTORS
330
2A
102
}
330
2A
100
AcDbProxyObject
 90
      499
 91
      501
 93
      412
310
40D11A5B50B409028333333333333E33F0000000000000F9010790141107004050150841D405064090741402480A02677FFFFFD0
1001
ACAD
1000
AcDbSavedByObjectVersion
1070
     0
  0
ACAD_PROXY_OBJECT
  5
3D
102
{ACAD_REACTORS
330
2A
102
}
330
2A
100
AcDbProxyObject
 90
      499
 91
      501
 93
      452
310
43115919D950DBDB1BDC93D999916409028333333333333E33F0000000000000F9010790141107004050150841D405064090741402480A0350
1001
ACAD
1000
AcDbSavedByObjectVersion
1070
     0
  0
ACAD_PROXY_OBJECT
  5
39
102
{ACAD_REACTORS
330
2A
102
}
330
2A
100
AcDbProxyObject
 90
      499
 91
      501
 93
      444
310
42D19858D95C185D1D195C9B90F409028333333333333E33F0000000000000F9010790141107004050150841D405064090741402480A0350
1001
ACAD
1000
AcDbSavedByObjectVersion
1070
     0
  0
ACAD_PROXY_OBJECT
  5
2B
102
{ACAD_REACTORS
330
2A
102
}
330
2A
100
AcDbProxyObject
 90
      499
 91
      501
 93
      380
310
41119B185D240901404333333333333E33F0000000000000F9010740A907004050150841D405064090741402480A1B50
1001
ACAD
1000
AcDbSavedByObjectVersion
1070
     0
  0
ACAD_PROXY_OBJECT
  5
2C
102
{ACAD_REACTORS
330
2A
102
}
330
2A
100
AcDbProxyObject
 90
      499
 91
      501
 93
      468
310
43519B185D15DA5D1A115919D95CD0140901404333333333333E33F0000000000000F90107409019070040501600405405064090741402480A1B50
1001
ACAD
1000
AcDbSavedByObjectVersion
1070
     0
  0
ACAD_PROXY_OBJECT
  5
2D
102
{ACAD_REACTORS
330
2A
102
}
330
2A
100
AcDbProxyObject
 90
      499
 91
      501
 93
      404
310
41D1DBDD5C985D5910240902404333333333333E33F0000000000000F9010740A9070040501641D405064090741402480A1B50
1001
ACAD
1000
AcDbSavedByObjectVersion
1070
     0
  0
ACAD_PROXY_OBJECT
  5
2E
102
{ACAD_REACTORS
330
2A
102
}
330
2A
100
AcDbProxyObject
 90
      499
 91
      501
 93
      492
310
4411DBDD5C985D5915DA5D1A115919D95CD0340902404333333333333E33F0000000000000F90107409019070040501600405405064090741402480A1B50
1001
ACAD
1000
AcDbSavedByObjectVersion
1070
     0
  0
ACAD_PROXY_OBJECT
  5
31
102
{ACAD_REACTORS
330
2A
102
}
330
2A
100
AcDbProxyObject
 90
      499
 91
      501
 93
      476
310
41921A5919195B90640502408333333333333E33F0000000000000F901079024090700405020000000000001110200405405064090740C02480A0340
1001
ACAD
1000
AcDbSavedByObjectVersion
1070
     0
  0
ACAD_PROXY_OBJECT
  5
3B
102
{ACAD_REACTORS
330
2A
102
}
330
2A
100
AcDbProxyObject
 90
      499
 91
      501
 93
      428
310
42529A5D1D195C93D999914409028333333333333E33F0000000000000F9010790141107004050150A41D405064090741402480A0350
1001
ACAD
1000
AcDbSavedByObjectVersion
1070
     0
  0
ACAD_PROXY_OBJECT
  5
38
102
{ACAD_REACTORS
330
2A
102
}
330
2A
100
AcDbProxyObject
 90
      499
 91
      501
 93
      444
310
42D31A5B995C185D1D195C9B90E409028333333333333E33F0000000000000F9010790141107004050750841D405064090741402483A0350
1001
ACAD
1000
AcDbSavedByObjectVersion
1070
     0
  0
ACAD_PROXY_OBJECT
  5
3C
102
{ACAD_REACTORS
330
2A
102
}
330
2A
100
AcDbProxyObject
 90
      499
 91
      501
 93
      444
310
42D3DD995C9A185B99D3D999915409028333333333333E33F0000000000000F9010790141107004050150941D405064090741402480A0350
1001
ACAD
1000
AcDbSavedByObjectVersion
1070
     0
  0
ACAD_PROXY_OBJECT
  5
33
102
{ACAD_REACTORS
330
2A
102
}
330
2A
100
AcDbProxyObject
 90
      499
 91
      501
 93
      428
310
425499585B1A5CDD1A58D08409038333333333333E33F0000000000000F9010740A907004050150800405405064090740C02480A1B40
1001
ACAD
1000
AcDbSavedByObjectVersion
1070
     0
  0
ACAD_PROXY_OBJECT
  5
42
102
{ACAD_REACTORS
330
2A
102
}
330
2A
100
AcDbProxyObject
 90
      499
 91
      501
 93
      420
310
4194DA1859195911B40902404333333333333E33F0000000000000F9010740A41107004050150800405405064090840C02480A0B40
1001
ACAD
1000
AcDbSavedByObjectVersion
1070
     0
  0
ACAD_PROXY_OBJECT
  5
41
102
{ACAD_REACTORS
330
2A
102
}
330
2A
100
AcDbProxyObject
 90
      499
 91
      501
 93
      516
310
4454DA18591959081DDA5D1A08195919D95CD1A40902404333333333333E33F0000000000000F901074090142907004050250800405405064090740C02480A0B40
1001
ACAD
1000
AcDbSavedByObjectVersion
1070
     0
  0
ACAD_PROXY_OBJECT
  5
3E
102
{ACAD_REACTORS
330
2A
102
}
330
2A
100
AcDbProxyObject
 90
      499
 91
      501
 93
      532
310
4394DA1859195CC81BD98811DC985E5174090240C333333333333E33F0000000000000F901079024090741D01000000000000111010841D405064090740C02480A0340
1001
ACAD
1000
AcDbSavedByObjectVersion
1070
     0
  0
ACAD_PROXY_OBJECT
  5
3F
102
{ACAD_REACTORS
330
2A
102
}
330
2A
100
AcDbProxyObject
 90
      499
 91
      501
 93
      476
310
41D4DAD95D18DA1E51840502408333333333333E33F0000000000000F901079024090741D01000000000000111010B41D405064090741802480A0340
1001
ACAD
1000
AcDbSavedByObjectVersion
1070
     0
  0
ACAD_PROXY_OBJECT
  5
37
102
{ACAD_REACTORS
330
2A
102
}
330
2A
100
AcDbProxyObject
 90
      499
 91
      501
 93
      412
310
41D51A1A58DAD95B90D409028333333333333E33F0000000000000F9010790141107004050150C41D405064090741402480A0350
1001
ACAD
1000
AcDbSavedByObjectVersion
1070
     0
  0
ACAD_PROXY_OBJECT
  5
30
102
{ACAD_REACTORS
330
2A
102
}
330
2A
100
AcDbProxyObject
 90
      499
 91
      501
 93
      420
310
4255DA5C99599C985B595059028333333333333E33F0000000000000F90107901411070040501600405405064090740C02480A0340
1001
ACAD
1000
AcDbSavedByObjectVersion
1070
     0
  0
ACAD_PROXY_OBJECT
  5
40
102
{ACAD_REACTORS
330
2A
102
}
330
2A
100
AcDbProxyObject
 90
      499
 91
      501
 93
      404
310
41560B54985E51940902404000000000000E03F0000000000000F9010740501907004050150841D405064090740C02480A1B40
1001
ACAD
1000
AcDbSavedByObjectVersion
1070
     0
  0
XRECORD
  5
279
102
{ACAD_REACTORS
330
270
102
}
330
270
100
AcDbXrecord
 90
        0
  0
XRECORD
  5
28F
102
{ACAD_REACTORS
330
270
102
}
330
270
100
AcDbXrecord
1000
DSTYLE
1002
{
1070
   171
 70
     2
1070
   143
 40
25.4
1070
   274
 70
     2
1070
    41
 40
0.18
1070
   141
 40
0.09
1070
   271
 70
     4
1070
    43
 40
0.38
1070
   278
 70
    46
1070
    44
 40
0.18
1070
    42
 40
0.0625
1070
   147
 40
0.09
1070
    77
 70
     0
1070
   272
 70
     4
1070
    73
 70
     1
1070
   172
 70
     0
1070
    74
 70
     1
1070
   283
 70
     1
1070
   340
340
11
1070
   140
 40
0.18
1070
   284
 70
     0
1070
    78
 70
     0
1002
}
  0
XRECORD
  5
27A
102
{ACAD_REACTORS
330
270
102
}
330
270
100
AcDbXrecord
  1
{836E7A88-7493-4E71-AF45-2A50C981AB22}
  0
XRECORD
  5
273
102
{ACAD_REACTORS
330
270
102
}
330
270
100
AcDbXrecord
  1

  0
XRECORD
  5
278
102
{ACAD_REACTORS
330
270
102
}
330
270
100
AcDbXrecord
 90
        4
  0
XRECORD
  5
275
102
{ACAD_REACTORS
330
270
102
}
330
270
100
AcDbXrecord
340
1A
  0
XRECORD
  5
277
102
{ACAD_REACTORS
330
270
102
}
330
270
100
AcDbXrecord
 90
    10781
  0
XRECORD
  5
276
102
{ACAD_REACTORS
330
270
102
}
330
270
100
AcDbXrecord
340
19
  0
XRECORD
  5
27C
102
{ACAD_REACTORS
330
270
102
}
330
270
100
AcDbXrecord
 40
0.0
  0
XRECORD
  5
27F
102
{ACAD_REACTORS
330
270
102
}
330
270
100
AcDbXrecord
340
0
  0
XRECORD
  5
285
102
{ACAD_REACTORS
330
270
102
}
330
270
100
AcDbXrecord
 10
0.0
 20
0.0
 30
0.0
  0
XRECORD
  5
281
102
{ACAD_REACTORS
330
270
102
}
330
270
100
AcDbXrecord
 10
0.0
 20
0.0
 30
0.0
  0
XRECORD
  5
284
102
{ACAD_REACTORS
330
270
102
}
330
270
100
AcDbXrecord
 10
0.0
 20
0.0
 30
0.0
  0
XRECORD
  5
282
102
{ACAD_REACTORS
330
270
102
}
330
270
100
AcDbXrecord
 10
0.0
 20
0.0
 30
0.0
  0
XRECORD
  5
283
102
{ACAD_REACTORS
330
270
102
}
330
270
100
AcDbXrecord
 10
0.0
 20
0.0
 30
0.0
  0
XRECORD
  5
280
102
{ACAD_REACTORS
330
270
102
}
330
270
100
AcDbXrecord
 10
0.0
 20
0.0
 30
0.0
  0
XRECORD
  5
27D
102
{ACAD_REACTORS
330
270
102
}
330
270
100
AcDbXrecord
340
0
  0
XRECORD
  5
27E
102
{ACAD_REACTORS
330
270
102
}
330
270
100
AcDbXrecord
 70
     0
  0
XRECORD
  5
274
102
{ACAD_REACTORS
330
270
102
}
330
270
100
AcDbXrecord
  1

  0
XRECORD
  5
271
102
{ACAD_REACTORS
330
270
102
}
330
270
100
AcDbXrecord
 90
        1
  0
XRECORD
  5
272
102
{ACAD_REACTORS
330
270
102
}
330
270
100
AcDbXrecord
 90
       70
  0
XRECORD
  5
288
102
{ACAD_REACTORS
330
270
102
}
330
270
100
AcDbXrecord
340
0
  0
XRECORD
  5
28E
102
{ACAD_REACTORS
330
270
102
}
330
270
100
AcDbXrecord
 10
0.0
 20
0.0
 30
0.0
  0
XRECORD
  5
28A
102
{ACAD_REACTORS
330
270
102
}
330
270
100
AcDbXrecord
 10
0.0
 20
0.0
 30
0.0
  0
XRECORD
  5
28D
102
{ACAD_REACTORS
330
270
102
}
330
270
100
AcDbXrecord
 10
0.0
 20
0.0
 30
0.0
  0
XRECORD
  5
28B
102
{ACAD_REACTORS
330
270
102
}
330
270
100
AcDbXrecord
 10
0.0
 20
0.0
 30
0.0
  0
XRECORD
  5
28C
102
{ACAD_REACTORS
330
270
102
}
330
270
100
AcDbXrecord
 10
0.0
 20
0.0
 30
0.0
  0
XRECORD
  5
289
102
{ACAD_REACTORS
330
270
102
}
330
270
100
AcDbXrecord
 10
0.0
 20
0.0
 30
0.0
  0
XRECORD
  5
286
102
{ACAD_REACTORS
330
270
102
}
330
270
100
AcDbXrecord
340
0
  0
XRECORD
  5
287
102
{ACAD_REACTORS
330
270
102
}
330
270
100
AcDbXrecord
 70
     0
  0
XRECORD
  5
27B
102
{ACAD_REACTORS
330
270
102
}
330
270
100
AcDbXrecord
  1
{FAEB1C32-E019-11D5-929B-00C0DF256EC4}
  0
DICTIONARYVAR
  5
299
102
{ACAD_REACTORS
330
290
102
}
330
290
100
DictionaryVariables
280
     0
  1
1:1
  0
DICTIONARYVAR
  5
295
102
{ACAD_REACTORS
330
290
102
}
330
290
100
DictionaryVariables
280
     0
  1
2
  0
DICTIONARYVAR
  5
296
102
{ACAD_REACTORS
330
290
102
}
330
290
100
DictionaryVariables
280
     0
  1
1
  0
DICTIONARYVAR
  5
29A
102
{ACAD_REACTORS
330
290
102
}
330
290
100
DictionaryVariables
280
     0
  1
1
  0
DICTIONARY
  5
29D
330
45
100
AcDbDictionary
280
     1
  3
ACAD_XREC_ROUNDTRIP
360
29E
  0
DICTIONARY
  5
29B
330
44
100
AcDbDictionary
280
     1
  3
ACAD_XREC_ROUNDTRIP
360
29C
  0
DICTIONARY
  5
29F
330
46
100
AcDbDictionary
280
     1
  3
ACAD_XREC_ROUNDTRIP
360
2A0
  0
XRECORD
  5
29E
102
{ACAD_REACTORS
330
29D
102
}
330
29D
100
AcDbXrecord
102
MATERIAL
148
0.0
149
0.0
149
0.0
 93
        0
 94
      127
282
     0
 72
     1
 77
     1
171
     1
175
     1
179
     1
273
     0
  0
XRECORD
  5
29C
102
{ACAD_REACTORS
330
29B
102
}
330
29B
100
AcDbXrecord
102
MATERIAL
148
0.0
149
0.0
149
0.0
 93
        0
 94
      127
282
     0
 72
     1
 77
     1
171
     1
175
     1
179
     1
273
     0
  0
XRECORD
  5
2A0
102
{ACAD_REACTORS
330
29F
102
}
330
29F
100
AcDbXrecord
102
MATERIAL
148
0.0
149
0.0
149
0.0
 93
        0
 94
      127
282
     0
 72
     1
 77
     1
171
     1
175
     1
179
     1
273
     0
  0
ENDSEC
  0
EOF
